<?xml version="1.0" encoding="utf-8"?>
<!-- Generator: Adobe Illustrator 25.2.0, SVG Export Plug-In . SVG Version: 6.00 Build 0)  -->
<svg version="1.1" id="Layer_1" xmlns="http://www.w3.org/2000/svg" xmlns:xlink="http://www.w3.org/1999/xlink" x="0px" y="0px"
	 viewBox="0 0 1920 1080" style="enable-background:new 0 0 1920 1080;" xml:space="preserve">
<style type="text/css">
	.st0{clip-path:url(#SVGID_2_);}
	.st1{fill:#A812FF;}
	.st2{fill:#B63AD6;}
	.st3{fill:#C461AD;}
	.st4{fill:#D38985;}
	.st5{fill:#E1B05C;}
	.st6{fill:#EFD733;}
	.st7{fill:#FDFF0A;}
</style>
<g>
	<defs>
		<rect id="SVGID_1_" x="0" y="0" width="1920" height="1080"/>
	</defs>
	<clipPath id="SVGID_2_">
		<use xlink:href="#SVGID_1_"  style="overflow:visible;"/>
	</clipPath>
	<g class="st0">
		<path class="st1" d="M345.57,712.63c248.57-157.59,588.82-266.14,949.89-328.54s743.2-80.63,1121.46-76.91
			c45.95,0.45,92.99,1.34,135.69,10.73c55.12,12.12,97.41,37.18,133.38,63.25c75.05,54.41,131.15,116.77,164.35,182.67
			c24.3,48.25,29.34,108.84-42.7,139.23c-86.32,36.41-225.7,4.27-311.2,41.27c-88.95,38.49-58.07,124.27-141.52,166.35
			c-67.09,33.83-181.1,25.01-246.77,59.69c-77.14,40.73-48.56,120.29-130.16,158.28c-68.15,31.72-180.64,17.99-247.67,50.43
			c-73.37,35.51-65.05,113.59-157.25,131.17c-43.08,8.21-92.37-1.61-135.35,6.77c-82.1,16-87.26,83.18-158.4,110.91
			c-84.53,32.94-200.67-7.3-303.17,0.36c-104.36,7.8-173.28,62.6-264.31,91.86c-144.74,46.53-341.45,20.87-460.21-44.36
			C104.18,1394.79,69,1272.61,88.41,1162.64c9.78-55.43,36.22-109.14,36.36-165.1c0.1-38.3,0.69-73.45,24.42-110.08
			C191.25,822.56,264.1,764.28,345.57,712.63z"/>
		<path class="st2" d="M195.43,561.39C432.71,409.58,757.5,305.02,1102.18,244.9s709.44-77.67,1070.53-74.09
			c43.86,0.44,88.77,1.29,129.52,10.34c52.62,11.68,92.99,35.81,127.32,60.93c71.64,52.41,125.2,112.48,156.89,175.97
			c23.2,46.48,28.01,104.85-40.76,134.12c-82.4,35.08-215.45,4.11-297.07,39.76c-84.91,37.08-55.43,119.72-135.09,160.26
			c-64.04,32.59-172.87,24.1-235.56,57.5c-73.64,39.23-46.36,115.88-124.25,152.47c-65.06,30.56-172.43,17.33-236.42,48.58
			c-70.04,34.21-62.1,109.42-150.11,126.36c-41.13,7.91-88.17-1.55-129.2,6.52c-78.37,15.41-83.29,80.13-151.21,106.84
			c-80.69,31.73-191.56-7.03-289.4,0.34c-99.62,7.51-165.41,60.3-252.3,88.49c-138.17,44.82-325.94,20.11-439.31-42.74
			c-140.74-78.02-174.33-195.72-155.8-301.65c9.34-53.4,34.58-105.14,34.71-159.04c0.09-36.89,0.66-70.75,23.32-106.04
			C48.12,667.3,117.66,611.15,195.43,561.39z"/>
		<path class="st3" d="M45.29,410.16c225.99-146.04,535.33-246.62,863.61-304.45S1584.58,31,1928.48,34.45
			c41.77,0.42,84.54,1.24,123.36,9.94c50.12,11.23,88.57,34.45,121.26,58.61c68.23,50.42,119.24,108.2,149.42,169.27
			c22.1,44.71,26.68,100.86-38.82,129.02c-78.48,33.74-205.2,3.96-282.94,38.24c-80.87,35.67-52.8,115.16-128.67,154.16
			c-60.99,31.35-164.65,23.18-224.35,55.31c-70.14,37.74-44.15,111.47-118.34,146.67c-61.96,29.4-164.23,16.67-225.17,46.73
			c-66.7,32.9-59.14,105.26-142.97,121.55c-39.17,7.61-83.98-1.49-123.06,6.27c-74.64,14.83-79.33,77.08-144.01,102.77
			c-76.85,30.52-182.44-6.76-275.63,0.33c-94.88,7.22-157.54,58.01-240.3,85.12c-131.6,43.12-310.43,19.34-418.41-41.11
			c-134.04-75.05-166.03-188.27-148.38-290.17c8.9-51.37,32.93-101.14,33.06-152.99c0.09-35.49,0.63-68.06,22.21-102
			C-95.02,512.03-28.78,458.02,45.29,410.16z"/>
		<path class="st4" d="M-104.86,258.93c214.7-140.26,508.59-236.86,820.46-292.4s641.93-71.76,968.66-68.45
			c39.69,0.4,80.32,1.19,117.2,9.55c47.61,10.79,84.14,33.09,115.21,56.29c64.82,48.42,113.28,103.92,141.96,162.58
			c20.99,42.94,25.34,96.87-36.88,123.91c-74.56,32.41-194.95,3.8-268.8,36.73c-76.83,34.26-50.16,110.6-122.24,148.06
			c-57.95,30.11-156.42,22.26-213.15,53.12c-66.63,36.25-41.95,107.06-112.43,140.87c-58.87,28.23-156.02,16.01-213.93,44.89
			c-63.37,31.6-56.19,101.09-135.83,116.74c-37.21,7.31-79.78-1.43-116.91,6.03c-70.92,14.24-75.37,74.03-136.82,98.71
			c-73.01,29.32-173.33-6.5-261.87,0.32c-90.14,6.94-149.67,55.71-228.29,81.75C86.48,1019.03-83.43,996.19-186,938.13
			c-127.35-72.08-157.74-180.82-140.97-278.69c8.45-49.33,31.29-97.13,31.41-146.94c0.08-34.09,0.6-65.37,21.1-97.97
			C-238.15,356.77-175.22,304.9-104.86,258.93z"/>
		<path class="st5" d="M-255,107.7C-51.59-26.78,226.85-119.41,522.33-172.66s608.18-68.8,917.72-65.63
			c37.6,0.39,76.1,1.15,111.04,9.16c45.11,10.34,79.72,31.72,109.15,53.97c61.42,46.43,107.33,99.64,134.5,155.88
			c19.89,41.17,24.01,92.88-34.94,118.81c-70.64,31.07-184.7,3.64-254.67,35.22c-72.79,32.85-47.52,106.05-115.81,141.96
			c-54.9,28.87-148.2,21.35-201.94,50.93c-63.13,34.76-39.74,102.65-106.52,135.06c-55.77,27.07-147.82,15.35-202.68,43.04
			c-60.04,30.3-53.24,96.93-128.68,111.93c-35.26,7.01-75.59-1.37-110.76,5.78c-67.19,13.65-71.4,70.98-129.63,94.64
			c-69.18,28.11-164.21-6.23-248.1,0.31c-85.4,6.65-141.8,53.42-216.29,78.39c-118.45,39.7-279.42,17.81-376.6-37.86
			c-120.65-69.11-149.44-173.37-133.56-267.21c8.01-47.3,29.64-93.13,29.76-140.88c0.08-32.68,0.57-62.68,19.99-93.93
			C-381.28,201.51-321.66,151.77-255,107.7z"/>
		<path class="st6" d="M-405.14-43.54c192.12-128.7,455.1-217.35,734.18-268.31s574.42-65.85,866.79-62.81
			c35.51,0.37,71.87,1.1,104.87,8.76c42.61,9.9,75.29,30.36,103.09,51.65c58.01,44.43,101.37,95.36,127.03,149.18
			c18.78,39.4,22.68,88.89-33,113.7c-66.72,29.74-174.45,3.49-240.53,33.7c-68.75,31.43-44.88,101.49-109.38,135.86
			c-51.85,27.63-139.97,20.43-190.73,48.74c-59.62,33.26-37.54,98.24-100.6,129.26c-52.67,25.91-139.62,14.69-191.43,41.19
			c-56.71,29-50.28,92.77-121.54,107.12c-33.3,6.71-71.39-1.31-104.61,5.53c-63.46,13.07-67.44,67.93-122.43,90.58
			c-65.34,26.9-155.1-5.96-234.33,0.29c-80.66,6.37-133.93,51.12-204.28,75.02c-111.87,38-263.91,17.05-355.7-36.23
			C-591.71,513.57-618.9,413.79-603.9,323.98c7.56-45.27,28-89.13,28.1-134.83c0.07-31.28,0.54-59.98,18.88-89.9
			C-524.42,46.24-468.11-1.35-405.14-43.54z"/>
		<path class="st7" d="M-555.28-194.77c180.83-122.92,428.36-207.59,691.04-256.26s540.67-62.89,815.85-59.99
			c33.43,0.35,67.65,1.05,98.71,8.37c40.1,9.45,70.87,29,97.03,49.33c54.6,42.44,95.41,91.08,119.57,142.48
			c17.68,37.63,21.35,84.9-31.06,108.6c-62.8,28.4-164.2,3.33-226.4,32.19c-64.71,30.02-42.25,96.93-102.96,129.76
			C857.7-13.9,774.76-20.77,726.98,6.27c-56.12,31.77-35.33,93.83-94.69,123.46c-49.58,24.74-131.41,14.03-180.18,39.34
			c-53.37,27.7-47.33,88.6-114.4,102.31c-31.34,6.41-67.2-1.25-98.47,5.28c-59.73,12.48-63.48,64.88-115.24,86.51
			c-61.5,25.69-145.99-5.69-220.56,0.28c-75.92,6.08-126.06,48.83-192.28,71.65c-105.3,36.29-248.4,16.28-334.8-34.6
			c-107.26-63.17-132.85-158.47-118.73-244.25c7.12-43.24,26.35-85.13,26.45-128.78c0.07-29.87,0.5-57.29,17.77-85.86
			C-667.55-109.02-614.55-154.48-555.28-194.77z"/>
	</g>
</g>
</svg>
