<?xml version="1.0" encoding="utf-8"?>
<!-- Generator: Adobe Illustrator 25.2.0, SVG Export Plug-In . SVG Version: 6.00 Build 0)  -->
<svg version="1.1" id="Layer_1" xmlns="http://www.w3.org/2000/svg" xmlns:xlink="http://www.w3.org/1999/xlink" x="0px" y="0px"
	 viewBox="0 0 1920 1080" style="enable-background:new 0 0 1920 1080;" xml:space="preserve">
<style type="text/css">
	.st0{display:none;}
	.st1{display:inline;}
	.st2{display:inline;clip-path:url(#SVGID_2_);}
	.st3{fill:#A812FF;}
	.st4{fill:#B63AD6;}
	.st5{fill:#C461AD;}
	.st6{fill:#D38985;}
	.st7{fill:#E1B05C;}
	.st8{fill:#EFD733;}
	.st9{fill:#FDFF0A;}
	.st10{display:inline;clip-path:url(#SVGID_4_);}
	.st11{fill:#4EE3FF;}
	.st12{fill:#57C7FB;}
	.st13{fill:#60AAF6;}
	.st14{fill:#698EF2;}
	.st15{fill:#7372ED;}
	.st16{fill:#7C55E9;}
	.st17{fill:#8539E4;}
	.st18{fill:#8E1CE0;}
	.st19{fill:#9700DB;}
	.st20{clip-path:url(#SVGID_6_);}
	.st21{fill:#0071BC;}
	.st22{fill:#2A899E;}
	.st23{fill:#54A081;}
	.st24{fill:#7FB863;}
	.st25{fill:#A9D045;}
	.st26{fill:#D3E728;}
</style>
<g class="st0">
	<defs>
		<rect id="SVGID_1_" x="0" y="0" width="1920" height="1080"/>
	</defs>
	<clipPath id="SVGID_2_" class="st1">
		<use xlink:href="#SVGID_1_"  style="overflow:visible;"/>
	</clipPath>
	<g class="st2">
		<path class="st3" d="M345.57,712.63c248.57-157.59,588.82-266.14,949.89-328.54s743.2-80.63,1121.46-76.91
			c45.95,0.45,92.99,1.34,135.69,10.73c55.12,12.12,97.41,37.18,133.38,63.25c75.05,54.41,131.15,116.77,164.35,182.67
			c24.3,48.25,29.34,108.84-42.7,139.23c-86.32,36.41-225.7,4.27-311.2,41.27c-88.95,38.49-58.07,124.27-141.52,166.35
			c-67.09,33.83-181.1,25.01-246.77,59.69c-77.14,40.73-48.56,120.29-130.16,158.28c-68.15,31.72-180.64,17.99-247.67,50.43
			c-73.37,35.51-65.05,113.59-157.25,131.17c-43.08,8.21-92.37-1.61-135.35,6.77c-82.1,16-87.26,83.18-158.4,110.91
			c-84.53,32.94-200.67-7.3-303.17,0.36c-104.36,7.8-173.28,62.6-264.31,91.86c-144.74,46.53-341.45,20.87-460.21-44.36
			C104.18,1394.79,69,1272.61,88.41,1162.64c9.78-55.43,36.22-109.14,36.36-165.1c0.1-38.3,0.69-73.45,24.42-110.08
			C191.25,822.56,264.1,764.28,345.57,712.63z"/>
		<path class="st4" d="M195.43,561.39C432.71,409.58,757.5,305.02,1102.18,244.9s709.44-77.67,1070.53-74.09
			c43.86,0.44,88.77,1.29,129.52,10.34c52.62,11.68,92.99,35.81,127.32,60.93c71.64,52.41,125.2,112.48,156.89,175.97
			c23.2,46.48,28.01,104.85-40.76,134.12c-82.4,35.08-215.45,4.11-297.07,39.76c-84.91,37.08-55.43,119.72-135.09,160.26
			c-64.04,32.59-172.87,24.1-235.56,57.5c-73.64,39.23-46.36,115.88-124.25,152.47c-65.06,30.56-172.43,17.33-236.42,48.58
			c-70.04,34.21-62.1,109.42-150.11,126.36c-41.13,7.91-88.17-1.55-129.2,6.52c-78.37,15.41-83.29,80.13-151.21,106.84
			c-80.69,31.73-191.56-7.03-289.4,0.34c-99.62,7.51-165.41,60.3-252.3,88.49c-138.17,44.82-325.94,20.11-439.31-42.74
			c-140.74-78.02-174.33-195.72-155.8-301.65c9.34-53.4,34.58-105.14,34.71-159.04c0.09-36.89,0.66-70.75,23.32-106.04
			C48.12,667.3,117.66,611.15,195.43,561.39z"/>
		<path class="st5" d="M45.29,410.16c225.99-146.04,535.33-246.62,863.61-304.45S1584.58,31,1928.48,34.45
			c41.77,0.42,84.54,1.24,123.36,9.94c50.12,11.23,88.57,34.45,121.26,58.61c68.23,50.42,119.24,108.2,149.42,169.27
			c22.1,44.71,26.68,100.86-38.82,129.02c-78.48,33.74-205.2,3.96-282.94,38.24c-80.87,35.67-52.8,115.16-128.67,154.16
			c-60.99,31.35-164.65,23.18-224.35,55.31c-70.14,37.74-44.15,111.47-118.34,146.67c-61.96,29.4-164.23,16.67-225.17,46.73
			c-66.7,32.9-59.14,105.26-142.97,121.55c-39.17,7.61-83.98-1.49-123.06,6.27c-74.64,14.83-79.33,77.08-144.01,102.77
			c-76.85,30.52-182.44-6.76-275.63,0.33c-94.88,7.22-157.54,58.01-240.3,85.12c-131.6,43.12-310.43,19.34-418.41-41.11
			c-134.04-75.05-166.03-188.27-148.38-290.17c8.9-51.37,32.93-101.14,33.06-152.99c0.09-35.49,0.63-68.06,22.21-102
			C-95.02,512.03-28.78,458.02,45.29,410.16z"/>
		<path class="st6" d="M-104.86,258.93c214.7-140.26,508.59-236.86,820.46-292.4s641.93-71.76,968.66-68.45
			c39.69,0.4,80.32,1.19,117.2,9.55c47.61,10.79,84.14,33.09,115.21,56.29c64.82,48.42,113.28,103.92,141.96,162.58
			c20.99,42.94,25.34,96.87-36.88,123.91c-74.56,32.41-194.95,3.8-268.8,36.73c-76.83,34.26-50.16,110.6-122.24,148.06
			c-57.95,30.11-156.42,22.26-213.15,53.12c-66.63,36.25-41.95,107.06-112.43,140.87c-58.87,28.23-156.02,16.01-213.93,44.89
			c-63.37,31.6-56.19,101.09-135.83,116.74c-37.21,7.31-79.78-1.43-116.91,6.03c-70.92,14.24-75.37,74.03-136.82,98.71
			c-73.01,29.32-173.33-6.5-261.87,0.32c-90.14,6.94-149.67,55.71-228.29,81.75C86.48,1019.03-83.43,996.19-186,938.13
			c-127.35-72.08-157.74-180.82-140.97-278.69c8.45-49.33,31.29-97.13,31.41-146.94c0.08-34.09,0.6-65.37,21.1-97.97
			C-238.15,356.77-175.22,304.9-104.86,258.93z"/>
		<path class="st7" d="M-255,107.7C-51.59-26.78,226.85-119.41,522.33-172.66s608.18-68.8,917.72-65.63
			c37.6,0.39,76.1,1.15,111.04,9.16c45.11,10.34,79.72,31.72,109.15,53.97c61.42,46.43,107.33,99.64,134.5,155.88
			c19.89,41.17,24.01,92.88-34.94,118.81c-70.64,31.07-184.7,3.64-254.67,35.22c-72.79,32.85-47.52,106.05-115.81,141.96
			c-54.9,28.87-148.2,21.35-201.94,50.93c-63.13,34.76-39.74,102.65-106.52,135.06c-55.77,27.07-147.82,15.35-202.68,43.04
			c-60.04,30.3-53.24,96.93-128.68,111.93c-35.26,7.01-75.59-1.37-110.76,5.78c-67.19,13.65-71.4,70.98-129.63,94.64
			c-69.18,28.11-164.21-6.23-248.1,0.31c-85.4,6.65-141.8,53.42-216.29,78.39c-118.45,39.7-279.42,17.81-376.6-37.86
			c-120.65-69.11-149.44-173.37-133.56-267.21c8.01-47.3,29.64-93.13,29.76-140.88c0.08-32.68,0.57-62.68,19.99-93.93
			C-381.28,201.51-321.66,151.77-255,107.7z"/>
		<path class="st8" d="M-405.14-43.54c192.12-128.7,455.1-217.35,734.18-268.31s574.42-65.85,866.79-62.81
			c35.51,0.37,71.87,1.1,104.87,8.76c42.61,9.9,75.29,30.36,103.09,51.65c58.01,44.43,101.37,95.36,127.03,149.18
			c18.78,39.4,22.68,88.89-33,113.7c-66.72,29.74-174.45,3.49-240.53,33.7c-68.75,31.43-44.88,101.49-109.38,135.86
			c-51.85,27.63-139.97,20.43-190.73,48.74c-59.62,33.26-37.54,98.24-100.6,129.26c-52.67,25.91-139.62,14.69-191.43,41.19
			c-56.71,29-50.28,92.77-121.54,107.12c-33.3,6.71-71.39-1.31-104.61,5.53c-63.46,13.07-67.44,67.93-122.43,90.58
			c-65.34,26.9-155.1-5.96-234.33,0.29c-80.66,6.37-133.93,51.12-204.28,75.02c-111.87,38-263.91,17.05-355.7-36.23
			C-591.71,513.57-618.9,413.79-603.9,323.98c7.56-45.27,28-89.13,28.1-134.83c0.07-31.28,0.54-59.98,18.88-89.9
			C-524.42,46.24-468.11-1.35-405.14-43.54z"/>
		<path class="st9" d="M-555.28-194.77c180.83-122.92,428.36-207.59,691.04-256.26s540.67-62.89,815.85-59.99
			c33.43,0.35,67.65,1.05,98.71,8.37c40.1,9.45,70.87,29,97.03,49.33c54.6,42.44,95.41,91.08,119.57,142.48
			c17.68,37.63,21.35,84.9-31.06,108.6c-62.8,28.4-164.2,3.33-226.4,32.19c-64.71,30.02-42.25,96.93-102.96,129.76
			C857.7-13.9,774.76-20.77,726.98,6.27c-56.12,31.77-35.33,93.83-94.69,123.46c-49.58,24.74-131.41,14.03-180.18,39.34
			c-53.37,27.7-47.33,88.6-114.4,102.31c-31.34,6.41-67.2-1.25-98.47,5.28c-59.73,12.48-63.48,64.88-115.24,86.51
			c-61.5,25.69-145.99-5.69-220.56,0.28c-75.92,6.08-126.06,48.83-192.28,71.65c-105.3,36.29-248.4,16.28-334.8-34.6
			c-107.26-63.17-132.85-158.47-118.73-244.25c7.12-43.24,26.35-85.13,26.45-128.78c0.07-29.87,0.5-57.29,17.77-85.86
			C-667.55-109.02-614.55-154.48-555.28-194.77z"/>
	</g>
</g>
<g class="st0">
	<defs>
		<rect id="SVGID_3_" width="1920" height="1080"/>
	</defs>
	<clipPath id="SVGID_4_" class="st1">
		<use xlink:href="#SVGID_3_"  style="overflow:visible;"/>
	</clipPath>
	<g class="st10">
		<path class="st11" d="M1141.5,19.52l4.95-4.08c105-86.46,392.92-51.17,389.34,47.72l-0.17,4.66
			c-2.7,74.55,174.77,121.42,314.56,83.08l8.75-2.4c185.44-50.87,396.21,45.55,285.02,130.38l-5.24,4
			c-83.82,63.95,18.64,145.13,181.61,143.9l10.2-0.08c216.19-1.64,293.34,130.07,104.32,178.1l-8.92,2.27
			c-142.49,36.21-142.49,129.95,0,166.16l8.92,2.27c189.01,48.03,111.86,179.74-104.32,178.1l-10.2-0.08
			c-162.98-1.23-265.44,79.95-181.61,143.9l5.24,4c111.19,84.83-99.58,181.25-285.02,130.38l-8.75-2.4
			c-139.79-38.35-317.26,8.53-314.56,83.08l0.17,4.66c3.58,98.9-284.34,134.19-389.34,47.72l-4.95-4.08
			c-79.15-65.18-284.07-65.18-363.23,0l-4.95,4.08c-105,86.46-392.92,51.17-389.34-47.72l0.17-4.66
			c2.7-74.55-174.77-121.42-314.56-83.08l-8.75,2.4c-185.44,50.86-396.21-45.55-285.02-130.38l5.24-4
			c83.82-63.95-18.64-145.13-181.61-143.9l-10.2,0.08c-216.19,1.64-293.34-130.07-104.32-178.1l8.92-2.27
			c142.49-36.21,142.49-129.95,0-166.16l-8.92-2.27c-189.01-48.03-111.86-179.74,104.32-178.1l10.2,0.08
			c162.98,1.23,265.44-79.95,181.61-143.9l-5.24-4c-111.19-84.83,99.58-181.25,285.02-130.38l8.75,2.4
			c139.79,38.35,317.26-8.53,314.56-83.08l-0.17-4.66c-3.58-98.9,284.34-134.19,389.34-47.72l4.95,4.08
			C857.43,84.71,1062.35,84.71,1141.5,19.52z"/>
		<path class="st12" d="M1129.01-55.44l4.54-3.74c96.35-79.34,360.55-46.96,357.27,43.79l-0.15,4.28
			c-2.47,68.41,160.37,111.42,288.65,76.24l8.03-2.2c170.16-46.68,363.57,41.8,261.54,119.64l-4.81,3.67
			c-76.92,58.68,17.1,133.18,166.65,132.04l9.36-0.07c198.38-1.5,269.17,119.36,95.73,163.43l-8.18,2.08
			c-130.75,33.23-130.75,119.25,0,152.47l8.18,2.08c173.44,44.07,102.65,164.93-95.73,163.43l-9.36-0.07
			c-149.55-1.13-243.57,73.36-166.65,132.04l4.81,3.67c102.03,77.84-91.38,166.32-261.54,119.64l-8.03-2.2
			c-128.28-35.19-291.13,7.82-288.65,76.24l0.15,4.28c3.28,90.75-260.92,123.13-357.27,43.79l-4.54-3.74
			c-72.63-59.81-260.67-59.81-333.31,0l-4.54,3.74c-96.35,79.34-360.55,46.96-357.27-43.79l0.15-4.28
			c2.47-68.41-160.37-111.42-288.65-76.24l-8.03,2.2c-170.16,46.68-363.57-41.8-261.54-119.64l4.81-3.67
			c76.92-58.68-17.1-133.18-166.65-132.04l-9.36,0.07c-198.38,1.5-269.17-119.36-95.73-163.43l8.18-2.08
			c130.75-33.23,130.75-119.25,0-152.47l-8.18-2.08c-173.44-44.07-102.65-164.93,95.73-163.43l9.36,0.07
			c149.55,1.13,243.57-73.36,166.65-132.04l-4.81-3.67C-226.2,104.72-32.79,16.25,137.37,62.92l8.03,2.2
			c128.28,35.19,291.13-7.82,288.65-76.24l-0.15-4.28c-3.28-90.75,260.92-123.13,357.27-43.79l4.54,3.74
			C868.34,4.37,1056.38,4.37,1129.01-55.44z"/>
		<path class="st13" d="M1116.52-130.41l4.14-3.41c87.7-72.22,328.18-42.74,325.2,39.86l-0.14,3.9
			c-2.25,62.27,145.98,101.42,262.74,69.39l7.31-2c154.89-42.49,330.93,38.05,238.06,108.9l-4.38,3.34
			c-70.01,53.41,15.57,121.22,151.69,120.19l8.52-0.06c180.57-1.37,245.01,108.64,87.14,148.76l-7.45,1.89
			c-119.02,30.24-119.02,108.54,0,138.78l7.45,1.89c157.87,40.12,93.44,150.13-87.14,148.76l-8.52-0.06
			c-136.13-1.03-221.71,66.78-151.69,120.19l4.38,3.34c92.87,70.85-83.17,151.39-238.06,108.9l-7.31-2
			c-116.76-32.03-264.99,7.12-262.74,69.39l0.14,3.9c2.99,82.6-237.5,112.08-325.2,39.86l-4.14-3.41
			c-66.11-54.44-237.27-54.44-303.39,0l-4.14,3.41c-87.7,72.22-328.18,42.74-325.2-39.86l0.14-3.9
			c2.25-62.27-145.98-101.42-262.74-69.39l-7.31,2c-154.89,42.49-330.93-38.05-238.06-108.9l4.38-3.34
			c70.01-53.41-15.57-121.22-151.69-120.19l-8.52,0.06c-180.57,1.37-245.01-108.64-87.14-148.76l7.45-1.89
			c119.02-30.24,119.02-108.54,0-138.78l-7.45-1.89C-425,318.34-360.56,208.33-179.99,209.7l8.52,0.06
			C-35.35,210.8,50.23,142.99-19.78,89.57l-4.38-3.34C-117.03,15.38,59.01-65.15,213.9-22.67l7.31,2
			c116.76,32.03,264.99-7.12,262.74-69.39l-0.14-3.9c-2.99-82.6,237.5-112.08,325.2-39.86l4.14,3.41
			C879.25-75.96,1050.41-75.96,1116.52-130.41z"/>
		<path class="st14" d="M1104.03-205.37l3.73-3.07c79.05-65.1,295.82-38.53,293.12,35.93l-0.13,3.51
			c-2.03,56.13,131.58,91.42,236.83,62.55l6.58-1.81c139.61-38.3,298.3,34.3,214.58,98.16l-3.95,3.01
			c-63.11,48.15,14.03,109.27,136.73,108.34l7.68-0.06c162.76-1.23,220.85,97.93,78.54,134.09l-6.71,1.71
			c-107.28,27.26-107.28,97.84,0,125.1l6.71,1.71c142.3,36.16,84.22,135.32-78.54,134.09l-7.68-0.06
			c-122.7-0.93-199.84,60.19-136.73,108.34l3.95,3.01c83.71,63.86-74.97,136.46-214.58,98.16l-6.58-1.81
			c-105.25-28.87-238.86,6.42-236.83,62.55l0.13,3.51c2.69,74.46-214.08,101.03-293.12,35.93l-3.73-3.07
			c-59.59-49.07-213.87-49.07-273.47,0l-3.73,3.07c-79.05,65.1-295.82,38.53-293.12-35.93l0.13-3.51
			c2.03-56.13-131.58-91.42-236.83-62.55l-6.58,1.81c-139.61,38.3-298.3-34.3-214.58-98.16l3.95-3.01
			C142.9,558.02,65.76,496.9-56.94,497.83l-7.68,0.06c-162.76,1.23-220.85-97.93-78.54-134.09l6.71-1.71
			c107.28-27.26,107.28-97.84,0-125.1l-6.71-1.71c-142.3-36.16-84.22-135.32,78.54-134.09l7.68,0.06
			C65.76,102.18,142.9,41.06,79.79-7.09l-3.95-3.01c-83.71-63.86,74.97-136.46,214.58-98.16l6.58,1.81
			c105.25,28.87,238.86-6.42,236.83-62.55l-0.13-3.51c-2.69-74.46,214.08-101.03,293.12-35.93l3.73,3.07
			C890.16-156.3,1044.44-156.3,1104.03-205.37z"/>
		<path class="st15" d="M1091.54-280.34l3.32-2.73c70.4-57.97,263.45-34.31,261.05,32l-0.11,3.13
			c-1.81,49.99,117.18,81.42,210.92,55.71l5.86-1.61c124.34-34.11,265.66,30.54,191.1,87.42l-3.52,2.68
			c-56.2,42.88,12.5,97.31,121.77,96.48l6.84-0.05c144.96-1.1,196.68,87.21,69.95,119.42l-5.98,1.52
			c-95.54,24.28-95.54,87.13,0,111.41l5.98,1.52c126.73,32.2,75.01,120.52-69.95,119.42l-6.84-0.05
			c-109.28-0.83-177.98,53.61-121.77,96.48l3.52,2.68c74.56,56.88-66.77,121.53-191.1,87.42l-5.86-1.61
			c-93.73-25.71-212.73,5.72-210.92,55.71l0.11,3.13c2.4,66.31-190.65,89.97-261.05,32l-3.32-2.73
			c-53.07-43.71-190.47-43.71-243.55,0l-3.32,2.73c-70.4,57.97-263.45,34.31-261.05-32l0.11-3.13
			c1.81-49.99-117.18-81.42-210.92-55.71l-5.86,1.61c-124.34,34.11-265.66-30.54-191.1-87.42l3.52-2.68
			c56.2-42.88-12.5-97.31-121.77-96.48l-6.84,0.05c-144.96,1.1-196.68-87.21-69.95-119.42l5.98-1.52
			c95.54-24.28,95.54-87.13,0-111.41l-5.98-1.52C-145.93,79.9-94.2-8.41,50.75-7.31l6.84,0.05
			c109.28,0.83,177.98-53.61,121.77-96.48l-3.52-2.68c-74.56-56.88,66.77-121.53,191.1-87.42l5.86,1.61
			c93.73,25.71,212.73-5.72,210.92-55.71l-0.11-3.13c-2.4-66.31,190.65-89.97,261.05-32l3.32,2.73
			C901.07-236.63,1038.47-236.63,1091.54-280.34z"/>
		<path class="st16" d="M1079.05-355.3l2.91-2.4c61.75-50.85,231.09-30.1,228.98,28.07l-0.1,2.74
			c-1.59,43.85,102.79,71.41,185.01,48.86l5.14-1.41c109.06-29.92,233.02,26.79,167.63,76.68l-3.08,2.35
			c-49.3,37.61,10.96,85.36,106.81,84.63l6-0.05c127.15-0.96,172.52,76.5,61.36,104.75l-5.24,1.33c-83.8,21.3-83.8,76.43,0,97.72
			l5.24,1.33c111.16,28.25,65.79,105.71-61.36,104.75l-6-0.05c-95.85-0.73-156.11,47.02-106.81,84.63l3.08,2.35
			c65.4,49.89-58.57,106.6-167.63,76.68l-5.14-1.41c-82.22-22.55-186.59,5.01-185.01,48.86l0.1,2.74
			c2.1,58.16-167.23,78.92-228.98,28.07l-2.91-2.4c-46.55-38.34-167.07-38.34-213.63,0l-2.91,2.4
			c-61.75,50.85-231.09,30.1-228.98-28.07l0.1-2.74c1.59-43.85-102.79-71.41-185.01-48.86l-5.14,1.41
			C334.42,387.6,210.46,330.89,275.85,281l3.08-2.35c49.3-37.61-10.96-85.36-106.81-84.63l-6,0.05
			c-127.15,0.96-172.52-76.5-61.36-104.75l5.24-1.33c83.8-21.3,83.8-76.43,0-97.72l-5.24-1.33
			C-6.39-39.32,38.98-116.78,166.13-115.82l6,0.05c95.85,0.73,156.11-47.02,106.81-84.63l-3.08-2.35
			c-65.4-49.89,58.57-106.6,167.63-76.68l5.14,1.41c82.22,22.55,186.59-5.01,185.01-48.86l-0.1-2.74
			c-2.1-58.16,167.23-78.92,228.98-28.07l2.91,2.4C911.98-316.97,1032.5-316.97,1079.05-355.3z"/>
		<path class="st17" d="M1066.56-430.27l2.5-2.06c53.1-43.73,198.72-25.88,196.91,24.14l-0.09,2.36
			c-1.36,37.71,88.39,61.41,159.09,42.02l4.42-1.21c93.79-25.73,200.39,23.04,144.15,65.94l-2.65,2.02
			c-42.39,32.34,9.43,73.4,91.85,72.78l5.16-0.04c109.34-0.83,148.36,65.79,52.76,90.08l-4.51,1.15
			c-72.07,18.31-72.07,65.72,0,84.04l4.51,1.15c95.59,24.29,56.58,90.91-52.76,90.08l-5.16-0.04
			c-82.43-0.62-134.25,40.43-91.85,72.78l2.65,2.02c56.24,42.9-50.36,91.67-144.15,65.94l-4.42-1.21
			c-70.7-19.39-160.46,4.31-159.09,42.02l0.09,2.36c1.81,50.02-143.81,67.87-196.91,24.14l-2.5-2.06
			c-40.03-32.97-143.67-32.97-183.71,0l-2.5,2.06c-53.1,43.73-198.72,25.88-196.91-24.14l0.09-2.36
			c1.36-37.71-88.39-61.41-159.09-42.02l-4.42,1.21c-93.79,25.73-200.39-23.04-144.15-65.94l2.65-2.02
			c42.39-32.34-9.43-73.4-91.85-72.78l-5.16,0.04c-109.34,0.83-148.36-65.79-52.76-90.08l4.51-1.15c72.07-18.31,72.07-65.72,0-84.04
			l-4.51-1.15c-95.59-24.29-56.58-90.91,52.76-90.08l5.16,0.04c82.43,0.62,134.25-40.43,91.85-72.78l-2.65-2.02
			c-56.24-42.9,50.36-91.67,144.15-65.94l4.42,1.21c70.7,19.39,160.46-4.31,159.09-42.02l-0.09-2.36
			c-1.81-50.02,143.81-67.87,196.91-24.14l2.5,2.06C922.89-397.3,1026.53-397.3,1066.56-430.27z"/>
		<path class="st18" d="M1054.07-505.23l2.1-1.73c44.45-36.61,166.35-21.67,164.84,20.21l-0.07,1.97
			c-1.14,31.57,74,51.41,133.18,35.17l3.7-1.02c78.51-21.54,167.75,19.29,120.67,55.2l-2.22,1.69
			c-35.49,27.07,7.89,61.45,76.89,60.92l4.32-0.03c91.53-0.69,124.19,55.07,44.17,75.41l-3.77,0.96
			c-60.33,15.33-60.33,55.02,0,70.35l3.77,0.96c80.03,20.34,47.36,76.1-44.17,75.41l-4.32-0.03c-69-0.52-112.38,33.85-76.89,60.92
			l2.22,1.69c47.08,35.91-42.16,76.74-120.67,55.2l-3.7-1.02c-59.19-16.23-134.32,3.61-133.18,35.17l0.07,1.97
			c1.51,41.87-120.39,56.81-164.84,20.21l-2.1-1.73c-33.51-27.6-120.27-27.6-153.78,0l-2.1,1.73
			c-44.45,36.61-166.35,21.67-164.84-20.21l0.07-1.97c1.14-31.56-74-51.41-133.18-35.17l-3.7,1.02
			c-78.51,21.54-167.75-19.29-120.67-55.2l2.22-1.69c35.49-27.07-7.89-61.45-76.89-60.92l-4.32,0.03
			c-91.53,0.69-124.19-55.07-44.17-75.41l3.77-0.96c60.33-15.33,60.33-55.02,0-70.35l-3.77-0.96
			c-80.03-20.34-47.36-76.1,44.17-75.41l4.32,0.03c69,0.52,112.38-33.85,76.89-60.92l-2.22-1.69
			c-47.08-35.91,42.16-76.74,120.67-55.2l3.7,1.02c59.19,16.23,134.32-3.61,133.18-35.17l-0.07-1.97
			c-1.51-41.87,120.39-56.81,164.84-20.21l2.1,1.73C933.8-477.64,1020.56-477.64,1054.07-505.23z"/>
		<path class="st19" d="M1041.58-580.2l1.69-1.39c35.8-29.49,133.99-17.45,132.77,16.27l-0.06,1.59
			c-0.92,25.42,59.6,41.41,107.27,28.33l2.98-0.82c63.24-17.35,135.11,15.53,97.19,44.46l-1.79,1.36
			c-28.58,21.81,6.36,49.49,61.93,49.07l3.48-0.03c73.72-0.56,100.03,44.36,35.58,60.74l-3.04,0.77
			c-48.59,12.35-48.59,44.31,0,56.66l3.04,0.77c64.46,16.38,38.15,61.29-35.58,60.74l-3.48-0.03
			c-55.58-0.42-90.52,27.26-61.93,49.07l1.79,1.36c37.92,28.93-33.96,61.81-97.19,44.46l-2.98-0.82
			c-47.67-13.08-108.19,2.91-107.27,28.33l0.06,1.59c1.22,33.72-96.96,45.76-132.77,16.27l-1.69-1.39
			c-26.99-22.23-96.87-22.23-123.86,0l-1.69,1.39c-35.8,29.49-133.99,17.45-132.77-16.27l0.06-1.59
			c0.92-25.42-59.6-41.41-107.27-28.33l-2.98,0.82c-63.24,17.35-135.11-15.53-97.19-44.46l1.79-1.36
			c28.58-21.81-6.36-49.49-61.93-49.07l-3.48,0.03c-73.72,0.56-100.03-44.36-35.58-60.74l3.04-0.77c48.59-12.35,48.59-44.31,0-56.66
			l-3.04-0.77c-64.46-16.38-38.15-61.29,35.58-60.74l3.48,0.03c55.58,0.42,90.52-27.26,61.93-49.07l-1.79-1.36
			c-37.92-28.93,33.96-61.81,97.19-44.46l2.98,0.82c47.67,13.08,108.19-2.91,107.27-28.33l-0.06-1.59
			c-1.22-33.72,96.96-45.76,132.77-16.27l1.69,1.39C944.7-557.97,1014.59-557.97,1041.58-580.2z"/>
	</g>
</g>
<g>
	<defs>
		<rect id="SVGID_5_" x="0" width="1920" height="1079"/>
	</defs>
	<clipPath id="SVGID_6_">
		<use xlink:href="#SVGID_5_"  style="overflow:visible;"/>
	</clipPath>
	<g class="st20">
		<path class="st21" d="M345.57,711.97c248.57-157.45,588.82-265.89,949.89-328.24s743.2-80.55,1121.46-76.84
			c45.95,0.45,92.99,1.34,135.69,10.72c55.12,12.11,97.41,37.14,133.38,63.19c75.05,54.36,131.15,116.66,164.35,182.5
			c24.3,48.2,29.34,108.74-42.7,139.1c-86.32,36.38-225.7,4.27-311.2,41.23c-88.95,38.45-58.07,124.16-141.52,166.2
			c-67.09,33.8-181.1,24.99-246.77,59.63c-77.14,40.69-48.56,120.18-130.16,158.13c-68.15,31.69-180.64,17.97-247.67,50.39
			c-73.37,35.47-65.05,113.48-157.25,131.04c-43.08,8.21-92.37-1.6-135.35,6.76c-82.1,15.98-87.26,83.11-158.4,110.8
			c-84.53,32.91-200.67-7.29-303.17,0.36c-104.36,7.79-173.28,62.54-264.31,91.77c-144.74,46.49-341.45,20.85-460.21-44.32
			C104.18,1393.49,69,1271.43,88.41,1161.56c9.78-55.38,36.22-109.04,36.36-164.94c0.1-38.26,0.69-73.38,24.42-109.97
			C191.25,821.8,264.1,763.57,345.57,711.97z"/>
		<path class="st22" d="M195.43,560.87c237.28-151.67,562.07-256.14,906.75-316.2s709.44-77.6,1070.53-74.02
			c43.86,0.44,88.77,1.29,129.52,10.33c52.62,11.67,92.99,35.78,127.32,60.87c71.64,52.36,125.2,112.38,156.89,175.81
			c23.2,46.43,28.01,104.75-40.76,134c-82.4,35.05-215.45,4.11-297.07,39.72c-84.91,37.04-55.43,119.61-135.09,160.11
			c-64.04,32.56-172.87,24.08-235.56,57.44c-73.64,39.2-46.36,115.77-124.25,152.33c-65.06,30.53-172.43,17.31-236.42,48.54
			c-70.04,34.17-62.1,109.32-150.11,126.24c-41.13,7.91-88.17-1.55-129.2,6.52c-78.37,15.4-83.29,80.06-151.21,106.74
			c-80.69,31.7-191.56-7.03-289.4,0.34c-99.62,7.5-165.41,60.25-252.3,88.41c-138.17,44.78-325.94,20.09-439.31-42.7
			c-140.74-77.95-174.33-195.53-155.8-301.37c9.34-53.35,34.58-105.04,34.71-158.9c0.09-36.86,0.66-70.69,23.32-105.94
			C48.12,666.68,117.66,610.59,195.43,560.87z"/>
		<path class="st23" d="M45.29,409.78c225.99-145.9,535.33-246.39,863.61-304.17s675.69-74.65,1019.59-71.2
			c41.77,0.42,84.54,1.24,123.36,9.93c50.12,11.22,88.57,34.42,121.26,58.56c68.23,50.37,119.24,108.1,149.42,169.12
			c22.1,44.67,26.68,100.76-38.82,128.9c-78.48,33.71-205.2,3.95-282.94,38.21c-80.87,35.63-52.8,115.05-128.67,154.01
			c-60.99,31.32-164.65,23.16-224.35,55.26c-70.14,37.71-44.15,111.37-118.34,146.53c-61.96,29.37-164.23,16.66-225.17,46.69
			c-66.7,32.87-59.14,105.16-142.97,121.44c-39.17,7.6-83.98-1.49-123.06,6.27c-74.64,14.81-79.33,77.01-144.01,102.68
			c-76.85,30.49-182.44-6.76-275.63,0.33c-94.88,7.22-157.54,57.95-240.3,85.04c-131.6,43.08-310.43,19.32-418.41-41.07
			c-134.04-74.98-166.03-188.09-148.38-289.9c8.9-51.32,32.93-101.04,33.06-152.85c0.09-35.46,0.63-68,22.21-101.91
			C-95.02,511.56-28.78,457.6,45.29,409.78z"/>
		<path class="st24" d="M-104.86,258.69C109.84,118.56,403.73,22.05,715.61-33.44s641.93-71.69,968.66-68.38
			c39.69,0.4,80.32,1.19,117.2,9.54c47.61,10.78,84.14,33.06,115.21,56.24c64.82,48.38,113.28,103.83,141.96,162.43
			c20.99,42.9,25.34,96.78-36.88,123.8c-74.56,32.38-194.95,3.8-268.8,36.7c-76.83,34.22-50.16,110.5-122.24,147.92
			c-57.95,30.08-156.42,22.24-213.15,53.07c-66.63,36.21-41.95,106.96-112.43,140.74c-58.87,28.21-156.02,16-213.93,44.84
			c-63.37,31.57-56.19,101-135.83,116.63c-37.21,7.3-79.78-1.43-116.91,6.02c-70.92,14.23-75.37,73.97-136.82,98.62
			c-73.01,29.29-173.33-6.49-261.87,0.32c-90.14,6.93-149.67,55.66-228.29,81.68C86.48,1018.08-83.43,995.27-186,937.26
			c-127.35-72.01-157.74-180.65-140.97-278.43c8.45-49.29,31.29-97.04,31.41-146.8c0.08-34.05,0.6-65.31,21.1-97.88
			C-238.15,356.44-175.22,304.62-104.86,258.69z"/>
		<path class="st25" d="M-255,107.6C-51.59-26.76,226.85-119.3,522.33-172.5s608.18-68.74,917.72-65.57
			c37.6,0.39,76.1,1.14,111.04,9.15c45.11,10.33,79.72,31.69,109.15,53.92c61.42,46.39,107.33,99.55,134.5,155.73
			c19.89,41.13,24.01,92.79-34.94,118.7c-70.64,31.04-184.7,3.64-254.67,35.19c-72.79,32.81-47.52,105.95-115.81,141.83
			c-54.9,28.84-148.2,21.33-201.94,50.89c-63.13,34.72-39.74,102.55-106.52,134.94c-55.77,27.05-147.82,15.34-202.68,43
			c-60.04,30.27-53.24,96.84-128.68,111.83c-35.26,7-75.59-1.37-110.76,5.77c-67.19,13.64-71.4,70.92-129.63,94.55
			c-69.18,28.08-164.21-6.22-248.1,0.3c-85.4,6.65-141.8,53.37-216.29,78.31c-118.45,39.67-279.42,17.79-376.6-37.82
			c-120.65-69.05-149.44-173.21-133.56-266.96c8.01-47.26,29.64-93.05,29.76-140.75c0.08-32.65,0.57-62.62,19.99-93.84
			C-381.28,201.32-321.66,151.63-255,107.6z"/>
		<path class="st26" d="M-405.14-43.5c192.12-128.58,455.1-217.15,734.18-268.06s574.42-65.79,866.79-62.75
			c35.51,0.37,71.87,1.1,104.87,8.76c42.61,9.89,75.29,30.33,103.09,51.61c58.01,44.39,101.37,95.27,127.03,149.04
			c18.78,39.36,22.68,88.8-33,113.6c-66.72,29.71-174.45,3.48-240.53,33.67c-68.75,31.4-44.88,101.4-109.38,135.73
			c-51.85,27.6-139.97,20.41-190.73,48.7c-59.62,33.23-37.54,98.15-100.6,129.14c-52.67,25.88-139.62,14.68-191.43,41.15
			c-56.71,28.97-50.28,92.68-121.54,107.02c-33.3,6.7-71.39-1.31-104.61,5.52c-63.46,13.05-67.44,67.87-122.43,90.49
			c-65.34,26.88-155.1-5.96-234.33,0.29c-80.66,6.36-133.93,51.07-204.28,74.95c-111.87,37.96-263.91,17.03-355.7-36.2
			C-591.71,513.09-618.9,413.4-603.9,323.68c7.56-45.23,28-89.05,28.1-134.71c0.07-31.25,0.54-59.93,18.88-89.81
			C-524.42,46.2-468.11-1.35-405.14-43.5z"/>
		<path class="st9" d="M-555.28-194.59c180.83-122.81,428.36-207.4,691.04-256.03s540.67-62.83,815.85-59.93
			c33.43,0.35,67.65,1.05,98.71,8.36c40.1,9.45,70.87,28.97,97.03,49.29c54.6,42.4,95.41,90.99,119.57,142.35
			c17.68,37.6,21.35,84.82-31.06,108.5c-62.8,28.38-164.2,3.33-226.4,32.16c-64.71,29.99-42.25,96.84-102.96,129.64
			C857.7-13.88,774.76-20.75,726.98,6.27c-56.12,31.74-35.33,93.74-94.69,123.34c-49.58,24.72-131.41,14.02-180.18,39.3
			c-53.37,27.67-47.33,88.52-114.4,102.22c-31.34,6.4-67.2-1.25-98.47,5.28c-59.73,12.47-63.48,64.82-115.24,86.43
			c-61.5,25.67-145.99-5.69-220.56,0.28c-75.92,6.08-126.06,48.78-192.28,71.58c-105.3,36.26-248.4,16.27-334.8-34.57
			C-730.89,337.01-756.48,241.8-742.36,156.1c7.12-43.2,26.35-85.05,26.45-128.66c0.07-29.85,0.5-57.24,17.77-85.78
			C-667.55-108.92-614.55-154.34-555.28-194.59z"/>
	</g>
</g>
</svg>
