<?xml version="1.0" encoding="utf-8"?>
<!-- Generator: Adobe Illustrator 25.2.0, SVG Export Plug-In . SVG Version: 6.00 Build 0)  -->
<svg version="1.1" id="Layer_1" xmlns="http://www.w3.org/2000/svg" xmlns:xlink="http://www.w3.org/1999/xlink" x="0px" y="0px"
	 viewBox="0 0 1920 1080" style="enable-background:new 0 0 1920 1080;" xml:space="preserve">
<style type="text/css">
	.st0{clip-path:url(#SVGID_2_);}
	.st1{fill:#00D3E9;}
	.st2{fill:#11B7DA;}
	.st3{fill:#229CCC;}
	.st4{fill:#3380BD;}
	.st5{fill:#4464AE;}
	.st6{fill:#5549A0;}
	.st7{fill:#662D91;}
</style>
<g>
	<defs>
		<rect id="SVGID_1_" x="0" y="0" width="1920" height="1080"/>
	</defs>
	<clipPath id="SVGID_2_">
		<use xlink:href="#SVGID_1_"  style="overflow:visible;"/>
	</clipPath>
	<g class="st0">
		<path class="st1" d="M345.6,712.63c248.56-157.59,588.82-266.14,949.89-328.54s743.16-80.61,1121.43-76.91
			c45.95,0.45,92.99,1.34,135.69,10.73c55.12,12.12,97.41,37.18,133.37,63.25c75.06,54.41,130.85,116.43,164.35,182.67
			c24.31,48.24,29.35,108.84-42.69,139.23c-86.32,36.41-225.71,4.27-311.2,41.27c-88.94,38.49-58.07,124.28-141.52,166.36
			c-67.08,33.83-181.1,25.01-246.77,59.69c-77.15,40.73-48.57,120.29-130.17,158.27c-68.16,31.73-180.63,17.99-247.68,50.43
			c-73.37,35.51-65.05,113.59-157.25,131.17c-43.08,8.21-92.37-1.62-135.36,6.77c-82.11,16-87.25,83.19-158.4,110.91
			c-84.48,32.94-200.64-7.3-303.17,0.36c-104.36,7.8-173.29,62.6-264.31,91.85c-144.75,46.53-341.45,20.88-460.21-44.36
			c-147.43-81-182.61-203.16-163.2-313.13c9.79-55.43,36.23-109.14,36.36-165.1c0.1-38.3,0.69-73.44,24.42-110.07
			C191.25,822.56,264.11,764.28,345.6,712.63z"/>
		<path class="st2" d="M195.43,561.39C432.7,409.58,757.51,305.01,1102.18,244.9s709.44-77.67,1070.52-74.09
			c43.86,0.44,88.77,1.3,129.52,10.34c52.66,11.68,92.98,35.81,127.32,60.93c71.73,52.51,124.98,112.23,156.89,175.97
			c23.19,46.48,28,104.85-40.76,134.12c-82.41,35.1-215.45,4.11-297.07,39.76c-84.9,37.08-55.43,119.72-135.09,160.26
			c-64.04,32.59-172.88,24.09-235.56,57.5c-73.64,39.23-46.36,115.88-124.25,152.47c-65.05,30.56-172.43,17.33-236.42,48.6
			c-70.08,34.21-62.1,109.43-150.11,126.36c-41.13,7.91-88.18-1.55-129.21,6.52c-78.37,15.42-83.29,80.14-151.21,106.84
			c-80.64,31.73-191.56-7.02-289.4,0.35c-99.62,7.51-165.42,60.3-252.31,88.49c-138.16,44.82-325.94,20.1-439.31-42.74
			c-140.74-78.04-174.33-195.73-155.8-301.67c9.34-53.4,34.56-105.14,34.71-159.04c0.09-36.9,0.66-70.74,23.32-106.04
			C48.12,667.3,117.66,611.15,195.43,561.39z"/>
		<path class="st3" d="M45.28,410.16c225.99-146.04,535.33-246.62,863.61-304.45S1584.58,31,1928.49,34.45
			c41.77,0.42,84.54,1.24,123.36,9.94c50.11,11.23,88.57,34.45,121.27,58.61c68.39,50.6,119.09,108.04,149.42,169.27
			c22.08,44.71,26.68,100.86-38.82,129.02c-78.48,33.74-205.2,3.96-282.94,38.25c-80.86,35.64-52.8,115.16-128.64,154.15
			c-61,31.35-164.65,23.18-224.35,55.31c-70.14,37.74-44.16,111.47-118.35,146.67c-61.96,29.4-164.23,16.67-225.17,46.73
			c-66.7,32.9-59.15,105.26-142.97,121.55c-39.17,7.61-83.97-1.49-123.05,6.27c-74.64,14.82-79.32,77.09-144,102.77
			c-76.86,30.52-182.45-6.77-275.64,0.33c-94.91,7.21-157.57,58.01-240.36,85.13c-131.52,43.11-310.4,19.34-418.37-41.11
			c-134.04-75.06-166.03-188.27-148.39-290.17c8.9-51.37,32.94-101.14,33.06-152.99c0.09-35.49,0.62-68.04,22.2-102
			C-95.04,512.03-28.8,458.02,45.28,410.16z"/>
		<path class="st4" d="M-104.85,258.93C109.84,118.67,403.74,22.06,715.61-33.48s641.93-71.76,968.64-68.45
			c39.69,0.4,80.32,1.19,117.21,9.55c47.61,10.8,84.13,33.09,115.2,56.3c65.07,48.69,113.23,103.85,141.96,162.58
			c20.99,42.94,25.34,96.87-36.88,123.91c-74.56,32.4-194.95,3.78-268.8,36.72c-76.8,34.26-50.16,110.61-122.24,148.06
			c-57.95,30.11-156.42,22.26-213.12,53.12c-66.63,36.25-41.94,107.06-112.43,140.87c-58.87,28.23-156.03,16.01-213.93,44.88
			c-63.36,31.6-56.19,101.09-135.83,116.74c-37.21,7.31-79.79-1.43-116.91,6.03c-70.92,14.24-75.36,74.03-136.82,98.71
			c-72.96,29.32-173.33-6.48-261.86,0.32c-90.14,6.94-149.67,55.71-228.3,81.76c-125.02,41.41-294.92,18.58-397.5-39.48
			c-127.35-72.08-157.74-180.82-140.98-278.69c8.45-49.33,31.29-97.14,31.41-146.94c0.08-34.08,0.6-65.37,21.12-97.97
			C-238.15,356.77-175.22,304.9-104.85,258.93z"/>
		<path class="st5" d="M-255,107.7c203.4-134.48,481.84-227.11,777.32-280.36s608.18-68.8,917.76-65.63
			c37.59,0.38,76.1,1.14,111.03,9.15c45.12,10.35,79.68,31.72,109.15,53.97c61.71,46.79,107.31,99.66,134.46,155.88
			c19.88,41.17,24,92.88-34.94,118.8c-70.64,31.08-184.69,3.64-254.67,35.22c-72.79,32.85-47.52,106.05-115.8,141.96
			c-54.9,28.87-148.2,21.35-201.95,50.93c-63.12,34.76-39.73,102.65-106.51,135.06c-55.77,27.07-147.84,15.35-202.68,43.04
			c-60.04,30.3-53.24,96.93-128.64,111.93c-35.25,7.02-75.59-1.37-110.76,5.78c-67.2,13.66-71.4,70.98-129.6,94.64
			c-69.18,28.11-164.21-6.23-248.09,0.31c-85.44,6.65-141.8,53.42-216.29,78.39c-118.45,39.71-279.42,17.82-376.61-37.86
			c-120.65-69.12-149.44-173.37-133.56-267.21c8.01-47.3,29.64-93.13,29.76-140.88c0.09-32.68,0.58-62.68,19.99-93.93
			C-381.28,201.51-321.67,151.77-255,107.7z"/>
		<path class="st6" d="M-405.12-43.53c192.1-128.73,455.09-217.35,734.16-268.31s574.43-65.85,866.79-62.81
			c35.52,0.37,71.87,1.08,104.87,8.76c42.6,9.9,75.29,30.36,103.08,51.65c58.39,44.88,101.47,95.46,127.04,149.18
			c18.79,39.42,22.68,88.88-33,113.7c-66.72,29.74-174.44,3.49-240.53,33.71c-68.75,31.43-44.89,101.49-109.38,135.86
			c-51.84,27.63-139.98,20.43-190.73,48.74c-59.58,33.26-37.5,98.24-100.61,129.26c-52.68,25.92-139.61,14.69-191.42,41.19
			c-56.71,29-50.28,92.76-121.55,107.12c-33.29,6.71-71.4-1.31-104.64,5.52c-63.46,13.07-67.44,67.94-122.43,90.58
			c-65.34,26.9-155.1-5.94-234.33,0.29c-80.64,6.37-133.94,51.12-204.29,75.02c-111.84,38.01-263.84,17.04-355.67-36.23
			c-113.95-66.14-141.12-165.92-126.14-255.73c7.56-45.27,27.99-89.13,28.1-134.83c0.08-31.28,0.54-59.98,18.88-89.89
			C-524.42,46.25-468.11-1.36-405.12-43.53z"/>
		<path class="st7" d="M-555.28-194.77c180.88-122.93,428.36-207.59,691.04-256.27s540.67-62.89,815.86-59.98
			c33.43,0.35,67.65,1.04,98.72,8.37c40.1,9.45,70.87,28.99,97.03,49.33c54.6,42.44,95.41,91.08,119.57,142.48
			c17.68,37.63,21.35,84.9-31.07,108.6c-62.79,28.4-164.16,3.33-226.4,32.19c-64.7,30.02-42.24,96.93-102.95,129.76
			C857.7-13.89,774.72-20.77,726.98,6.27c-56.12,31.77-35.33,93.83-94.69,123.46c-49.56,24.74-131.4,14.03-180.12,39.33
			c-53.38,27.7-47.33,88.6-114.4,102.31c-31.34,6.4-67.2-1.25-98.47,5.28c-59.72,12.48-63.48,64.88-115.2,86.51
			c-61.49,25.69-145.98-5.7-220.55,0.28c-75.92,6.08-126.07,48.83-192.28,71.65c-105.3,36.29-248.41,16.28-334.8-34.6
			c-107.35-63.17-132.94-158.47-118.82-244.25c7.11-43.24,26.34-85.13,26.45-128.77c0.07-29.87,0.51-57.29,17.77-85.86
			C-667.55-109.02-614.54-154.48-555.28-194.77z"/>
	</g>
</g>
</svg>
