<?xml version="1.0" encoding="utf-8"?>
<!-- Generator: Adobe Illustrator 25.3.1, SVG Export Plug-In . SVG Version: 6.00 Build 0)  -->
<svg version="1.1" id="Layer_1" xmlns="http://www.w3.org/2000/svg" xmlns:xlink="http://www.w3.org/1999/xlink" x="0px" y="0px"
	 viewBox="0 0 6926.7 1312" style="enable-background:new 0 0 6926.7 1312;" xml:space="preserve">
<style type="text/css">
	.st0{fill:none;}
	.st1{fill:#0008BF;}
	.st2{stroke:#000000;stroke-width:5;stroke-miterlimit:10;}
	.st3{font-family:'ImprintMT-Shadow';}
	.st4{font-size:369.65px;}
	.st5{font-size:740.15px;}
</style>
<line class="st0" x1="1600.1" y1="119" x2="1600.1" y2="1140"/>
<path class="st1" d="M1582,119v979.6c0,13.2-0.2,26.4,0,39.7c0,0.6,0,1.2,0,1.7c0,9.4,8.3,18.4,18,18s18-7.9,18-18V160.4
	c0-13.2,0.2-26.4,0-39.7V119c0-9.4-8.3-18.4-18-18S1582,108.9,1582,119z"/>
<text transform="matrix(1.06 0 0 1 1680.7812 477.9088)" class="st2 st3 st4">Graduate Employment Survey</text>
<text transform="matrix(1 0 0 1 927.0209 1144.2625)" class="st3 st5">U</text>
<text transform="matrix(1 0 0 1 927.0002 622.1702)" class="st3 st5">R</text>
<line class="st0" x1="6915.1" y1="637" x2="1665.1" y2="637"/>
<path class="st1" d="M6915.1,625H1878.2c-68,0-136.2-1.1-204.2,0c-3,0-6,0-8.9,0c-15.4,0-15.5,24,0,24H6702c68,0,136.2,1.1,204.2,0
	c3,0,6,0,8.9,0C6930.6,649,6930.6,625,6915.1,625L6915.1,625z"/>
<text transform="matrix(1.06 0 0 1 1696.4521 1022.5486)" class="st2 st3 st4">Ramkhamhaeng University</text>
<g id="g454">
	<g id="g360">
		<path id="path358" d="M416.3,45.7c-0.2-16.5,5-33.1,15.7-45.7c7.3,7.1,11.3,16.5,15.8,25.2l0.2,1c0.6,5.8,1.6,11.5,1.9,17.4
			c15.5,7.3,22.4,25,21.6,41.3c11.5,5.2,22.4,11.9,31,21.1c4,4.4,9.4,9,9.2,15.6c0.3,15.7-4.7,30.8-10,45.3c3.1,2.2,4.9,5.8,4.8,9.5
			c0.2,13.2-1.9,27.6-10.3,38.4c-5,6.6-5.5,15.3-9.5,22.4c-1.9,4.5-6.1,8.2-6,13.4c-0.2,8.1,0,16.6,3.7,24c1.5,2.9,3.9,6.3,7.6,5.8
			c19.2-1.6,38.6,0,57.8,2.6c18.7,2.9,37.8,8.4,52.9,20c19.2,15,37.8,33.4,45,57.3c5.8,10.8,13.7,20.3,20.3,30.8
			c3.7,6.3,2.6,14,1.8,21c15.3,24.9,20,55,12.9,83.4c-2.1,11.3-9,20.8-15,30.3c-0.2,0.2-0.3,0.6-0.5,0.8c-5,4.3-9.7,9.2-15,13.1
			c-3.9,2.7-4.2,8.4-8.1,11.3c-4.4,3.7-8.9,7.8-9,13.9c14.4,0.2,29.2,3.1,41.6,10.7c4.8,2.9,9,6.8,13.5,10.2
			c4.4-5.2,9-12.1,16.6-11.9c2.3-0.7,3.6-2.9,5.5-4.2c1.2,0.5,2.3,1,3.4,1.6c4.5-3.7,10.5-4,16.1-3.5c5.5-0.8,11-1.8,16.6-2.7
			c-1,3.2-2.1,6.5-2.8,9.7c4.4,0.6,8.2-1.3,11.5-4c1,0.2,3.1,0.6,4.2,0.8c8.1-7.3,20.2-6.6,30.5-6.8c-4.8,4.8-10.2,9.8-17.3,11
			c-3.1,0-2.8,3.2-3.4,5.3c5.8-0.2,11.6-1.3,16.6-4.7c3.3-2.4,7-4.2,11-5.3c4.7-1.1,7.1-6.3,11.8-7.6c8.2-3.2,17.3-2.1,26-1.5
			c-5,11.6-19.8,7.6-28.2,14.8c-0.3,1.8-0.6,3.7-1,5.5c1.5,1,3.1,1.8,4.7,2.7l3.9-2.6c1.8,1.5,3.7,2.6,5,4.5c0.5,3.7,0.5,7.4,1,11.3
			c-4.8,0.8-10.6,0.6-13.7,5.3c-11.9,16.8-26.3,33.9-46.5,41c-5.6,1.1-11.9,4-12.3,10.7v1.1l-0.5,1c-2.6,3.9-2.4,8.7-3.1,13.1
			c-1,9.7-0.8,20.5,5.2,28.7c2.7,3.9,7.6,5.2,11.1,8.1c2.9,4.2,5,8.9,8.9,12.3c5.2,5.3,9.7,13.9,18.4,13.2c22.8-0.2,45.5,0,68.3,0
			v62.5c-3.2,0.6-6.9,0.3-9.4,3.1c-0.3,3.9-0.5,7.9-0.3,11.8c-6.8,2.6-11.7,8.1-17,12.8c-0.2,4.4-0.2,8.7-1.6,13.1
			c-3.5,7.3-10,12.6-15.5,18.2c-0.5,5.2-0.2,10.3-0.2,15.5h-11c-0.2,27.1-0.2,54.2,0,81.3c27.4-11.5,55.2-22.6,80.8-37.6
			c18.2,26.1,35,53.2,52.8,79.7c8.6,13.2,17.8,26.1,25.7,39.7c-1,0.5-2.7,1.5-3.7,1.9c-5.2,4.4-11.5,6.9-17.4,10
			c-92.5,47.4-191.9,80.8-293.9,101.2c-72.6,13.4-146.7,16.5-220.3,12.7c-43.5-2.5-86.7-7.7-129.5-15.7
			c-26.3-5.2-52.6-9.8-78.4-16.8c-67.5-17.6-133.3-41.8-195.1-74.1c-8.1-3.7-15.5-9-23.9-12.4c0.2-1.5,0.5-2.9,0.6-4.5
			c26.6-38.2,52.5-77,78.8-115.4c18.2,8.9,36.3,18.4,55.5,24.8c9.5,1.9,19.4,0.5,29,0.8l-0.2-1.5c-0.7-24-0.7-48.2,0-72.3l0.2-1.5
			c-3.9,0-7.6,0-11.5-0.2c0.2-5,0.2-10,0.2-15c-8.9-6-16.3-14.2-19.8-24.4c-2.7-7.9-6.9-15.5-13.7-20.8v-11.8h-13.6
			c0.3-20.8-0.5-41.6,0.5-62.3c49.4,0.2,98.9-0.5,148.3,0.3l1.9,0.5c-6.8-19.7-19-37.6-22.6-58.4c-1.5-7.6-7.9-12.6-11-19.4
			c-7.7-21.3-5.6-44.8,5.8-64.4c5.2-11,15.3-19.5,27.3-21.9c29.2-7.3,58.8,2.4,86.8,10.3c3.7-7.6,6.8-15.7,12.7-21.6
			c3.4-3.5,7.6-6.6,9.4-11.3c2.4-6.1,3.6-12.6,3.2-19.2c0.2-5-5.7-7.1-7.4-11.3c-0.8-5.2,0.3-11-2.4-15.6
			c-2.9-5.3-4.8-11.1-7.9-16.3l-1.1-0.3c-9,4.7-17.3,11.1-26,16.5c-6.3,3.2-8.9,10.2-14.2,14.5c-3.2,5.2-3.5,11.6-6.8,16.8
			c-0.3,0.4-0.6,0.7-1,1c-4.8,3.5-9.5,7.4-15.3,9.5c-9.2,3.7-19.2,4.4-28.9,6.3c-6,0.8-13.6,0-17-5.7c-2.1-4.8-2.4-10.2-4.5-15
			c-2.2-5-6.9-8.2-9.7-12.9c-3.7-8.1-3.1-17.4-1-26c1.9-9.5,7.6-17.9,7.6-27.9c-0.2-2.1-0.3-5.2-2.9-5.8c-4-1.8-8.1-3.5-11.9-5.6
			c-0.2-0.2-0.3-0.5-0.5-0.5c-1.6-2.6-3.2-5-5-7.4c11.8-15.2,22.9-30.8,34.2-46.3c1.1-16.6,6-32.7,14.2-47.1l1.8,2.7
			c-0.3-1-1-2.6-1.3-3.5c11-15.6,24.2-30,39.7-41.3c12.4-9,27.6-13.1,42.6-15.5c13.4-1.8,28.6-3.5,38.1-13.9l0.8-0.8
			c7.3-5.2,7.4-14.7,8.4-22.8c0.2-8.7,1.3-17.6-1.5-26c-1.6-5.6-8.7-3.2-12.4-6.3c-6.5-5.3-9.7-13.2-12.3-21
			c-3.1-8.7-4.4-18.4-1.3-27.3c2.9-7.8-0.7-15.8-1.1-23.7c-0.8-11.3-1.5-23.1,1.6-34c1.8-6.6,7.6-11,12.1-15.7
			c6.8-6.6,14.8-11.3,22.4-16.8c1.8-8.4,1.3-17.3,4.7-25.3C405,54.9,410.7,50,416.3,45.7z M422.5,37.4c2.1-1.5,4.2-2.9,6.3-4.2
			c0.8,0.8,2.6,2.3,3.4,3.1c1.5-1.1,2.9-2.1,4.4-3.2c1,1,2.8,2.9,3.7,3.9c1-0.6,2.7-1.8,3.7-2.4c-2.3-8.7-4.8-17.9-11.5-24.4
			C426,17.8,423.1,27.6,422.5,37.4z M415.4,53.4c-6.8,4.8-9.2,13.7-9,21.8c1.5-1.4,2.9-3.1,4.4-4.7c1.9,1,3.9,1.8,5.8,2.6
			c0.6-1.1,2.1-3.2,2.8-4.4l3.2,3.2c1.9-1.3,3.7-2.7,5.6-4c0.6,1,1.8,3.1,2.3,4c1.1-1.3,2.4-2.4,3.5-3.7l5.8,2.9
			c2.4-2.2,5.8-4,7.3,0.3l5.8-3.4c1.1,1.8,2.3,3.4,3.5,5.2c1.6-1.3,3.2-2.6,4.7-3.9c1.5,1.4,2.9,2.9,4.4,4.2
			c-1.3-7.9-4.7-16-11.3-20.7C442.6,44.9,426.3,45.5,415.4,53.4L415.4,53.4z M385.4,101.5c1.3,0.8,2.6,1.4,3.9,2.3l3.7-4.2
			c1.8,0.2,3.5,0.3,5.3,0.6c0.8-1.8,1.6-3.7,2.6-5.5c1,0.7,2.9,2.1,3.7,2.8l2.9-4.4c1.3,0.7,3.7,2.1,5,2.7c1.5-1.6,3.1-3.1,4.5-4.5
			c1.8,1.1,3.5,2.4,5.2,3.6c0.5-1,1.5-3.1,1.8-4c1.9,0.8,4,1.8,6,2.6c1-0.8,2.7-2.3,3.7-2.9c1,0.5,3.2,1.1,4.2,1.6
			c2.2-2.3,4.5-2.3,6.8,0.2c1-0.6,2.9-1.8,3.9-2.4c3.2,1.5,6.6,3.2,9.5,0.3c1.1,1.4,2.1,2.9,3.2,4.2c1.8-0.5,3.7-0.8,5.5-1.1
			c3.6,3,8.6,3.2,12.8,5.3c-1.8-4.7-7.1-6.3-11.3-8.1c-13.4-4.2-27.6-5.8-41.5-3.7C412.3,88.4,397.3,92.5,385.4,101.5z M367.3,124.9
			c0.3,1.1,1,3.4,1.3,4.5c1.8-0.2,2.7-1.9,4.2-2.7c4-3.5,10.3-1,13.9-5.7h4.2c6-3.9,13.4-3.7,20-6.1c2.1-0.8,4.2-0.6,6.5-1
			c2.1-1.1,4.5-1.4,6.8-0.8c0.8-0.5,2.3-1.3,2.9-1.8c4.7,0.3,9.4-0.5,13.9-0.2c1.6-1.7,2.4-4.1,2.3-6.4
			C416.8,106.2,390.5,112.3,367.3,124.9L367.3,124.9z M453.5,104.4c0,1.3,0.1,2.7,0.3,4c2.6-0.8,5-1.6,7.6-2.6
			C458.9,104.8,456.2,104.3,453.5,104.4L453.5,104.4z M468.7,105.7c0.2,3.6,2.9,6,5,8.6c4.7-1.8,9.4,1.4,14,2.1
			c5.3,2.7,10.8,5.5,16.1,8.2c1.5-2.9-2.4-4.2-4-5.8C490.2,112.5,479.6,108.4,468.7,105.7L468.7,105.7z M409.2,123
			c-2.7,1-7.1,0.5-7.1,4.4c13.4-3.6,27.3-4.8,41.1-6.8c-0.3-0.5-0.8-1.3-1.1-1.8C431.2,118.6,420.2,120.9,409.2,123z M470.2,120.8
			c2.9,2.2,6.6,2.6,10,3.6c6.3,1.3,12.3,4,17.9,6.9c-0.2-0.6-0.5-1.8-0.6-2.4C489.8,123.3,479.8,120.1,470.2,120.8L470.2,120.8z
			 M389.2,129.5c2.4,13.6,2.4,28.9-6.6,40c-2.1,1.8,1.6,5,3.1,2.9c11.6-11.8,12.4-29.8,9.8-45.2
			C393.4,127.8,391.3,128.6,389.2,129.5L389.2,129.5z M453.3,128.3c0.5,1.4,1,2.7,1.6,4c1.3-1,2.7-1.9,4-3.1
			C457.1,128.6,455.2,128.3,453.3,128.3L453.3,128.3z M468,128.8c-0.2,0.8-0.5,2.6-0.6,3.6c9.7,0.2,18.4,5,27.9,5.5
			C487.7,131.8,477.3,130.6,468,128.8L468,128.8z M408,133.7c-1.9,0.8-6.1,1.1-4.2,4.7c5.6-1.6,11.5-3.1,17.3-3.1
			c7.4-2.7,15.5-2.7,23.2-3.2c0.5-0.8,1.3-2.1,1.8-2.9C433.2,129,420.4,130.5,408,133.7L408,133.7z M378.1,133.7
			c1.3,11.4,0.6,23.7-6.8,33.2c1.9-0.3,4.7,0.5,5.7-1.6c4.7-6.6,7-14.5,6.6-22.6C383.2,138.9,383.7,133,378.1,133.7L378.1,133.7z
			 M504,135.6c-1.8,2.4-2.8,5-0.5,7.4c1.1-1.1,2.3-2.4,3.4-3.6c-0.2-0.8-0.5-2.6-0.6-3.5C505.6,135.9,504.4,135.6,504,135.6
			L504,135.6z M366.5,139.6c0.2,5.5,0.2,11,2.1,16.1c4-5,3.4-11.5,2.6-17.4C369.5,138.8,367.9,139.1,366.5,139.6L366.5,139.6z
			 M408,144.9c-1.8,1-4.7,1.4-5,4c-2.1,11.3-5.6,22.9-13.9,31.1c1.9,3.6,3.1,7.6-0.8,10.3c-2.9-1.8-7.1-3.2-7.3-7.4
			c-0.4-4.6-4.5-8.1-9.1-7.7c-0.2,0-0.5,0.1-0.7,0.1c-5.8,6.9-4.5,16.9-1.8,25c2.3,6.1,4.4,13.1,10,17.1c3.1,2.4,7.1,2.6,10.8,3.1
			c1.5,13.1,9.7,24.9,20.8,31.8c-0.5,1-1.5,3.1-1.9,4c-3.5-1.1-6.9-2.5-10.2-4c-4.2,9.9-4.2,21-8.9,30.7c14,9.9,32,11.5,48.4,11.5
			c15.2-1.3,31.1-2.9,44.7-10.8c-6.1-7.4-7.1-17.3-8.9-26.3c-7.8,5-16.5,9.7-26,8.2c-8.7-1.3-18.5-4.7-22.8-13.1
			c0.8-0.8,2.3-2.6,3.1-3.6c6.6,6.9,16.3,11.9,26,10.2c10.5-2.6,19.2-10.2,24.7-19.4c9.7-16.1,11-35.5,10.6-53.9
			c-4.8-2.8-10.7-3.2-15.8-1.1c-4.7-2.1-10-0.2-14.2-3.1c0.6-5.6,2.8-11.8,8.1-14.5c7.3-4.2,16-1.8,23.7-0.5
			c-0.2-6.9-0.5-13.7-0.6-20.7c-8.4-4-17.8-5.8-26.8-7.6c-3.2,0.6-6.1,2.9-9.4,2.9c-3.7-0.8-7.4-2.4-11.3-1.9
			C431.3,140.2,419.2,140.9,408,144.9L408,144.9z M498,173.1c-1.9,8.4-5.6,18.6-0.2,26.1c0.8-3.9,2.1-7.7,3.1-11.6
			c1.5-5,0-10.3-0.5-15.3C499.8,172.5,498.6,173,498,173.1L498,173.1z M483.3,173.8c1.7,1.9,3.5,3.7,5.5,5.3
			c0.8-1.1,1.8-2.1,2.6-3.2C488.6,175.1,485.9,174.3,483.3,173.8L483.3,173.8z M482.8,291.9c3.7,3.2,8.2,6.8,7.9,12.3
			c-1.3,4.5-7.3,5.5-11.1,3.9c-4-2.6-4.2-7.9-4.4-12.3c-1.8,0.8-3.5,1.5-5.3,2.1c7.7,5,5.8,18.9-4,19.7c-8.5-1.1-9.7-11.6-6-17.9
			c-4.4,0.9-8.9,1.4-13.4,1.6c8.4,4.4,12.8,15,8.4,23.7c-4.2,9.4-19,9.8-24.5,1.3c-5-8.5-1.3-19.2,6.5-24.7
			c-19,0.7-37.8-4.5-55-11.9c0.5,3.1,2.6,5.5,4.7,7.8c-2.7,2.6-5.5,5.3-8.9,7.1c-4,0.3-5.8-3.7-7.3-6.8c-3.1-0.6-6.3-1-9,1
			c10.7,11.9,25.2,19.4,39.4,26.3c14.9,6.1,29.7,13.7,41.3,25c10.8-17.6,30.5-26.6,48.9-34.4c12.3-6.1,23.6-15.8,29.5-28.4
			c-5-0.3-9.9-0.6-14.9-0.8c0.6,5.5-0.2,13.2-7.4,13.7l-6-6c1.5-2.9,2.8-5.9,4-9C490.7,285.1,487.2,289.7,482.8,291.9L482.8,291.9z
			 M531.5,288.7c-18.7,34.4-40.5,67.5-67.6,95.7c-13.6,14-28.6,26.8-45.8,36c7.1,0,11.1,6.1,15.8,10.6c31.3-22,55.7-52.3,76.5-84
			c10.7-16.8,20.8-34,28.9-52.5c-4.8,5.5-7.4,12.3-11.1,18.4c-17.9,30.7-37.6,60.7-62.9,85.7c-6.4,6.5-13.7,12.3-21.5,17.1
			c-2.6,1.3-6.8,1.6-7.8-1.9c1.1-3.2,4.2-5.2,6.8-7.1c17.1-12.9,31.5-28.9,44.7-45.7c17.8-23,33.6-47.4,47.3-73.1
			C533.8,288,532.4,288.5,531.5,288.7L531.5,288.7z M529.6,335.3c-14.4,31.8-34.7,60.3-56,87.8c-28.2,33.7-65.5,58.6-104.6,77.8
			c-5.8,5.3-3.4,14.4-0.8,20.8c17.2-4.2,32.8-12.9,47.3-22.7c19.5-15.3,35.8-34.2,51-53.7c7.3,5.6,16.6,6,25.3,7.8
			c3.2,0,2.9,3.9,4,5.8c-9.4,1.6-18.9-0.6-28.1-2.4c-23.4,32.1-55.2,59.1-93,72.6c-0.5,7.8-2.1,15.5-4.7,22.9
			c9.8-0.3,19.5,2.4,29.4,1.9c8.2-7.9,20.2-10.3,31.1-8.6c6.9,0.5,12.3,5.5,18.7,7.4c9.2,3.1,20.2,3.2,28.1-2.8
			c7.3-5.2,17.3-8.2,25.8-4.3c4.4,2.6,7.9,6.3,12.1,9c12.9-1,25.8-1.5,38.4-5.3c-2.3-11.8-1.9-23.7-1.1-35.5
			c2.4-27,8.4-53.6,15.5-79.7c4.7-15.5,8.9-31.3,12.8-47c1.1-6.5,1-13.1,4.2-18.9c4.2,1.9,8.4,4.2,12.3,6.5
			c0.5-5.3,1.6-10.5,3.4-15.5c5.2,1.8,10.1,4.3,14.5,7.4c0.3-6.3,2.8-12.3,5.7-17.9c4.3,2.8,8.3,6,11.9,9.7
			c0.6-3.9,1.7-7.6,3.4-11.1c-15.3-22.8-36.1-43.7-62.9-52.1c-10.5,11.6-17.1,26-22.9,40.5c-10.3,27.6-15.5,57-17.4,86.2
			c0.3,22.6,5,45.5,15.5,65.8c2.1,3.7,2.9,9-1.8,11.3c-6.6-7.6-17.6-5.3-25-0.5c-8.7,6-19,10.5-29.9,9.9c-11.1,0-20.2-7.8-31-9.4
			c-2.4-0.6-6.9-0.8-6.9-4.4c-0.3-2.9,3.7-2.6,5.5-4c14.5,6.5,31,15,47,8.7c11-6.6,21.9-15.6,35.7-14c-3.8-4.4-10.1-5.3-15-2.3
			c-6.6,4.7-12.9,10.5-21,12.6c-11.5,4.2-22.9-1.3-33.9-4.5c-4.5-1.5-11.5-2.4-10.8-8.7c3.9-1,8.1-1,11.6,1.3
			c8.7,4.7,18.7,6.9,28.6,5.3c12.6-1.6,19.8-16.1,33.2-15c-1-5.5-4.8-10.2-4-16c-5.2-2.3-10.2,0.6-15.2,1.6c-1.4-1.3-2.3-3.1-2.4-5
			c-1.5,0.3-2.8,0.6-4.2,1c-0.2,0.7-0.3,1.5-0.3,2.3c1.8,0.8,3.4,1.6,5.2,2.6c-1.4,1.8-1.9,4.4-4.2,5.5c-8.1,3.9-17.4,3.9-26.3,3.5
			c-1.6-2.1-4-6.1,0-7.3c7.4,0.3,15.2,1.3,22.1-2.1c-1.3-1.9-2.6-3.9-3.7-5.8c4.2-2.6,6.9-6.8,10.5-9.8c4.8-1.6,10-3.1,14.5-5.6
			c-0.2-21.8,1.6-43.7,6.3-65c1-4.7,3.1-9.4,2.4-14.4c-18.1,27.9-37.3,55-56.8,82c-1.5,1.9-3.9,2.9-5.8,4.2c-0.8-1.6-1.6-3.4-2.4-5
			c17.9-20,32.9-42.6,47.1-65.2c16.6-26.7,31.7-54.3,45.2-82.6c-2.8-0.3-5.5-0.8-8.1-1.1C544.8,305.1,537.4,320.3,529.6,335.3
			L529.6,335.3z M304.8,314c-14.2,8.8-26.4,20.5-35.8,34.4c2.6-0.5,5-1,7.6-1.5c1.3,7.1-1.3,14-1.8,21.1c5.2-6.3,13.4-7.9,20.8-10.5
			c0,5.8-0.5,11.6-1.6,17.3c5.5-2.9,11.6-4.5,17.6-6.3c1,5.2,1.7,10.4,2.1,15.6c4.4-2.2,9.4-2.6,14.2-2.2c0.5,7.2-2.5,14.1-8.1,18.7
			c0.4,1.9,1,3.8,1.6,5.6c27.1,5.3,54.5,8.7,81.8,13.1c20.5-9.5,38.2-24,54.2-39.9c21-21.2,39.6-44.7,55.4-70
			c-13.1,10-28.1,17.1-42.8,24.5c-12.4,6.8-22.4,17.4-28.6,30.2c-6.1-13.1-19-21-31.8-26.8c-21.5-8.6-41.3-20.8-58.7-36
			C335.2,303.2,318.9,305.8,304.8,314z M437.6,311.6c-3.9,2.3-3.7,8.4-0.8,11.4c4,3.7,12.4,1.6,12.6-4.5
			C450.4,312.1,442.6,308.9,437.6,311.6L437.6,311.6z M264,362.8c1,0.2,3.1,0.5,4.2,0.6c0.8-3.4,1.6-6.6,2.1-10
			C267.5,356,265.4,359.2,264,362.8z M622.4,358.9c-0.5,2.6-0.8,5.2-1.1,7.7c2.9-1.5,5.8-2.9,8.7-4.5
			C627.8,360.3,625.2,359.2,622.4,358.9L622.4,358.9z M283,370c1.5,0.8,2.9,1.8,4.4,2.8c1-2.9,1.8-5.6,2.6-8.6
			C287.3,365.7,285,367.6,283,370z M601.6,388.1c-6,3.9-12.6,6.9-17.8,11.8c0.6,0.2,1.8,0.3,2.4,0.5c18.1-10.5,36.6-20.5,54.9-30.8
			c1.5-0.5,2.3-2.1,1.8-3.5c0-0.1,0-0.1-0.1-0.2C628.4,372,615,380.2,601.6,388.1L601.6,388.1z M604,367.6c-0.3,2.8-0.5,5.7-0.5,8.6
			c2.5-1.2,4.9-2.5,7.3-3.9C611.9,368.9,606.3,369.1,604,367.6L604,367.6z M258.7,370.3c0.3,0.5,0.8,1.6,1.1,2.1
			c17.6,5,34,14.5,46,28.7c2.1,2.9,5.3,4.2,8.6,5.3C304.5,385.2,280.6,374.5,258.7,370.3L258.7,370.3z M300.3,379.8
			c2.4,1.8,4.8,3.4,7.3,5c-0.2-3.2-0.2-6.5-0.5-9.7C304.8,376.8,302.6,378.4,300.3,379.8L300.3,379.8z M587.2,377
			c-0.5,2.7-0.6,5.4-0.3,8.1c3.3-0.9,6.3-2.6,8.7-5C593,378.7,590.1,377.6,587.2,377z M636.9,381.2c4.5,3.1,5.8,8.4,5.8,13.5
			c2.4-1,4.7-2.1,6.9-3.2c-4.4-3.4-7.4-8.1-6.9-13.7L636.9,381.2z M257.9,380c3.1,2.9,7.3,4.7,8.1,9.4c6.8-3.5,15.8,1.3,16,9.2
			c1.3-0.5,3.9-1.3,5.2-1.8c2.5,1.3,5.2,2.1,7.9,2.4C284.5,390,271.9,382.1,257.9,380z M423.6,452c-5.5,3.7-9.2,9-12.3,14.7
			c11.8-5.2,21.6-13.4,31.1-21.8c18.2-16.9,33.9-36.3,48.6-56.3c2-2.7,3.9-5.6,5.5-8.5C475.4,407.1,449.6,430,423.6,452L423.6,452z
			 M616.1,391c4.6,3.3,7.4,8.7,7.3,14.4c2.6-1.6,5.2-3.1,7.8-4.5c-4.7-3.3-7-8.9-6-14.5C622.1,387.9,619.2,389.5,616.1,391
			L616.1,391z M315.1,391.3c1.1,1.5,2.1,2.9,3.2,4.5c1.1-2.6,2.3-5,3.4-7.6C319.7,389.1,317.4,390.2,315.1,391.3L315.1,391.3z
			 M602.7,428.1c-2.4,1.9-5.8,3.2-6.1,6.8c6-2.2,10.3-7.3,16-10c5.6-5.2,11.9-9.8,19.4-12.1c2.1-0.5,3.4-2.6,5-3.9
			c4.7-4.8,12.1-4.5,17.1-8.7c2.8-2.3,8.2-1.6,8.7-5.8l-1.5-1C640.2,402,621.4,415.2,602.7,428.1L602.7,428.1z M593.7,402.9
			c7.3,0.2,11.5,6.9,11,13.7c2.8-1.5,5.6-3.1,8.4-4.5c-5.3-3.1-11-7.1-11.1-13.9C599.2,399.9,596.4,401.5,593.7,402.9L593.7,402.9z
			 M604.3,440.5c5.7,4.7,11.1,9.9,16.5,15c4.7-2.3,9.6-4,14.7-5.2c-14.2,11.9-20,31.1-19,49.2c12.9,1.3,23.4,10.2,36.2,12.3
			c-2,6.5-2.2,13.5-0.5,20.1c13.9-11.6,22.1-28.6,27.1-45.7c3.5-28.7-5-57.9-19.7-82.6C639.4,413.3,621.3,426.5,604.3,440.5
			L604.3,440.5z M582.9,411.5c2,5.5,5.1,10.5,9.2,14.7c1.3-1.3,2.4-2.6,3.5-3.9c-2.3-1.9-4.5-3.9-6.5-6.1c-2.6-2.6-0.3-6.6-0.5-9.9
			C586.9,408,585,409.7,582.9,411.5L582.9,411.5z M248.7,420.9l-19.4,28.6c0.7,2.7,3.4,2.7,5.7,3.2c18.9,3.1,37.8,6.3,56.8,9.2
			c13.1-7.3,12.6-24.9,24.2-33.4c5-3.2,10.7-0.2,14.7,3.2c3.8-0.1,7.6,1.2,10.5,3.7c6-1.1,10.5,2.9,13.1,7.9
			c3.7,1.6,8.4,4.4,7.3,9.2c-2.1,7.1-5.3,13.9-5.5,21.5c11.1,1.6,22.3,5.5,33.4,5.6c12.5-12.2,23.5-25.9,32.8-40.8
			c-51.5-8.2-103.1-15.7-154.6-23.6C260.9,413.8,252.7,414.9,248.7,420.9L248.7,420.9z M582.9,433c-3.7,24-2.8,48.6-1.1,72.8
			c4.4-21.8,2.6-44.1,3.2-66.2C584.6,437.3,585.9,433.8,582.9,433L582.9,433z M310,449.3c-4.2,11.3-12.6,22.6-25.2,25
			c-2.8-1.6-5.6-3-8.6-4.2c-1.1,5.3-2.3,11.1-0.3,16.5c2.7,9,11.6,14.2,20.2,16.5c6.8,1.3,14.4,1.5,20.2-2.9
			c9.5-6.6,18.6-13.9,27.6-21c8.2-6.1,7.3-17.6,9.4-26.5c-6.6,4.5-5.8,13.5-9.8,19.7c-3.5,5-7.6,9.6-12.1,13.7
			c-2.1,0.6-4.8,0.3-4.8-2.6c4.2-6.1,10-11.3,13.2-18.1c2.1-7.3,6-14.5,4.5-22.3c-2.1,0.6-5,0.6-5.3,3.4c-2.1,7.4-3.5,15.3-7.1,22.3
			c-2.9,5.3-7.3,9.7-11.5,14c-2.4-1.8-3.4-4.5-3.5-7.4c10.3-8.4,14.5-21.8,16-34.5c-7.6,2.7-8.7,12.1-11.6,18.5
			c-1.3,8.2-8.7,12.6-14,17.8c-2.7-1-3.7-3.4-4-6.1c8.7-4.4,10.7-14.5,15.2-22.3c2.3-4.7,5.7-9.2,4.7-14.7
			C315.3,434.9,312.9,443.3,310,449.3L310,449.3z M592.9,439.9c-0.2,21.5-1.6,42.8-3.4,64.1c5.7-1.8,11.7-2.4,17.6-1.8
			c-0.2-12.7,2.3-25.3,7.1-37c0.3-1.5,2.1-3.5,0.3-4.7C607.7,453.3,600.3,446.7,592.9,439.9L592.9,439.9z M559.5,526.3
			c2.7-1.3,5.5-2.6,8.2-4c1.9-3.3,4.1-6.5,6.6-9.4c-2.4-21.8-0.6-43.7-1.1-65.5C563.2,472.4,558.5,499.3,559.5,526.3L559.5,526.3z
			 M238.2,461.6c0.5,16.8-12.1,30.8-10.7,47.6c-0.3,7.3,6,11.6,10,16.8c2.9,3.4,5,7.5,6,11.9c1.3,5.5,7.3,8.1,12.6,7.6
			c8.9-1,17.4-3.2,26.1-4.8c8.6-1.4,16.5-9.2,15.2-18.2c-6.8-0.8-13.4,0.8-20,0.8c-1.3-4.2-3.4-8.1-6-11.6
			c-5.6-7.3-9.3-15.8-10.8-24.9c-1.1,0.3-3.5,0.8-4.7,1.1c-0.7-2.4-3.7-5.3-1.5-7.6c3.9-3.4,9-4.5,13.9-6c-0.3-2.6-0.7-5.3-1-7.9
			C257.5,464.8,247.9,463.1,238.2,461.6L238.2,461.6z M356.6,487.7c1.6,3.4,4.5,5.6,7.3,7.9c3.5-3.6,8.2-5.8,13.2-6.3
			c-0.2-0.6-0.7-1.8-0.8-2.4c-5.8-1.9-11.8-2.8-17.6-4.5C357.3,483.6,354.2,485.4,356.6,487.7L356.6,487.7z M269.5,490.8
			c-0.3,8.2,8.2,11.9,10.2,19.2c1.1,3.9,5.8,2.6,8.7,3.1c5-0.2,12.1,2.3,14.8-3.4c-9.2-0.6-19.2-2.1-26.1-8.7
			C273.8,498.1,272.7,493.6,269.5,490.8L269.5,490.8z M620.9,508.5c10.3,9.2,17.4,21.4,20.3,34.9c2.6-2.1,4.9-5.2,4.5-8.7
			c-0.6-6-1.3-11.9-0.8-17.9C637.1,513.6,629.7,509,620.9,508.5L620.9,508.5z M589.9,513.5c-0.6,3.1-2.8,6.1-2.3,9.4
			c0.3,2.6,3.2,2.3,4.8,1.3c2.1-2.1,3.2-4.8,5.6-6.6c4.5,2.7,2.6,8.5-0.3,11.8c-3.4,4.7-9.7,5-15,5.8c-6,1-13.4-0.8-17.6,4.7
			c8.7,2.6,17.8,1.5,26.6,0.6c2.1-0.5,5.5,1.5,4,4c-3.1,6.5-12.9,1.1-15.6,7.3c6.9,2.6,14.5,0.6,20.3-3.5c2.1-1.8,6.3-3.1,6.5,1.1
			c-6,7.9-16.3,9.5-25.6,10.5c-0.2,0.8-0.3,2.6-0.5,3.4c8.9,1.6,17.9-0.6,25.5-5.3c1.3,1.3,2.6,2.4,3.9,3.7c-5.3,6.6-14,8.2-22,9.4
			c0.2,3.5,4,3.1,6.6,3.2c12.1-0.2,22.9-6.6,32.1-13.9c6.9-5.7,7.8-16,5-24c-4-11-12-21.6-23.6-25
			C602.4,508.8,595.5,510.1,589.9,513.5L589.9,513.5z M561.2,549.7c2.4,3.5,4.8,7.6,9,9.2c2.7-2.4,0-6.1-0.2-9.2H561.2z
			 M488.8,551.3c-0.6,0.6-1.2,1.3-1.8,1.9C488.3,558.5,495.1,550,488.8,551.3L488.8,551.3z M426.5,551.8c1,3.9,1,7.9-1.5,11.1
			c4.4,3.9,6,9.8,3.2,15.2c3.7,4.7,5,11.5,1.1,16.6c1,0.5,2.9,1.1,3.7,1.6c0.5,3.9,0.8,7.8,0.8,11.8c3.9,2.1,7.4,5.2,7.9,9.8
			c1.1-0.2,3.2-0.7,4.4-0.8c2.6,1.1,5.2,2.1,7.7,3.1c5.2,0,10.3-0.8,15.3,0c2.6-1.1,5.1-2.3,7.6-3.7c-10.2,1.8-21.3,2.6-30.7-2.4
			c-6.3-3.2-10.3-10.2-10.8-17.1c-1.3-13.1-4.7-25.7-7.1-38.6c1,0,2.8-0.2,3.5-0.2c6,3.1,12.3,6.5,19,6.8c10.3,1,21.8-0.2,29.4-7.9
			c-1.4-0.1-2.8-0.2-4.2-0.2c-4.8,3.5-10.6,6.8-16.9,6.3C447.8,562.1,438.4,552.2,426.5,551.8L426.5,551.8z M551.4,559
			c-11.1,2.4-22.6,2.6-33.9,3.2c-4.7,1.9-1.9,7.7-2.3,11.6c1.5,2.4,3.2,4.6,5,6.8c3.2,1.9,7.3,1.3,10.8,1.8c5-5-1.8-10.8-1.8-16.3
			c5.6-1.6,7.1,6,12.6,6c0-5.8,7.6-5.3,11.1-7.8c-0.3,4.4-3.9,7.1-5.5,11c-0.7,2.4,0.8,4.7,1.8,6.9c4.4,0.7,8.9,1.1,13.4,1
			c2.4-2.2,4.8-4.8,8.2-5.6c2.9-0.2,5.8,0.6,8.7,1c-0.2-1.6-0.5-5-0.7-6.6c-6-2.3-12.1-4.2-17.4-7.8
			C558.5,561.7,555.8,557.4,551.4,559z M364.9,561.7c-8.6,3.4-12.4,12.9-15,21.1c7.1,1.1,14.8,2.4,21.8-0.5c2.6-1.1,1.8-4.7,2.1-7.1
			c-0.6-2.9-4.5-2.9-6.1-5.2c0.2-2.6,2.4-3.9,4.2-5.3c4.5,1.5,9.2,4,14,1.9c1.3,4-1.5,7.8-2.1,11.6c-1.3,4.7,3.2,10,8.2,9.4
			c4,0,11.1-0.3,11-6c-0.6-6.6,0.2-15-5-20C386.8,560,375.5,558.7,364.9,561.7L364.9,561.7z M407.1,561.4
			c2.6,20.3,5.2,40.5,7.8,60.8c0.8,6.9,6,12.7,11.9,15.8c8.5,4.4,18.4,5.3,27.8,5.3c12.6-1,25.7-1.5,37.1-7.1
			c8.1-3.9,15.2-11.3,16-20.5c1.9-15.7,1.1-31.5,0.2-47.1c-0.5-2.7,0.2-6.1-2.3-8.2c0,17.3,1,34.7,0.2,52
			c-1.9,13.6-15.6,21-27.8,24.2c-13.9,3.2-28.9,5-42.6,0.6c-8.4-2.7-16.8-9.4-17.6-18.7c-3.1-18.9-5.6-37.8-8.1-56.6
			C408.9,561.9,408,561.7,407.1,561.4L407.1,561.4z M485.9,562.9c0.5,1.9,0.8,4,2.1,5.7C491.4,566.9,489.4,562.2,485.9,562.9
			L485.9,562.9z M414.6,563.9c0.2,1.1,0.3,3.5,0.5,4.8c0.6-0.3,1.9-1.1,2.6-1.4c0.2-0.5,0.6-1.6,0.8-2.1
			C417.3,564.8,415.5,564.2,414.6,563.9L414.6,563.9z M468.6,569.9c10.6,5.8,16,21,8.9,31.3c-6.9,10-23.1,10-31,1.3
			c-2.1-1.9-2.1-6.1-5-7.1c-2.1,1.9,0.6,5.2,1.3,7.3c5.3,8.7,17.1,11.1,26.5,9.4c5.6-1,12.4-3.4,13.9-9.5c1.9-10.6,0.6-21.6,0-32.3
			c0.2-2.1-1.3-3.9-2.1-5.6C477,566.6,472.3,567.2,468.6,569.9L468.6,569.9z M436.5,570.4c1.3,7.1,2.8,14.4,3.4,21.6l1.6,1.6
			c1.1-3.4,0-7.1,1.5-10.5c1.8-5.3,6.3-8.9,9.8-12.9c-5-1.6-10.2-3.2-15.2-4.7C437.3,567.1,437,568.7,436.5,570.4L436.5,570.4z
			 M616,576.5c-6.1,2.1-12.8,2.4-18.9,4.3c-6.3,2.1-10,8.1-14.2,12.9c-19,25.2-27.3,56.8-29,87.8c-5.3-5.5-5-13.7-4.7-20.8
			c1-12.1,3.2-24.2,6.8-35.8c3.1-8.9,6.9-18.1,14-24.7c3.5-3.2,5.6-7.4,8.1-11.5c-8.4-1.1-16.3,2.9-22.4,8.4c-1.6,2.6-2.6,5.8-5,7.9
			c-17.1,17.1-30,39.7-31,64.4c-0.7-0.2-1.8-0.5-2.3-0.7c0.2-16.8,3.1-34.4,13.2-48.1c2.8-4.2,7.9-6.8,9.5-11.8
			c-4.7,1.5-7.9,5.2-11,8.6c-14.4,15.7-21.1,36.3-26.5,56.3c-4.8-1.3-3.9-7.7-4-11.6c2.1-10,8.1-18.4,11.9-27.8
			c4-9,10.8-16.9,12.8-27c-8.9,0.5-8.7,10.8-10.2,17.3c-3.5,7.6-10.5,12.9-17.1,17.9c-3.5,16.1-1.6,32.8,0.2,49.1
			c2.6,18.5,6.9,38.2,19.5,52.8c9,10.7,24,15.7,37.6,12c2.4-23.1,6.4-45.9,11.9-68.4c1.6-6.9,4.7-14,10.7-18.2
			c-2.4-6.5-2.1-14,1.8-19.8c1.1-2.4,4-1.8,6.1-2.3c-0.9,4.8-0.6,9.8,0.8,14.5c-1,2.7-1.3,5.5-2.4,8.2c-6.1,8.2-9.5,17.9-13.2,27.4
			c-1.3,4.2-3.5,9.5,0,13.2c9-1.1,18.1-3.4,27.3-3.1c19.5-0.8,39.5,4.8,54.7,17.4c11.5-16.6,17.6-36.6,18.7-56.6
			c-2.4-1.8-6.1-2.9-6.5-6.5c3.4-4.8,9-7.6,12.6-12.4c12.8-14.2,17.4-35.5,10.5-53.2c-6.3-11.9-19-18.7-31.8-21.5
			C642.1,572.5,628.5,571.9,616,576.5L616,576.5z M455.4,577.9c-9.7,3.9-9.5,20.8,1,23.4c7.9,3.4,19-2.3,17.3-11.6
			C474.4,580.3,463.5,572.7,455.4,577.9z M245,585c-14,10.2-20.7,27.9-20.8,44.9c0,12.1,0.3,25.3,7.4,35.8c2.3,3.9,6,7.3,7.1,11.8
			c4.2,17.8,10.5,35.3,20.3,50.8c6.9-8.7,16.9-14.4,27.4-17.3c20.7-5.7,42.3-2.6,62.6,2.6c-0.8-21.6-9.6-42.6-23.2-59.4l3.9-5.3
			c19,19,25.5,46.5,29.5,72.1c1.1,4.7,0,10,2.3,14.2c4.5,3.4,10.3,3.7,15.7,4.8c13.6-8.9,20.8-24.2,25-39.4
			c3.5-13.7,5.6-27.9,3.5-42c-1.1-11.1-3.7-22.3-9.5-32c-3.7-9.5-10.2-18.1-19.4-22.8c4.5,8.5,13.4,16.6,10.5,27.3
			c-3.5-2.3-4.2-6.8-6.5-10.2c-10.8-19.5-32.1-31.3-53.6-34.7c5.7,7.2,10.6,15.1,14.5,23.4c2.2,4.9,3.1,10.2,2.7,15.5
			c-6.3-12.5-14.3-24.1-24-34.2c-13.7-12.6-33.9-14.8-51.6-13.2C260.9,579,251.7,579.5,245,585z M518.6,588.7
			c-4.2,2.6-2.1,7.6-1.6,11.5c4.6-2.6,9.6-4.1,14.8-4.4c5.3,0,10-3.1,15-4.8c2.1-4.2-5.2-5.6-7.1-8.5
			C535.6,590.1,526.2,590.5,518.6,588.7L518.6,588.7z M693.9,589.8c0.6,1.9,2.4,3.1,4.4,2.7c38.2,0,76.5,0.2,114.7,0
			c0.8-0.3,1.6-0.6,2.4-1l-0.8-1.5C774.4,590,734.1,589.7,693.9,589.8L693.9,589.8z M418.4,592.1c0.5,2.3,0.8,4.7,1.3,6.9
			c1.3-1.3,2.4-2.4,3.7-3.5C421.8,594.3,420,593,418.4,592.1z M391.5,595.8c5,4.2,10,8.4,14.4,13.4c-0.9-5.2-2-10.4-3.5-15.5
			C398.7,594.5,395,595.3,391.5,595.8L391.5,595.8z M696.1,600.5c3.1,8.9,5,18.2,5.7,27.6c24.7-0.2,49.2,0.2,73.9-0.2
			c7.1-2.9,12.3-9,16.8-15c2.3-3.9,6.1-7.6,5-12.4C763.6,600.6,729.9,600.5,696.1,600.5L696.1,600.5z M421.3,610.8
			c1.1,10.8,8.9,21.3,20.5,21.8c-0.6-1.5-1.3-2.7-1.9-4c-2.6-4.2-8.9-1.8-11.6-5.7c-2.9-2.9-2.2-7.1-2.1-10.8
			C424.6,611.5,423,611.1,421.3,610.8L421.3,610.8z M469.6,627.7c-2.1,1.5-0.6,5.5,2.1,4.5C475.1,631.4,472.3,625.5,469.6,627.7
			L469.6,627.7z M453.7,630.1c-2.7,0.7-1.3,4.7,1.3,3.5C458,633.2,456.4,628.9,453.7,630.1L453.7,630.1z M412,642.7
			c-0.2,7.1,0.6,14,0.8,21.1c0,23.9-2.6,49.2-16,69.9c-6.6,10.5-18.9,18.2-31.6,15.3c-0.7,4.4-1.5,8.9-0.2,13.4
			c4.5,18.7,10,37.3,15.7,55.7c11.6,3.1,24.9,3.5,35.2-3.2c14-9.2,20.3-26.1,22.4-42.1c3.5-36.2,5.2-72.3,6.9-108.6
			c-0.2-4.3,1-9-0.5-13.2c-8.7-2.1-18.7-1.5-26-7.6C417,641.5,412.8,638.1,412,642.7L412,642.7z M689.5,643.7
			c-2.6,5.5-5,11.1-9.8,14.8c-2.7,14.7-6.3,29.4-9.7,44.1c1-0.2,2.9-0.7,3.9-0.8c11-17.9,15.7-39,18.7-59.7
			C691.5,642.6,690.5,643.1,689.5,643.7L689.5,643.7z M469.1,649.9c-5.2,0.5-10.5,0.2-15.3,1.9c-3.4,17.6-2.6,35.7-4.2,53.4
			c-0.6,14.2-1.3,28.4-1.9,42.4c1.9,18.2,5.6,37,16.1,52.3c6.6,9.7,17.9,16.3,29.7,15c3.7-4.2,7.3-8.4,11-12.4
			c-25-15.3-40.4-42.3-40.8-71.7c2,1.3,3.5,3.1,4.4,5.3c6.8,16.5,15.8,32.3,28.4,45.2c12.1,11.9,28.1,21.1,45.5,20.8
			c1.3-2.8,2.4-5.5,3.7-8.2c-1.6-1.6-3.2-3.2-5.7-3.7c-18.2-5-36.1-13.2-49-27.4c-12.3-13.4-18.2-32.4-14.9-50.3l2.1,1.1
			c2.6,14.4,7.4,28.9,16.8,40.3c12.8,16.1,34,24.4,54.4,22.6c0.5-2.1,1-4,1.6-6.1c-1.6-1.5-3.2-2.9-4.8-4.2
			c-10.5,0.8-21.3-1.5-29.7-7.9c-12.3-9.2-19-23.6-23.2-37.9c-6.1-21.5-7.8-44-7.1-66.3c-0.2-2.1,0.3-6.3-2.9-6.1
			C478.6,648.2,473.9,649.4,469.1,649.9L469.1,649.9z M700,647.1c-3.2,19.2-10.8,37.3-19,54.7c21,0.2,41.8,0.3,62.8,0.3
			c-5.2-17.1-6.9-36,0-52.8c-0.5-0.5-1.5-1.6-1.9-2.3C727.9,646.8,713.9,647.1,700,647.1L700,647.1z M675.3,711.5
			c25.5,0.5,51.2,0.5,76.7,0c-1.6-1-3.2-1.8-5.2-1.5h-66.2C678.7,709.8,676.8,710.3,675.3,711.5L675.3,711.5z M567,718.3
			c-0.4,1.3-0.7,2.6-1,3.9c27.1-6.9,57.6-4,80.5,12.9c0.5-1.6,1.1-3.2,1.6-4.8c-5.8-4.7-12.4-8.3-19.5-10.5
			C608.7,713.4,587.4,714.5,567,718.3L567,718.3z M288,718.6c-10.1,2.3-19.1,8.1-25.3,16.4c0.6,1.3,1.9,3.5,2.4,4.8
			c7.7-10.3,20.3-15.7,32.8-18.1c17.9-3.1,36.3-0.6,53.9,2.9c-1-3.1-4.2-3.1-6.8-3.9C326.5,716.7,306.8,713.9,288,718.6L288,718.6z
			 M656.6,732.3h113.9c-3.2-4-6.3-8.4-9.2-12.6h-93.6C664,724.1,660.3,728.1,656.6,732.3L656.6,732.3z M582.4,737.1
			c5.3,1.1,8.9-5.3,14.2-3.4c0.9,2,1.7,4.1,2.3,6.3c-1.6,2.3-4.8,1.3-7.1,1.8c-3.9-0.2-6.9,2.4-9.8,4.5c3.5,2.1,8.9,3.2,12.1,0
			c1.8-2.1,4.5-1.5,6.8-1.5l3.9,4.8c2.1-0.5,4-1,6.1-1.5c0.3-3.9-1.8-6.8-5.5-8.1c-1.1-3.5,0.2-7.9-2.3-10.8
			C595.5,728.1,586.7,730.5,582.4,737.1z M308.4,734.2c-0.7,1.2-1.5,2.3-2.4,3.4c-5.5,0.6-10.5-2.3-15.3-4.2l-0.5,5.3
			c-0.8,1.1-2.3,3.5-3.1,4.7c2.8-0.7,5.3-1.3,8.1-1.9c11.2,1.5,18.2,11.9,28.9,14.7c6.1,1.5,9.5-4.5,12.4-8.7
			c-1.9-0.8-3.9-1.5-5.8-2.1c-2.4,2.4-4.7,5.3-8.2,6.1c-5,0.8-9.2-2.7-12-6.5c-1.8-2.1,1.5-3.5,2.4-5.2c5.7,0.2,11.1,1.5,16.8,1.8
			c-0.5-1-1.6-3.1-2.3-4c-2.3-0.2-4.5-0.5-6.8-0.7c-1.6-2.6-2.6-6.9-6.5-6.6C312.1,731.7,310.3,733,308.4,734.2z M619.4,748.8
			c4.2-3.7,10-7.3,9.4-13.5C623.2,737.5,618.1,742.2,619.4,748.8L619.4,748.8z M654.7,740c-6.1,16.6-12.3,33.1-18.7,49.5
			c71.8,0.6,143.8,0.6,215.6,0.6c0.2-16.8,0.2-33.4,0-50.2C786.1,739.9,720.4,739.9,654.7,740L654.7,740z M110.4,743.6
			c0.2,15.7,0,31.3,0.2,46.8H275c-6.6-15.5-12.8-31.3-19.2-47C207.4,743.4,158.8,743.1,110.4,743.6z M292.9,749.9
			c-1.9,5.5,3.9,8.7,6.5,12.9c1.5,3.4,5.5,1.8,8.4,2.4c1.1-1.5,2.1-3.1,3.1-4.7c-3.5-1-7.1-1.5-10.5-2.6
			C296.4,756.7,296.6,751.5,292.9,749.9L292.9,749.9z M578.1,751.8c-1.3,4.3,4,5.3,7.3,5.7C585.1,754.1,581.4,750.7,578.1,751.8
			L578.1,751.8z M609.4,761.2c3.2-0.5,7.9,1.8,9.4-2.4C615.5,758.4,610.5,756.8,609.4,761.2L609.4,761.2z M286.8,769.9
			c2.9-0.1,5.7-0.7,8.4-1.6C293.7,763.6,288.2,766.8,286.8,769.9L286.8,769.9z M559.3,770.1c17.9-1.9,37.1-3.5,53.9,4.7
			c6.5,2.6,11.1,7.9,16.8,11.8c0-5.2-5-7.6-8.5-10.3c-15.8-10.2-35.5-10.7-53.7-9.4C565,767.3,560.9,766.8,559.3,770.1L559.3,770.1z
			 M289.9,778.4c-2.1,1.9-7.8,5.2-4.7,8.1c4.2-4,8.7-7.9,14.4-10.2c19-8.1,40.2-6.6,60.3-6.3c-3.1-3.1-7.9-1.6-11.8-2.3
			C328.6,767.6,307.1,767.6,289.9,778.4L289.9,778.4z M555.8,786.5c-4.2,13.6-7.8,27.4-12.1,41c2.8,0.8,4.5,3.2,6.3,5.3
			c0.8-1.1,2.3-3.4,3.1-4.5c1.3,1.5,2.5,3.2,3.5,4.8c2.1-1.3,4.4-2.6,6.5-4c0.3,1.4,0.6,2.8,1,4.2c1.8-1.5,3.4-2.9,5.2-4.4
			c0.3,1.3,1.1,3.9,1.6,5.2l6.3-3.4c0.6,2.3,1.5,4.3,2.3,6.6c2.1-1.6,4.2-3.4,6.1-5c0.3,2.1,0.5,4.4,0.8,6.5c2.3-1,4.5-2.1,7.1-1.5
			c3.1-2.7,6.1-5.3,8.1-9c6.8-12.9,13.5-25.8,20.5-38.6c-14.9-11.3-34.4-14.5-52.6-12.3C563.7,778.6,557.4,780.9,555.8,786.5
			L555.8,786.5z M301.8,785.7c8.9,17.3,17.1,34.8,25.8,52.1c1,2.3,3.1,3.9,5,5.5c0-6.6,2.6-12.4,5-18.4c0.7,0.8,1.9,2.3,2.6,3.1
			c0.6-0.3,2.1-0.8,2.7-1.1c2.3,1.5,4.2,3.1,6.8,4.2c2.9-1.3,5.5,0,8.1,1.3c0.8-1.3,1.6-2.4,2.2-3.7c0.8,1.1,1.6,2.2,2.3,3.4
			c0.8-0.7,2.6-2.3,3.5-2.9c2.4,2.1,4.7,1.9,6.9-0.5c0.8,1.1,2.3,3.2,2.9,4.4c0.5-0.7,1.8-2.1,2.3-2.9c-4.2-14.7-9.8-28.9-14.4-43.6
			c-1-2.3-1.3-5.7-4.3-6C340.5,774.7,319.4,776.8,301.8,785.7L301.8,785.7z M444.6,778.1c-1.1,4.4-2.3,8.7-3.7,12.9
			c3.4,0,6.9,0.2,10.3,0.2C449.1,786.8,447,782.5,444.6,778.1L444.6,778.1z M288.4,795.4c2.6,0.2,5.3,0.3,7.9,0.3
			C296.9,790.1,289.3,791,288.4,795.4z M124.6,799.3c0,2.4-0.2,5-0.2,7.4h157.7c-1.5-2.5-3.2-4.8-5.2-6.9c-4.2-1.1-8.5-0.5-12.9-0.6
			C217.7,799.3,171.1,799.3,124.6,799.3L124.6,799.3z M436.9,806.2c7.7,0.5,15.6,0.5,23.4,0.3c-1.3-7.9-11-7.7-17.1-6.9
			C439.6,799.4,434.4,801.7,436.9,806.2L436.9,806.2z M626,801.4c-1,1.5-1.9,2.7-2.9,4.2c72.8,0,145.6-0.1,218.5-0.2
			c0-1,0.2-2.9,0.2-3.9C769.9,801.2,697.9,801.4,626,801.4L626,801.4z M425.4,817.7c2.7,0.5,5.5,0.8,8.2,1.3c1.9-1.6,4.5-2.8,5-5.5
			C433.9,814,428.4,813.5,425.4,817.7z M688.9,813.1c2.4,2.1,4.7,4.2,7.1,6.1h6.6c0.2-1.5,0.6-4.5,0.8-6
			C698.6,813,693.7,813,688.9,813.1L688.9,813.1z M764.8,812.8c0.3,2.7,0.7,5.5,0.8,8.2c7.6-0.5,15.8,1.6,22.8-2.8
			c1.4-1.7,2.6-3.4,3.7-5.3C782.8,812.7,773.8,813,764.8,812.8L764.8,812.8z M799,817.8c-4.8,4-10.7,8.7-10.8,15.7
			c-0.8,6.5,2.7,13.6,9.2,15.5c-2.9-8.9-5.6-20.5,1.8-27.9c8.1-7.3,19.5-5.3,29.4-6.3c-0.3-0.5-0.8-1.5-1.1-1.9
			C817.8,813.2,806.9,811.2,799,817.8L799,817.8z M131.9,817c3.7,5.7,10.7,2.1,15.2-0.6C141.8,815.6,136.4,814,131.9,817L131.9,817z
			 M179.6,814.6c2.2,2.4,4.7,4.5,7.4,6.3c5-1.8,11.8,0.2,14.4-5.8C194.2,814.4,186.9,814.2,179.6,814.6L179.6,814.6z M508.8,818
			c2.9,1.7,6.7,0.6,8.3-2.3c0,0,0-0.1,0.1-0.1C514.6,814.8,508.2,814.4,508.8,818z M618.4,814.6c0.8,3.9,2.3,7.6,5.8,9.7
			c1.3-3,2-6.2,2.1-9.5C623.7,814.6,621.1,814.6,618.4,814.6z M273.1,816c1,1.8,1.9,3.5,2.9,5.5c1.9,0,3.7-0.2,5.7-0.2l0.5-5.3
			H273.1z M528.4,818.5c-3.7,2.4-9,4.8-8.7,10c-0.6,6.6,3.5,12.4,8.7,16.1c4.2-9.2,8.7-18.9,10-29
			C534.8,815.6,531.2,816.2,528.4,818.5L528.4,818.5z M733.6,819c-6.6-0.3-14-4.4-20.2,0.2c-7.6,7.1-5.3,20.7,3.1,26.1
			c-1-6.9-4-15.5,1.9-21.1c3.7-4,9.4-2.4,13.7-0.8c6.9-6,20-5.5,23.9,3.7c3.7,6.9-0.5,14.5-4.5,20.3l3.4-0.5
			c7.8-7.1,10.5-22.6,0.6-29.2C748.6,813.8,740.4,816.5,733.6,819L733.6,819z M161.4,818.2c6.1,4.4,11.6,10.2,13.5,17.6
			c1.8,4.5,0.2,10,3.7,13.7c3.5-5.8,4.7-12.7,3.4-19.4C178.5,822.3,169.1,820.2,161.4,818.2z M231.6,819.4c-8.2-1.9-18.4-3.7-25,3.1
			c-7.8,7.1-8.1,24,3.9,27c-0.6-6-3.1-11.9-1-17.8c1.3-5,5.8-9,11-9.2c7.1-1.1,14,2.4,21.1,0.8c6.1-1,13.4,0.3,16.8,6.1
			c3.4,6.3,0,13.2-1.9,19.5c5.8-2.6,9.4-8.4,11.6-14c2.4-6.3-1-13.9-7.4-16C251.1,815.2,241.4,821.9,231.6,819.4L231.6,819.4z
			 M441.9,822.3c-8.9,7.4-4.7,24.4,6.8,26.8c-1.6-5.6-3.9-11.5-3.1-17.4c1.1-2.9,2.4-5.7,3.9-8.4c2.3-1.5,4.7-2.4,6.9-4
			c2.4,0.3,5.5,2.9,7.1-0.5c-1.8-0.8-3.7-1.5-5.5-2.3C452.8,819.3,446.2,818.2,441.9,822.3L441.9,822.3z M631.3,830.1
			c-0.7,8.1,5.2,14.8,12.4,17.6c-4.8-6.5-9-15.8-4.4-23.4c2.9-5.2,9.8-3.4,13.9-7.1c-4.4-0.2-8.7-0.8-12.9,0.8
			C636,820.6,630.5,824.1,631.3,830.1L631.3,830.1z M655.2,818c-1.3,0.8-2.6,1.6-3.7,2.4c2.9,0,6,1.9,8.9,0.8
			c5-2.1,10.5-2.6,15.8-1.3c5.7,3.2,7.8,10.5,6.1,16.6c-0.5,5.7-6.4,8.2-8.5,13.1c11.5-2.8,19-19.4,11.3-28.9
			C676.8,812.7,665,818.2,655.2,818L655.2,818z M288.2,823.8c-3.1,2.8-4.4,7.1-3.4,11.1c0.6,5.2,2.6,12.1,8.6,13.1
			c0.6-6.3-3.7-13.2,0.2-19.2c3.4-6.5,11.5-6.3,17.8-7.7c-1.2-1.4-3-2.1-4.8-1.9C300.2,818.6,293.1,819.3,288.2,823.8L288.2,823.8z
			 M493.3,822.3c0.7,2.5,1.6,5,2.6,7.4c5,4.5,1,11.5,0.5,16.9c4.5-5.8,11.6-12.7,7.9-20.8C502.7,821.2,497.2,822.2,493.3,822.3
			L493.3,822.3z M409.9,827.3c-2.6,3.4-0.6,7.6,0.6,11c-1.6,3.4-2.6,7-3.1,10.7c8.4-3.7,16.1-12.6,12.8-22.3
			C419.1,822,412,824.1,409.9,827.3L409.9,827.3z M811,824.9c-3.1,0.8-7.1,0.8-8.4,4.2c-3.7,6.5,0.8,13.4,4,19
			c6.6-1.3,13.1-5.2,15.5-11.6c1.6-3.7,1.1-7.9,1-11.8C819.1,823.9,815,824,811,824.9L811,824.9z M146,826.5
			c-6.5,2.3-5.2,11.9-0.3,15.3c5.8,3.6,12.1,6.5,18.7,8.5c1.8-1.8,5.3-2.7,5.3-5.6C169.6,833.3,157.5,822.5,146,826.5z M609,828.2
			c-3.5,6.5-7.3,13.2-6.8,20.8c4.2,0,9.5-0.6,11.8-4.7c3.1-6.4,3.4-13.7,0.8-20.3C612.2,824,609.9,825.7,609,828.2L609,828.2z
			 M769.9,828.2c-1,7.3-4,14.2-8.6,20c7.9,0,15.8-0.2,23.7,0c-6-5.3-3.2-13.6-5.6-20.2C776.4,828.2,773.1,828.2,769.9,828.2
			L769.9,828.2z M452.4,833.2c1.1,4.7,1.5,10,4.8,13.7c2.1,1.3,4.7,1.5,6.9,2.3c6.6-0.5,13.4,0.7,20-1c2.4-4.8,8.5-10.2,5-15.8
			c-4.2-5.8-12.8-4.5-18.4-1.5C465.1,827.8,455.4,825.2,452.4,833.2L452.4,833.2z M647,836.2c4.2,4.7,10,7.4,13.9,12.6
			c4.5-6.6,16.9-9.8,13.2-19.8c-4.5-0.3-9.2-0.6-13.1,1.8c-4.2-1.1-8.2-3.2-12.8-2.8C644,828.5,644.8,834,647,836.2L647,836.2z
			 M697.8,828.2c-1.9,7.3-4.4,14.4-8.9,20.5h19.4C703.2,842.7,700.2,835.4,697.8,828.2L697.8,828.2z M733.8,832.3
			c-3.6-0.9-7.2-1.5-10.8-1.9c-1,4-0.8,8.5,1.9,11.8c2.9,3.9,7.9,5.2,12.4,6.6c4-3.1,8.4-6.1,10.5-11c1.3-2.6,2.1-6.5-0.6-8.4
			C742.5,827.3,738.3,831.9,733.8,832.3L733.8,832.3z M191.3,831.3c-0.7,5.7-1.3,11.3-2.1,17h6.8
			C194.5,842.5,193.8,836.5,191.3,831.3L191.3,831.3z M216,834.6c0,5.3,1.6,11.1,6.5,13.9c6.5,0.2,12.9-0.3,19.4,0
			c4.8-3.1,10.5-7.4,10-13.7c-1.1-3.5-5.3-4-8.4-3.4C234.2,833.3,224,828.6,216,834.6L216,834.6z M303.7,845.2
			c5.6,4.7,13.7,3.5,20.5,2.3c-1.8-5-3.5-10-6.6-14.4c-3.7-2.9-8.7-2.7-13.1-1.9C298.1,833.2,300.2,841.5,303.7,845.2L303.7,845.2z
			 M388.1,831.5c1,6.1,1.3,13.1,6.1,17.6c2.6-1.9,5.2-3.9,7.9-5.8c0.8-3.7,2.1-9.3-2.3-11.3C395.8,831.1,391.8,831.5,388.1,831.5
			L388.1,831.5z M422.8,848.8c4,0.2,7.9,0,11.9,0c-2.9-4.8-4.5-10.3-5.8-15.8C427.1,838.5,424.7,843.5,422.8,848.8L422.8,848.8z
			 M270.7,848.3c3.5-0.3,7.1-0.3,10.7,0c-1.8-3.4-3.3-7-4.5-10.7C274.8,841.4,272.7,844.9,270.7,848.3L270.7,848.3z M341.5,837.8
			c-0.5,6.8-1.9,15.8,5,19.8c2.6-1.8,5.2-3.7,7.6-5.7C352.6,845.6,348.1,839.8,341.5,837.8L341.5,837.8z M508,848.1
			c3.2-0.1,6.4,0,9.5,0.3c-1.6-3.5-3.2-7.1-4.8-10.7C511.1,841.1,509.4,844.6,508,848.1L508,848.1z M362,844.1
			c2.3,0,3.4-4.2,0.8-4.5C360.3,839.6,359.1,843.8,362,844.1L362,844.1z M367.5,840c-0.8,2.4,0.2,3.2,2.9,2.6c0.7-2.4-0.2-3.2-3-2.6
			L367.5,840z M556.5,840.8c0.8,1.1,1.6,2.1,2.6,3.2c2.4-2.7,5.5-2.3,8.4-0.3c-0.2-0.8-0.7-2.4-0.8-3.2c-3.5-0.3-6.9-0.7-10.3,0.3
			L556.5,840.8z M541,842.9c-0.6,2.4,3.7,4.5,4.7,1.8c0.4-2.4-4-4.7-4.8-1.8L541,842.9z M623.7,841.6c-1,2.4-3.9,7.6,0.2,8.5
			c2.9-1.5,5.8-1.1,8.9-0.6c-2.5-3.2-4.8-7.1-9.2-7.9L623.7,841.6z M590.9,849c-6.9,1.5-10,12.9-2.4,15.7c5.8-1,7.3-8.7,7.1-13.7
			C596.3,847.7,592.7,848.2,590.9,849z M363.9,850.9c-4,8.1-10.8,16.1-21,15.3c-1.6,2.3-3.9,4.4-3.9,7.3c-1,10.2-3.4,20.3-8.2,29.5
			c10.7-0.3,21.5,0,31.8,3.4c18.1,5.3,32.9,18.7,41.3,35.3c1.5,0.2,4.4,0.5,5.8,0.5c7.4-3.7,13.4-11.6,11.5-20.2
			c-2.1-7.7-4.4-15.7-9.5-21.9c-2.3-3.1-6.3-3.1-9.7-3.9c0.2-4.5,3.1-8.5,2.7-13.1c-3.9-9-9.4-17.6-15-25.7
			C383.2,850.9,372.8,850.4,363.9,850.9L363.9,850.9z M533.4,855.6c-9.9,11.3-14.7,26.8-13.7,41.8c-8.7,6.1-14.3,15.7-15.5,26.3
			c-0.8,6,4,12.3,10.2,11.9c10.2-1.9,17.3-10.7,21.8-19.4c3.1-6.6,9-11.6,15.8-14.4c10-4,21.5-5.8,31.8-1.9
			c12.8,3.7,22.4,14.4,26,26.9c3.7-4.2,3.4-10.6-0.5-14.5c-9.7-10-16.9-22.6-19-36.3c-3.2-2.4-7.4-3.7-10-7.1
			c-3.4-3.4-3.9-8.4-5.3-12.6C561.9,849.8,546.6,849.4,533.4,855.6L533.4,855.6z M159,857.9v4.8h171v-4.8H159z M400.6,857.9
			c1.9,1.8,2.7,5.5,5.8,5.5c36.5,0.2,72.8,0,109.2,0c1.6-1.9,3.1-3.7,4.7-5.6C480.2,858,440.4,857.7,400.6,857.9L400.6,857.9z
			 M603.9,857.9c-0.5,1.3-1.6,4-2.3,5.5c67.8,0,135.7,0.3,203.5-0.2c0-1.3-0.2-4-0.2-5.3H603.9z M606.5,897.7
			c4,6.5,9.5,12,16.1,15.8c7.1,0.2,9.5-8.4,11.9-13.7c2.7-6.5,9.7-9,16.1-10.7c-1.5,3.2-2.4,6.8-1.6,10.2
			c1.8,9.7,7.4,17.8,11.3,26.6c2.1,6.1,0.3,12.8-2.3,18.5h62c0.2-24.8,0-49.5,0-74.4H599.4C597.6,879.8,601.8,889.3,606.5,897.7
			L606.5,897.7z M727,870.1c0,24.7,0.2,49.2,0,73.9c22.9,0.3,45.7,0.2,68.6,0c-0.2-24.7,0-49.2,0-73.9H727z M171.6,871.8v73.4h71.5
			c-0.2-24.5,0-49.1-0.2-73.4H171.6z M250.7,872.4v72.9h20c-3.1-6.8-4.5-14.5-2.9-22c1.5-11.9,11.1-21.1,11-33.6
			c11.8,3.5,18.9,14.5,25.8,23.7c17.4-5.3,27-23.7,27.1-41.2C304.7,872.2,277.6,872.5,250.7,872.4L250.7,872.4z M408.2,872.6
			c0.7,3.1,1.8,6.2,3.4,9c-2.3,10.5,7.9,16.6,11.8,25c6.8,11.1,7.6,27-1.9,36.8c28.2-0.2,56.6,0,84.9,0c-5.3-5.3-10.8-11.8-9.5-19.8
			c0.2-12,11.6-18.6,15.3-29c1.5-7.3,1-14.8,2.1-22.1C478.9,872.5,443.4,872.2,408.2,872.6L408.2,872.6z M284.2,904.8
			c-3.5,7.1-8.2,14.2-9.2,22.3c-0.6,6.7,1.9,13.4,6.8,18.1c11.3-0.2,22.4-0.2,33.7,0c-10.2-9.7-17.6-21.8-23.2-34.5
			C290.6,908,287.7,903.3,284.2,904.8L284.2,904.8z M634.6,913.2c-6.3,11.5-16.6,21.1-29.4,24.7c-2.3,2.3-4.5,4.4-6.8,6.5
			c16-0.3,32.1,0.3,48.1-0.3c6.3-3.5,9.2-12.3,6-18.9c-3.2-7.1-7.1-13.9-10.5-21C639,907.1,636.3,909.8,634.6,913.2L634.6,913.2z
			 M546.6,915.6c-6,5.8-6.5,16.9,0.2,22.6c7.6,6.1,17.9,6.3,27.1,6.1c-2.1-1.9-4.2-4-6.1-6.1c1.5-1.6,3.1-3.2,4.5-4.7
			c6.1,4.2,13.9,4.8,21,3.5c4.3-1.3,6-5.8,8.1-9.4c-7.3-0.3-14.8-0.2-21.8-2.7c-2.9-2.3,0.5-5.2,2.3-6.6c1.8,0.3,5.2,1,6.9,1.3
			c-0.8-7.1-8.1-10.5-14.4-11.1C564.6,907.2,553.5,908,546.6,915.6L546.6,915.6z M324.7,911.6c-3.2,3.9-7.9,6.1-11.6,9.5
			c-2.6,2.2-1.5,6,1.1,7.6c1.8-8.5,10.3-12.3,18.1-13.7c3.5,3.2,3.9,8.1,4.4,12.6c-5.8,0.7-12.1,1.1-16.3,5.7
			c2.6,2.9,4.8,6.3,8.2,8.4c5,1,11.3,1.3,15.2-2.6c2.1-2.3,2.1-6.9,5.6-6.9c2.8,1,3.9,3.9,5.3,6.1c4.7,2.9,10.2,4,15.7,4.4
			c4.4-1.7,8.4-4.3,11.7-7.6C371,915.3,346.3,906.7,324.7,911.6L324.7,911.6z M640.2,1008c-57.9,10.2-117,15.8-175.7,14
			c-70-0.6-140.1-10-208.2-26.5c-60.5-15-120.1-34.7-175.7-62.6c-22.9,33.9-46.2,67.5-69.1,101.3c-1.6,1.9,2.1,2.7,3.1,3.7
			c31,17.1,63.6,31.1,96.7,43.7c67.8,25.5,138.1,43.9,209.5,56.3c29.8,5.7,60.2,8.9,90.5,10.8c75.8,4.7,152.3,2.4,227.4-9.8
			c42.1-7.4,83.3-19,123.9-32.3c64.3-21.6,127.2-46.9,188.5-76c-23.6-35.5-46.8-71.2-70.2-106.9C806.5,966.3,724.1,992.8,640.2,1008
			L640.2,1008z M150.8,953.5c28.6,9.7,57.1,18.9,86.2,26.5c10.2,2.3,20,6.5,30.5,5.8h411.5c6.6,0,13.2,0.7,19.5-1.3
			c32.6-8.2,65.4-17.1,96-31.1c-6.8-0.5-13.7-0.2-20.5-0.3H220.6C197.4,953.2,174,952.2,150.8,953.5L150.8,953.5z M305.8,994.5
			c17,3.9,34.4,7.3,51.8,6.9h251.9c14.8-1.1,29.5-3.4,43.9-6.9c-5.5-0.5-11-0.3-16.5-0.3H382C356.6,994.4,331.3,993.7,305.8,994.5
			L305.8,994.5z M402.8,1009.1c22.4,4,45.3,2.4,67.9,2.8c20-0.2,39.9,0.8,59.9-1.5c4.7-0.8,9.8,0.5,14-1.9
			C497.3,1009.7,450.1,1008.2,402.8,1009.1L402.8,1009.1z"/>
	</g>
	<path id="path362" d="M411.3,172c3.1-4.8,8.1-9.4,14.2-8.4c7.4,1,16.5-0.7,22,5.7c4.5,3.7,4,10.2,4.7,15.5
		c0.5,8.6,2.3,17.1,2.1,25.8c-1.1,6.3-10,4-12.4-0.2c-2.9-3.9,1-7.6,2.3-11.1c0.6-4.5,0.2-9-0.2-13.5c-5-1.3-10.2-0.3-15.2,0.3
		c-3.2,0.3-5-3.6-8.2-3.2c-1.8,0.8-3.5,1.8-5.3,2.8c-2.6-2.9-0.2-6.9,2.6-8.6c5.5-3.2,12.1-1.9,18.2-3.1l1.9-1.9
		c-4.5-1.8-9.5-2.1-14.4-1.9C419.6,170.6,415.7,172.8,411.3,172z"/>
	<path id="path364" d="M371.5,186.4c1-0.5,3.1-1.6,4.2-2.1c1.9,4.3,5,8.1,8.1,11.6c-1,2.6-1.8,5.2-2.6,7.8c-1.3,0.6-2.6,1.1-3.9,1.6
		C370,202,371.3,192.8,371.5,186.4z"/>
	<path id="path366" d="M462.3,206.6c1.8,0.2,3.7,0.2,5.5,0.3c1.1,4-1.9,6.6-5.8,5.8C462.2,210.8,462.3,208.6,462.3,206.6z"/>
	<path id="path368" d="M433.9,229.6c12.3-6.3,26.6-3.6,39.9-3.4c-0.2,1.1-0.3,3.1-0.5,4.2c-7.3,1.6-14.7,1.1-22,2.6
		c-4.6-0.5-9.2,0.3-13.4,2.3C436.1,233.8,434.7,231.9,433.9,229.6z"/>
	<path id="path370" d="M446.7,237.2c5.8-0.2,11.8-0.5,17.6-0.5c0.6,0.6,2.1,2.1,2.7,2.9C460.7,243.2,450.9,244.3,446.7,237.2z"/>
	<path id="path372" d="M389.1,301.6c3.4-3.4,8.9-1.4,12.3,1c3.1,4.5,1,12.3-4.7,13.4c-3.9,0.3-8.7-1.3-10.2-5.3
		C386.1,307.4,387,304.2,389.1,301.6z"/>
	<path id="path374" d="M409.1,308.5c4.2-1.9,10.8-1.4,12.6,3.7c2.3,3.5,0.3,7.6-0.6,11.1c-3.7,2.4-8.9,4.5-12.6,1.1
		C403.3,320.8,403.4,311.8,409.1,308.5z"/>
	<path id="path376" d="M344.2,598.7c4-1.6,7.8,1.5,11,3.4c15.7,10.7,24.8,28.7,27.9,47.1c2.1,12.3,4,24.7,2.9,37.3
		c-0.5,1.1-1.6,3.4-2.1,4.4c-5.8-1.8-3.9-7.9-4.2-12.6C379.1,648.7,367.1,618.4,344.2,598.7z"/>
	<path id="path378" d="M313.5,598.2c2.3,0.3,4.7,0.5,6.9,0.8c3.8,4,6.9,8.7,9.2,13.7c-2.3,1.3-5,3.4-7.4,1.5
		C318.7,609.2,314.7,604.3,313.5,598.2z"/>
	<path id="path380" d="M543.8,616.1c2.3-3.4,4.3-7.9,9.4-6.9c-14.9,28.1-16.3,60.8-15.3,92c-6.9-12.9-5.2-28.2-5.2-42.3
		C532.4,643.9,536.2,629.1,543.8,616.1z"/>
	<path id="path382" d="M351.1,634.8c3.4-2.3,6,3.1,6.9,5.8c0.5,4.5,3.2,11.3-2.1,13.9c-3.4-0.2-3.7-4.2-4-6.6
		C351.6,643.5,349.9,639,351.1,634.8z"/>
	<path id="path384" d="M392.8,639.3c4.9,4.7,7.5,11.4,6.9,18.2c0,2.7-2.3,5.3-5,3.7c-2.3-5.3-2.1-11.3-3.5-16.8
		C391.5,643.2,392.5,640.5,392.8,639.3z"/>
	<path id="path386" d="M434.6,661.1c0.6-0.5,1.9-1.6,2.6-2.1c2.1,15,2.4,30.2,1,45.3c-1.1,17.1-3.2,34.4-10.3,50.2
		c-2.6,6.1-6.5,11.6-11.5,16c1.3-6.6,4.5-12.8,6.5-19.2c5.5-17.3,8.2-35.3,9.5-53.4C433,685.7,433.3,673.2,434.6,661.1z"/>
	<path id="path388" d="M421.5,668.7c-0.6-2.6,1.6-3.7,3.2-5.2c2.3,25.8,1,52.9-10,76.7c-4.4,8.4-9.4,17.3-17.6,22.3
		c0.7-1.8,1.5-3.7,2.3-5.5C415.7,730.8,422.5,699.4,421.5,668.7z"/>
	<path id="path390" d="M388.7,668.7c-0.7-2.3,1.8-2.6,3.2-3.2c1.9,6.1,2.5,12.5,1.9,18.9c1.8,0.5,3.5,0.8,5.3,1.3
		c1,10.4-1.9,20.9-8.2,29.2c-1.3,2.4-4,3.2-6.6,3.9c-3.4-6,2.1-10.7,5-15.2c2.6-5.5,2.9-12.1-1.3-17
		C388.1,680.7,388.9,674.7,388.7,668.7z"/>
	<path id="path392" d="M455.2,717.8c0.5-17.8,0.3-35.7,2.4-53.2l1.9-0.2c0.7,0.9,1.5,1.8,2.3,2.6c0,16.9-0.2,33.9-1.5,50.8
		C458.7,717.9,456.9,717.9,455.2,717.8z"/>
	<path id="path394" d="M509.8,710.7c4.5,0.6,6.9,4.7,10.7,6.9c8.2,5.4,17.6,8.6,27.4,9.4c-0.6,2.9-1.3,5.6-2.1,8.5
		c-7.1,0.5-14.7,0.6-21.3-2.6C515.7,729.2,508.8,720.4,509.8,710.7z"/>
	<path id="path396" d="M453.3,747.2c6.1-0.7,7.9,5.8,9.4,10.3c3.5,11.8,7.6,23.6,10.6,35.3c1.3,3.1-0.6,6-3.7,6.6
		C461.8,782.8,455.6,765.4,453.3,747.2z"/>
	<path id="path398" d="M380.7,788.3c5.2-2.6,10.8-3.5,16-5.7c1.5,1.9,3.1,4,2.4,6.5c-4.2,5.3-11.8,7.4-18.2,6.1
		C377.8,794.1,377.9,789.9,380.7,788.3z"/>
	<path id="path400" d="M403.9,801.5c6.8-2.6,10.5-9,16.1-13.1c1.8,6.5-3.2,11.8-7.7,15.5c-5.8,4.5-13.1,8.1-20.5,7.1
		c-1.7-1.3-2.7-3.4-2.6-5.5C393.7,803.1,399.4,804.3,403.9,801.5z"/>
	<path id="path402" d="M349,854.1c-6-0.7-7.3-8.6-3.4-12.1C349,845.1,350.3,849.8,349,854.1z"/>
	<path id="path404" d="M588.2,852l4.7-0.5c1.3,4.2-1.1,7.8-4,10.7C585.3,859.3,586.7,855.4,588.2,852z"/>
	<path id="path406" d="M854.8,985.3c1.5-5.3,2.9-10.5,4.3-15.8c7.8,0.8,13.9,6.3,17.4,12.9c5,9.5,10.3,18.7,15.7,28.1
		c3.7,6,1.9,14-2.8,19c-4.5,5.5-12.6,4.3-18.7,3.4c-12.1-2.1-21.8-11.1-26.5-22.1c-3.6-5.5,1.8-11,4-15.8
		c4.2,14.7,17.1,26.5,32.6,28.1c0.5-1,1.5-3.1,1.9-4.2c-5.6-9.7-10.8-19.7-16.6-29.2C864.1,985.5,859,985.2,854.8,985.3z"/>
	<g id="g410">
		<path id="path408" d="M85.5,981.9c3.5-1.5,6.8-4.3,10.5-4.7c4.4,3.2,7.9,8.6,6,14.2c-3.1,8.2-7.7,15.7-11,23.7
			c4.8,4.8,8.1,10.8,10.7,17.3c6.6-10.5,11-22.3,16.8-33.1c5.3-1.1,10.7-2.4,16-3.7c-8.7,17.3-16.8,34.9-25.7,52
			c-5.2,1.9-10.7,2.4-16,4c2.1-9.8,0.3-20.3-6.1-28.2c-1.8,3.5-3.2,7.4-5.5,10.8c-5,1.9-10.5,2.6-15.7,3.7c2.1-8.7,3.2-17.6,0-26.1
			c4.3-2.4,9.2-3.6,14.2-3.4c3.1-6.3,6.5-12.4,9.2-18.9C91,986.3,87.3,984.2,85.5,981.9z M72.8,1010.8c0.8,2.7,1.6,5.3,2.4,8.1
			c0.8-1.9,1.8-3.9,2.8-5.8C76.3,1012.2,74.5,1011.5,72.8,1010.8z"/>
	</g>
	<path id="path412" d="M804.3,1002.8c7.7-4.2,15-9.2,22.9-13.1c0.4,4.1,0.2,8.3-0.6,12.3c-5.3,3.1-10.7,6-16,8.7
		c0.5,1.8-1.6,6.6,1.1,6.1c2.6-2.4,4.8-5.3,8.2-6.6c6.8-3.7,15.5,0.8,18.7,7.4c3.2,6.5,6.5,12.9,9.4,19.5c2.4,5.5-0.5,11.9-4.8,15.7
		c-0.5-0.2-1.3-0.3-1.8-0.5c-4.8-9.5-8.9-19.2-13.9-28.6c-1.3-3.2-5.2-1.5-7.6-1.6c1.8,4.2,4.8,7.9,6.6,12.1
		c1.1,9.8,0.3,20.3-5.3,28.9c-8.5,0-18.4-2.1-23.1-9.8c-5.5-8.2-3.1-18.4-4.5-27.6c-1.9-3.2-5.8-4-9.2-4.5c1.6-4.2,3.1-8.4,4.4-12.6
		c4-0.2,8.4,1.6,9.7,5.7c2.7,7.7-1,16.6,3.4,24c3.4,7.8,12.3,10.5,20.2,10.5c-4-6.1-8.4-11.8-13.4-17.1
		C801.4,1023.7,800.7,1012.1,804.3,1002.8z"/>
	<path id="path414" d="M135.2,1007.6c4.2-1.8,8.4-3.7,12.8-5.3c1.8,3.1,3.9,6.6,2.1,10.2c-3.2,7.4-11.9,10.5-15,18.1
		c-4.3,7.7-0.8,17.4,5.5,22.9c4.2-11.6,0.5-25.8,9.7-35.3c4.2-4,10.2-9.8,16.5-6.8c6.8,2.1,13.6,4.2,20.5,6.1
		c-2.9,2.9-5.7,7.4-10.2,7.8c-5.7-1.3-11-3.4-16.5-5.3c-1.8,1.6-3.5,3.4-5.3,5c7.1-0.5,16.3,1,19.2,8.6c3.9,9.8-3.5,19-6.1,28.2
		c-1.8,7.9-10.3,12.3-17.8,10.2c4.5-10.7,8.4-21.6,13.1-32.3c-1.5-1.9-3.3-3.5-5.5-4.7c-1.5,4.5-1.8,9.7-4.4,13.7
		c-6.2,7.2-14.4,12.5-23.6,15c-6.5-6.1-11.6-15.2-8.9-24.2c2.3-9,10.8-14.2,16.5-21.1C139.7,1014.5,136.8,1010.7,135.2,1007.6z"/>
	<path id="path416" d="M219.1,1017.3c7.9-6,16.8-12.1,27.1-12.1c10.7,1.5,18.1,10.3,24,18.6c-3.4,2.4-6.8,5-10,7.7
		c-3.5-13.1-17.4-22.9-31-21.1c-0.5,4.4,3.1,7.6,6.1,10c3.4,2.9,7.4,0,10.8-1.3c-4.4,3.1-8.7,7.3-14.4,6.8
		C226.7,1024.9,222.9,1021,219.1,1017.3z"/>
	<g id="g420">
		<path id="path418" d="M677.8,1014.5c4.8-4,11.6-4.3,16.8-0.8c-4,7.4-5.3,19.8-15.7,20.7c-3.7,0.5-11.3-2.9-8.2-7.6
			C672.9,1022.8,674.9,1018.2,677.8,1014.5z M674,1023.7c3.9,4.8,15.3,4.5,14.7-3.2C685,1015.5,677,1019.4,674,1023.7z"/>
	</g>
	<path id="path422" d="M764.9,1023.6c2.9-4.5,5.7-9,8.9-13.4c5.7,16.6,11.3,33.2,17.1,49.9c0.8,4.2,5.5,3.9,8.7,3.7
		c-1.9,3.9-3.4,8.2-6,11.8c-4.8-0.2-11.6-1.3-13.1-6.9C775.2,1053.8,770.1,1038.7,764.9,1023.6z"/>
	<path id="path424" d="M742.3,1031.6c2.9-4.5,5.6-9.2,8.9-13.4c5.6,16.6,11.3,33.4,17.3,50c0.8,4,5.5,3.6,8.6,3.6
		c-1.8,3.7-3.5,7.4-5.2,11.3c-5.2,0.3-12.1-0.8-14-6.5C752.6,1061.7,747.5,1046.7,742.3,1031.6z"/>
	<path id="path426" d="M184.6,1029.9c4-3.1,8.1-5.8,12-8.9c8.4,2.3,16.6,4.7,25,7.1c-5.5,18.6-10.7,37.1-16.1,55.7
		c-5,2.1-10,4.2-15,6.1c5.2-17.9,10.2-35.8,15.5-53.7C198.8,1033.9,191.5,1032.3,184.6,1029.9z"/>
	<path id="path428" d="M709.2,1032.9c8.2-2.6,16.6-4.8,24.9-7.1c5.2,18.7,10.6,37.1,15.8,55.8c-3.1,4.4-6.1,8.9-9.5,13.1
		c-5-18.1-10-36-15.5-53.9c-7.1,2.4-14.5,4.2-21.6,6.6C705.4,1042.5,707.3,1037.8,709.2,1032.9z"/>
	<path id="path430" d="M224.1,1039.1c3.4-3.4,6.9-6.3,10.5-9.4c8.5,2.6,17.3,4.4,26,6.6c-4.7,18.6-9.4,37-13.9,55.5
		c-6,2.1-11.6,5.8-17.9,6.9c-5.8-2.4-9.4-7.9-10.7-13.7c3.4-2.1,6.8-4,10.2-6.3c-0.8,4.8,0.5,10.5,5.8,11.6c3.7-15,7.1-30,11.3-44.9
		c-6.8-2.4-13.9-3.6-20.8-5.5C224.5,1039.7,224.3,1039.4,224.1,1039.1z"/>
	<path id="path432" d="M427.6,1034.2c1.5,3.7,3.2,8.2,7.7,9c9.5,0.7,19,0,28.4,0.2c-2.1,3.6-4,6.9-6.1,10.5
		c-10.5-0.2-21,0.5-31.3-0.3c-6.3-0.6-7.6-7.7-6.5-12.8C422.5,1038.7,425.2,1036.5,427.6,1034.2z"/>
	<path id="path434" d="M673.7,1042c9.2-1.8,18.1-4.2,27.3-5.3c3.7,18.9,7.9,37.6,11.9,56.3c-3.4,4.2-6.9,8.4-10.3,12.7
		c-3.9-18.4-7.8-37-11.8-55.3c-9.7,2.3-19.5,3.9-29,6.6c2.1,4.7,5.1,9,9,12.4c2.2-5.6,3.5-12.4,9.3-15.8c3.3,0.8,6.5,2,9.5,3.5
		c-2.8,4-5.3,7.9-7.9,12.1c-1.6-1.1-3.2-2.1-4.7-3.2c-2,1.3-3.9,2.7-5.6,4.2c4,4.8,8.9,9.8,10,16.3c1.4,9.2-1.6,18.4-6.9,26
		c-0.7-4.5,2.6-8.9,0.6-13.1c-3.4-10.5-14.8-15.7-18.1-26.1c-2.3-9.5,1.6-19.4,6.9-27C666.1,1042.8,670.5,1042.9,673.7,1042z"/>
	<path id="path436" d="M264.3,1050.5c2.9-3.6,5.8-6.9,9-10.2c2.6,3.2,6.5,6.3,6.3,10.8c0.3,5.5-5.2,8.7-7.1,13.4
		c-4.7,11.6-1.8,24.7,5,34.9c2.8,0.5,2.8-3.1,3.5-4.8c3.1-10-3.4-20.5,0.5-30.3c2.9-7.6,7.6-15.3,14.8-19.2
		c6.9,0.2,13.7,2.1,20.7,2.9c-2.7,19-5.7,38.1-8.5,57.3c-4.4,2.6-8.9,5.3-13.4,7.8c2.9-18.4,5.5-37,8.6-55.5
		c-4.7-0.6-9.4-1.4-14.2-2.1c0.5,8.4,2.4,16.6,2.2,25c-0.6,12.8-10,23.6-21.1,28.9c-6.6-7.6-12.3-16.9-11.1-27.4
		c-0.2-9.7,11.6-14.5,11-24.4C270.8,1053.6,266.7,1052.3,264.3,1050.5z"/>
	<path id="path438" d="M636.6,1057.3c3.7-4.2,7.6-8.2,11.6-12.1c1.8,19.2,4.5,38.4,6.9,57.6c-3.9,3.9-7.6,7.9-11.6,11.6
		c-2.4-4.2-4.5-8.7-7.7-12.3c-3.4-3.7-8.2-5.8-12.8-7.6c0.5,4,1.1,8.1,1.8,12.1c-3.9,4-7.6,7.9-11.6,11.8c-1.8-5-3.6-10-6.6-14.4
		c-2.4-3.4-6.1-5.8-7.9-9.7c1.8,0.6,3.5,1.5,5.3,2.1c1.1,1,2.4,2.1,3.6,3.1c-0.2-1.8-0.5-3.5-0.7-5.2c-1.9-0.6-3.9-1.4-5.8-2.3
		c2.6-2.3,5.3-4.4,7.9-6.5c-1-7.1-1.4-14.4-2.7-21.5c-0.8-3.1-4.4-2.4-6.6-3.2c1.6-3.4,3.4-6.8,5.2-10.2c5,1,11.6,1.9,13.2,7.7
		c2.3,8.7,2.3,17.9,3.9,26.8c6.9,1.8,13.5,4.9,19.2,9.2C639.7,1082,638.4,1069.7,636.6,1057.3z"/>
	<path id="path440" d="M318.2,1070.5c3.2-8.9,10.7-15.7,18.6-20.3c3.7,1.6,6.5,4.5,9,7.6c-3.1,2.4-5.5,6.3-9.2,7.6
		c-1.1-4.4-8.4-8.7-10.7-3.1c0.6,8.5,10.2,16.6,18.7,12.1c-6.6,4.5-14.7,8.7-16.9,17.1c3.1,9.2,11.5,15,19.8,18.7
		c1.8-16,3.7-32.1,5-48.2c4.5-3.4,9.2-6.3,14-9.4c-2.1,17.3-3.7,34.5-5.5,52c-6.5,5.3-14.2,9.2-21.3,13.7c-6-0.5-11.1-4.2-15.8-7.8
		c-5-3.9-9-10.2-7.3-16.6c1.9-5.5,7.4-8.4,12.4-10.8C323.4,1081.5,317.2,1077.3,318.2,1070.5z"/>
	<path id="path442" d="M565.8,1057.6c8.2-1,16.3-1.8,24.5-2.6c1.8,19.2,4,38.4,6,57.6c-3.9,3.9-7.6,7.8-11.6,11.3
		c-1.8-18.6-4-37.1-5.7-55.7c-7.4,1.1-15,1.6-22.4,2.4C559.8,1066.5,561.6,1060.7,565.8,1057.6z"/>
	<path id="path444" d="M379.4,1058c8.7,0.3,17.4,0.8,26,1.6c-1.3,18.6-2.7,37.3-3.9,55.8c0.2,2.1-1.9,2.9-3.2,4
		c-3.4,2.4-6.9,4.7-10.3,7.3c1.8-18.6,2.4-37.3,4.2-55.8c-7.6-1.1-15.2-1.3-22.8-1.8C372.8,1065.5,376.2,1061.8,379.4,1058z"/>
	<path id="path446" d="M521.7,1060.5c12.3-0.3,24.4-1.8,36.6-2.3c-2.6,4.4-4.5,9.2-8.2,12.8c-3.4,0.5-6.8,0.5-10.2,0.6
		c7.3,8.1,13.6,18.2,12.6,29.7c0.2,11-6.8,21-15.8,26.8c-5.8,1-10.6-3.6-14.5-7.4c1.6-4.5,5.2-7.9,7.9-11.8c1.8,4.8,5.2,11,11.5,9.7
		c6.1-0.3,6.9-7.7,5.6-12.4c-3.7-16-16.8-30.8-33.6-33.1C516.5,1068.9,519,1064.7,521.7,1060.5z"/>
	<g id="g450">
		<path id="path448" d="M416.2,1059.6c15.2,0.3,30.2,0.8,45.4,1.3c-1.3,19.4-0.8,38.7-2.4,58.1c-4.2,3.6-9,6.3-13.2,9.7
			c-8.1-17-10.6-36.8-23.7-51.2c-2.9,9-4.2,19.5,0.3,28.4c1.8,4.3,4.8,8.2,9.4,10c-3.7,4-7.6,7.9-11.3,11.8
			c-7.4-8.2-13.4-19.5-10.5-31c1.6-10.2,7.9-18.6,15.6-25l-17.6-0.5C410.9,1067.3,413.4,1063.4,416.2,1059.6z M433.3,1071.8
			c5,8.5,9.5,17.4,13.9,26.3c0.8-8.5,0.3-17.1,1.3-25.5C443.4,1072.5,438.4,1072.3,433.3,1071.8z"/>
	</g>
	<path id="path452" d="M481.2,1060.4c4.7-2.9,8.6,2.7,11.6,5.5c-2.7,3.1-5.6,6-8.5,8.9c-1-4.7-5.3-6.8-9.7-5.5
		c-2.9,3.6,1,7.8,3.2,10.5c3.7,4.5,10.3,5.3,15.5,2.6c-6.1,4.8-15.3,9.7-15.3,18.5c2.9,9,12.4,13.7,20.6,17.1
		c0.6-16.3,0.8-32.6,1.8-48.9c4.4-3.4,8.7-6.6,13.1-9.8c-1,17.6-1.3,35.3-1.8,52.9c-6.5,4.4-12.6,9.2-19,13.6
		c-2.4,1.9-5.5,0-8.1-0.6c-7.3-3.1-15.5-7.6-17.8-15.8c-2.1-8.1,5.3-14.2,11.9-16.8c-6-1.3-13.1-5.3-11.9-12.4
		C468.5,1072,474.8,1065.5,481.2,1060.4z"/>
</g>
</svg>
