<svg id="Layer_1" data-name="Layer 1" xmlns="http://www.w3.org/2000/svg" viewBox="0 0 6926.71 1311.96"><defs><style>.cls-1{fill:#fff;}.cls-2{fill:#0008bf;}.cls-3{font-size:369.65px;stroke-width:4px;}.cls-3,.cls-4{stroke:#000;stroke-miterlimit:10;font-family:ImprintMT-Shadow, Imprint MT Shadow;}.cls-4{font-size:740.15px;}.cls-5{fill:#242021;}</style></defs><line class="cls-1" x1="1600.05" y1="119" x2="1600.05" y2="1140"/><path class="cls-2" d="M671.64,30v979.61c0,13.21-.18,26.44,0,39.66,0,.57,0,1.15,0,1.73,0,9.42,8.28,18.44,18,18s18-7.91,18-18V71.39c0-13.21.19-26.44,0-39.66V30c0-9.42-8.28-18.44-18-18s-18,7.91-18,18Z" transform="translate(910.4 89)"/><text class="cls-3" transform="translate(1665.03 477.17) scale(1.06 1)">Graduate Employment Survey </text><text class="cls-4" transform="translate(939.67 1127.15)">U</text><text class="cls-4" transform="translate(935.68 637.05)">R</text><line class="cls-1" x1="6915.11" y1="637" x2="1665.11" y2="637"/><path class="cls-2" d="M6004.71,536H967.82c-68,0-136.16-1.08-204.18,0-3,0-6,0-8.93,0-15.44,0-15.47,24,0,24H5791.6c68,0,136.16,1.08,204.18,0,3,0,5.95,0,8.93,0,15.44,0,15.47-24,0-24Z" transform="translate(910.4 89)"/><text class="cls-3" transform="translate(1680.38 1025.38) scale(1.06 1)">Ramkhamhaeng University</text><g id="g454"><g id="g360"><path id="path358" class="cls-5" d="M-494.07-43.33c-.16-16.46,5-33.08,15.66-45.67,7.26,7.1,11.29,16.46,15.81,25.17l.16,1c.65,5.81,1.62,11.46,1.94,17.43,15.49,7.26,22.43,25,21.62,41.31,11.46,5.17,22.43,11.94,31,21.14,4,4.36,9.35,9,9.19,15.65.33,15.66-4.68,30.83-10,45.35a11.64,11.64,0,0,1,4.84,9.52c.16,13.23-1.94,27.59-10.33,38.41-5,6.61-5.48,15.33-9.52,22.43-1.94,4.52-6.13,8.23-6,13.39-.16,8.07,0,16.62,3.71,24,1.45,2.91,3.87,6.3,7.59,5.81,19.2-1.61,38.56,0,57.77,2.59,18.72,2.9,37.76,8.39,52.93,20,19.2,15,37.76,33.4,45,57.28,5.81,10.81,13.72,20.34,20.33,30.82,3.71,6.3,2.58,14,1.78,21a108.87,108.87,0,0,1,12.91,83.43c-2.1,11.3-9,20.82-15,30.34-.16.16-.32.64-.49.81-5,4.35-9.68,9.19-15,13.07-3.88,2.74-4.2,8.39-8.07,11.29-4.36,3.71-8.88,7.75-9,13.88,14.36.16,29.21,3.07,41.64,10.65,4.84,2.91,9,6.78,13.55,10.17,4.36-5.17,9-12.1,16.62-11.94,2.26-.65,3.55-2.91,5.49-4.2a34.67,34.67,0,0,1,3.39,1.61c4.52-3.71,10.49-4,16.13-3.55,5.49-.8,11-1.77,16.63-2.74-1,3.23-2.1,6.46-2.75,9.68,4.36.65,8.23-1.29,11.46-4,1,.16,3.07.64,4.2.81,8.06-7.27,20.17-6.62,30.49-6.78-4.84,4.84-10.16,9.84-17.26,11-3.07,0-2.75,3.23-3.39,5.33,5.81-.16,11.62-1.29,16.62-4.68a34.7,34.7,0,0,1,11-5.33c4.68-1.13,7.1-6.29,11.78-7.58,8.23-3.23,17.27-2.1,26-1.45-5,11.61-19.84,7.58-28.24,14.84-.32,1.78-.64,3.71-1,5.49,1.45,1,3.06,1.77,4.68,2.74l3.87-2.58c1.77,1.45,3.71,2.58,5,4.52.49,3.71.49,7.42,1,11.29-4.84.81-10.65.65-13.72,5.33-11.94,16.78-26.3,33.89-46.47,41-5.65,1.13-11.94,4-12.27,10.65v1.13l-.48,1c-2.58,3.87-2.42,8.71-3.07,13.07-1,9.68-.8,20.49,5.17,28.72,2.74,3.87,7.58,5.16,11.13,8.07,2.91,4.19,5,8.87,8.88,12.26,5.16,5.33,9.68,13.88,18.39,13.24,22.76-.17,45.51,0,68.26,0v62.45c-3.22.64-6.94.32-9.36,3.06a96.62,96.62,0,0,0-.32,11.78C-69,723.83-73.86,729.31-79.18,734c-.16,4.36-.16,8.72-1.62,13.07-3.55,7.26-10,12.59-15.49,18.24-.48,5.16-.16,10.33-.16,15.49h-11q-.24,40.66,0,81.33c27.43-11.46,55.19-22.59,80.84-37.6,18.24,26.14,35,53.25,52.77,79.72,8.56,13.23,17.75,26.14,25.66,39.7-1,.48-2.74,1.45-3.71,1.93-5.16,4.36-11.46,6.94-17.43,10-92.46,47.44-191.87,80.84-293.86,101.18-72.61,13.39-146.68,16.46-220.27,12.74A1028.45,1028.45,0,0,1-613,1054.15c-26.3-5.16-52.6-9.84-78.42-16.78-67.46-17.59-133.3-41.8-195.1-74.07-8.07-3.71-15.49-9-23.88-12.43.16-1.45.48-2.9.64-4.51,26.63-38.25,52.45-77,78.75-115.38,18.24,8.87,36.31,18.39,55.51,24.85,9.52,1.93,19.37.48,29,.8l-.16-1.45c-.65-24-.65-48.25,0-72.29l.16-1.46c-3.87,0-7.59,0-11.46-.16.16-5,.16-10,.16-15-8.87-6-16.3-14.2-19.85-24.37-2.74-7.91-6.93-15.49-13.71-20.82V709.3H-805c.32-20.81-.48-41.63.49-62.29,49.37.16,98.92-.48,148.3.33l1.93.48c-6.78-19.69-19-37.6-22.59-58.42-1.45-7.58-7.91-12.58-11-19.36a76.41,76.41,0,0,1,5.81-64.39c5.16-11,15.33-19.52,27.27-21.94C-625.58,476.44-596,486.13-568,494c3.71-7.58,6.77-15.65,12.74-21.62,3.39-3.55,7.59-6.62,9.36-11.3a45.49,45.49,0,0,0,3.23-19.2c.16-5-5.65-7.1-7.42-11.3-.81-5.16.32-11-2.42-15.65-2.91-5.32-4.84-11.13-7.91-16.3l-1.13-.32c-9,4.68-17.27,11.13-26,16.46-6.29,3.23-8.88,10.17-14.2,14.52-3.23,5.17-3.55,11.62-6.78,16.79a5.19,5.19,0,0,1-1,1c-4.84,3.55-9.52,7.43-15.33,9.53-9.2,3.71-19.2,4.35-28.88,6.29-6,.81-13.56,0-17-5.65-2.09-4.84-2.42-10.17-4.52-15-2.25-5-6.93-8.23-9.68-12.91-3.71-8.07-3.06-17.42-1-26,1.94-9.52,7.59-17.91,7.59-27.91-.16-2.1-.32-5.17-2.91-5.81-4-1.78-8.06-3.55-11.94-5.65-.16-.16-.32-.49-.48-.49-1.62-2.58-3.23-5-5-7.42,11.78-15.17,22.91-30.82,34.21-46.31a109.76,109.76,0,0,1,14.2-47.12l1.77,2.74c-.32-1-1-2.58-1.29-3.55,11-15.65,24.21-30,39.7-41.31,12.42-9,27.59-13.07,42.6-15.49,13.39-1.78,28.56-3.55,38.08-13.88l.81-.81c7.26-5.16,7.42-14.68,8.39-22.75.16-8.71,1.29-17.59-1.45-26-1.61-5.65-8.71-3.23-12.43-6.29-6.45-5.33-9.68-13.24-12.26-21-3.07-8.72-4.36-18.4-1.29-27.27,2.9-7.75-.65-15.82-1.13-23.73-.81-11.29-1.45-23.07,1.61-34,1.78-6.61,7.59-11,12.11-15.65C-528.28,7-520.21,2.34-512.62-3.15c1.77-8.39,1.29-17.27,4.68-25.34C-505.36-34.13-499.72-39-494.07-43.33Zm6.14-8.23c2.09-1.45,4.19-2.91,6.29-4.2.81.81,2.58,2.26,3.39,3.07,1.45-1.13,2.9-2.1,4.35-3.23,1,1,2.75,2.91,3.72,3.87,1-.64,2.74-1.77,3.71-2.42-2.26-8.71-4.84-17.91-11.46-24.36C-484.38-71.25-487.29-61.41-487.93-51.56Zm-7.11,16c-6.77,4.84-9.19,13.72-9,21.79,1.45-1.45,2.9-3.07,4.36-4.68,1.93,1,3.87,1.77,5.8,2.58.65-1.13,2.1-3.23,2.75-4.36l3.23,3.23c1.93-1.29,3.71-2.74,5.64-4,.65,1,1.78,3.06,2.26,4,1.13-1.29,2.42-2.42,3.55-3.71l5.81,2.9c2.42-2.25,5.81-4,7.26.33l5.81-3.39c1.13,1.77,2.26,3.39,3.55,5.16,1.62-1.29,3.23-2.58,4.68-3.87,1.46,1.45,2.91,2.9,4.36,4.2-1.29-7.91-4.68-16-11.3-20.66C-467.76-44.14-484.06-43.49-495-35.59ZM-525,12.5c1.29.81,2.58,1.45,3.87,2.26l3.71-4.19c1.78.16,3.55.32,5.33.64.81-1.77,1.61-3.71,2.58-5.49,1,.65,2.91,2.1,3.71,2.75l2.91-4.36c1.29.65,3.71,2.1,5,2.74,1.45-1.61,3.07-3.06,4.52-4.51,1.77,1.13,3.55,2.42,5.16,3.55.49-1,1.45-3.07,1.78-4,1.93.81,4,1.78,6,2.58,1-.8,2.74-2.26,3.71-2.9,1,.48,3.23,1.13,4.2,1.61,2.25-2.26,4.51-2.26,6.77.16,1-.64,2.91-1.77,3.88-2.42,3.22,1.46,6.61,3.23,9.52.33,1.13,1.45,2.09,2.9,3.22,4.19,1.78-.48,3.72-.8,5.49-1.13C-440,7.34-435,7.5-430.81,9.6c-1.77-4.68-7.1-6.3-11.3-8.07-13.39-4.2-27.59-5.81-41.47-3.71C-498.1-.57-513.11,3.47-525,12.5Zm-18.07,23.4c.32,1.13,1,3.39,1.29,4.52,1.77-.16,2.74-1.94,4.19-2.74,4-3.55,10.33-1,13.88-5.65h4.2c6-3.87,13.39-3.71,20-6.13,2.09-.81,4.19-.65,6.45-1a9.8,9.8,0,0,1,6.78-.81c.81-.48,2.26-1.29,2.9-1.77,4.68.32,9.36-.49,13.88-.17a8.57,8.57,0,0,0,2.26-6.45C-493.58,17.18-519.89,23.31-543.12,35.9Zm86.17-20.49a34.19,34.19,0,0,0,.32,4c2.58-.81,5-1.61,7.59-2.58A19.63,19.63,0,0,0-456.95,15.41Zm15.17,1.29c.16,3.55,2.9,6,5,8.55,4.68-1.77,9.36,1.45,14,2.1,5.32,2.74,10.81,5.49,16.14,8.23,1.45-2.91-2.42-4.2-4-5.81C-420.16,23.48-430.81,19.44-441.78,16.7ZM-501.17,34c-2.74,1-7.1.49-7.1,4.36,13.4-3.55,27.27-4.84,41.15-6.78-.32-.48-.8-1.29-1.13-1.77C-479.22,29.61-490.19,31.87-501.17,34Zm61-2.25c2.91,2.25,6.62,2.58,10,3.55,6.29,1.29,12.26,4,17.91,6.93-.16-.64-.49-1.77-.65-2.42C-420.64,34.29-430.65,31.06-440.17,31.71Zm-81,8.71c2.42,13.55,2.42,28.88-6.61,40-2.1,1.77,1.61,5,3.06,2.9,11.62-11.78,12.43-29.85,9.85-45.18C-517,38.81-519.08,39.61-521.18,40.42Zm64.07-1.13a41.25,41.25,0,0,0,1.61,4c1.29-1,2.74-1.93,4-3.06A16.47,16.47,0,0,0-457.11,39.29Zm14.68.48c-.16.81-.48,2.59-.64,3.55,9.68.17,18.39,5,27.91,5.49C-422.74,42.84-433.07,41.55-442.43,39.77Zm-60,4.85c-1.93.8-6.13,1.12-4.19,4.67,5.64-1.61,11.45-3.06,17.26-3.06,7.43-2.74,15.49-2.74,23.24-3.23.48-.81,1.29-2.1,1.78-2.9A150,150,0,0,0-502.46,44.62Zm-29.85,0c1.29,11.45.64,23.72-6.78,33.24,1.94-.33,4.68.48,5.65-1.62a36.07,36.07,0,0,0,6.61-22.59C-527.15,49.94-526.66,44-532.31,44.62Zm125.87,1.93c-1.78,2.42-2.75,5-.49,7.42,1.13-1.12,2.26-2.42,3.39-3.55-.16-.8-.48-2.58-.64-3.55C-404.83,46.87-406,46.55-406.44,46.55Zm-137.49,4c.16,5.48.16,11,2.1,16.13,4-5,3.39-11.45,2.58-17.43C-540.86,49.78-542.48,50.1-543.93,50.59Zm41.47,5.32c-1.77,1-4.68,1.45-5,4-2.1,11.29-5.65,22.91-13.88,31.14,1.94,3.55,3.07,7.58-.81,10.33-2.9-1.78-7.1-3.23-7.26-7.43a8.44,8.44,0,0,0-9.84-7.58c-5.81,6.94-4.52,16.94-1.78,25,2.26,6.13,4.36,13.07,10,17.11,3.07,2.42,7.1,2.58,10.81,3.06,1.45,13.08,9.68,24.86,20.82,31.79-.49,1-1.45,3.07-1.94,4a94,94,0,0,1-10.17-4c-4.19,9.85-4.19,21-8.87,30.66,14,9.85,31.95,11.46,48.41,11.46,15.17-1.29,31.15-2.9,44.7-10.81-6.13-7.42-7.1-17.27-8.87-26.3-7.75,5-16.46,9.68-26,8.23-8.71-1.29-18.55-4.68-22.75-13.07.81-.81,2.26-2.59,3.07-3.55,6.61,6.93,16.3,11.94,26,10.16,10.49-2.58,19.2-10.16,24.69-19.36,9.68-16.14,11-35.5,10.65-53.9a18.16,18.16,0,0,0-15.82-1.13c-4.68-2.1-10-.16-14.2-3.07.65-5.64,2.75-11.78,8.07-14.52,7.26-4.2,16-1.77,23.72-.48-.16-6.94-.48-13.72-.64-20.66-8.39-4-17.75-5.81-26.79-7.58-3.23.64-6.13,2.9-9.36,2.9-3.71-.81-7.42-2.42-11.3-1.94C-479.06,51.23-491.16,51.88-502.46,55.91Zm90,28.24c-1.94,8.39-5.65,18.56-.16,26.14.8-3.87,2.09-7.74,3.06-11.62,1.45-5,0-10.32-.48-15.33C-410.64,83.51-411.77,84-412.41,84.15Zm-14.69.65a43.14,43.14,0,0,0,5.49,5.32c.81-1.13,1.77-2.1,2.58-3.23C-421.77,86.09-424.52,85.28-427.1,84.8Zm-.48,118.12c3.71,3.23,8.23,6.78,7.9,12.26-1.29,4.52-7.26,5.49-11.13,3.88-4-2.58-4.2-7.91-4.36-12.27-1.77.81-3.55,1.46-5.32,2.1,7.74,5,5.81,18.88-4,19.69-8.55-1.13-9.68-11.62-6-17.91a95.53,95.53,0,0,1-13.39,1.61c8.39,4.36,12.75,15,8.39,23.72-4.19,9.36-19,9.84-24.53,1.29-5-8.55-1.29-19.2,6.46-24.69-19,.65-37.76-4.52-55-11.94.48,3.07,2.58,5.49,4.68,7.75-2.74,2.58-5.49,5.32-8.88,7.1-4,.32-5.81-3.71-7.26-6.78-3.06-.65-6.29-1-9,1,10.65,11.94,25.17,19.36,39.37,26.3,14.85,6.13,29.69,13.72,41.31,25,10.81-17.59,30.5-26.62,48.9-34.37,12.26-6.13,23.56-15.81,29.53-28.4-5-.32-9.85-.65-14.85-.81.65,5.49-.16,13.24-7.42,13.72l-6-6a91.43,91.43,0,0,0,4-9C-419.68,196.14-423.23,200.66-427.58,202.92Zm48.73-3.23c-18.72,34.37-40.5,67.46-67.61,95.7-13.56,14-28.57,26.78-45.83,36,7.1,0,11.13,6.13,15.81,10.65C-445.17,320.08-420.8,289.74-400,258c10.65-16.78,20.82-34,28.89-52.45-4.84,5.49-7.43,12.27-11.14,18.4-17.91,30.66-37.6,60.67-62.93,85.69a115.43,115.43,0,0,1-21.46,17.1c-2.59,1.29-6.78,1.62-7.75-1.93,1.13-3.23,4.2-5.17,6.78-7.11,17.1-12.9,31.47-28.88,44.7-45.66a515,515,0,0,0,47.28-73.1C-376.59,199.05-378,199.53-378.85,199.69Zm-1.93,46.64c-14.37,31.79-34.7,60.35-56,87.78C-465,367.84-502.3,392.69-541.35,411.9c-5.81,5.32-3.39,14.36-.81,20.81C-525,428.52-509.4,419.8-494.87,410c19.52-15.33,35.82-34.21,51-53.74,7.26,5.65,16.62,6,25.33,7.75,3.23,0,2.91,3.87,4,5.81-9.36,1.61-18.88-.65-28.08-2.42-23.4,32.11-55.19,59.06-92.95,72.61a86.3,86.3,0,0,1-4.68,22.92c9.84-.32,19.53,2.42,29.37,1.94,8.23-7.91,20.17-10.33,31.15-8.56,6.93.49,12.26,5.49,18.71,7.43,9.2,3.06,20.18,3.22,28.08-2.75,7.26-5.16,17.27-8.23,25.82-4.35,4.36,2.58,7.91,6.29,12.1,9,12.91-1,25.82-1.45,38.41-5.32-2.26-11.78-1.94-23.72-1.13-35.5,2.42-26.95,8.39-53.58,15.49-79.72,4.68-15.49,8.88-31.31,12.75-47,1.13-6.46,1-13.07,4.2-18.88,4.19,1.94,8.39,4.19,12.26,6.45a63.33,63.33,0,0,1,3.39-15.49,56.46,56.46,0,0,1,14.52,7.42c.33-6.29,2.75-12.26,5.65-17.91a68.4,68.4,0,0,1,11.94,9.68,39,39,0,0,1,3.39-11.13c-15.33-22.75-36.15-43.73-62.93-52.12-10.49,11.62-17.11,26-22.92,40.5-10.33,27.6-15.49,57-17.43,86.17.33,22.6,5,45.51,15.5,65.84,2.09,3.71,2.9,9-1.78,11.3-6.62-7.59-17.59-5.33-25-.49-8.72,6-19,10.49-29.86,9.85-11.13,0-20.17-7.75-31-9.36-2.42-.65-6.94-.81-6.94-4.36-.32-2.9,3.71-2.58,5.49-4,14.52,6.45,31,15,47,8.71,11-6.61,21.94-15.65,35.66-14a11.65,11.65,0,0,0-15-2.26c-6.61,4.68-12.91,10.49-21,12.59-11.46,4.2-22.92-1.29-33.89-4.52-4.52-1.45-11.46-2.42-10.81-8.71,3.87-1,8.06-1,11.61,1.29,8.72,4.68,18.72,6.94,28.57,5.32,12.58-1.61,19.85-16.13,33.24-15-1-5.49-4.84-10.17-4-16-5.17-2.26-10.17.65-15.17,1.61a7.35,7.35,0,0,1-2.42-5c-1.46.32-2.75.65-4.2,1a12.88,12.88,0,0,0-.32,2.26c1.77.81,3.39,1.61,5.16,2.58-1.45,1.78-1.94,4.36-4.19,5.49-8.07,3.87-17.43,3.87-26.31,3.55-1.61-2.1-4-6.13,0-7.26,7.43.32,15.17,1.29,22.11-2.1-1.29-1.94-2.58-3.87-3.71-5.81,4.19-2.58,6.94-6.78,10.49-9.84,4.84-1.62,10-3.07,14.52-5.65-.16-21.79,1.61-43.73,6.29-65,1-4.68,3.07-9.36,2.42-14.37-18.07,27.92-37.27,55-56.8,82-1.45,1.94-3.87,2.9-5.81,4.2-.8-1.62-1.61-3.39-2.42-5,17.91-20,32.92-42.6,47.12-65.19a855.68,855.68,0,0,0,45.19-82.62c-2.75-.33-5.49-.81-8.07-1.13C-365.62,216.15-373,231.32-380.78,246.33ZM-605.57,225A119.15,119.15,0,0,0-641.4,259.4c2.58-.48,5-1,7.59-1.45,1.29,7.1-1.3,14-1.78,21.14,5.16-6.3,13.39-7.91,20.82-10.49a88,88,0,0,1-1.62,17.26c5.49-2.9,11.62-4.51,17.59-6.29a125.26,125.26,0,0,1,2.1,15.65c4.36-2.25,9.36-2.58,14.2-2.25a22.47,22.47,0,0,1-8.07,18.71,57.41,57.41,0,0,0,1.62,5.65c27.11,5.33,54.54,8.72,81.81,13.07,20.5-9.52,38.25-24,54.22-39.86a398.82,398.82,0,0,0,55.35-70c-13.07,10-28.08,17.1-42.76,24.53a68,68,0,0,0-28.56,30.17c-6.14-13.07-19-21-31.79-26.78a205.65,205.65,0,0,1-58.74-36C-575.24,214.22-591.54,216.8-605.57,225Zm132.8-2.42c-3.87,2.26-3.71,8.39-.8,11.45,4,3.72,12.42,1.62,12.58-4.51C-460,223.09-467.76,219.86-472.77,222.61ZM-646.4,273.76c1,.16,3.06.49,4.19.65.81-3.39,1.62-6.62,2.1-10A25.92,25.92,0,0,0-646.4,273.76Zm358.4-3.87c-.48,2.58-.8,5.16-1.13,7.74,2.91-1.45,5.81-2.9,8.72-4.51A14.49,14.49,0,0,0-288,269.89ZM-627.36,281c1.45.81,2.91,1.78,4.36,2.75,1-2.91,1.77-5.65,2.58-8.56A24,24,0,0,0-627.36,281Zm318.55,18.08c-6,3.87-12.59,6.94-17.75,11.78.64.16,1.77.32,2.42.48,18.07-10.49,36.63-20.49,54.86-30.82a2.82,2.82,0,0,0,1.78-3.71C-282,283-295.42,291.19-308.81,299.1Zm2.42-20.5a74.44,74.44,0,0,0-.49,8.56,79.07,79.07,0,0,0,7.27-3.88C-298.49,279.89-304.13,280.06-306.39,278.6Zm-345.34,2.75c.33.48.81,1.61,1.13,2.09,17.59,5,34.05,14.53,46,28.73,2.1,2.9,5.33,4.19,8.56,5.32C-605.9,296.19-629.78,285.54-651.73,281.35Zm41.64,9.52c2.42,1.77,4.84,3.39,7.26,5-.16-3.23-.16-6.46-.49-9.68C-605.57,287.8-607.83,289.41-610.09,290.87ZM-323.18,288a27.13,27.13,0,0,0-.32,8.07,20.59,20.59,0,0,0,8.72-5A33.21,33.21,0,0,0-323.18,288Zm49.71,4.2c4.52,3.06,5.81,8.39,5.81,13.55,2.42-1,4.68-2.09,6.94-3.22-4.36-3.39-7.43-8.07-6.94-13.72ZM-652.53,291c3.06,2.9,7.26,4.68,8.07,9.36,6.77-3.55,15.81,1.29,16,9.2,1.29-.49,3.87-1.29,5.16-1.78a23.66,23.66,0,0,0,7.91,2.42C-625.91,301-638.49,293.13-652.53,291Zm165.72,72c-5.48,3.71-9.19,9-12.26,14.68,11.78-5.16,21.62-13.39,31.15-21.78,18.23-16.94,33.88-36.31,48.57-56.32a69,69,0,0,0,5.48-8.55C-435,318.14-460.82,341.05-486.81,363Zm192.52-61A17.37,17.37,0,0,1-287,316.36c2.58-1.61,5.17-3.06,7.75-4.51a14.54,14.54,0,0,1-6-14.53C-288.32,298.94-291.22,300.55-294.29,302Zm-301,.32c1.13,1.46,2.1,2.91,3.23,4.52,1.13-2.58,2.26-5,3.39-7.58C-590.73,300.07-593,301.19-595.25,302.32Zm287.57,36.8c-2.42,1.93-5.81,3.22-6.14,6.77,6-2.25,10.33-7.26,16-10,5.65-5.16,11.94-9.84,19.36-12.1,2.1-.49,3.39-2.59,5-3.88,4.68-4.84,12.1-4.51,17.1-8.71,2.75-2.26,8.23-1.61,8.72-5.81l-1.46-1C-270.25,313-289,326.21-307.68,339.12Zm-9-25.18c7.26.16,11.46,6.94,11,13.72,2.75-1.45,5.65-3.07,8.39-4.52-5.32-3.06-11-7.1-11.13-13.88C-311.23,310.88-314,312.49-316.72,313.94Zm10.65,37.6c5.65,4.68,11.13,9.85,16.46,15a66.1,66.1,0,0,1,14.68-5.16c-14.2,11.94-20,31.14-19,49.21,12.91,1.3,23.4,10.17,36.15,12.27A37.18,37.18,0,0,0-258.3,443c13.87-11.62,22.1-28.56,27.11-45.67,3.55-28.72-5-57.93-19.69-82.62C-271,324.27-289.13,337.5-306.07,351.54Zm-21.46-29a41.06,41.06,0,0,0,9.2,14.68c1.29-1.29,2.42-2.58,3.55-3.87a59.47,59.47,0,0,1-6.46-6.13c-2.58-2.59-.32-6.62-.48-9.85C-323.5,319-325.43,320.72-327.53,322.5Zm-334.2,9.36-19.37,28.56c.65,2.74,3.39,2.74,5.65,3.23,18.88,3.06,37.76,6.29,56.8,9.19,13.08-7.26,12.59-24.85,24.21-33.4,5-3.23,10.65-.16,14.68,3.23a15.76,15.76,0,0,1,10.49,3.71c6-1.13,10.49,2.9,13.08,7.91,3.71,1.61,8.39,4.35,7.26,9.19-2.1,7.1-5.33,13.88-5.49,21.47,11.13,1.61,22.27,5.48,33.4,5.64a216.46,216.46,0,0,0,32.76-40.82c-51.48-8.23-103.11-15.66-154.59-23.56C-649.47,324.76-657.7,325.88-661.73,331.86Zm334.2,12.1c-3.71,24-2.75,48.57-1.13,72.78,4.36-21.79,2.58-44.06,3.23-66.17C-325.76,348.32-324.47,344.77-327.53,344Zm-272.88,16.3c-4.2,11.29-12.59,22.59-25.17,25a84.77,84.77,0,0,0-8.56-4.2c-1.13,5.33-2.26,11.14-.32,16.46,2.74,9,11.62,14.2,20.17,16.46,6.78,1.29,14.36,1.46,20.17-2.9,9.52-6.62,18.56-13.88,27.6-21,8.23-6.13,7.26-17.59,9.36-26.46-6.62,4.51-5.81,13.55-9.85,19.68a88.54,88.54,0,0,1-12.1,13.72c-2.1.64-4.84.32-4.84-2.58,4.19-6.13,10-11.3,13.23-18.08,2.1-7.26,6-14.52,4.52-22.27-2.1.65-5,.65-5.33,3.39-2.09,7.43-3.55,15.33-7.1,22.27-2.9,5.33-7.26,9.68-11.45,14-2.42-1.77-3.39-4.52-3.55-7.42,10.32-8.39,14.52-21.79,16-34.53-7.58,2.74-8.71,12.1-11.62,18.55-1.29,8.23-8.71,12.59-14,17.75-2.74-1-3.71-3.38-4-6.13,8.71-4.36,10.65-14.52,15.17-22.27,2.26-4.68,5.65-9.2,4.68-14.68C-595.09,345.89-597.51,354.29-600.41,360.26Zm282.88-9.36c-.16,21.46-1.61,42.76-3.39,64.06a43.71,43.71,0,0,1,17.59-1.77,93.66,93.66,0,0,1,7.1-37c.33-1.45,2.1-3.55.33-4.68C-302.68,364.29-310.1,357.67-317.53,350.9Zm-33.4,86.33c2.74-1.29,5.49-2.58,8.23-4a54,54,0,0,1,6.62-9.36c-2.43-21.79-.65-43.73-1.13-65.52A193.4,193.4,0,0,0-350.93,437.23Zm-321.29-64.71c.48,16.78-12.1,30.82-10.65,47.61-.32,7.26,6,11.61,10,16.78a27.68,27.68,0,0,1,6,11.94c1.3,5.49,7.27,8.07,12.59,7.58,8.88-1,17.43-3.22,26.14-4.84,8.56-1.45,16.46-9.2,15.17-18.23-6.78-.81-13.39.8-20,.8a39.48,39.48,0,0,0-6-11.61,56.48,56.48,0,0,1-10.81-24.86c-1.13.33-3.55.81-4.68,1.13-.65-2.42-3.71-5.32-1.45-7.58,3.87-3.39,9-4.52,13.88-6-.33-2.58-.65-5.33-1-7.91C-652.86,375.75-662.54,374.13-672.22,372.52Zm118.45,26.14c1.61,3.39,4.51,5.65,7.26,7.91a21.71,21.71,0,0,1,13.23-6.29c-.16-.65-.65-1.78-.81-2.42-5.81-1.94-11.78-2.75-17.59-4.52C-553.13,394.63-556.19,396.4-553.77,398.66Zm-87.14,3.07c-.33,8.23,8.23,11.94,10.16,19.2,1.13,3.88,5.81,2.58,8.72,3.07,5-.16,12.1,2.26,14.84-3.39-9.2-.65-19.2-2.1-26.14-8.71C-636.56,409.15-637.69,404.63-640.91,401.73Zm351.46,17.75a64.63,64.63,0,0,1,20.33,34.86c2.59-2.1,4.85-5.17,4.52-8.72-.64-6-1.29-11.94-.8-17.91C-273.31,424.64-280.73,420-289.45,419.48Zm-31,5c-.65,3.07-2.75,6.13-2.26,9.36.32,2.58,3.23,2.26,4.84,1.29,2.1-2.09,3.23-4.84,5.65-6.61,4.52,2.74,2.58,8.55-.32,11.78-3.39,4.68-9.69,5-15,5.81-6,1-13.4-.81-17.59,4.68,8.71,2.58,17.75,1.45,26.62.64,2.1-.48,5.49,1.45,4,4-3.07,6.45-12.91,1.13-15.65,7.26,6.93,2.58,14.52.64,20.33-3.55,2.1-1.78,6.29-3.07,6.45,1.13-6,7.9-16.3,9.52-25.65,10.49-.17.8-.33,2.58-.49,3.38,8.88,1.62,17.91-.64,25.5-5.32,1.29,1.29,2.58,2.42,3.87,3.71-5.32,6.62-14,8.23-21.95,9.36.17,3.55,4,3.07,6.62,3.23,12.1-.16,22.92-6.62,32.11-13.88,6.94-5.65,7.75-16,5-24-4-11-11.95-21.63-23.56-25C-308,419.8-314.95,421.09-320.43,424.48Zm-28.73,36.15c2.42,3.55,4.85,7.58,9,9.2,2.74-2.42,0-6.13-.16-9.2Zm-72.45,1.61a20.79,20.79,0,0,0-1.78,1.94C-422.1,469.5-415.32,461-421.61,462.24Zm-62.29.49c1,3.87,1,7.9-1.45,11.13,4.35,3.87,6,9.85,3.22,15.17,3.72,4.68,5,11.46,1.13,16.62,1,.49,2.91,1.13,3.72,1.62a94.84,94.84,0,0,1,.8,11.78c3.88,2.09,7.43,5.16,7.91,9.84,1.13-.16,3.23-.65,4.36-.81,2.58,1.13,5.16,2.1,7.74,3.07,5.17,0,10.33-.81,15.33,0a66.57,66.57,0,0,0,7.59-3.71c-10.17,1.77-21.3,2.58-30.66-2.42-6.3-3.23-10.33-10.17-10.82-17.11-1.29-13.07-4.67-25.66-7.1-38.57,1,0,2.75-.16,3.55-.16,6,3.07,12.27,6.46,19.05,6.78,10.32,1,21.78-.16,29.37-7.91a37,37,0,0,0-4.2-.16c-4.84,3.55-10.65,6.78-16.94,6.29C-462.6,473.06-472,463.21-483.9,462.73ZM-359,470c-11.13,2.42-22.59,2.58-33.89,3.23-4.68,1.93-1.93,7.74-2.26,11.62a68.31,68.31,0,0,0,5,6.77c3.22,1.94,7.26,1.29,10.81,1.78,5-5-1.78-10.81-1.78-16.3,5.65-1.61,7.1,6,12.59,6,0-5.81,7.58-5.33,11.13-7.75-.32,4.36-3.87,7.1-5.48,11-.65,2.42.8,4.68,1.77,6.94a73.57,73.57,0,0,0,13.4,1c2.42-2.25,4.84-4.84,8.23-5.64,2.9-.16,5.81.64,8.71,1-.16-1.61-.48-5-.65-6.61-6-2.26-12.1-4.2-17.42-7.75C-351.9,472.73-354.64,468.38-359,470Zm-186.54,2.74c-8.56,3.39-12.43,12.91-15,21.14,7.1,1.13,14.84,2.42,21.78-.48,2.59-1.13,1.78-4.68,2.1-7.1-.64-2.91-4.52-2.91-6.13-5.17.16-2.58,2.42-3.87,4.19-5.32,4.52,1.45,9.2,4,14,1.93,1.29,4-1.45,7.75-2.09,11.62-1.29,4.68,3.22,10,8.23,9.36,4,0,11.13-.32,11-6-.65-6.61.16-15-5-20C-523.6,471-534.89,469.67-545.54,472.73Zm42.27-.32c2.59,20.33,5.17,40.5,7.75,60.84.81,6.94,6,12.74,11.94,15.81,8.55,4.36,18.4,5.33,27.76,5.33,12.58-1,25.66-1.46,37.11-7.1,8.07-3.88,15.17-11.3,16-20.5,1.94-15.65,1.13-31.47.16-47.12-.48-2.74.16-6.13-2.26-8.23,0,17.27,1,34.7.16,52-1.93,13.56-15.65,21-27.75,24.21-13.88,3.23-28.89,5-42.61.64-8.39-2.74-16.78-9.36-17.58-18.72-3.07-18.88-5.65-37.76-8.07-56.64A12.42,12.42,0,0,1-503.27,472.41Zm78.75,1.45c.49,1.94.81,4,2.1,5.65C-419,477.9-421,473.22-424.52,473.86Zm-71.32,1c.16,1.13.32,3.55.48,4.84.65-.32,1.94-1.13,2.58-1.45.17-.49.65-1.61.81-2.1C-493.1,475.8-494.87,475.15-495.84,474.83Zm54.06,6c10.65,5.81,16,21,8.87,31.31-6.94,10-23.07,10-31,1.29-2.1-1.94-2.1-6.13-5-7.1-2.1,1.93.64,5.16,1.29,7.26,5.32,8.71,17.1,11.13,26.46,9.36,5.65-1,12.43-3.39,13.88-9.52,1.94-10.65.65-21.63,0-32.28.16-2.09-1.29-3.87-2.1-5.64C-433.39,477.57-438.07,478.22-441.78,480.8Zm-32.12.49c1.3,7.1,2.75,14.36,3.39,21.62l1.62,1.61c1.13-3.39,0-7.1,1.45-10.49,1.77-5.32,6.29-8.87,9.84-12.91-5-1.61-10.16-3.22-15.17-4.68A41,41,0,0,1-473.9,481.29Zm179.45,6.13c-6.13,2.09-12.75,2.42-18.88,4.35-6.3,2.1-10,8.07-14.2,12.91-19,25.18-27.27,56.81-29.05,87.79-5.32-5.49-5-13.72-4.68-20.82a169.31,169.31,0,0,1,6.78-35.82c3.06-8.88,6.94-18.08,14-24.69,3.55-3.23,5.65-7.42,8.07-11.46-8.39-1.13-16.3,2.91-22.43,8.39-1.62,2.58-2.59,5.81-5,7.91-17.1,17.11-30,39.7-31,64.39-.65-.16-1.77-.49-2.26-.65.16-16.78,3.07-34.37,13.23-48.09,2.75-4.19,7.91-6.77,9.52-11.78-4.68,1.46-7.9,5.17-11,8.56-14.36,15.65-21.14,36.3-26.46,56.31-4.84-1.29-3.88-7.74-4-11.61,2.1-10,8.07-18.4,11.94-27.76,4-9,10.82-16.94,12.75-27-8.87.48-8.71,10.81-10.16,17.27-3.55,7.58-10.49,12.91-17.11,17.91-3.55,16.14-1.61,32.76.16,49.06,2.58,18.55,6.94,38.24,19.53,52.76,9,10.65,24,15.66,37.6,12a493.32,493.32,0,0,1,11.94-68.43c1.61-6.93,4.68-14,10.65-18.23-2.42-6.46-2.1-14,1.77-19.85,1.13-2.42,4-1.77,6.14-2.26a31.58,31.58,0,0,0,.8,14.53c-1,2.74-1.29,5.48-2.42,8.23-6.13,8.22-9.52,17.91-13.23,27.43-1.29,4.19-3.55,9.52,0,13.23,9-1.13,18.07-3.39,27.27-3.07,19.53-.8,39.54,4.85,54.71,17.43,11.45-16.62,17.59-36.63,18.72-56.64-2.43-1.77-6.14-2.9-6.46-6.45,3.39-4.84,9-7.59,12.59-12.43,12.75-14.2,17.43-35.5,10.49-53.25-6.3-11.94-19-18.72-31.79-21.46C-268.31,483.54-281.86,482.9-294.45,487.42ZM-455,488.87c-9.68,3.87-9.52,20.82,1,23.4,7.91,3.39,19-2.26,17.27-11.62C-436,491.29-446.95,483.71-455,488.87ZM-665.44,496c-14,10.17-20.66,27.92-20.82,44.86,0,12.1.32,25.34,7.42,35.83,2.26,3.87,6,7.26,7.1,11.78,4.2,17.75,10.49,35.34,20.34,50.83,6.94-8.72,16.94-14.36,27.43-17.27,20.65-5.65,42.28-2.58,62.61,2.58C-562.17,603-571,582-584.6,565.2l3.88-5.33c19,19,25.49,46.48,29.53,72.14,1.13,4.68,0,10,2.26,14.2,4.52,3.38,10.32,3.71,15.65,4.84,13.56-8.88,20.82-24.21,25-39.38,3.55-13.71,5.65-27.91,3.55-41.95-1.13-11.14-3.71-22.27-9.52-32-3.71-9.52-10.16-18.07-19.36-22.75,4.52,8.55,13.39,16.62,10.49,27.27-3.55-2.26-4.2-6.77-6.46-10.16-10.81-19.53-32.11-31.31-53.57-34.7a125.28,125.28,0,0,1,14.52,23.4,31.81,31.81,0,0,1,2.74,15.49,140.89,140.89,0,0,0-24-34.21c-13.72-12.59-33.89-14.84-51.64-13.23C-649.47,490-658.67,490.48-665.44,496Zm273.68,3.71c-4.19,2.58-2.1,7.59-1.61,11.46a34.39,34.39,0,0,1,14.84-4.36c5.33,0,10-3.06,15-4.84,2.1-4.2-5.16-5.65-7.1-8.55C-374.81,501.13-384.17,501.46-391.76,499.68Zm175.25,1.13a3.88,3.88,0,0,0,4.36,2.74c38.24,0,76.49.17,114.73,0a14.85,14.85,0,0,0,2.42-1l-.8-1.46C-136,501-176.33,500.65-216.51,500.81ZM-492,503.07c.48,2.26.81,4.68,1.29,6.94,1.29-1.29,2.42-2.42,3.71-3.55C-488.58,505.33-490.36,504-492,503.07Zm-26.95,3.71c5,4.2,10,8.39,14.36,13.4a124.25,124.25,0,0,0-3.55-15.5C-511.66,505.49-515.37,506.3-518.92,506.78Zm304.67,4.68a107.7,107.7,0,0,1,5.65,27.6c24.69-.17,49.22.16,73.91-.17,7.1-2.9,12.26-9,16.78-15,2.26-3.88,6.13-7.59,5-12.43C-146.8,511.62-180.52,511.46-214.25,511.46Zm-274.81,10.33c1.13,10.81,8.87,21.3,20.49,21.78-.65-1.45-1.29-2.74-1.94-4-2.58-4.2-8.87-1.78-11.62-5.65-2.9-2.9-2.25-7.1-2.09-10.81A26.5,26.5,0,0,0-489.06,521.79Zm48.25,16.94c-2.1,1.46-.65,5.49,2.09,4.52C-435.33,542.44-438.07,536.47-440.81,538.73Zm-15.82,2.42c-2.74.65-1.29,4.68,1.29,3.55C-452.43,544.22-454,539.86-456.63,541.15Zm-41.79,12.59c-.17,7.1.64,14,.8,21.14,0,23.88-2.58,49.22-16,69.87-6.62,10.49-18.88,18.24-31.63,15.33-.65,4.36-1.45,8.88-.16,13.4,4.52,18.72,10,37.27,15.65,55.67,11.62,3.07,24.85,3.55,35.18-3.23,14-9.19,20.33-26.14,22.43-42.11,3.55-36.15,5.16-72.3,6.94-108.61-.16-4.35,1-9-.49-13.23-8.71-2.1-18.71-1.45-26-7.58C-493.42,552.45-497.62,549.06-498.42,553.74Zm277.55,1c-2.58,5.49-5,11.13-9.84,14.84-2.74,14.69-6.29,29.37-9.68,44.06,1-.16,2.9-.65,3.87-.81,11-17.91,15.65-39,18.72-59.7A26.63,26.63,0,0,0-220.87,554.71Zm-220.43,6.13c-5.16.48-10.49.16-15.33,1.94-3.39,17.59-2.58,35.66-4.19,53.41-.65,14.2-1.3,28.4-1.94,42.44,1.94,18.24,5.65,37,16.14,52.29,6.61,9.68,17.91,16.29,29.69,15,3.71-4.19,7.26-8.39,11-12.42a85.54,85.54,0,0,1-40.83-71.65,10.92,10.92,0,0,1,4.36,5.32c6.78,16.46,15.82,32.28,28.4,45.19,12.11,11.94,28.08,21.14,45.51,20.82,1.29-2.75,2.42-5.49,3.71-8.23-1.61-1.62-3.23-3.23-5.65-3.72-18.23-5-36.14-13.23-49.05-27.43-12.27-13.39-18.24-32.44-14.85-50.35l2.1,1.13c2.58,14.36,7.42,28.89,16.78,40.35,12.75,16.13,34.05,24.36,54.38,22.59.49-2.1,1-4,1.62-6.14-1.62-1.45-3.23-2.9-4.84-4.19-10.49.81-21.31-1.45-29.7-7.91-12.26-9.2-19-23.56-23.23-37.92-6.14-21.46-7.75-44.05-7.1-66.32-.17-2.1.32-6.3-2.91-6.14C-431.78,559.23-436.46,560.36-441.3,560.84Zm230.92-2.74c-3.22,19.2-10.81,37.27-19,54.7,21,.16,41.8.33,62.77.33-5.16-17.11-6.93-36,0-52.77-.48-.49-1.45-1.62-1.93-2.26C-182.46,557.77-196.5,558.1-210.38,558.1Zm-24.69,64.38c25.5.49,51.16.49,76.65,0-1.61-1-3.22-1.77-5.16-1.45h-66.16A6.78,6.78,0,0,0-235.07,622.48Zm-108.28,6.78a34.31,34.31,0,0,0-1,3.88c27.11-6.94,57.6-4,80.52,12.9.48-1.61,1.13-3.22,1.61-4.84a58.79,58.79,0,0,0-19.52-10.49C-301.71,624.42-323,625.55-343.35,629.26Zm-279,.32A44.14,44.14,0,0,0-647.69,646c.64,1.3,1.93,3.55,2.42,4.85,7.74-10.33,20.33-15.66,32.76-18.08,17.91-3.06,36.31-.64,53.89,2.91-1-3.07-4.19-3.07-6.77-3.88C-583.95,627.65-603.64,624.91-622.36,629.58Zm368.57,13.72h113.93c-3.23-4-6.29-8.39-9.2-12.59h-93.59C-246.36,635.07-250.07,639.11-253.79,643.3ZM-328,648.14c5.33,1.13,8.88-5.32,14.2-3.39a41,41,0,0,1,2.26,6.3c-1.61,2.26-4.84,1.29-7.1,1.77-3.87-.16-6.94,2.42-9.84,4.52,3.55,2.1,8.87,3.23,12.1,0,1.78-2.1,4.52-1.45,6.78-1.45l3.87,4.84c2.1-.48,4-1,6.13-1.45.33-3.88-1.77-6.78-5.48-8.07-1.13-3.55.16-7.91-2.26-10.81C-314.95,639.11-323.66,641.53-328,648.14Zm-274-2.9a22.94,22.94,0,0,1-2.42,3.39c-5.49.64-10.49-2.26-15.34-4.2l-.48,5.33c-.81,1.13-2.26,3.55-3.07,4.68,2.75-.65,5.33-1.29,8.07-1.94C-604,654-597,664.44-586.37,667.18c6.13,1.46,9.52-4.51,12.42-8.71-1.93-.81-3.87-1.45-5.81-2.1-2.42,2.42-4.67,5.33-8.22,6.13-5,.81-9.2-2.74-11.95-6.45-1.77-2.1,1.46-3.55,2.42-5.16,5.65.16,11.14,1.45,16.79,1.77-.49-1-1.62-3.07-2.26-4-2.26-.16-4.52-.49-6.78-.65-1.61-2.58-2.58-6.94-6.45-6.62C-598.31,642.66-600.09,644-602,645.24Zm311,14.52c4.19-3.71,10-7.26,9.36-13.55C-287.19,648.47-292.35,653.15-291.06,659.76Zm35.34-8.71c-6.13,16.62-12.27,33.08-18.72,49.54,71.81.64,143.78.64,215.59.64.16-16.78.16-33.4,0-50.18Q-157.13,650.81-255.72,651.05ZM-800,654.6c.16,15.65,0,31.3.16,46.8h164.44c-6.61-15.5-12.75-31.31-19.2-47C-703,654.44-751.62,654.11-800,654.6Zm182.51,6.29c-1.93,5.49,3.88,8.71,6.46,12.91,1.45,3.39,5.49,1.78,8.39,2.42a46,46,0,0,0,3.07-4.68c-3.55-1-7.1-1.45-10.49-2.58C-614,667.67-613.8,662.5-617.52,660.89Zm285.15,1.94c-1.29,4.35,4,5.32,7.26,5.65C-325.27,665.09-329,661.7-332.37,662.83Zm31.3,9.36c3.23-.49,7.91,1.77,9.36-2.42C-294.94,669.44-299.94,667.83-301.07,672.19Zm-322.58,8.71a29.9,29.9,0,0,0,8.39-1.61C-616.71,674.61-622.2,677.83-623.65,680.9Zm272.56.16c17.91-1.93,37.11-3.55,53.9,4.68,6.45,2.58,11.13,7.91,16.78,11.78,0-5.16-5-7.58-8.55-10.33-15.82-10.16-35.51-10.65-53.74-9.36C-345.44,678.32-349.48,677.83-351.09,681.06Zm-269.49,8.39c-2.1,1.94-7.75,5.17-4.68,8.07,4.19-4,8.71-7.91,14.36-10.16,19-8.07,40.18-6.62,60.35-6.3-3.06-3.06-7.9-1.61-11.78-2.26C-581.85,678.64-603.32,678.64-620.58,689.45Zm265.94,8.07c-4.2,13.56-7.75,27.44-12.11,41,2.75.81,4.52,3.23,6.3,5.33.81-1.13,2.26-3.39,3.06-4.52a51.87,51.87,0,0,1,3.55,4.84c2.1-1.29,4.36-2.58,6.46-4a37.42,37.42,0,0,0,1,4.2c1.77-1.45,3.39-2.9,5.16-4.36.32,1.29,1.13,3.88,1.62,5.17l6.29-3.39c.64,2.26,1.45,4.35,2.26,6.61,2.1-1.61,4.19-3.38,6.13-5,.32,2.1.48,4.36.81,6.46,2.26-1,4.51-2.1,7.1-1.46,3.06-2.74,6.13-5.32,8.07-9,6.77-12.91,13.55-25.82,20.49-38.57-14.85-11.3-34.37-14.52-52.61-12.26C-346.74,689.61-353,691.87-354.64,697.52Zm-254-.8c8.87,17.26,17.1,34.85,25.82,52.12,1,2.26,3.06,3.87,5,5.48,0-6.61,2.58-12.42,5-18.39.65.81,1.94,2.26,2.59,3.06.64-.32,2.09-.8,2.74-1.13,2.26,1.46,4.19,3.07,6.78,4.2,2.9-1.29,5.48,0,8.07,1.29.8-1.29,1.61-2.42,2.25-3.71a39.13,39.13,0,0,1,2.26,3.39c.81-.65,2.59-2.26,3.55-2.91,2.42,2.1,4.68,1.94,6.94-.48.81,1.13,2.26,3.23,2.91,4.36.48-.65,1.77-2.1,2.26-2.91-4.2-14.68-9.85-28.88-14.37-43.57-1-2.26-1.29-5.65-4.35-6C-569.91,685.74-591,687.84-608.64,696.72Zm142.81-7.59c-1.13,4.36-2.26,8.71-3.71,12.91,3.39,0,6.94.16,10.33.16C-461.31,697.84-463.41,693.49-465.83,689.13ZM-622,706.4c2.58.16,5.32.32,7.9.32C-613.48,701.07-621.07,702-622,706.4Zm-163.8,3.87c0,2.42-.16,5-.16,7.42h157.66a42.79,42.79,0,0,0-5.16-6.94c-4.2-1.13-8.55-.48-12.91-.64C-692.71,710.27-739.35,710.27-785.83,710.27Zm312.26,6.94c7.74.48,15.65.48,23.4.32-1.3-7.91-11-7.74-17.11-6.94C-470.83,710.43-476,712.69-473.57,717.21Zm189.12-4.84c-1,1.45-1.93,2.74-2.9,4.19q109.17,0,218.5-.16c0-1,.16-2.9.16-3.87C-140.5,712.21-212.47,712.37-284.45,712.37ZM-485,728.67c2.74.48,5.49.8,8.23,1.29,1.94-1.62,4.52-2.75,5-5.49C-476.48,725-482,724.47-485,728.67Zm263.52-4.52c2.42,2.1,4.68,4.19,7.1,6.13h6.62c.16-1.45.64-4.52.8-6C-211.83,724-216.67,724-221.51,724.15Zm75.84-.32c.33,2.74.65,5.48.81,8.23,7.58-.49,15.81,1.61,22.75-2.75A37.92,37.92,0,0,0-118.4,724C-127.59,723.66-136.63,724-145.67,723.83Zm34.21,5c-4.84,4-10.65,8.71-10.81,15.65-.81,6.46,2.74,13.56,9.2,15.49-2.9-8.87-5.65-20.49,1.77-27.91,8.07-7.27,19.53-5.33,29.37-6.3-.32-.48-.8-1.45-1.13-1.93C-92.58,724.15-103.55,722.21-111.46,728.83Zm-667.1-.81c3.71,5.65,10.65,2.1,15.16-.64C-768.56,726.57-774,725-778.56,728Zm47.76-2.42a46.23,46.23,0,0,0,7.42,6.29c5-1.77,11.78.17,14.37-5.81A142.52,142.52,0,0,0-730.8,725.6ZM-401.6,729a6.12,6.12,0,0,0,8.39-2.42C-395.79,725.76-402.25,725.44-401.6,729ZM-292,725.6c.81,3.87,2.26,7.59,5.81,9.68a28,28,0,0,0,2.1-9.52C-286.71,725.6-289.29,725.6-292,725.6Zm-345.33,1.45c1,1.78,1.93,3.55,2.9,5.49,1.94,0,3.71-.16,5.65-.16l.48-5.33Zm255.28,2.42c-3.71,2.42-9,4.84-8.71,10-.65,6.61,3.55,12.42,8.71,16.14,4.2-9.2,8.72-18.88,10-29C-375.62,726.57-379.17,727.21-382.08,729.47Zm205.27.49c-6.62-.33-14-4.36-20.17.16-7.59,7.1-5.33,20.65,3.06,26.14-1-6.94-4-15.49,1.94-21.14,3.71-4,9.36-2.42,13.72-.81,6.93-6,20-5.48,23.88,3.72,3.71,6.94-.49,14.52-4.52,20.33l3.39-.49c7.75-7.1,10.49-22.59.64-29.2C-161.8,724.79-170,727.54-176.81,730ZM-749,729.15c6.13,4.36,11.62,10.17,13.55,17.59,1.78,4.52.16,10,3.71,13.72a27.19,27.19,0,0,0,3.39-19.37C-731.93,733.35-741.29,731.25-749,729.15Zm70.19,1.29c-8.23-1.93-18.39-3.71-25,3.07-7.75,7.1-8.07,24,3.87,27-.64-6-3.06-11.94-1-17.75,1.29-5,5.8-9,11-9.2,7.1-1.13,14,2.42,21.14.8,6.13-1,13.39.33,16.78,6.14,3.39,6.29,0,13.23-1.94,19.52,5.81-2.58,9.36-8.39,11.62-14,2.42-6.29-1-13.87-7.42-16C-659.31,726.25-669,732.86-678.84,730.44Zm210.27,2.91c-8.88,7.42-4.68,24.36,6.78,26.78-1.62-5.64-3.88-11.45-3.07-17.42a79.8,79.8,0,0,1,3.87-8.4c2.26-1.45,4.68-2.42,6.94-4,2.42.32,5.49,2.91,7.1-.48-1.77-.81-3.71-1.46-5.48-2.26C-457.6,730.28-464.21,729.15-468.57,733.35Zm189.45,7.74c-.65,8.07,5.16,14.85,12.42,17.59-4.84-6.45-9-15.81-4.35-23.4,2.9-5.16,9.84-3.39,13.88-7.1-4.36-.16-8.72-.8-12.91.81C-274.44,731.57-279.93,735.12-279.12,741.09Zm23.88-12.1c-1.29.81-2.58,1.61-3.71,2.42,2.91,0,6,1.94,8.88.81a25.29,25.29,0,0,1,15.81-1.29c5.65,3.22,7.75,10.49,6.13,16.62-.48,5.65-6.45,8.23-8.55,13.07,11.46-2.75,19-19.37,11.3-28.89C-233.61,723.66-245.39,729.15-255.24,729Zm-367,5.81a11.45,11.45,0,0,0-3.38,11.13C-624.94,751.1-623,758-617,759c.64-6.29-3.71-13.23.16-19.2,3.39-6.45,11.46-6.29,17.75-7.74a6,6,0,0,0-4.84-1.94C-610.25,729.63-617.35,730.28-622.2,734.8Zm205.11-1.45a66,66,0,0,0,2.58,7.42c5,4.52,1,11.46.48,16.94,4.52-5.81,11.62-12.74,7.91-20.81C-407.73,732.22-413.22,733.19-417.09,733.35Zm-83.43,5c-2.58,3.39-.65,7.58.64,11A35.07,35.07,0,0,0-502.94,760c8.39-3.71,16.13-12.58,12.75-22.27C-491.32,733-498.42,735.12-500.52,738.35Zm401.17-2.42c-3.07.81-7.1.81-8.39,4.19-3.72,6.46.8,13.4,4,19,6.62-1.3,13.07-5.17,15.49-11.62,1.61-3.71,1.13-7.91,1-11.78A27.76,27.76,0,0,0-99.35,735.93Zm-665,1.61c-6.46,2.26-5.17,11.94-.33,15.33A81.49,81.49,0,0,0-746,761.42c1.78-1.77,5.33-2.74,5.33-5.64C-740.8,744.32-752.91,733.51-764.36,737.54Zm463,1.62c-3.55,6.45-7.26,13.23-6.78,20.81,4.2,0,9.52-.64,11.78-4.68a25.47,25.47,0,0,0,.81-20.33A6.43,6.43,0,0,0-301.39,739.16Zm160.89,0a41.9,41.9,0,0,1-8.56,20c7.91,0,15.82-.17,23.73,0-6-5.33-3.23-13.56-5.65-20.18C-134,739.16-137.28,739.16-140.5,739.16Zm-317.58,5c1.13,4.68,1.45,10,4.84,13.71,2.1,1.3,4.68,1.46,6.94,2.26,6.61-.48,13.39.65,20-1,2.42-4.85,8.55-10.17,5-15.82-4.19-5.81-12.75-4.52-18.4-1.45C-445.33,738.83-455,736.25-458.08,744.16Zm194.61,3.06c4.2,4.68,10,7.43,13.88,12.59,4.52-6.61,16.94-9.84,13.23-19.85-4.52-.32-9.2-.64-13.07,1.78-4.19-1.13-8.23-3.23-12.75-2.75C-266.37,739.48-265.57,745-263.47,747.22Zm50.83-8.06c-1.93,7.26-4.35,14.36-8.87,20.49h19.36C-207.15,753.68-210.22,746.42-212.64,739.16Zm36,4.19a78.83,78.83,0,0,0-10.81-1.93c-1,4-.81,8.55,1.93,11.78,2.91,3.87,7.91,5.16,12.43,6.61,4-3.06,8.39-6.13,10.49-11,1.29-2.58,2.1-6.46-.65-8.39C-167.94,738.35-172.13,742.87-176.65,743.35Zm-542.53-1c-.65,5.65-1.29,11.3-2.1,17h6.78C-715.95,753.52-716.6,747.55-719.18,742.38Zm24.69,3.23c0,5.33,1.61,11.14,6.46,13.88,6.45.16,12.9-.32,19.36,0,4.84-3.07,10.49-7.42,10-13.72-1.12-3.55-5.32-4-8.39-3.39C-676.25,744.32-686.42,739.64-694.49,745.61Zm87.79,10.65c5.64,4.68,13.71,3.55,20.49,2.26-1.77-5-3.55-10-6.62-14.36-3.71-2.91-8.71-2.74-13.07-1.94C-612.35,744.16-610.25,752.55-606.7,756.26Zm84.39-13.72c1,6.14,1.29,13.08,6.14,17.59,2.58-1.93,5.16-3.87,7.9-5.81.81-3.71,2.1-9.35-2.26-11.29C-514.56,742.06-518.6,742.54-522.31,742.54Zm34.7,17.27c4,.16,7.9,0,11.94,0-2.91-4.84-4.52-10.33-5.81-15.81C-483.26,749.48-485.68,754.49-487.61,759.81Zm-152.18-.48a57.52,57.52,0,0,1,10.66,0,77.56,77.56,0,0,1-4.52-10.65C-635.59,752.39-637.69,755.94-639.79,759.33Zm70.85-10.49c-.49,6.78-1.94,15.81,5,19.85,2.58-1.78,5.16-3.71,7.58-5.65C-557.81,756.58-562.33,750.77-568.94,748.84Zm166.53,10.33a61.13,61.13,0,0,1,9.52.32q-2.42-5.32-4.84-10.65C-399.34,752.07-401,755.62-402.41,759.17Zm-146-4c2.26,0,3.39-4.19.81-4.52C-550.06,750.61-551.35,754.81-548.45,755.13Zm5.49-4.19c-.81,2.42.16,3.22,2.9,2.58C-539.25,751.1-540.22,750.29-543,750.94Zm189,.8c.81,1.13,1.62,2.1,2.58,3.23,2.43-2.74,5.49-2.26,8.4-.32-.17-.81-.65-2.42-.81-3.23C-347.22,751.1-350.61,750.77-354,751.74Zm-15.49,2.1c-.64,2.42,3.71,4.52,4.68,1.78C-364.32,753.2-368.68,750.94-369.49,753.84Zm82.62-1.29c-1,2.42-3.87,7.58.16,8.55,2.91-1.45,5.81-1.13,8.88-.64C-280.25,757.23-282.51,753.36-286.87,752.55ZM-319.46,760c-6.94,1.46-10,12.91-2.42,15.66,5.81-1,7.26-8.72,7.1-13.72C-314.14,758.68-317.69,759.17-319.46,760Zm-227,1.94c-4,8.07-10.81,16.14-21,15.33-1.61,2.26-3.87,4.36-3.87,7.26-1,10.17-3.39,20.33-8.23,29.53,10.65-.32,21.46,0,31.79,3.39,18.07,5.33,32.92,18.72,41.31,35.34,1.45.16,4.35.49,5.81.49,7.42-3.72,13.39-11.62,11.45-20.18-2.09-7.74-4.35-15.65-9.52-21.94-2.26-3.07-6.29-3.07-9.68-3.88.16-4.51,3.07-8.55,2.74-13.07-3.87-9-9.36-17.59-15-25.65C-527.15,761.91-537.64,761.42-546.51,761.91Zm169.44,4.68c-9.85,11.29-14.69,26.79-13.72,41.79a37.17,37.17,0,0,0-15.49,26.31c-.81,6,4,12.26,10.17,11.94,10.16-1.94,17.26-10.65,21.78-19.37,3.07-6.61,9-11.61,15.81-14.36,10-4,21.47-5.81,31.79-1.93,12.75,3.71,22.44,14.36,26,26.94a10.69,10.69,0,0,0-.49-14.52c-9.68-10-16.94-22.59-19-36.31-3.23-2.42-7.42-3.71-10-7.1-3.38-3.39-3.87-8.39-5.32-12.58A47.34,47.34,0,0,0-377.07,766.59Zm-374.38,2.26v4.84H-580.4v-4.84Zm241.57,0c1.94,1.77,2.74,5.48,5.81,5.48,36.47.17,72.78,0,109.25,0,1.61-1.93,3.06-3.71,4.68-5.64C-430.16,769-470,768.69-509.88,768.85Zm203.33,0c-.49,1.29-1.62,4-2.26,5.48,67.77,0,135.71.33,203.49-.16,0-1.29-.17-4-.17-5.32Zm2.58,39.86a45.84,45.84,0,0,0,16.14,15.81c7.1.16,9.52-8.39,11.94-13.72,2.74-6.45,9.68-9,16.13-10.65-1.45,3.23-2.42,6.78-1.61,10.17,1.78,9.68,7.42,17.75,11.3,26.63,2.09,6.13.32,12.75-2.26,18.55h62c.16-24.85,0-49.54,0-74.39h-120.7C-312.85,790.79-308.65,800.32-304,808.71Zm120.54-27.6c0,24.69.16,49.22,0,73.91,22.92.32,45.67.16,68.58,0-.16-24.69,0-49.22,0-73.91Zm-555.44,1.62v73.42h71.49c-.16-24.53,0-49.06-.16-73.42Zm79.08.64v72.94h20c-3.06-6.78-4.51-14.52-2.9-21.95,1.45-11.94,11.13-21.13,11-33.56,11.78,3.55,18.88,14.52,25.82,23.72,17.43-5.32,26.95-23.72,27.11-41.15C-605.74,783.21-632.85,783.53-659.79,783.37Zm157.49.16a33.9,33.9,0,0,0,3.39,9c-2.26,10.49,7.91,16.62,11.78,25,6.78,11.14,7.59,26.95-1.93,36.79,28.24-.16,56.64,0,84.88,0-5.33-5.32-10.82-11.78-9.52-19.84.16-11.95,11.61-18.56,15.33-29,1.45-7.26,1-14.85,2.09-22.11C-431.46,783.53-467,783.21-502.3,783.53Zm-123.93,32.28c-3.55,7.1-8.23,14.2-9.2,22.27a22,22,0,0,0,6.78,18.07c11.3-.16,22.43-.16,33.73,0-10.17-9.68-17.59-21.79-23.24-34.53C-619.78,819-622.68,814.35-626.23,815.81Zm350.34,8.39c-6.3,11.46-16.62,21.14-29.37,24.69-2.26,2.26-4.52,4.36-6.78,6.45,16-.32,32.11.33,48.09-.32,6.29-3.55,9.2-12.26,6-18.88-3.23-7.1-7.1-13.88-10.49-21C-271.38,818.07-274.12,820.81-275.89,824.2Zm-87.95,2.42c-6,5.81-6.46,16.94.16,22.59,7.59,6.13,17.91,6.29,27.11,6.13-2.1-1.93-4.19-4-6.13-6.13,1.45-1.61,3.06-3.23,4.52-4.68,6.13,4.2,13.88,4.84,21,3.55,4.35-1.29,6-5.81,8.06-9.36-7.26-.32-14.84-.16-21.78-2.74-2.91-2.26.48-5.17,2.26-6.62,1.77.32,5.16,1,6.94,1.29-.81-7.1-8.07-10.49-14.36-11.13C-345.77,818.23-356.9,819-363.84,826.62Zm-221.89-4c-3.22,3.88-7.9,6.14-11.61,9.53-2.59,2.25-1.46,6,1.13,7.58,1.77-8.55,10.32-12.26,18.07-13.72,3.55,3.23,3.87,8.07,4.36,12.59-5.81.65-12.11,1.13-16.3,5.65,2.58,2.9,4.84,6.29,8.23,8.39,5,1,11.29,1.29,15.17-2.58,2.09-2.26,2.09-6.94,5.64-6.94,2.75,1,3.88,3.87,5.33,6.13,4.68,2.91,10.17,4,15.65,4.36A33.67,33.67,0,0,0-528.28,846C-539.41,826.3-564.1,817.74-585.73,822.58Zm315.48,96.34c-57.93,10.17-117,15.82-175.73,14-70-.64-140.07-10-208.17-26.46-60.51-15-120.06-34.7-175.73-62.61-22.91,33.88-46.15,67.45-69.07,101.34-1.61,1.93,2.1,2.74,3.07,3.71,31,17.1,63.58,31.14,96.66,43.73,67.78,25.5,138.13,43.89,209.46,56.32,29.85,5.65,60.19,8.87,90.53,10.81,75.84,4.68,152.33,2.42,227.37-9.84,42.12-7.43,83.27-19,123.93-32.28a1702.55,1702.55,0,0,0,188.48-76C17,906.17-6.24,870.51-29.64,834.85-103.87,877.29-186.33,903.75-270.25,918.92Zm-489.43-54.54c28.56,9.68,57.12,18.88,86.17,26.46,10.16,2.26,20,6.46,30.5,5.81h411.49c6.62,0,13.24.65,19.53-1.29,32.6-8.23,65.35-17.1,96-31.14-6.78-.49-13.72-.16-20.5-.32H-689.81C-713,864.22-736.45,863.25-759.68,864.38Zm155.07,41c17,3.87,34.38,7.26,51.8,6.94h251.9a270.29,270.29,0,0,0,43.9-6.94c-5.49-.49-11-.32-16.46-.32h-255C-553.77,905.37-579.11,904.72-604.61,905.37Zm97,14.68c22.43,4,45.34,2.42,67.93,2.75,20-.17,39.86.8,59.87-1.46,4.68-.8,9.85.49,14-1.93C-413.06,920.7-460.34,919.25-507.62,920.05Z" transform="translate(910.4 89)"/></g><path id="path362" class="cls-5" d="M-499.07,83c3.07-4.84,8.07-9.36,14.2-8.39,7.42,1,16.46-.65,21.95,5.65,4.52,3.71,4,10.16,4.68,15.49.48,8.55,2.26,17.11,2.1,25.82-1.13,6.29-10,4-12.43-.16-2.91-3.88,1-7.59,2.26-11.14.64-4.52.16-9-.16-13.55-5-1.29-10.17-.32-15.17.32-3.23.32-5-3.55-8.23-3.23-1.78.81-3.55,1.78-5.33,2.75-2.58-2.91-.16-6.94,2.59-8.56,5.48-3.22,12.1-1.93,18.23-3.06l1.94-1.94c-4.52-1.77-9.52-2.1-14.37-1.94C-490.84,81.57-494.71,83.83-499.07,83Z" transform="translate(910.4 89)"/><path id="path364" class="cls-5" d="M-538.93,97.38c1-.48,3.07-1.61,4.2-2.09,1.93,4.35,5,8.06,8.07,11.61-1,2.59-1.78,5.17-2.59,7.75a37.34,37.34,0,0,1-3.87,1.61C-540.38,113-539.09,103.84-538.93,97.38Z" transform="translate(910.4 89)"/><path id="path366" class="cls-5" d="M-448.08,117.55c1.78.17,3.72.17,5.49.33,1.13,4-1.94,6.61-5.81,5.81C-448.24,121.75-448.08,119.65-448.08,117.55Z" transform="translate(910.4 89)"/><path id="path368" class="cls-5" d="M-476.48,140.63c12.27-6.29,26.63-3.55,39.86-3.39-.16,1.13-.32,3.07-.48,4.2-7.26,1.61-14.69,1.13-21.95,2.58a25.37,25.37,0,0,0-13.39,2.26A11.83,11.83,0,0,1-476.48,140.63Z" transform="translate(910.4 89)"/><path id="path370" class="cls-5" d="M-463.73,148.22c5.81-.17,11.78-.49,17.59-.49.65.65,2.1,2.1,2.74,2.91C-449.69,154.19-459.53,155.32-463.73,148.22Z" transform="translate(910.4 89)"/><path id="path372" class="cls-5" d="M-521.34,212.6c3.39-3.39,8.88-1.45,12.27,1,3.06,4.52,1,12.26-4.68,13.39-3.88.33-8.72-1.29-10.17-5.32A12.23,12.23,0,0,1-521.34,212.6Z" transform="translate(910.4 89)"/><path id="path374" class="cls-5" d="M-501.33,219.54c4.2-1.94,10.81-1.45,12.59,3.71,2.26,3.55.32,7.59-.65,11.14-3.71,2.42-8.87,4.52-12.58,1.13C-507.14,231.81-507,222.77-501.33,219.54Z" transform="translate(910.4 89)"/><path id="path376" class="cls-5" d="M-566.2,509.69c4-1.62,7.75,1.45,11,3.39,15.66,10.65,24.85,28.72,27.92,47.12,2.1,12.26,4,24.69,2.91,37.27-.49,1.13-1.62,3.39-2.1,4.36-5.81-1.78-3.88-7.91-4.2-12.59C-531.34,559.71-543.29,529.37-566.2,509.69Z" transform="translate(910.4 89)"/><path id="path378" class="cls-5" d="M-596.86,509.2c2.26.32,4.68.49,6.94.81a48.66,48.66,0,0,1,9.2,13.72c-2.26,1.29-5,3.38-7.43,1.45C-591.7,520.18-595.73,515.33-596.86,509.2Z" transform="translate(910.4 89)"/><path id="path380" class="cls-5" d="M-366.58,527.11c2.26-3.38,4.35-7.9,9.36-6.93-14.85,28.07-16.3,60.83-15.33,92-6.94-12.91-5.17-28.24-5.17-42.28A81.48,81.48,0,0,1-366.58,527.11Z" transform="translate(910.4 89)"/><path id="path382" class="cls-5" d="M-559.26,545.83c3.39-2.26,6,3.07,6.94,5.81.48,4.52,3.23,11.3-2.1,13.88-3.39-.16-3.71-4.19-4-6.62C-558.78,554.55-560.55,550-559.26,545.83Z" transform="translate(910.4 89)"/><path id="path384" class="cls-5" d="M-517.63,550.35a22.67,22.67,0,0,1,6.94,18.24c0,2.74-2.26,5.32-5,3.71-2.26-5.33-2.1-11.3-3.55-16.78C-518.92,554.22-517.95,551.48-517.63,550.35Z" transform="translate(910.4 89)"/><path id="path386" class="cls-5" d="M-475.83,572.14c.64-.49,1.93-1.62,2.58-2.1a193.65,193.65,0,0,1,1,45.34c-1.13,17.11-3.23,34.38-10.33,50.19a46.24,46.24,0,0,1-11.46,16c1.29-6.62,4.52-12.75,6.46-19.21,5.48-17.26,8.23-35.34,9.52-53.41C-477.45,596.67-477.12,584.24-475.83,572.14Z" transform="translate(910.4 89)"/><path id="path388" class="cls-5" d="M-488.9,579.72c-.65-2.58,1.61-3.71,3.22-5.16,2.26,25.82,1,52.93-10,76.65-4.36,8.39-9.36,17.27-17.59,22.27.65-1.78,1.45-3.71,2.26-5.49C-494.71,641.85-487.93,610.38-488.9,579.72Z" transform="translate(910.4 89)"/><path id="path390" class="cls-5" d="M-521.66,579.72c-.65-2.26,1.77-2.58,3.23-3.23a49.68,49.68,0,0,1,1.93,18.88c1.78.49,3.55.81,5.33,1.3a41.46,41.46,0,0,1-8.23,29.2c-1.29,2.42-4,3.23-6.62,3.88-3.39-6,2.1-10.65,5-15.17,2.59-5.49,2.91-12.11-1.29-17C-522.31,591.66-521.5,585.69-521.66,579.72Z" transform="translate(910.4 89)"/><path id="path392" class="cls-5" d="M-455.18,628.78c.49-17.75.33-35.66,2.42-53.25l1.94-.17a30.75,30.75,0,0,0,2.26,2.59c0,16.94-.16,33.88-1.45,50.83A27.89,27.89,0,0,1-455.18,628.78Z" transform="translate(910.4 89)"/><path id="path394" class="cls-5" d="M-400.63,621.68c4.52.64,6.94,4.68,10.65,6.94A57.61,57.61,0,0,0-362.55,638c-.65,2.9-1.29,5.64-2.1,8.55-7.1.48-14.68.64-21.3-2.58C-394.66,640.24-401.6,631.36-400.63,621.68Z" transform="translate(910.4 89)"/><path id="path396" class="cls-5" d="M-457.11,658.15c6.13-.65,7.9,5.81,9.36,10.33,3.55,11.78,7.58,23.56,10.65,35.34,1.29,3.06-.65,6-3.71,6.61C-448.56,693.81-454.85,676.38-457.11,658.15Z" transform="translate(910.4 89)"/><path id="path398" class="cls-5" d="M-529.73,699.3c5.16-2.58,10.81-3.55,16-5.65,1.45,1.94,3.06,4,2.42,6.45-4.2,5.33-11.78,7.43-18.24,6.14C-532.63,705.11-532.47,700.91-529.73,699.3Z" transform="translate(910.4 89)"/><path id="path400" class="cls-5" d="M-506.49,712.53c6.78-2.58,10.49-9,16.13-13.07,1.78,6.45-3.22,11.78-7.74,15.49-5.81,4.52-13.07,8.07-20.5,7.1a6.67,6.67,0,0,1-2.58-5.49C-516.66,714.14-511,715.27-506.49,712.53Z" transform="translate(910.4 89)"/><path id="path402" class="cls-5" d="M-561.36,765.14c-6-.65-7.26-8.56-3.39-12.11A12,12,0,0,1-561.36,765.14Z" transform="translate(910.4 89)"/><path id="path404" class="cls-5" d="M-322.21,763l4.68-.49c1.29,4.2-1.13,7.75-4,10.66C-325.11,770.3-323.66,766.43-322.21,763Z" transform="translate(910.4 89)"/><path id="path406" class="cls-5" d="M-55.62,896.33c1.45-5.32,2.9-10.49,4.35-15.81,7.75.8,13.88,6.29,17.43,12.91,5,9.52,10.33,18.72,15.66,28.08,3.71,6,1.93,14-2.75,19-4.52,5.48-12.58,4.35-18.72,3.39-12.1-2.1-21.78-11.14-26.46-22.11-3.55-5.49,1.77-11,4-15.82,4.2,14.69,17.11,26.47,32.6,28.08.48-1,1.45-3.06,1.94-4.19-5.65-9.69-10.82-19.69-16.62-29.21C-46.26,896.49-51.43,896.17-55.62,896.33Z" transform="translate(910.4 89)"/><g id="g410"><path id="path408" class="cls-5" d="M-824.88,892.94c3.55-1.45,6.78-4.35,10.49-4.68,4.36,3.23,7.91,8.56,6,14.2-3.06,8.23-7.74,15.66-11,23.72,4.84,4.85,8.07,10.82,10.65,17.27,6.62-10.49,11-22.27,16.78-33.08,5.33-1.13,10.65-2.42,16-3.71-8.72,17.27-16.78,34.85-25.66,52-5.16,1.94-10.65,2.42-16,4,2.1-9.84.33-20.33-6.13-28.24-1.77,3.55-3.23,7.43-5.48,10.82-5,1.93-10.49,2.58-15.66,3.71,2.1-8.72,3.23-17.59,0-26.14a27.6,27.6,0,0,1,14.2-3.39c3.07-6.3,6.46-12.43,9.2-18.88C-819.39,897.3-823.1,895.2-824.88,892.94Zm-12.75,28.89c.81,2.74,1.62,5.32,2.42,8.07.81-1.94,1.78-3.88,2.75-5.81A48.31,48.31,0,0,0-837.63,921.83Z" transform="translate(910.4 89)"/></g><path id="path412" class="cls-5" d="M-106.13,913.76c7.74-4.2,15-9.2,22.91-13.07A39.24,39.24,0,0,1-83.86,913q-8,4.6-16,8.72c.49,1.77-1.61,6.61,1.13,6.13,2.58-2.42,4.84-5.33,8.23-6.62,6.78-3.71,15.49.81,18.72,7.43,3.23,6.45,6.46,12.91,9.36,19.52,2.42,5.49-.48,11.94-4.84,15.65-.48-.16-1.29-.32-1.78-.48-4.84-9.52-8.87-19.2-13.87-28.56-1.29-3.23-5.17-1.45-7.59-1.62,1.78,4.2,4.84,7.91,6.62,12.11,1.13,9.84.32,20.33-5.33,28.88-8.55,0-18.39-2.1-23.07-9.84-5.49-8.23-3.07-18.4-4.52-27.6-1.94-3.22-5.81-4-9.2-4.51q2.42-6.3,4.36-12.59c4-.16,8.39,1.61,9.68,5.65,2.74,7.74-1,16.62,3.39,24,3.39,7.75,12.26,10.49,20.17,10.49a125.42,125.42,0,0,0-13.39-17.11C-109,934.74-109.68,923.12-106.13,913.76Z" transform="translate(910.4 89)"/><path id="path414" class="cls-5" d="M-775.18,918.6c4.2-1.77,8.4-3.71,12.75-5.32,1.78,3.06,3.88,6.61,2.1,10.16-3.23,7.42-11.94,10.49-15,18.08-4.35,7.74-.8,17.42,5.49,22.91,4.2-11.62.48-25.82,9.68-35.34,4.2-4,10.17-9.84,16.46-6.78,6.78,2.1,13.56,4.2,20.5,6.13-2.91,2.91-5.65,7.43-10.17,7.75-5.65-1.29-11-3.39-16.46-5.33-1.78,1.62-3.55,3.39-5.33,5,7.11-.49,16.3,1,19.21,8.55,3.87,9.84-3.55,19-6.13,28.24-1.78,7.91-10.33,12.26-17.76,10.17,4.52-10.65,8.4-21.63,13.08-32.28a17.13,17.13,0,0,0-5.49-4.68c-1.45,4.52-1.78,9.68-4.36,13.72a47.53,47.53,0,0,1-23.56,15c-6.45-6.14-11.62-15.17-8.87-24.21,2.26-9,10.81-14.2,16.46-21.14C-770.66,925.54-773.56,921.67-775.18,918.6Z" transform="translate(910.4 89)"/><path id="path416" class="cls-5" d="M-691.26,928.28c7.9-6,16.78-12.1,27.11-12.1,10.65,1.45,18.07,10.33,24,18.56-3.39,2.42-6.78,5-10,7.74-3.55-13.07-17.43-22.91-31-21.14-.48,4.36,3.07,7.59,6.14,10,3.38,2.9,7.42,0,10.81-1.29-4.36,3.06-8.72,7.26-14.36,6.78C-683.68,935.87-687.55,932-691.26,928.28Z" transform="translate(910.4 89)"/><g id="g420"><path id="path418" class="cls-5" d="M-232.65,925.54a14.06,14.06,0,0,1,16.79-.81c-4,7.43-5.33,19.85-15.66,20.66-3.71.48-11.29-2.91-8.23-7.59C-237.49,933.77-235.55,929.25-232.65,925.54Zm-3.71,9.2c3.88,4.84,15.33,4.52,14.69-3.23C-225.38,926.51-233.45,930.38-236.36,934.74Z" transform="translate(910.4 89)"/></g><path id="path422" class="cls-5" d="M-145.51,934.58c2.91-4.52,5.65-9,8.88-13.4,5.65,16.62,11.3,33.24,17.1,49.87.81,4.19,5.49,3.87,8.72,3.71-1.94,3.87-3.39,8.23-6,11.78-4.84-.16-11.62-1.29-13.07-6.94C-135.18,964.75-140.34,949.74-145.51,934.58Z" transform="translate(910.4 89)"/><path id="path424" class="cls-5" d="M-168.1,942.64c2.91-4.51,5.65-9.19,8.88-13.39,5.65,16.62,11.29,33.4,17.26,50,.81,4,5.49,3.55,8.56,3.55-1.78,3.71-3.55,7.42-5.17,11.29-5.16.32-12.1-.8-14-6.45Q-160.35,965.16-168.1,942.64Z" transform="translate(910.4 89)"/><path id="path426" class="cls-5" d="M-725.8,940.87c4-3.07,8.07-5.81,11.95-8.88,8.39,2.26,16.62,4.68,25,7.1-5.49,18.56-10.65,37.12-16.14,55.68-5,2.1-10,4.19-15,6.13,5.17-17.91,10.17-35.82,15.5-53.74C-711.6,944.9-718.86,943.29-725.8,940.87Z" transform="translate(910.4 89)"/><path id="path428" class="cls-5" d="M-201.18,943.94c8.23-2.59,16.62-4.85,24.85-7.1,5.17,18.71,10.65,37.11,15.82,55.83-3.07,4.36-6.14,8.87-9.52,13.07-5-18.07-10-36-15.5-53.9-7.1,2.42-14.52,4.2-21.62,6.62C-205,953.46-203.12,948.78-201.18,943.94Z" transform="translate(910.4 89)"/><path id="path430" class="cls-5" d="M-686.26,950.07c3.39-3.39,6.94-6.3,10.49-9.36,8.55,2.58,17.27,4.36,26,6.61-4.68,18.56-9.36,37-13.88,55.52-6,2.09-11.62,5.81-17.91,6.93-5.81-2.42-9.36-7.9-10.65-13.71,3.39-2.1,6.78-4,10.17-6.3-.81,4.85.48,10.49,5.81,11.62,3.71-15,7.1-30,11.29-44.86-6.78-2.42-13.88-3.55-20.82-5.48A5.14,5.14,0,0,0-686.26,950.07Z" transform="translate(910.4 89)"/><path id="path432" class="cls-5" d="M-482.77,945.23c1.45,3.71,3.23,8.23,7.74,9,9.53.65,19,0,28.41.16-2.1,3.55-4,6.94-6.14,10.49-10.49-.16-21,.49-31.3-.32-6.3-.64-7.59-7.74-6.46-12.75C-487.93,949.74-485.19,947.49-482.77,945.23Z" transform="translate(910.4 89)"/><path id="path434" class="cls-5" d="M-236.68,953c9.2-1.77,18.07-4.19,27.27-5.32,3.71,18.88,7.91,37.6,11.94,56.32-3.39,4.19-6.94,8.39-10.32,12.74-3.88-18.39-7.75-37-11.79-55.35-9.68,2.26-19.52,3.88-29,6.62a35.67,35.67,0,0,0,9,12.43c2.25-5.65,3.55-12.43,9.35-15.82a42.94,42.94,0,0,1,9.53,3.55c-2.75,4-5.33,7.91-7.91,12.1-1.62-1.13-3.23-2.09-4.68-3.22a46.87,46.87,0,0,0-5.65,4.19c4,4.84,8.88,9.85,10,16.3,1.45,9.2-1.62,18.4-6.94,26-.65-4.52,2.58-8.87.64-13.07-3.39-10.49-14.84-15.65-18.07-26.14-2.26-9.52,1.61-19.37,6.94-26.95C-244.26,953.78-239.91,953.94-236.68,953Z" transform="translate(910.4 89)"/><path id="path436" class="cls-5" d="M-646.08,961.52c2.91-3.55,5.81-6.93,9-10.16,2.58,3.23,6.45,6.29,6.29,10.81.32,5.49-5.16,8.71-7.1,13.39-4.68,11.62-1.77,24.69,5,34.86,2.75.48,2.75-3.07,3.55-4.84,3.07-10-3.38-20.49.49-30.34,2.9-7.58,7.58-15.33,14.84-19.2,6.94.16,13.72,2.1,20.66,2.9-2.74,19-5.65,38.09-8.55,57.29-4.36,2.58-8.88,5.32-13.4,7.75,2.91-18.4,5.49-37,8.56-55.52-4.68-.64-9.36-1.45-14.2-2.09.48,8.39,2.42,16.62,2.25,25-.64,12.75-10,23.56-21.14,28.88-6.61-7.58-12.26-16.94-11.13-27.43-.16-9.68,11.62-14.52,11-24.37C-639.62,964.59-643.66,963.3-646.08,961.52Z" transform="translate(910.4 89)"/><path id="path438" class="cls-5" d="M-273.8,968.3q5.58-6.28,11.62-12.1c1.78,19.2,4.52,38.41,6.94,57.61-3.87,3.87-7.58,7.91-11.62,11.62-2.42-4.2-4.52-8.72-7.74-12.27-3.39-3.71-8.23-5.81-12.75-7.58.48,4,1.13,8.07,1.77,12.1-3.87,4-7.58,7.91-11.61,11.78-1.78-5-3.55-10-6.62-14.36-2.42-3.39-6.13-5.81-7.91-9.68,1.78.64,3.55,1.45,5.33,2.1,1.13,1,2.42,2.09,3.55,3.06-.16-1.77-.49-3.55-.65-5.16-1.93-.65-3.87-1.45-5.81-2.26,2.58-2.26,5.33-4.36,7.91-6.46-1-7.1-1.45-14.36-2.74-21.46-.81-3.06-4.36-2.42-6.62-3.23,1.61-3.38,3.39-6.77,5.16-10.16,5,1,11.62,1.93,13.24,7.74,2.26,8.72,2.26,17.92,3.87,26.79a54,54,0,0,1,19.2,9.2C-270.73,993-272,980.73-273.8,968.3Z" transform="translate(910.4 89)"/><path id="path440" class="cls-5" d="M-592.18,981.54c3.23-8.88,10.65-15.66,18.56-20.34,3.71,1.62,6.45,4.52,9,7.59-3.06,2.42-5.48,6.29-9.19,7.58-1.13-4.36-8.4-8.71-10.65-3.06.64,8.55,10.16,16.62,18.71,12.1-6.61,4.52-14.68,8.71-16.94,17.1,3.07,9.2,11.46,15,19.85,18.72,1.77-16,3.71-32.11,5-48.25,4.52-3.39,9.2-6.29,14-9.36-2.1,17.27-3.71,34.54-5.49,52-6.45,5.33-14.2,9.2-21.3,13.72-6-.48-11.13-4.19-15.81-7.75-5-3.87-9-10.16-7.26-16.62,1.93-5.48,7.42-8.39,12.42-10.81C-587,992.51-593.15,988.31-592.18,981.54Z" transform="translate(910.4 89)"/><path id="path442" class="cls-5" d="M-344.64,968.63c8.23-1,16.3-1.78,24.53-2.59,1.78,19.21,4,38.41,6,57.61-3.87,3.88-7.58,7.75-11.62,11.3-1.77-18.56-4-37.12-5.65-55.67-7.42,1.13-15,1.61-22.43,2.42C-350.61,977.5-348.83,971.69-344.64,968.63Z" transform="translate(910.4 89)"/><path id="path444" class="cls-5" d="M-531,969c8.71.32,17.43.8,26,1.61-1.29,18.56-2.74,37.28-3.87,55.84.16,2.09-1.94,2.9-3.23,4-3.39,2.42-6.94,4.68-10.33,7.26,1.78-18.56,2.42-37.27,4.2-55.83-7.59-1.13-15.17-1.29-22.76-1.78C-537.64,976.53-534.25,972.82-531,969Z" transform="translate(910.4 89)"/><path id="path446" class="cls-5" d="M-388.69,971.53c12.26-.32,24.37-1.78,36.63-2.26-2.58,4.36-4.52,9.2-8.23,12.75-3.39.48-6.78.48-10.17.64,7.26,8.07,13.56,18.24,12.59,29.7.16,11-6.78,21-15.81,26.78-5.81,1-10.65-3.55-14.53-7.42,1.62-4.52,5.17-7.91,7.91-11.78,1.77,4.84,5.16,11,11.46,9.68,6.13-.32,6.94-7.74,5.64-12.42-3.71-16-16.78-30.82-33.56-33.08C-393.86,979.92-391.44,975.73-388.69,971.53Z" transform="translate(910.4 89)"/><g id="g450"><path id="path448" class="cls-5" d="M-494.23,970.56c15.17.32,30.18.81,45.35,1.29-1.29,19.37-.81,38.73-2.42,58.1-4.2,3.55-9,6.29-13.24,9.68-8.06-17-10.65-36.79-23.72-51.16-2.9,9-4.19,19.53.33,28.41,1.77,4.35,4.84,8.23,9.35,10-3.71,4-7.58,7.91-11.29,11.78-7.42-8.23-13.4-19.53-10.49-31,1.61-10.17,7.91-18.56,15.65-25l-17.59-.48C-499.55,978.31-497,974.43-494.23,970.56Zm17.11,12.27c5,8.55,9.52,17.42,13.87,26.3.81-8.55.33-17.11,1.3-25.5C-467,983.47-472,983.31-477.12,982.83Z" transform="translate(910.4 89)"/></g><path id="path452" class="cls-5" d="M-429.2,971.37c4.68-2.91,8.56,2.74,11.62,5.49-2.74,3.06-5.65,6-8.55,8.87-1-4.68-5.33-6.78-9.68-5.49-2.91,3.55,1,7.75,3.23,10.49,3.71,4.52,10.32,5.33,15.49,2.59-6.14,4.84-15.33,9.68-15.33,18.55,2.9,9,12.42,13.72,20.65,17.11.65-16.3.81-32.6,1.78-48.9,4.35-3.39,8.71-6.61,13.07-9.84-1,17.59-1.29,35.34-1.78,52.93-6.45,4.36-12.58,9.2-19,13.55-2.42,1.94-5.49,0-8.07-.64-7.26-3.07-15.49-7.59-17.75-15.82-2.1-8.06,5.33-14.2,11.94-16.78-6-1.29-13.07-5.32-11.94-12.42C-441.94,983-435.65,976.53-429.2,971.37Z" transform="translate(910.4 89)"/></g></svg>