<?xml version="1.0" encoding="utf-8"?>
<!-- Generator: Adobe Illustrator 25.3.1, SVG Export Plug-In . SVG Version: 6.00 Build 0)  -->
<svg version="1.1" id="Layer_1" xmlns="http://www.w3.org/2000/svg" xmlns:xlink="http://www.w3.org/1999/xlink" x="0px" y="0px"
	 viewBox="0 0 6927.2 1312.7" style="enable-background:new 0 0 6927.2 1312.7;" xml:space="preserve">
<style type="text/css">
	.st0{fill:none;}
	.st1{fill:#FFF800;}
	.st2{fill:#FFFFFF;stroke:#FFFFFF;stroke-width:0.5;stroke-miterlimit:10;}
	.st3{font-family:'ImprintMT-Shadow';}
	.st4{font-size:369.65px;}
	.st5{font-size:740.15px;}
	.st6{fill:#FFFFFF;stroke:#FCFAFB;stroke-width:0.5;stroke-miterlimit:10;}
	.st7{fill:#FFFFFF;stroke:#000000;stroke-width:0.5;stroke-miterlimit:10;}
	.st8{font-family:'ArialMT';}
	.st9{font-size:17.1379px;}
	.st10{fill:#FFFFFF;stroke:#000000;stroke-width:0.5;}
</style>
<line class="st0" x1="1600.6" y1="119.7" x2="1600.6" y2="1140.7"/>
<path class="st1" d="M1582.5,119.7v979.6c0,13.2-0.2,26.4,0,39.7v1.7c0,9.4,8.3,18.4,18,18s18-7.9,18-18V161.1
	c0-13.2,0.2-26.4,0-39.7v-1.7c0-9.4-8.3-18.4-18-18S1582.5,109.6,1582.5,119.7z"/>
<text transform="matrix(1.06 0 0 1 1665.6504 472.0425)" class="st2 st3 st4">Graduate Employment Survey</text>
<text transform="matrix(1 0 0 1 945.5929 1146.7299)" class="st2 st3 st5">U</text>
<text transform="matrix(1 0 0 1 943.7357 623.2301)" class="st6 st3 st5">R</text>
<line class="st0" x1="6915.6" y1="637.7" x2="1665.7" y2="637.7"/>
<path class="st1" d="M6915.6,625.7H1878.8c-68,0-136.2-1.1-204.2,0h-8.9c-15.4,0-15.5,24,0,24h5036.9c68,0,136.2,1.1,204.2,0h8.9
	C6931.1,649.7,6931.1,625.7,6915.6,625.7L6915.6,625.7z"/>
<text transform="matrix(1.06 0 0 1 1681.3213 994.5035)" class="st2 st3 st4">Ramkhamhaeng University</text>
<g id="g454">
	<g id="g360">
		<path id="path358" class="st7" d="M218.4-170.1c-0.2-23.5,7.1-47.2,22.4-65.2c10.4,10.1,16.1,23.5,22.6,35.9l0.2,1.4
			c0.9,8.3,2.3,16.4,2.8,24.9c22.1,10.4,32,35.7,30.9,59c16.4,7.4,32,17.1,44.3,30.2c5.7,6.2,13.4,12.9,13.1,22.4
			c0.5,22.4-6.7,44-14.3,64.8c4.4,3.1,6.9,8.2,6.9,13.6c0.2,18.9-2.8,39.4-14.8,54.9c-7.1,9.4-7.8,21.9-13.6,32
			c-2.8,6.5-8.8,11.8-8.6,19.1c-0.2,11.5,0,23.7,5.3,34.3c2.1,4.2,5.5,9,10.8,8.3c27.4-2.3,55.1,0,82.5,3.7
			c26.7,4.1,53.9,12,75.6,28.6c27.4,21.4,53.9,47.7,64.3,81.8c8.3,15.4,19.6,29,29,44c5.3,9,3.7,20,2.5,30
			c21.9,35.6,28.6,78.6,18.4,119.2c-3,16.1-12.9,29.7-21.4,43.3c-0.2,0.2-0.5,0.9-0.7,1.2c-7.1,6.2-13.8,13.1-21.4,18.7
			c-5.5,3.9-6,12-11.5,16.1c-6.2,5.3-12.7,11.1-12.9,19.8c20.5,0.2,41.7,4.4,59.5,15.2c6.9,4.2,12.9,9.7,19.4,14.5
			c6.2-7.4,12.9-17.3,23.7-17.1c3.2-0.9,5.1-4.2,7.8-6c1.7,0.7,3.3,1.4,4.8,2.3c6.5-5.3,15-5.7,23-5.1c7.8-1.1,15.7-2.5,23.8-3.9
			c-1.4,4.6-3,9.2-3.9,13.8c6.2,0.9,11.8-1.8,16.4-5.7c1.4,0.2,4.4,0.9,6,1.2c11.5-10.4,28.8-9.5,43.5-9.7
			c-6.9,6.9-14.5,14.1-24.6,15.7c-4.4,0-3.9,4.6-4.8,7.6c8.3-0.2,16.6-1.8,23.7-6.7c4.7-3.4,10.1-6,15.7-7.6
			c6.7-1.6,10.1-9,16.8-10.8c11.8-4.6,24.7-3,37.1-2.1c-7.1,16.6-28.3,10.8-40.3,21.2c-0.5,2.5-0.9,5.3-1.4,7.8
			c2.1,1.4,4.4,2.5,6.7,3.9l5.5-3.7c2.5,2.1,5.3,3.7,7.1,6.5c0.7,5.3,0.7,10.6,1.4,16.1c-6.9,1.2-15.2,0.9-19.6,7.6
			c-17.1,24-37.6,48.4-66.4,58.6c-8.1,1.6-17.1,5.7-17.5,15.2v1.6l-0.7,1.4c-3.7,5.5-3.5,12.4-4.4,18.7c-1.4,13.8-1.1,29.3,7.4,41
			c3.9,5.5,10.8,7.4,15.9,11.5c4.2,6,7.1,12.7,12.7,17.5c7.4,7.6,13.8,19.8,26.3,18.9c32.5-0.2,65,0,97.5,0v89.2
			c-4.6,0.9-9.9,0.5-13.4,4.4c-0.5,5.6-0.6,11.2-0.5,16.8c-9.7,3.8-16.7,11.6-24.3,18.3c-0.2,6.2-0.2,12.5-2.3,18.7
			c-5.1,10.4-14.3,18-22.1,26c-0.7,7.4-0.2,14.8-0.2,22.1h-15.6c-0.2,38.7-0.2,77.4,0,116.2c39.2-16.4,78.8-32.3,115.5-53.7
			c26,37.3,50,76,75.4,113.9c12.2,18.9,25.3,37.3,36.6,56.7c-1.4,0.7-3.9,2.1-5.3,2.8c-7.4,6.2-16.4,9.9-24.9,14.3
			c-132,67.8-274,115.5-419.7,144.5c-103.7,19.1-209.5,23.5-314.6,18.2c-62.1-3.5-123.9-11-185-22.4c-37.6-7.4-75.1-14.1-112-24
			c-96.3-25.1-190.4-59.7-278.6-105.8c-11.5-5.3-22.1-12.9-34.1-17.8c0.2-2.1,0.7-4.1,0.9-6.4c38-54.6,74.9-110,112.5-164.8
			c26,12.7,51.9,26.3,79.3,35.5c13.6,2.8,27.7,0.7,41.4,1.1l-0.2-2.1c-0.9-34.3-0.9-68.9,0-103.2l0.2-2.1c-5.5,0-10.8,0-16.4-0.2
			c0.2-7.1,0.2-14.3,0.2-21.4c-12.7-8.6-23.3-20.3-28.3-34.8c-4-11.3-10-22.1-19.7-29.7v-16.8h-19.4c0.5-29.7-0.7-59.5,0.7-89
			c70.5,0.2,141.3-0.7,211.8,0.5l2.8,0.7c-9.7-28.1-27.1-53.7-32.3-83.4c-2.1-10.8-11.3-18-15.7-27.6c-11-30.4-7.9-64,8.3-92
			c7.4-15.7,21.9-27.9,38.9-31.3c41.7-10.4,84,3.5,123.9,14.7c5.3-10.8,9.7-22.4,18.2-30.9c4.8-5.1,10.8-9.5,13.4-16.1
			c3.5-8.7,5.1-18.1,4.6-27.4c0.2-7.1-8.1-10.1-10.6-16.1c-1.2-7.4,0.5-15.7-3.5-22.4c-4.2-7.6-6.9-15.9-11.3-23.3l-1.6-0.5
			c-12.9,6.7-24.7,15.9-37.1,23.5c-9,4.6-12.7,14.5-20.3,20.7c-4.6,7.4-5.1,16.6-9.7,24c-0.4,0.5-0.9,1-1.4,1.4
			c-6.9,5.1-13.6,10.6-21.9,13.6c-13.1,5.3-27.4,6.2-41.2,9c-8.6,1.2-19.4,0-24.3-8.1c-3-6.9-3.5-14.5-6.5-21.4
			c-3.2-7.1-9.9-11.8-13.8-18.4c-5.3-11.5-4.4-24.9-1.4-37.1c2.8-13.6,10.8-25.6,10.8-39.9c-0.2-3-0.5-7.4-4.2-8.3
			c-5.7-2.5-11.5-5.1-17.1-8.1c-0.2-0.2-0.5-0.7-0.7-0.7c-2.3-3.7-4.6-7.1-7.1-10.6c16.8-21.7,32.7-44,48.9-66.1
			c1.6-23.7,8.5-46.7,20.3-67.3l2.5,3.9c-0.5-1.4-1.4-3.7-1.8-5.1c15.7-22.4,34.6-42.8,56.7-59c17.7-12.9,39.4-18.7,60.8-22.1
			c19.1-2.5,40.8-5.1,54.4-19.8l1.2-1.2c10.4-7.4,10.6-21,12-32.5c0.2-12.4,1.8-25.1-2.1-37.1c-2.3-8.1-12.4-4.6-17.8-9
			c-9.2-7.6-13.8-18.9-17.5-30c-4.4-12.5-6.2-26.3-1.8-38.9c4.1-11.1-0.9-22.6-1.6-33.9c-1.2-16.1-2.1-32.9,2.3-48.6
			c2.5-9.4,10.8-15.7,17.3-22.4c9.7-9.5,21.2-16.1,32-24c2.5-12,1.8-24.7,6.7-36.2C202.2-157,210.3-164,218.4-170.1z M227.1-181.9
			c3-2.1,6-4.2,9-6c1.2,1.2,3.7,3.2,4.8,4.4c2.1-1.6,4.1-3,6.2-4.6c1.4,1.4,3.9,4.2,5.3,5.5c1.4-0.9,3.9-2.5,5.3-3.5
			c-3.2-12.4-6.9-25.6-16.4-34.8C232.2-210,228-196,227.1-181.9z M217-159c-9.7,6.9-13.1,19.6-12.9,31.1c2.1-2.1,4.1-4.4,6.2-6.7
			c2.8,1.4,5.5,2.5,8.3,3.7c0.9-1.6,3-4.6,3.9-6.2l4.6,4.6c2.8-1.8,5.3-3.9,8.1-5.7c0.9,1.4,2.5,4.4,3.2,5.7
			c1.6-1.8,3.5-3.5,5.1-5.3l8.3,4.1c3.5-3.2,8.3-5.7,10.4,0.5l8.3-4.8c1.6,2.5,3.2,4.8,5.1,7.4c2.3-1.8,4.6-3.7,6.7-5.5
			c2.1,2.1,4.2,4.1,6.2,6c-1.8-11.3-6.7-22.9-16.1-29.5C255.9-171.3,232.6-170.4,217-159L217-159z M174.1-90.4
			c1.8,1.2,3.7,2.1,5.5,3.2l5.4-6c2.5,0.2,5.1,0.5,7.6,0.9c1.2-2.5,2.3-5.3,3.7-7.8c1.4,0.9,4.2,3,5.3,3.9l4.2-6.2
			c1.8,0.9,5.3,3,7.1,3.9c2.1-2.3,4.4-4.4,6.5-6.4c2.5,1.6,5.1,3.5,7.4,5.1c0.7-1.4,2.1-4.4,2.5-5.7c2.8,1.2,5.7,2.5,8.6,3.7
			c1.4-1.1,3.9-3.2,5.3-4.1c1.4,0.7,4.6,1.6,6,2.3c3.2-3.2,6.4-3.2,9.7,0.2c1.4-0.9,4.2-2.5,5.5-3.5c4.6,2.1,9.4,4.6,13.6,0.5
			c1.6,2.1,3,4.1,4.6,6c2.5-0.7,5.3-1.1,7.8-1.6c5.2,4.3,12.3,4.6,18.3,7.6c-2.5-6.7-10.1-9-16.1-11.5c-19.1-6-39.4-8.3-59.2-5.3
			C212.6-109.1,191.2-103.3,174.1-90.4L174.1-90.4z M148.3-57c0.5,1.6,1.4,4.8,1.8,6.5c2.5-0.2,3.9-2.8,6-3.9
			c5.7-5.1,14.8-1.4,19.8-8.1h6c8.6-5.5,19.1-5.3,28.6-8.8c3-1.2,6-0.9,9.2-1.4c3-1.5,6.4-1.9,9.7-1.2c1.2-0.7,3.2-1.8,4.1-2.5
			c6.7,0.5,13.4-0.7,19.8-0.2c2.3-2.5,3.5-5.8,3.2-9.2C219-83.7,181.4-75,148.3-57L148.3-57z M271.4-86.3c0,1.9,0.2,3.8,0.5,5.7
			c3.7-1.2,7.1-2.3,10.8-3.7c-3.6-1.5-7.5-2.2-11.4-2H271.4z M293-84.4c0.2,5.1,4.1,8.6,7.1,12.2c6.7-2.5,13.4,2.1,20,3
			c7.6,3.9,15.4,7.8,23.1,11.8c2.1-4.2-3.5-6-5.7-8.3C323.9-74.7,308.6-80.5,293-84.4L293-84.4z M208.2-59.7
			c-3.9,1.4-10.1,0.7-10.1,6.2c19.1-5.1,38.9-6.9,58.8-9.7c-0.5-0.7-1.1-1.8-1.6-2.5C239.6-66,223.9-62.7,208.2-59.7z M295.3-62.9
			c4.2,3.2,9.5,3.7,14.3,5.1c9,1.8,17.5,5.7,25.6,9.9c-0.2-0.9-0.7-2.5-0.9-3.5C323.2-59.3,308.9-63.9,295.3-62.9L295.3-62.9z
			 M179.7-50.5c3.5,19.4,3.5,41.2-9.4,57.1c-3,2.5,2.3,7.1,4.4,4.1c16.6-16.8,17.8-42.6,14.1-64.5C185.6-52.8,182.6-51.7,179.7-50.5
			L179.7-50.5z M271.2-52.1c0.7,1.9,1.4,3.9,2.3,5.7c1.8-1.4,3.9-2.8,5.7-4.4C276.6-51.7,273.9-52.2,271.2-52.1L271.2-52.1z
			 M292.1-51.4c-0.2,1.2-0.7,3.7-0.9,5.1c13.8,0.2,26.3,7.1,39.9,7.8C320.2-47.1,305.5-48.9,292.1-51.4L292.1-51.4z M206.4-44.5
			c-2.8,1.1-8.8,1.6-6,6.7c8.1-2.3,16.4-4.4,24.6-4.4c10.6-3.9,22.1-3.9,33.2-4.6c0.7-1.2,1.8-3,2.5-4.1
			C242.5-51.1,224.2-49,206.4-44.5L206.4-44.5z M163.8-44.5c1.8,16.4,0.9,33.9-9.7,47.5c2.8-0.5,6.7,0.7,8.1-2.3
			c6.7-9.4,10-20.8,9.4-32.3C171.1-36.9,171.8-45.4,163.8-44.5L163.8-44.5z M343.6-41.7c-2.5,3.5-3.9,7.1-0.7,10.6
			c1.6-1.6,3.2-3.5,4.8-5.1c-0.2-1.1-0.7-3.7-0.9-5.1C345.8-41.3,344.1-41.8,343.6-41.7L343.6-41.7z M147.2-36
			c0.2,7.8,0.2,15.7,3,23c5.7-7.1,4.8-16.4,3.7-24.9C151.5-37.2,149.2-36.7,147.2-36L147.2-36z M206.5-28.4
			c-2.5,1.4-6.7,2.1-7.1,5.7c-3,16.1-8.1,32.7-19.8,44.5c2.8,5.1,4.4,10.8-1.2,14.8c-4.1-2.5-10.1-4.6-10.4-10.6
			c-0.6-6.6-6.4-11.5-13.1-11c0,0,0,0,0,0l-1,0.1c-8.3,9.9-6.5,24.2-2.5,35.7c3.2,8.8,6.2,18.7,14.3,24.4c4.4,3.5,10.1,3.7,15.4,4.4
			c2.1,18.7,13.8,35.5,29.7,45.4c-0.7,1.4-2.1,4.4-2.8,5.7c-4.9-1.6-9.8-3.5-14.5-5.7c-6,14.1-6,30-12.7,43.8
			c20,14.1,45.6,16.4,69.1,16.4c21.7-1.8,44.5-4.1,63.8-15.4c-8.8-10.6-10.1-24.7-12.7-37.6c-11.1,7.1-23.5,13.8-37.1,11.8
			c-12.4-1.8-26.5-6.7-32.5-18.7c1.2-1.2,3.2-3.7,4.4-5.1c9.4,9.9,23.3,17.1,37.1,14.5c15-3.7,27.4-14.5,35.3-27.6
			c13.8-23.1,15.7-50.7,15.2-77c-6.9-4-15.2-4.6-22.6-1.6c-6.7-3-14.3-0.2-20.3-4.4c0.9-8.1,3.9-16.8,11.5-20.7
			c10.4-6,22.9-2.5,33.9-0.7c-0.2-9.9-0.7-19.6-0.9-29.5c-12-5.7-25.3-8.3-38.3-10.8c-4.6,0.9-8.8,4.1-13.4,4.1
			c-5.3-1.2-10.6-3.5-16.1-2.8C239.8-35.1,222.5-34.2,206.5-28.4L206.5-28.4z M335,11.9c-2.8,12-8.1,26.5-0.2,37.3
			c1.1-5.5,3-11.1,4.4-16.6c2.1-7.1,0-14.7-0.7-21.9C337.5,11,335.9,11.7,335,11.9L335,11.9z M314,12.8c2.4,2.8,5,5.3,7.8,7.6
			c1.2-1.6,2.5-3,3.7-4.6C321.6,14.7,317.7,13.5,314,12.8L314,12.8z M313.3,181.5c5.3,4.6,11.8,9.7,11.3,17.5
			c-1.8,6.5-10.4,7.8-15.9,5.5c-5.7-3.7-6-11.3-6.2-17.5c-2.5,1.2-5.1,2.1-7.6,3c11.1,7.1,8.3,27-5.7,28.1
			c-12.2-1.6-13.8-16.6-8.6-25.6c-6.3,1.2-12.7,2-19.1,2.3c12,6.2,18.2,21.4,12,33.9c-6,13.4-27.1,14.1-35,1.8
			c-7.1-12.2-1.8-27.4,9.2-35.3c-27.1,0.9-53.9-6.5-78.5-17.1c0.7,4.4,3.7,7.8,6.7,11.1c-3.9,3.7-7.8,7.6-12.7,10.1
			c-5.7,0.5-8.3-5.3-10.4-9.7c-4.4-0.9-9-1.4-12.9,1.4c15.2,17.1,35.9,27.6,56.2,37.6c21.2,8.8,42.4,19.6,59,35.7
			c15.4-25.1,43.6-38,69.8-49.1c17.5-8.8,33.6-22.6,42.2-40.6c-7.1-0.5-14.1-0.9-21.2-1.2c0.9,7.8-0.2,18.9-10.6,19.6l-8.6-8.6
			c2.1-4.2,4-8.5,5.7-12.9C324.6,171.9,319.6,178.3,313.3,181.5L313.3,181.5z M382.9,176.9c-26.7,49.1-57.8,96.3-96.6,136.7
			c-19.4,20-40.8,38.2-65.5,51.4c10.1,0,15.9,8.8,22.6,15.2c44.7-31.4,79.5-74.7,109.2-120c15.2-24,29.7-48.6,41.3-74.9
			c-6.9,7.8-10.6,17.5-15.9,26.3c-25.6,43.8-53.7,86.6-89.9,122.4c-9.2,9.3-19.5,17.5-30.6,24.4c-3.7,1.8-9.7,2.3-11.1-2.8
			c1.6-4.6,6-7.4,9.7-10.2c24.4-18.4,44.9-41.2,63.8-65.2c25.4-32.8,48-67.8,67.5-104.4C386.1,176.1,384.1,176.8,382.9,176.9
			L382.9,176.9z M380.2,243.5c-20.5,45.4-49.6,86.2-80,125.4c-40.3,48.2-93.6,83.7-149.3,111.1c-8.3,7.6-4.8,20.5-1.2,29.7
			c24.5-6,46.8-18.4,67.5-32.4c27.9-21.9,51.2-48.9,72.8-76.7c10.4,8.1,23.7,8.6,36.2,11.1c4.6,0,4.2,5.5,5.7,8.3
			c-13.4,2.3-27-0.9-40.1-3.5c-33.4,45.9-78.8,84.3-132.7,103.7c-0.7,11.2-3,22.2-6.7,32.7c14.1-0.5,27.9,3.5,41.9,2.8
			c11.8-11.3,28.8-14.8,44.5-12.2c9.9,0.7,17.5,7.8,26.7,10.6c13.1,4.4,28.8,4.6,40.1-3.9c10.4-7.4,24.7-11.8,36.9-6.2
			c6.2,3.7,11.3,9,17.3,12.9c18.4-1.4,36.9-2.1,54.9-7.6c-3.2-16.8-2.8-33.9-1.6-50.7c3.5-38.6,12-76.5,22.1-113.9
			c6.7-22.1,12.7-44.7,18.2-67.1c1.6-9.2,1.4-18.7,6-27c6,2.8,12,6,17.5,9.2c0.7-7.5,2.3-15,4.8-22.1c7.4,2.5,14.4,6.1,20.7,10.6
			c0.5-9,3.9-17.5,8.1-25.6c6.2,4,11.9,8.6,17.1,13.8c0.8-5.5,2.4-10.9,4.8-15.9c-21.9-32.5-51.6-62.5-89.9-74.4
			c-15,16.6-24.4,37.1-32.7,57.8c-14.8,39.4-22.1,81.4-24.9,123.1c0.5,32.3,7.1,65,22.1,94c3,5.3,4.1,12.9-2.5,16.1
			c-9.5-10.8-25.1-7.6-35.7-0.7c-12.5,8.6-27.1,15-42.6,14.1c-15.9,0-28.8-11.1-44.3-13.4c-3.5-0.9-9.9-1.2-9.9-6.2
			c-0.5-4.1,5.3-3.7,7.8-5.7c20.7,9.2,44.3,21.4,67.1,12.4c15.7-9.4,31.3-22.4,50.9-20c-5.4-6.3-14.5-7.6-21.5-3.3
			c-9.4,6.7-18.4,15-30,18c-16.4,6-32.7-1.8-48.4-6.5c-6.5-2.1-16.4-3.5-15.4-12.4c5.5-1.4,11.5-1.4,16.6,1.8
			c12.5,6.7,26.7,9.9,40.8,7.6c18-2.3,28.3-23,47.5-21.4c-1.4-7.8-6.9-14.5-5.7-22.9c-7.4-3.2-14.5,0.9-21.7,2.3
			c-2-1.8-3.3-4.4-3.5-7.1c-2.1,0.5-3.9,0.9-6,1.4c-0.2,1.1-0.4,2.1-0.5,3.2c2.5,1.2,4.8,2.3,7.4,3.7c-2.1,2.5-2.8,6.2-6,7.8
			c-11.5,5.5-24.9,5.5-37.6,5.1c-2.3-3-5.7-8.8,0-10.4c10.6,0.5,21.7,1.8,31.6-3c-1.8-2.8-3.7-5.5-5.3-8.3c6-3.7,9.9-9.7,15-14.1
			c6.9-2.3,14.3-4.4,20.7-8.1c-0.2-31.1,2.3-62.5,9-92.8c1.4-6.7,4.4-13.4,3.5-20.5c-25.8,39.9-53.2,78.5-81.1,117.1
			c-2.1,2.8-5.5,4.1-8.3,6c-1.1-2.3-2.3-4.8-3.5-7.1c25.6-28.6,47-60.8,67.3-93.1c23.7-38.1,45.2-77.5,64.5-118
			c-3.9-0.5-7.8-1.2-11.5-1.6C401.7,200.4,391.2,222.1,380.2,243.5L380.2,243.5z M59.1,213.1c-20.3,12.6-37.8,29.3-51.2,49.1
			c3.7-0.7,7.1-1.4,10.8-2.1c1.8,10.1-1.9,20-2.5,30.2c7.4-9,19.1-11.3,29.7-15c0,8.3-0.7,16.5-2.3,24.6c7.8-4.1,16.6-6.4,25.1-9
			c1.5,7.4,2.5,14.8,3,22.4c6.2-3.2,13.4-3.7,20.3-3.2c0.6,10.2-3.6,20.2-11.5,26.7c0.6,2.7,1.4,5.4,2.3,8.1
			c38.7,7.6,77.9,12.5,116.8,18.7c29.3-13.6,54.6-34.3,77.4-56.9c30-30.3,56.5-63.8,79-100c-18.7,14.3-40.1,24.4-61.1,35
			c-17.8,9.8-32,24.8-40.8,43.1c-8.8-18.7-27.1-30-45.4-38.2c-30.7-12.3-59-29.7-83.9-51.4C102.4,197.7,79.2,201.4,59.1,213.1z
			 M248.8,209.6c-5.5,3.2-5.3,12-1.1,16.4c5.7,5.3,17.7,2.3,18-6.4C267,210.3,255.9,205.7,248.8,209.6L248.8,209.6z M0.8,282.7
			c1.4,0.2,4.4,0.7,6,0.9c1.2-4.8,2.3-9.5,3-14.3C5.9,273.1,2.8,277.7,0.8,282.7z M512.7,277.2c-0.7,3.7-1.1,7.4-1.6,11.1
			c4.2-2.1,8.3-4.1,12.5-6.4C520.4,279.2,516.6,277.6,512.7,277.2L512.7,277.2z M27.9,293c2.1,1.2,4.2,2.5,6.2,3.9
			c1.4-4.2,2.5-8.1,3.7-12.2C34,286.9,30.7,289.7,27.9,293z M482.9,318.9c-8.6,5.5-18,9.9-25.3,16.8c0.9,0.2,2.5,0.5,3.5,0.7
			c25.8-15,52.3-29.3,78.3-44c2.1-0.6,3.4-2.8,2.8-5c0,0,0,0,0,0l-0.1-0.2C521.2,295.9,502.1,307.6,482.9,318.9L482.9,318.9z
			 M486.3,289.6c-0.5,4.1-0.7,8.1-0.7,12.2c3.6-1.7,7-3.5,10.4-5.5C497.6,291.5,489.6,291.7,486.3,289.6L486.3,289.6z M-6.9,293.5
			c0.5,0.7,1.2,2.3,1.6,3c25.1,7.1,48.6,20.8,65.7,41c3,4.1,7.6,6,12.2,7.6C58.6,314.7,24.5,299.5-6.9,293.5L-6.9,293.5z
			 M52.6,307.1c3.5,2.5,6.9,4.8,10.4,7.1c-0.2-4.6-0.2-9.2-0.7-13.8C59.1,302.8,55.8,305.1,52.6,307.1L52.6,307.1z M462.4,303
			c-0.7,3.8-0.9,7.7-0.5,11.5c4.7-1.3,9-3.8,12.5-7.1C470.6,305.4,466.6,304,462.4,303z M533.4,309c6.5,4.4,8.3,12,8.3,19.4
			c3.5-1.4,6.7-3,9.9-4.6c-6.2-4.8-10.6-11.5-9.9-19.6L533.4,309z M-8,307.3c4.4,4.1,10.4,6.7,11.5,13.4c9.7-5.1,22.6,1.8,22.9,13.1
			c1.8-0.7,5.5-1.8,7.4-2.5c3.5,1.8,7.3,3,11.3,3.5C30.1,321.6,12.1,310.4-8,307.3z M228.7,410.2c-7.8,5.3-13.1,12.9-17.5,21
			c16.8-7.4,30.9-19.1,44.5-31.1c26-24.2,48.4-51.9,69.4-80.4c2.9-3.9,5.5-8,7.8-12.2C302.7,346.1,265.8,378.8,228.7,410.2
			L228.7,410.2z M503.7,323c6.6,4.7,10.5,12.4,10.4,20.5c3.7-2.3,7.4-4.4,11.1-6.4c-6.7-4.6-10-12.8-8.6-20.8
			C512.2,318.7,508,321,503.7,323L503.7,323z M73.8,323.5c1.6,2.1,3,4.2,4.6,6.5c1.6-3.7,3.2-7.1,4.8-10.8
			C80.3,320.3,77.1,321.9,73.8,323.5L73.8,323.5z M484.5,376.1c-3.5,2.8-8.3,4.6-8.8,9.7c8.6-3.2,14.8-10.4,22.9-14.3
			c8.1-7.4,17.1-14.1,27.6-17.3c3-0.7,4.8-3.7,7.1-5.5c6.7-6.9,17.3-6.4,24.4-12.4c3.9-3.2,11.8-2.3,12.5-8.3l-2.1-1.4
			C538,338.8,511.2,357.6,484.5,376.1L484.5,376.1z M471.6,340.1c10.4,0.2,16.4,9.9,15.7,19.6c3.9-2.1,8.1-4.4,12-6.5
			c-7.6-4.4-15.7-10.1-15.9-19.8C479.5,335.7,475.5,338,471.6,340.1z M486.8,393.8c8.1,6.7,15.9,14.1,23.5,21.4
			c6.7-3.3,13.7-5.7,21-7.4c-20.3,17.1-28.6,44.5-27.1,70.3c18.4,1.9,33.4,14.5,51.6,17.5c-2.9,9.3-3.1,19.3-0.7,28.8
			c19.8-16.6,31.6-40.8,38.7-65.2c5.1-41-7.1-82.7-28.1-118C536.9,354.8,511,373.7,486.8,393.8L486.8,393.8z M456.2,352.4
			c2.8,7.8,7.3,15,13.1,21c1.8-1.8,3.5-3.7,5.1-5.5c-3.3-2.7-6.4-5.6-9.2-8.8c-3.7-3.7-0.5-9.5-0.7-14.1
			C462,347.3,459.2,349.8,456.2,352.4L456.2,352.4z M-21.1,365.7l-27.7,40.8c0.9,3.9,4.8,3.9,8.1,4.6c27,4.4,53.9,9,81.1,13.1
			c18.7-10.4,18-35.5,34.6-47.7c7.1-4.6,15.2-0.2,21,4.6c5.5-0.1,10.8,1.8,15,5.3c8.6-1.6,15,4.1,18.7,11.3
			c5.3,2.3,12,6.2,10.4,13.1c-3,10.1-7.6,19.8-7.8,30.7c15.9,2.3,31.8,7.8,47.7,8.1c17.9-17.5,33.6-37,46.8-58.3
			C153.1,379.6,79.4,369,5.9,357.7C-3.6,355.5-15.3,357.1-21.1,365.7L-21.1,365.7z M456.2,383c-5.3,34.3-3.9,69.4-1.6,103.9
			c6.2-31.1,3.7-62.9,4.6-94.5C458.7,389.2,460.6,384.1,456.2,383z M66.5,406.3c-6,16.1-18,32.3-35.9,35.7c-4-2.2-8-4.2-12.2-6
			c-1.6,7.6-3.2,15.9-0.5,23.5c3.9,12.9,16.6,20.3,28.8,23.5c9.7,1.8,20.5,2.1,28.8-4.1c13.6-9.5,26.5-19.8,39.4-30
			c11.8-8.8,10.4-25.1,13.4-37.8c-9.5,6.4-8.3,19.4-14.1,28.1c-5.1,7.1-10.9,13.7-17.3,19.6c-3,0.9-6.9,0.5-6.9-3.7
			c6-8.8,14.3-16.1,18.9-25.8c3-10.4,8.6-20.7,6.5-31.8c-3,0.9-7.1,0.9-7.6,4.8c-3,10.6-5.1,21.9-10.1,31.8
			c-4.1,7.6-10.4,13.8-16.4,20c-3.5-2.5-4.8-6.5-5.1-10.6c14.7-12,20.7-31.1,22.9-49.3c-10.8,3.9-12.4,17.3-16.6,26.5
			c-1.8,11.8-12.4,18-20,25.3c-3.9-1.4-5.3-4.8-5.7-8.8c12.4-6.2,15.2-20.7,21.7-31.8c3.2-6.7,8.1-13.1,6.7-21
			C74.1,385.7,70.6,397.7,66.5,406.3L66.5,406.3z M470.5,392.9c-0.2,30.6-2.3,61.1-4.8,91.5c8.1-2.5,16.7-3.4,25.1-2.5
			c-0.2-18.1,3.2-36.1,10.1-52.8c0.5-2.1,3-5.1,0.5-6.7C491.7,412,481.1,402.5,470.5,392.9L470.5,392.9z M422.8,516.2
			c3.9-1.8,7.8-3.7,11.8-5.7c2.7-4.8,5.8-9.3,9.5-13.4c-3.5-31.1-0.9-62.5-1.6-93.6C428.1,439.3,421.4,477.7,422.8,516.2
			L422.8,516.2z M-36.1,423.8c0.7,24-17.3,44-15.2,68c-0.5,10.4,8.6,16.6,14.3,24c4.2,4.9,7.2,10.8,8.6,17.1
			c1.9,7.8,10.4,11.5,18,10.8c12.7-1.4,24.9-4.6,37.3-6.9c12.2-2.1,23.5-13.1,21.7-26c-9.7-1.2-19.1,1.1-28.6,1.1
			c-1.9-6-4.8-11.6-8.6-16.6c-8-10.4-13.3-22.6-15.4-35.5c-1.6,0.5-5.1,1.2-6.7,1.6c-0.9-3.5-5.3-7.6-2.1-10.8
			c5.5-4.8,12.9-6.5,19.8-8.6c-0.5-3.7-0.9-7.6-1.4-11.3C-8.4,428.4-22.2,426.1-36.1,423.8L-36.1,423.8z M133.1,461.1
			c2.3,4.8,6.4,8.1,10.4,11.3c5.1-5.1,11.7-8.3,18.9-9c-0.2-0.9-0.9-2.5-1.2-3.5c-8.3-2.8-16.8-3.9-25.1-6.5
			C134,455.3,129.6,457.8,133.1,461.1L133.1,461.1z M8.6,465.5c-0.5,11.8,11.8,17.1,14.5,27.4c1.6,5.5,8.3,3.7,12.5,4.4
			c7.1-0.2,17.3,3.2,21.2-4.8c-13.1-0.9-27.4-3-37.3-12.4C14.9,476.1,13.2,469.6,8.6,465.5L8.6,465.5z M510.7,490.9
			c14.7,13.1,24.9,30.5,29,49.8c3.7-3,6.9-7.4,6.5-12.5c-0.9-8.6-1.8-17.1-1.1-25.6C533.7,498.2,523.1,491.6,510.7,490.9
			L510.7,490.9z M466.4,498c-0.9,4.4-3.9,8.8-3.2,13.4c0.5,3.7,4.6,3.2,6.9,1.8c3-3,4.6-6.9,8.1-9.4c6.5,3.9,3.7,12.2-0.5,16.8
			c-4.8,6.7-13.8,7.1-21.4,8.3c-8.6,1.4-19.1-1.2-25.1,6.7c12.4,3.7,25.3,2.1,38,0.9c3-0.7,7.8,2.1,5.7,5.7
			c-4.4,9.2-18.4,1.6-22.4,10.4c9.9,3.7,20.7,0.9,29-5.1c3-2.5,9-4.4,9.2,1.6c-8.6,11.3-23.3,13.6-36.6,15c-0.2,1.1-0.5,3.7-0.7,4.8
			c12.7,2.3,25.6-0.9,36.4-7.6c1.8,1.8,3.7,3.5,5.5,5.3c-7.6,9.5-20,11.8-31.4,13.4c0.2,5.1,5.7,4.4,9.5,4.6
			c17.3-0.2,32.7-9.5,45.9-19.8c9.9-8.1,11.1-22.9,7.1-34.3c-5.7-15.7-17.1-30.9-33.6-35.7C484.1,491.3,474.2,493.1,466.4,498
			L466.4,498z M425.4,549.6c3.5,5.1,6.9,10.8,12.9,13.1c3.9-3.5,0-8.8-0.2-13.1H425.4z M321.9,551.9c-0.9,0.9-1.8,1.8-2.5,2.8
			C321.2,562.3,330.9,550.1,321.9,551.9L321.9,551.9z M232.9,552.6c1.4,5.5,1.4,11.3-2.1,15.9c6.2,5.5,8.6,14.1,4.6,21.7
			c5.3,6.7,7.1,16.4,1.6,23.7c1.4,0.7,4.2,1.6,5.3,2.3c0.7,5.6,1.1,11.2,1.1,16.8c5.5,3,10.6,7.4,11.3,14.1c1.6-0.2,4.6-0.9,6.2-1.2
			c3.7,1.6,7.4,3,11.1,4.4c7.4,0,14.8-1.2,21.9,0c3.7-1.5,7.3-3.3,10.8-5.3c-14.5,2.5-30.4,3.7-43.8-3.5c-9-4.6-14.8-14.5-15.5-24.4
			c-1.8-18.7-6.7-36.6-10.1-55.1c1.4,0,3.9-0.2,5.1-0.2c8.6,4.4,17.5,9.2,27.2,9.7c14.7,1.4,31.1-0.2,41.9-11.3c-2-0.2-4-0.3-6-0.2
			c-6.9,5.1-15.2,9.7-24.2,9C263.4,567.3,249.9,553.3,232.9,552.6L232.9,552.6z M411.3,563c-15.9,3.5-32.3,3.7-48.4,4.6
			c-6.7,2.8-2.8,11.1-3.2,16.6c2.2,3.4,4.6,6.6,7.1,9.7c4.6,2.8,10.4,1.8,15.4,2.5c7.1-7.1-2.5-15.4-2.5-23.3
			c8.1-2.3,10.1,8.6,18,8.6c0-8.3,10.8-7.6,15.9-11.1c-0.5,6.2-5.5,10.1-7.8,15.7c-0.9,3.5,1.1,6.7,2.5,9.9
			c6.3,1.1,12.7,1.5,19.1,1.4c3.5-3.2,6.9-6.9,11.8-8.1c4.1-0.2,8.3,0.9,12.4,1.4c-0.2-2.3-0.7-7.1-0.9-9.4
			c-8.6-3.2-17.3-6-24.9-11.1C421.4,566.9,417.5,560.7,411.3,563z M144.8,566.9c-12.2,4.8-17.8,18.4-21.4,30.2
			c10.1,1.6,21.2,3.5,31.1-0.7c3.7-1.6,2.5-6.7,3-10.1c-0.9-4.2-6.5-4.2-8.8-7.4c0.2-3.7,3.5-5.5,6-7.6c6.5,2.1,13.1,5.7,20,2.8
			c1.8,5.7-2.1,11.1-3,16.6c-1.8,6.7,4.6,14.3,11.8,13.4c5.7,0,15.9-0.5,15.7-8.6c-0.9-9.4,0.2-21.4-7.1-28.6
			C176.2,564.4,160.1,562.5,144.8,566.9L144.8,566.9z M205.2,566.4c3.7,29,7.4,57.8,11.1,86.9c1.2,9.9,8.6,18.2,17.1,22.6
			c12.2,6.2,26.3,7.6,39.6,7.6c18-1.4,36.6-2.1,53-10.1c11.5-5.5,21.7-16.1,22.9-29.3c2.8-22.4,1.6-44.9,0.2-67.3
			c-0.7-3.9,0.2-8.8-3.2-11.8c0,24.7,1.4,49.6,0.2,74.3c-2.8,19.4-22.4,30-39.6,34.6c-19.8,4.6-41.3,7.1-60.9,0.9
			c-12-3.9-24-13.4-25.1-26.7c-4.4-27-8.1-53.9-11.5-80.9C207.7,567.1,206.4,566.8,205.2,566.4L205.2,566.4z M317.7,568.5
			c0.7,2.8,1.2,5.7,3,8.1C325.6,574.3,322.7,567.6,317.7,568.5L317.7,568.5z M215.8,569.9c0.2,1.6,0.5,5.1,0.7,6.9
			c0.9-0.5,2.8-1.6,3.7-2.1c0.2-0.7,0.9-2.3,1.2-3C219.7,571.3,217.2,570.3,215.8,569.9L215.8,569.9z M293,578.5
			c15.2,8.3,22.9,30,12.7,44.7c-9.9,14.3-32.9,14.3-44.3,1.8c-3-2.8-3-8.8-7.1-10.1c-3,2.8,0.9,7.4,1.8,10.4
			c7.6,12.4,24.4,15.9,37.8,13.4c8.1-1.4,17.8-4.8,19.8-13.6c2.8-15.2,0.9-30.9,0-46.1c0.2-3-1.8-5.5-3-8.1
			c-5.7,2.9-12.4,3.8-17.7,7.5V578.5z M247.2,579.2c1.9,10.1,3.9,20.5,4.8,30.9l2.3,2.3c1.6-4.8,0-10.1,2.1-15
			c2.5-7.6,9-12.7,14.1-18.4c-7.1-2.3-14.5-4.6-21.7-6.7C248.4,574.6,247.8,576.9,247.2,579.2L247.2,579.2z M503.5,587.9
			c-8.8,3-18.2,3.5-27,6.2c-9,3-14.3,11.5-20.3,18.4c-27.1,36-38.9,81.1-41.4,125.4c-7.6-7.8-7.1-19.6-6.7-29.7
			c1.4-17.4,4.6-34.5,9.7-51.2c4.4-12.7,9.9-25.8,20-35.3c5.1-4.6,8.1-10.6,11.5-16.4c-12-1.6-23.3,4.2-32,12
			c-2.3,3.7-3.7,8.3-7.1,11.3c-24.4,24.4-42.8,56.7-44.3,92c-0.9-0.2-2.5-0.7-3.2-0.9c0.2-24,4.4-49.1,18.9-68.7
			c3.9-6,11.3-9.7,13.6-16.8c-6.7,2.1-11.3,7.4-15.7,12.2c-20.5,22.4-30.2,51.8-37.8,80.4c-6.9-1.8-5.5-11.1-5.7-16.6
			c3-14.3,11.5-26.3,17.1-39.6c5.7-12.9,15.5-24.2,18.2-38.6c-12.7,0.7-12.4,15.4-14.5,24.7c-5.1,10.8-15,18.4-24.4,25.6
			c-5.1,23.1-2.3,46.8,0.2,70.1c3.7,26.5,9.9,54.6,27.9,75.3c12.9,15.2,34.3,22.4,53.7,17.1c3.3-32.9,9-65.6,16.9-97.7
			c2.3-9.9,6.7-20,15.2-26c-3.5-9.2-3-20,2.5-28.3c1.6-3.5,5.7-2.5,8.8-3.2c-1.2,6.9-0.8,14,1.1,20.8c-1.4,3.9-1.8,7.8-3.5,11.8
			c-8.8,11.7-13.6,25.6-18.9,39.2c-1.8,6-5.1,13.6,0,18.9c12.9-1.6,25.8-4.8,38.9-4.4c27.9-1.1,56.5,6.9,78.1,24.9
			c16.4-23.7,25.1-52.3,26.7-80.9c-3.5-2.5-8.8-4.1-9.2-9.2c4.8-6.9,12.9-10.8,18-17.8c18.2-20.3,24.9-50.7,15-76
			c-9-17.1-27.1-26.7-45.4-30.6C540.8,582.3,521.4,581.4,503.5,587.9L503.5,587.9z M274.2,589.9c-13.8,5.5-13.6,29.7,1.4,33.4
			c11.3,4.8,27.1-3.2,24.7-16.6C301.3,593.4,285.6,582.6,274.2,589.9z M-26.3,600.1c-20,14.5-29.5,39.9-29.7,64.1
			c0,17.3,0.5,36.2,10.6,51.2c3.2,5.5,8.6,10.4,10.1,16.8c6,25.3,15,50.5,29,72.6c9.9-12.5,24.2-20.5,39.2-24.7
			c29.5-8.1,60.4-3.7,89.4,3.7c-1.2-30.9-13.8-60.9-33.2-84.8l5.5-7.6c27.1,27.1,36.4,66.4,42.2,103c1.6,6.7,0,14.3,3.2,20.3
			c6.5,4.8,14.7,5.3,22.4,6.9c19.4-12.7,29.7-34.6,35.7-56.2c5.1-19.6,8.1-39.9,5.1-59.9c-1.6-15.9-5.3-31.8-13.6-45.7
			c-5.3-13.6-14.5-25.8-27.6-32.4c6.5,12.2,19.1,23.7,15,38.9c-5.1-3.2-6-9.7-9.2-14.5c-15.4-27.9-45.9-44.7-76.5-49.6
			c8.1,10.3,15.1,21.6,20.7,33.4c3.1,6.9,4.5,14.5,3.9,22.1c-8.9-17.9-20.5-34.4-34.3-48.9c-19.6-18-48.4-21.2-73.7-18.9
			C-3.6,591.5-16.7,592.2-26.3,600.1z M364.5,605.4c-6,3.7-3,10.8-2.3,16.4c6.5-3.7,13.7-5.8,21.2-6.2c7.6,0,14.3-4.4,21.4-6.9
			c3-6-7.4-8.1-10.1-12.2C388.7,607.4,375.4,607.8,364.5,605.4L364.5,605.4z M614.8,607c0.8,2.7,3.5,4.4,6.2,3.9
			c54.6,0,109.2,0.2,163.9,0c1.2-0.4,2.3-0.9,3.5-1.4l-1.1-2.1C729.8,607.2,672.2,606.7,614.8,607L614.8,607z M221.3,610.2
			c0.7,3.2,1.2,6.7,1.8,9.9c1.8-1.8,3.5-3.5,5.3-5.1C226.2,613.4,223.6,611.5,221.3,610.2z M182.8,615.5
			c7.3,5.8,14.2,12.2,20.5,19.1c-1.2-7.5-2.9-14.9-5.1-22.1C193.2,613.7,187.9,614.8,182.8,615.5L182.8,615.5z M617.9,622.2
			c4.4,12.7,7.1,26,8.1,39.4c35.3-0.2,70.3,0.2,105.6-0.2c10.1-4.1,17.5-12.9,24-21.4c3.2-5.5,8.8-10.8,7.1-17.8
			C714.3,622.4,666.2,622.2,617.9,622.2L617.9,622.2z M225.5,636.9c1.6,15.4,12.7,30.4,29.3,31.1c-0.9-2.1-1.8-3.9-2.8-5.7
			c-3.7-6-12.7-2.5-16.6-8.1c-4.1-4.1-3.2-10.1-3-15.4C230.2,638,227.9,637.3,225.5,636.9L225.5,636.9z M294.4,661.1
			c-3,2.1-0.9,7.8,3,6.5C302.2,666.4,298.3,657.9,294.4,661.1L294.4,661.1z M271.8,664.6c-3.9,0.9-1.8,6.7,1.8,5.1
			C277.8,669,275.6,662.7,271.8,664.6L271.8,664.6z M212.2,682.6c-0.2,10.1,0.9,20,1.1,30.2c0,34.1-3.7,70.3-22.9,99.8
			c-9.5,15-27,26-45.2,21.9c-0.9,6.2-2.1,12.7-0.2,19.1c6.5,26.7,14.3,53.2,22.4,79.5c16.6,4.4,35.5,5.1,50.2-4.6
			c20-13.1,29-37.3,32-60.1c5.1-51.6,7.4-103.3,9.9-155.1c-0.2-6.2,1.4-12.9-0.7-18.9c-12.4-3-26.7-2.1-37.1-10.8
			C219.4,680.7,213.4,675.9,212.2,682.6L212.2,682.6z M608.6,684c-3.7,7.8-7.1,15.9-14.1,21.2c-3.9,21-9,41.9-13.8,62.9
			c1.4-0.2,4.1-0.9,5.5-1.2c15.7-25.6,22.4-55.7,26.7-85.3C611.5,682.4,610,683.1,608.6,684L608.6,684z M293.7,692.7
			c-7.4,0.7-15,0.2-21.9,2.8c-4.8,25.1-3.7,50.9-6,76.3c-0.9,20.3-1.9,40.6-2.8,60.6c2.8,26,8.1,52.8,23.1,74.7
			c9.4,13.8,25.6,23.3,42.4,21.4c5.3-6,10.4-12,15.7-17.7c-35.7-21.9-57.7-60.5-58.3-102.3c2.8,1.8,5,4.5,6.2,7.6
			c9.7,23.5,22.6,46.1,40.6,64.5c17.3,17.1,40.1,30.2,65,29.7c1.8-3.9,3.5-7.8,5.3-11.8c-2.3-2.3-4.6-4.6-8.1-5.3
			c-26-7.1-51.6-18.9-70.1-39.2c-17.5-19.1-26-46.3-21.2-71.9l3,1.6c3.7,20.5,10.6,41.3,24,57.6c18.2,23,48.6,34.8,77.7,32.3
			c0.7-3,1.4-5.7,2.3-8.8c-2.3-2.1-4.6-4.1-6.9-6c-15,1.2-30.4-2.1-42.4-11.3c-17.5-13.1-27.1-33.6-33.2-54.2
			c-8.8-30.6-11.1-62.8-10.1-94.7c-0.2-3,0.5-9-4.2-8.8C307.4,690.4,300.7,692,293.7,692.7L293.7,692.7z M623.5,688.8
			c-4.6,27.4-15.4,53.2-27.1,78.1c30,0.2,59.7,0.5,89.6,0.5c-7.4-24.4-9.9-51.4,0-75.4c-0.7-0.7-2.1-2.3-2.8-3.2
			C663.4,688.3,643.3,688.8,623.5,688.8L623.5,688.8z M588.2,780.8c36.4,0.7,73.1,0.7,109.5,0c-2.3-1.4-4.6-2.5-7.4-2.1h-94.5
			C593.1,778.3,590.4,779,588.2,780.8L588.2,780.8z M433.5,790.5c-0.6,1.8-1.1,3.7-1.4,5.5c38.7-9.9,82.3-5.7,115,18.4
			c0.7-2.3,1.6-4.6,2.3-6.9c-8.3-6.7-17.7-11.8-27.9-15C493,783.5,462.6,785.1,433.5,790.5L433.5,790.5z M35.1,790.9
			C20.7,794.2,7.9,802.5-1,814.3c0.9,1.9,2.8,5.1,3.5,6.9c11.1-14.8,29-22.4,46.8-25.8c25.6-4.4,51.9-0.9,77,4.2
			c-1.4-4.4-6-4.4-9.7-5.5C90,788.1,61.9,784.2,35.1,790.9L35.1,790.9z M561.5,810.5h162.7c-4.6-5.7-9-12-13.1-18H577.4
			C572.1,798.7,566.8,804.5,561.5,810.5L561.5,810.5z M455.5,817.4c7.6,1.6,12.7-7.6,20.3-4.8c1.3,2.9,2.4,5.9,3.2,9
			c-2.3,3.2-6.9,1.8-10.1,2.5c-5.5-0.2-9.9,3.5-14.1,6.5c5.1,3,12.7,4.6,17.3,0c2.5-3,6.5-2.1,9.7-2.1l5.5,6.9
			c3-0.7,5.7-1.4,8.8-2.1c0.5-5.5-2.5-9.7-7.8-11.5c-1.6-5.1,0.2-11.3-3.2-15.4C474.2,804.5,461.7,807.9,455.5,817.4L455.5,817.4z
			 M64.2,813.2c-1,1.7-2.2,3.3-3.5,4.8c-7.8,0.9-15-3.2-21.9-6l-0.7,7.6c-1.2,1.6-3.2,5.1-4.4,6.7c3.9-0.9,7.6-1.8,11.5-2.8
			c16.1,2.1,26.1,17.1,41.2,21c8.8,2.1,13.6-6.4,17.7-12.4c-2.8-1.2-5.5-2.1-8.3-3c-3.5,3.5-6.7,7.6-11.7,8.8
			c-7.1,1.2-13.1-3.9-17.1-9.2c-2.5-3,2.1-5.1,3.5-7.4c8.1,0.2,15.9,2.1,24,2.5c-1-2-2-3.9-3.2-5.7c-3.2-0.2-6.5-0.7-9.7-0.9
			c-2.3-3.7-3.7-9.9-9.2-9.5C69.5,809.6,66.9,811.5,64.2,813.2L64.2,813.2z M508.3,834c6-5.3,14.3-10.4,13.4-19.4
			C513.8,817.9,506.4,824.5,508.3,834L508.3,834z M558.8,821.5c-8.8,23.7-17.5,47.2-26.7,70.8c102.6,0.9,205.3,0.9,307.9,0.9
			c0.2-24,0.2-47.7,0-71.7C746.3,821.3,652.6,821.3,558.8,821.5L558.8,821.5z M-218.6,826.6c0.2,22.4,0,44.7,0.2,66.8H16.5
			c-9.4-22.1-18.2-44.7-27.4-67.1C-80,826.4-149.5,825.9-218.6,826.6z M42.1,835.6c-2.8,7.8,5.5,12.4,9.2,18.4
			c2.1,4.8,7.8,2.5,12,3.5c1.6-2.1,3.1-4.4,4.4-6.7c-5.1-1.4-10.1-2.1-15-3.7C47.1,845.3,47.4,837.9,42.1,835.6L42.1,835.6z
			 M449.3,838.4c-1.8,6.2,5.7,7.6,10.4,8.1C459.4,841.6,454.1,836.7,449.3,838.4L449.3,838.4z M494,851.7c4.6-0.7,11.3,2.5,13.4-3.5
			C502.7,847.8,495.6,845.5,494,851.7L494,851.7z M33.3,864.2c4.1-0.2,8.1-1,12-2.3C43.2,855.2,35.3,859.8,33.3,864.2L33.3,864.2z
			 M422.6,864.4c25.6-2.8,53-5.1,77,6.7c9.2,3.7,15.9,11.3,24,16.8c0-7.4-7.1-10.8-12.2-14.8c-22.6-14.6-50.7-15.2-76.7-13.4
			C430.6,860.5,424.9,859.8,422.6,864.4L422.6,864.4z M37.7,876.4c-3,2.8-11.1,7.4-6.7,11.5c6-5.7,12.4-11.3,20.5-14.5
			c27.1-11.5,57.4-9.5,86.2-9c-4.4-4.4-11.3-2.3-16.8-3.2C93,860.9,62.4,860.9,37.7,876.4L37.7,876.4z M417.5,887.9
			c-6,19.4-11.1,39.2-17.3,58.6c3.9,1.2,6.5,4.6,9,7.6c1.2-1.6,3.2-4.8,4.4-6.5c1.8,2.2,3.5,4.5,5.1,6.9c3-1.8,6.2-3.7,9.2-5.7
			c0.4,2,0.8,4,1.4,6c2.5-2.1,4.8-4.1,7.4-6.2c0.5,1.8,1.6,5.5,2.3,7.4l9-4.8c0.9,3.2,2.1,6.2,3.2,9.4c3-2.3,6-4.8,8.8-7.1
			c0.5,3,0.7,6.2,1.2,9.2c3.2-1.4,6.4-3,10.1-2.1c4.4-3.9,8.8-7.6,11.5-12.9c9.7-18.4,19.4-36.9,29.3-55.1
			c-21.2-16.1-49.1-20.7-75.1-17.5C428.8,876.6,419.8,879.8,417.5,887.9L417.5,887.9z M54.8,886.8c12.7,24.6,24.4,49.8,36.9,74.4
			c1.4,3.2,4.4,5.5,7.1,7.8c0-9.4,3.7-17.7,7.1-26.3c0.9,1.2,2.8,3.2,3.7,4.4c0.9-0.5,3-1.1,3.9-1.6c3.2,2.1,6,4.4,9.7,6
			c4.1-1.8,7.8,0,11.5,1.8c1.1-1.8,2.3-3.5,3.2-5.3c1.2,1.5,2.2,3.1,3.2,4.8c1.2-0.9,3.7-3.2,5.1-4.2c3.5,3,6.7,2.8,9.9-0.7
			c1.2,1.6,3.2,4.6,4.2,6.2c0.7-0.9,2.5-3,3.2-4.2c-6-21-14.1-41.2-20.5-62.2c-1.4-3.2-1.8-8.1-6.2-8.6C110,871,79.9,874,54.8,886.8
			L54.8,886.8z M258.7,875.9c-1.6,6.2-3.2,12.4-5.3,18.4c4.8,0,9.9,0.2,14.8,0.2C265.1,888.4,262.1,882.1,258.7,875.9L258.7,875.9z
			 M35.6,900.6c3.7,0.2,7.6,0.5,11.3,0.5C47.8,893,37,894.3,35.6,900.6z M-198.3,906.1c0,3.5-0.2,7.1-0.2,10.6H26.7
			c-2.1-3.5-4.6-6.9-7.4-9.9c-6-1.6-12.2-0.7-18.4-0.9C-65.3,906.1-132,906.1-198.3,906.1L-198.3,906.1z M247.7,916
			c11.1,0.7,22.4,0.7,33.4,0.5c-1.9-11.3-15.7-11.1-24.4-9.9C251.5,906.3,244.2,909.6,247.7,916L247.7,916z M517.8,909.1
			c-1.4,2.1-2.8,3.9-4.1,6c103.9,0,208-0.1,312.1-0.2c0-1.4,0.2-4.1,0.2-5.5C723.3,908.9,620.6,909.1,517.8,909.1L517.8,909.1z
			 M231.3,932.4c3.9,0.7,7.8,1.1,11.8,1.8c2.8-2.3,6.5-3.9,7.1-7.8C243.5,927.2,235.6,926.4,231.3,932.4z M607.7,925.9
			c3.5,3,6.7,6,10.1,8.8h9.5c0.2-2.1,0.9-6.5,1.1-8.6C621.4,925.7,614.5,925.7,607.7,925.9L607.7,925.9z M716,925.5
			c0.5,3.9,0.9,7.8,1.2,11.8c10.8-0.7,22.6,2.3,32.5-3.9c2-2.4,3.7-4.9,5.3-7.6C741.7,925.2,728.8,925.7,716,925.5L716,925.5z
			 M764.8,932.6c-6.9,5.7-15.2,12.4-15.4,22.4c-1.2,9.2,3.9,19.4,13.1,22.1c-4.1-12.7-8.1-29.3,2.5-39.9c11.5-10.4,27.9-7.6,41.9-9
			c-0.5-0.7-1.1-2.1-1.6-2.8C791.7,925.9,776.1,923.2,764.8,932.6L764.8,932.6z M-187.9,931.4c5.3,8.1,15.2,3,21.7-0.9
			C-173.7,929.4-181.4,927.1-187.9,931.4L-187.9,931.4z M-119.7,928c3.2,3.4,6.8,6.4,10.6,9c7.1-2.5,16.8,0.2,20.5-8.3
			C-98.9,927.6-109.3,927.4-119.7,928L-119.7,928z M350.4,932.9c4.2,2.4,9.5,0.9,11.9-3.3c0,0,0-0.1,0.1-0.1
			C358.7,928.2,349.5,927.8,350.4,932.9z M506.9,928c1.2,5.5,3.2,10.8,8.3,13.8c1.8-4.3,2.8-8.9,3-13.6
			C514.5,928,510.8,928,506.9,928L506.9,928z M13.8,930.1c1.4,2.5,2.8,5.1,4.1,7.8c2.8,0,5.3-0.2,8.1-0.2l0.7-7.6H13.8z
			 M378.3,933.5c-5.3,3.5-12.9,6.9-12.4,14.3c-0.9,9.4,5.1,17.7,12.4,23.1c6-13.1,12.5-27,14.3-41.4
			C387.5,929.4,382.4,930.3,378.3,933.5z M671.5,934.2c-9.5-0.5-20-6.2-28.8,0.2c-10.8,10.1-7.6,29.5,4.4,37.3
			c-1.4-9.9-5.7-22.1,2.8-30.2c5.3-5.7,13.4-3.5,19.6-1.2c9.9-8.6,28.6-7.8,34.1,5.3c5.3,9.9-0.7,20.7-6.5,29l4.8-0.7
			c11.1-10.1,15-32.3,0.9-41.7C692.8,926.9,681.2,930.8,671.5,934.2L671.5,934.2z M-145.7,933.1c8.8,6.2,16.6,14.5,19.4,25.1
			c2.5,6.5,0.2,14.3,5.3,19.6c5-8.3,6.7-18.2,4.8-27.7C-121.3,939.1-134.7,936.1-145.7,933.1L-145.7,933.1z M-45.5,934.9
			c-11.8-2.8-26.3-5.3-35.7,4.4c-11.1,10.1-11.5,34.3,5.5,38.6c-0.9-8.6-4.4-17.1-1.4-25.3c1.9-7.3,8.2-12.6,15.7-13.1
			c10.1-1.6,20,3.5,30.2,1.1c8.8-1.4,19.1,0.5,24,8.8c4.8,9,0,18.9-2.8,27.9c8.3-3.7,13.4-12,16.6-20c3.4-9.2-1.3-19.4-10.5-22.8
			c0,0-0.1,0-0.1,0C-17.6,928.9-31.5,938.4-45.5,934.9L-45.5,934.9z M254.8,939.1c-12.7,10.6-6.7,34.8,9.7,38.2
			c-2.3-8.1-5.5-16.4-4.4-24.9c1.6-4.1,3.5-8.1,5.5-12c3.2-2.1,6.7-3.5,9.9-5.7c3.5,0.5,7.8,4.2,10.1-0.7c-2.5-1.2-5.3-2.1-7.8-3.2
			C270.4,934.7,261,933.1,254.8,939.1L254.8,939.1z M525.4,950.1c-0.9,11.5,7.4,21.2,17.7,25.1c-6.9-9.2-12.9-22.6-6.2-33.4
			c4.1-7.4,14.1-4.8,19.8-10.1c-6.2-0.2-12.5-1.1-18.4,1.2C532,936.5,524.2,941.6,525.4,950.1L525.4,950.1z M559.5,932.9
			c-1.8,1.2-3.7,2.3-5.3,3.5c4.2,0,8.6,2.8,12.7,1.2c7.1-3,15-3.7,22.6-1.8c8.1,4.6,11.1,15,8.8,23.7c-0.7,8.1-9.2,11.8-12.2,18.7
			c16.4-3.9,27.1-27.7,16.1-41.3C590.3,925.3,573.6,933.1,559.5,932.9L559.5,932.9z M35.3,941.2c-4.4,4-6.2,10.1-4.8,15.9
			c0.9,7.4,3.7,17.2,12.3,18.7c0.9-9-5.3-18.9,0.2-27.4c4.8-9.2,16.4-9,25.3-11.1c-1.8-1.9-4.3-2.9-6.9-2.8
			C52.4,933.8,42.3,934.7,35.3,941.2L35.3,941.2z M328.3,939.1c1,3.6,2.2,7.1,3.7,10.6c7.1,6.5,1.4,16.4,0.7,24.2
			c6.5-8.3,16.6-18.2,11.3-29.7C341.7,937.5,333.8,938.9,328.3,939.1L328.3,939.1z M209.1,946.2c-3.7,4.8-0.9,10.8,0.9,15.7
			c-2.2,4.8-3.7,9.9-4.4,15.2c12-5.3,23-18,18.2-31.8C222.3,938.6,212.1,941.6,209.1,946.2L209.1,946.2z M782,942.8
			c-4.4,1.2-10.1,1.2-12,6c-5.3,9.2,1.1,19.1,5.7,27.1c9.5-1.9,18.7-7.4,22.1-16.6c2.3-5.3,1.6-11.3,1.4-16.8
			C793.6,941.3,787.7,941.4,782,942.8L782,942.8z M-167.7,945.1c-9.2,3.2-7.4,17.1-0.5,21.9c8.3,5.2,17.3,9.3,26.7,12.2
			c2.5-2.5,7.6-3.9,7.6-8.1C-134,954.7-151.3,939.3-167.7,945.1z M493.5,947.4c-5.1,9.2-10.4,18.9-9.7,29.7c6,0,13.6-0.9,16.8-6.7
			c4.4-9.1,4.8-19.6,1.2-29C498.1,941.5,494.8,943.9,493.5,947.4L493.5,947.4z M723.3,947.4c-1.5,10.4-5.7,20.3-12.2,28.6
			c11.3,0,22.6-0.2,33.9,0c-8.6-7.6-4.6-19.4-8.1-28.8C732.5,947.4,727.8,947.4,723.3,947.4L723.3,947.4z M269.7,954.5
			c1.6,6.7,2.1,14.3,6.9,19.6c3,1.9,6.7,2.1,9.9,3.2c9.4-0.7,19.1,0.9,28.6-1.4c3.5-6.9,12.2-14.5,7.1-22.6
			c-6-8.3-18.2-6.5-26.3-2.1C287.9,946.9,274.1,943.2,269.7,954.5L269.7,954.5z M547.8,958.9c6,6.7,14.3,10.6,19.8,18
			c6.5-9.4,24.2-14.1,18.9-28.3c-6.5-0.5-13.1-0.9-18.7,2.5c-6-1.6-11.8-4.6-18.2-3.9C543.6,947.8,544.7,955.7,547.8,958.9
			L547.8,958.9z M620.4,947.4c-2.8,10.4-6.2,20.5-12.7,29.3h27.6C628.2,968.1,623.8,957.7,620.4,947.4L620.4,947.4z M671.8,953.4
			c-5.1-1.3-10.3-2.2-15.5-2.8c-1.4,5.7-1.2,12.2,2.8,16.8c4.2,5.5,11.3,7.4,17.8,9.4c5.7-4.4,12-8.8,15-15.7c1.8-3.7,3-9.2-0.9-12
			C684.1,946.2,678.2,952.7,671.8,953.4L671.8,953.4z M-103,951.9c-0.9,8.1-1.8,16.1-3,24.3h9.7C-98.5,967.9-99.4,959.4-103,951.9
			L-103,951.9z M-67.7,956.5c0,7.6,2.3,15.9,9.2,19.8c9.2,0.2,18.4-0.5,27.6,0c6.9-4.4,15-10.6,14.3-19.6c-1.6-5.1-7.6-5.7-12-4.8
			C-41.8,954.8-56.3,948.1-67.7,956.5L-67.7,956.5z M57.6,971.8c8.1,6.7,19.6,5.1,29.3,3.2c-2.5-7.1-5.1-14.3-9.5-20.5
			c-5.3-4.2-12.4-3.9-18.7-2.8C49.5,954.6,52.5,966.5,57.6,971.8L57.6,971.8z M178.2,952.2c1.4,8.8,1.8,18.7,8.8,25.1
			c3.7-2.8,7.4-5.5,11.3-8.3c1.2-5.3,3-13.4-3.2-16.1C189.2,951.5,183.4,952.2,178.2,952.2L178.2,952.2z M227.7,976.8
			c5.7,0.2,11.3,0,17.1,0c-4.2-6.9-6.5-14.8-8.3-22.6C233.9,962.1,230.4,969.3,227.7,976.8L227.7,976.8z M10.4,976.1
			c5.1-0.5,10.2-0.5,15.2,0c-2.5-4.9-4.7-10-6.5-15.2C16.3,966.3,13.3,971.3,10.4,976.1L10.4,976.1z M111.6,961.2
			c-0.7,9.7-2.8,22.6,7.1,28.3c3.7-2.5,7.4-5.3,10.8-8.1C127.4,972.3,121,964,111.6,961.2L111.6,961.2z M349.3,975.9
			c4.5-0.2,9.1,0,13.6,0.5l-6.9-15.2C353.6,965.8,351.2,970.9,349.3,975.9L349.3,975.9z M140.8,970.2c3.2,0,4.8-6,1.2-6.5
			c-3.6,0-5.4,6-1.3,6.4L140.8,970.2z M148.6,964.2c-1.2,3.5,0.2,4.6,4.1,3.7c1-3.5-0.3-4.6-4.3-3.7L148.6,964.2z M418.5,965.4
			c1.2,1.6,2.3,3,3.7,4.6c3.5-3.9,7.8-3.2,12-0.5c-0.2-1.2-0.9-3.5-1.2-4.6c-5-0.5-9.9-0.9-14.7,0.4L418.5,965.4z M396.4,968.4
			c-0.9,3.5,5.3,6.5,6.7,2.5c0.5-3.5-5.7-6.7-6.9-2.6L396.4,968.4z M514.4,966.5c-1.4,3.5-5.5,10.8,0.2,12.2
			c4.2-2.1,8.3-1.6,12.7-0.9c-3.6-4.6-6.9-10.2-13.1-11.3L514.4,966.5z M467.7,977.1c-9.9,2.1-14.3,18.4-3.5,22.4
			c8.3-1.4,10.4-12.5,10.1-19.6C475.3,975.3,470.3,976,467.7,977.1z M143.5,979.9c-5.7,11.5-15.4,23.1-30,21.9
			c-2.3,3.2-5.5,6.2-5.5,10.4c-1.4,14.5-4.8,29-11.8,42.2c15.2-0.5,30.6,0,45.4,4.8c25.8,7.6,47,26.7,59,50.5
			c2.1,0.2,6.2,0.7,8.3,0.7c10.6-5.3,19.1-16.6,16.4-28.8c-3-11.1-6.2-22.4-13.6-31.3c-3.2-4.4-9-4.4-13.8-5.5
			c0.2-6.4,4.4-12.2,3.9-18.7c-5.5-12.9-13.4-25.1-21.4-36.6C171.1,979.9,156.1,979.2,143.5,979.9L143.5,979.9z M385.5,986.6
			c-14.1,16.1-21,38.3-19.6,59.7c-12.4,8.8-20.5,22.5-22.1,37.6c-1.2,8.6,5.7,17.5,14.5,17.1c14.5-2.8,24.6-15.2,31.1-27.7
			c4.4-9.4,12.9-16.6,22.6-20.5c14.3-5.7,30.7-8.3,45.4-2.8c18.2,5.3,32,20.5,37.1,38.5c5.2-6,4.9-15.1-0.7-20.7
			c-13.8-14.3-24.2-32.3-27.1-51.9c-4.6-3.5-10.6-5.3-14.3-10.1c-4.8-4.8-5.5-12-7.6-18C426.3,978.2,404.4,977.8,385.5,986.6
			L385.5,986.6z M-149.2,989.8v6.9H95.1v-6.9H-149.2z M195.8,989.8c2.8,2.5,3.9,7.8,8.3,7.8c52.1,0.2,103.9,0,156,0
			c2.3-2.8,4.4-5.3,6.7-8.1C309.6,990,252.7,989.6,195.8,989.8L195.8,989.8z M486.2,989.8c-0.7,1.8-2.3,5.7-3.2,7.8
			c96.8,0,193.8,0.5,290.6-0.2c0-1.8-0.2-5.7-0.2-7.6H486.2z M489.9,1046.7c5.7,9.3,13.6,17.1,23.1,22.6c10.1,0.2,13.6-12,17.1-19.6
			c3.9-9.2,13.8-12.9,23-15.2c-2.1,4.6-3.5,9.7-2.3,14.5c2.5,13.8,10.6,25.3,16.1,38c3,8.8,0.5,18.2-3.2,26.5h88.5
			c0.2-35.5,0-70.8,0-106.2H479.8C477.2,1021.1,483.2,1034.7,489.9,1046.7L489.9,1046.7z M662,1007.3c0,35.3,0.2,70.3,0,105.6
			c32.7,0.5,65.2,0.2,97.9,0c-0.2-35.3,0-70.3,0-105.6H662z M-131.2,1009.6v104.9h102.1c-0.2-35,0-70.1-0.2-104.9H-131.2z
			 M-18.3,1010.6v104.2h28.6c-4.4-9.7-6.4-20.7-4.1-31.4c2.1-17.1,15.9-30.2,15.7-47.9c16.8,5.1,27,20.7,36.9,33.9
			c24.9-7.6,38.5-33.9,38.7-58.8C58.9,1010.2,20.1,1010.7-18.3,1010.6L-18.3,1010.6z M206.6,1010.8c1,4.5,2.6,8.8,4.8,12.9
			c-3.2,15,11.3,23.7,16.8,35.7c9.7,15.9,10.8,38.6-2.8,52.5c40.3-0.2,80.9,0,121.2,0c-7.6-7.6-15.5-16.8-13.6-28.3
			c0.2-17.1,16.6-26.5,21.9-41.4c2.1-10.4,1.4-21.2,3-31.6C307.7,1010.7,257,1010.3,206.6,1010.8L206.6,1010.8z M29.7,1056.9
			c-5.1,10.1-11.8,20.3-13.1,31.8c-0.9,9.6,2.7,19.2,9.7,25.8c16.1-0.2,32-0.2,48.2,0c-14.5-13.8-25.1-31.1-33.2-49.3
			C38.8,1061.4,34.7,1054.8,29.7,1056.9L29.7,1056.9z M530,1068.9c-9,16.4-23.7,30.2-41.9,35.3c-3.2,3.2-6.5,6.2-9.7,9.2
			c22.9-0.5,45.9,0.5,68.7-0.5c9-5.1,13.1-17.5,8.6-27c-4.6-10.1-10.1-19.8-15-30C536.4,1060.1,532.5,1064,530,1068.9L530,1068.9z
			 M404.4,1072.3c-8.6,8.3-9.2,24.2,0.2,32.3c10.8,8.8,25.6,9,38.7,8.8c-3-2.8-6-5.7-8.8-8.8c2.1-2.3,4.4-4.6,6.5-6.7
			c8.8,6,19.8,6.9,30,5.1c6.2-1.8,8.6-8.3,11.5-13.4c-10.4-0.5-21.2-0.2-31.1-3.9c-4.2-3.2,0.7-7.4,3.2-9.5c2.5,0.5,7.4,1.4,9.9,1.8
			c-1.2-10.1-11.5-15-20.5-15.9C430.1,1060.3,414.3,1061.4,404.4,1072.3L404.4,1072.3z M87.5,1066.6c-4.6,5.5-11.3,8.8-16.6,13.6
			c-3.7,3.2-2.1,8.6,1.6,10.8c2.5-12.2,14.7-17.5,25.8-19.6c5.1,4.6,5.5,11.5,6.2,18c-8.3,0.9-17.3,1.6-23.3,8.1
			c3.7,4.1,6.9,9,11.8,12c7.1,1.4,16.1,1.8,21.7-3.7c3-3.2,3-9.9,8.1-9.9c3.9,1.4,5.5,5.5,7.6,8.8c6.7,4.2,14.5,5.7,22.4,6.2
			c6.3-2.4,12-6.1,16.8-10.9C153.6,1071.8,118.3,1059.6,87.5,1066.6L87.5,1066.6z M538.1,1204.2c-82.7,14.5-167.1,22.6-251,20
			c-100-0.9-200-14.3-297.3-37.8c-86.4-21.4-171.5-49.6-251-89.4c-32.7,48.4-65.9,96.3-98.6,144.7c-2.3,2.8,3,3.9,4.4,5.3
			c44.3,24.4,90.8,44.5,138,62.5c96.8,36.4,197.3,62.7,299.1,80.4c42.6,8.1,86,12.7,129.3,15.4c108.3,6.7,217.6,3.5,324.7-14.1
			c60.2-10.6,118.9-27.1,177-46.1c91.8-30.8,181.7-67,269.2-108.5c-33.7-50.8-66.9-101.7-100.3-152.6
			c-106,60.6-223.8,98.4-343.6,120.1L538.1,1204.2z M-160.9,1126.3c40.8,13.8,81.6,27,123.1,37.8c14.5,3.2,28.6,9.2,43.6,8.3h587.7
			c9.5,0,18.9,0.9,27.9-1.8c46.6-11.8,93.3-24.4,137.1-44.5c-9.7-0.7-19.6-0.2-29.3-0.5H-61.2C-94.3,1126-127.8,1124.6-160.9,1126.3
			L-160.9,1126.3z M60.6,1184.9c24.3,5.5,49.1,10.4,74,9.9h359.8c21.1-1.6,42.1-4.9,62.7-9.9c-7.8-0.7-15.7-0.5-23.5-0.5H169.3
			c-36.2,0.3-72.4-0.6-108.8,0.3L60.6,1184.9z M199.1,1205.8c32,5.7,64.8,3.5,97,3.9c28.6-0.2,56.9,1.1,85.5-2.1
			c6.7-1.1,14.1,0.7,20-2.8c-67.6,1.7-135.1-0.3-202.6,0.8L199.1,1205.8z"/>
	</g>
	<path id="path362" class="st7" d="M211.2,10.3c4.4-6.9,11.5-13.4,20.3-12c10.6,1.4,23.5-0.9,31.4,8.1c6.5,5.3,5.7,14.5,6.7,22.1
		c0.7,12.2,3.2,24.4,3,36.9c-1.6,9-14.3,5.7-17.8-0.2c-4.2-5.5,1.4-10.8,3.2-15.9c0.9-6.5,0.2-12.9-0.2-19.4
		c-7.1-1.8-14.5-0.5-21.7,0.5c-4.6,0.5-7.1-5.1-11.8-4.6c-2.5,1.2-5.1,2.5-7.6,3.9c-3.7-4.2-0.2-9.9,3.7-12.2
		c7.8-4.6,17.3-2.8,26-4.4l2.8-2.8c-6.5-2.5-13.6-3-20.5-2.8C223,8.2,217.4,11.5,211.2,10.3z"/>
	<path id="path364" class="st7" d="M154.3,30.8c1.4-0.7,4.4-2.3,6-3c2.8,6.2,7.1,11.5,11.5,16.6c-1.4,3.7-2.5,7.4-3.7,11.1
		c-1.8,0.9-3.6,1.6-5.5,2.3C152.2,53.1,154.1,40,154.3,30.8z"/>
	<path id="path366" class="st7" d="M284,59.6c2.5,0.2,5.3,0.2,7.8,0.5c1.6,5.7-2.8,9.4-8.3,8.3C283.8,65.6,284,62.6,284,59.6z"/>
	<path id="path368" class="st7" d="M243.5,92.6c17.5-9,38-5.1,56.9-4.8c-0.2,1.6-0.5,4.4-0.7,6c-10.4,2.3-21,1.6-31.3,3.7
		c-6.5-0.7-13.1,0.4-19.1,3.2C246.6,98.6,244.6,95.8,243.5,92.6z"/>
	<path id="path370" class="st7" d="M261.7,103.4c8.3-0.2,16.8-0.7,25.1-0.7c0.9,0.9,3,3,3.9,4.2
		C281.7,111.9,267.7,113.6,261.7,103.4z"/>
	<path id="path372" class="st7" d="M179.4,195.4c4.8-4.8,12.7-2.1,17.5,1.4c4.4,6.5,1.4,17.5-6.7,19.1c-5.5,0.5-12.5-1.8-14.5-7.6
		C175.2,203.7,176.5,199,179.4,195.4z"/>
	<path id="path374" class="st7" d="M208,205.3c6-2.8,15.4-2.1,18,5.3c3.2,5.1,0.5,10.8-0.9,15.9c-5.3,3.5-12.7,6.5-18,1.6
		C199.7,222.8,199.9,209.9,208,205.3z"/>
	<path id="path376" class="st7" d="M115.3,619.7c5.7-2.3,11.1,2.1,15.7,4.8c22.4,15.2,35.5,41,39.9,67.3c3,17.5,5.7,35.3,4.2,53.2
		c-0.7,1.6-2.3,4.8-3,6.2c-8.3-2.5-5.5-11.3-6-18C165.1,691.1,148.1,647.8,115.3,619.7z"/>
	<path id="path378" class="st7" d="M71.6,619c3.2,0.5,6.7,0.7,9.9,1.2c5.5,5.7,9.9,12.4,13.1,19.6c-3.2,1.8-7.1,4.8-10.6,2.1
		C78.9,634.6,73.2,627.7,71.6,619z"/>
	<path id="path380" class="st7" d="M400.4,644.5c3.2-4.8,6.2-11.3,13.4-9.9c-21.2,40.1-23.3,86.9-21.9,131.4
		c-9.9-18.4-7.4-40.3-7.4-60.4C384.1,684.2,389.6,663,400.4,644.5z"/>
	<path id="path382" class="st7" d="M125.3,671.3c4.8-3.2,8.6,4.4,9.9,8.3c0.7,6.5,4.6,16.1-3,19.8c-4.8-0.2-5.3-6-5.7-9.5
		C125.9,683.7,123.4,677.2,125.3,671.3z"/>
	<path id="path384" class="st7" d="M184.7,677.7c7.1,6.7,10.7,16.3,9.9,26c0,3.9-3.2,7.6-7.1,5.3c-3.2-7.6-3-16.1-5.1-24
		C182.9,683.3,184.2,679.3,184.7,677.7z"/>
	<path id="path386" class="st7" d="M244.4,708.8c0.9-0.7,2.8-2.3,3.7-3c3,21.5,3.5,43.2,1.4,64.8c-1.6,24.4-4.6,49.1-14.8,71.7
		c-3.8,8.7-9.3,16.5-16.4,22.9c1.8-9.5,6.5-18.2,9.2-27.4c7.8-24.6,11.8-50.5,13.6-76.3C242.2,743.9,242.6,726.1,244.4,708.8z"/>
	<path id="path388" class="st7" d="M225.7,719.7c-0.9-3.7,2.3-5.3,4.6-7.4c3.2,36.9,1.4,75.6-14.3,109.5
		c-6.2,12-13.4,24.7-25.1,31.8c0.9-2.5,2.1-5.3,3.2-7.8C217.4,808.4,227.1,763.5,225.7,719.7z"/>
	<path id="path390" class="st7" d="M179,719.7c-0.9-3.2,2.5-3.7,4.6-4.6c2.6,8.7,3.6,17.9,2.8,27c2.5,0.7,5.1,1.2,7.6,1.9
		c1.5,14.9-2.7,29.8-11.8,41.7c-1.8,3.5-5.7,4.6-9.5,5.5c-4.8-8.6,3-15.2,7.1-21.7c3.7-7.8,4.2-17.3-1.8-24.3
		C178,736.7,179.2,728.2,179,719.7z"/>
	<path id="path392" class="st7" d="M273.9,789.7c0.7-25.3,0.5-50.9,3.5-76l2.8-0.2c1,1.3,2.1,2.5,3.2,3.7c0,24.2-0.2,48.4-2.1,72.6
		C278.8,790,276.4,790,273.9,789.7z"/>
	<path id="path394" class="st7" d="M351.8,779.6c6.5,0.9,9.9,6.7,15.2,9.9c11.7,7.7,25.2,12.3,39.2,13.4c-0.9,4.1-1.8,8.1-3,12.2
		c-10.1,0.7-21,0.9-30.4-3.7C360.3,806.1,350.4,793.4,351.8,779.6z"/>
	<text transform="matrix(1 0 0 1 278.1072 864.356)" class="st7 st8 st9">L</text>
	<text transform="matrix(1 0 0 1 278.1072 864.356)" class="st10 st8 st9">L</text>
	<path id="path398" class="st7" d="M167.4,890.4c7.4-3.7,15.4-5.1,22.9-8.1c2.1,2.8,4.4,5.7,3.5,9.2c-6,7.6-16.8,10.6-26,8.8
		C163.3,898.7,163.5,892.7,167.4,890.4z"/>
	<path id="path400" class="st7" d="M200.6,909.3c9.7-3.7,15-12.9,23-18.7c2.5,9.2-4.6,16.8-11.1,22.1c-8.3,6.5-18.7,11.5-29.3,10.1
		c-2.4-1.9-3.8-4.8-3.7-7.8C186.1,911.6,194.2,913.3,200.6,909.3z"/>
	<path id="path402" class="st7" d="M122.2,984.5c-8.6-0.9-10.4-12.2-4.8-17.3C122.1,971.6,124,978.3,122.2,984.5z"/>
	<path id="path404" class="st7" d="M463.8,981.4l6.7-0.7c1.8,6-1.6,11.1-5.7,15.2C459.7,991.8,461.7,986.3,463.8,981.4z"/>
	<path id="path406" class="st7" d="M844.5,1171.8c2.1-7.6,4.1-15,6.2-22.6c11.1,1.1,19.8,9,24.9,18.4c7.1,13.6,14.8,26.7,22.4,40.1
		c5.3,8.6,2.8,20-3.9,27.1c-6.5,7.8-18,6.2-26.7,4.8c-17.3-3-31.1-15.9-37.8-31.6c-5.1-7.8,2.5-15.7,5.7-22.6
		c6,21,24.4,37.8,46.6,40.1c0.7-1.4,2.1-4.4,2.8-6c-8.1-13.8-15.5-28.1-23.7-41.7C857.9,1172.1,850.6,1171.6,844.5,1171.8z"/>
	<g id="g410">
		<path id="path408" class="st7" d="M-254.1,1167c5.1-2.1,9.7-6.2,15-6.7c6.2,4.6,11.3,12.2,8.6,20.3c-4.4,11.8-11.1,22.4-15.7,33.9
			c6.9,6.9,11.5,15.5,15.2,24.7c9.5-15,15.7-31.8,24-47.2c7.6-1.6,15.2-3.5,22.9-5.3c-12.5,24.7-24,49.8-36.6,74.3
			c-7.4,2.8-15.2,3.5-22.9,5.7c3-14.1,0.5-29-8.8-40.3c-2.5,5.1-4.6,10.6-7.8,15.5c-7.1,2.8-15,3.7-22.4,5.3c3-12.5,4.6-25.1,0-37.3
			c6.2-3.4,13.2-5.1,20.3-4.8c4.4-9,9.2-17.8,13.1-27C-246.3,1173.2-251.6,1170.2-254.1,1167z M-272.3,1208.3
			c1.2,3.9,2.3,7.6,3.5,11.5c1.2-2.8,2.5-5.5,3.9-8.3C-267.3,1210.3-269.8,1209.2-272.3,1208.3z"/>
	</g>
	<path id="path412" class="st7" d="M772.4,1196.7c11.1-6,21.4-13.1,32.7-18.7c0.6,5.9,0.3,11.8-0.9,17.6
		c-7.6,4.4-15.2,8.5-22.9,12.5c0.7,2.5-2.3,9.4,1.6,8.8c3.7-3.5,6.9-7.6,11.8-9.5c9.7-5.3,22.1,1.2,26.7,10.6
		c4.6,9.2,9.2,18.4,13.4,27.9c3.5,7.8-0.7,17.1-6.9,22.4c-0.7-0.2-1.8-0.5-2.5-0.7c-6.9-13.6-12.7-27.4-19.8-40.8
		c-1.8-4.6-7.4-2.1-10.8-2.3c2.5,6,6.9,11.3,9.5,17.3c1.6,14.1,0.5,29-7.6,41.2c-12.2,0-26.3-3-32.9-14.1
		c-7.8-11.8-4.4-26.3-6.5-39.4c-2.8-4.6-8.3-5.7-13.1-6.4c2.3-6,4.4-12,6.2-18c5.7-0.2,12,2.3,13.8,8.1c3.9,11.1-1.4,23.7,4.8,34.3
		c4.8,11.1,17.5,15,28.8,15c-5.7-8.7-12.1-16.9-19.1-24.4C768.3,1226.7,767.3,1210.1,772.4,1196.7z"/>
	<path id="path414" class="st7" d="M-183.1,1203.6c6-2.5,12-5.3,18.2-7.6c2.5,4.4,5.5,9.4,3,14.5c-4.6,10.6-17.1,15-21.4,25.8
		c-6.2,11.1-1.1,24.9,7.8,32.7c6-16.6,0.7-36.9,13.8-50.5c6-5.7,14.5-14.1,23.5-9.7c9.7,3,19.4,6,29.3,8.8
		c-4.2,4.2-8.1,10.6-14.5,11.1c-8.1-1.8-15.7-4.8-23.5-7.6c-2.5,2.3-5.1,4.8-7.6,7.1c10.2-0.7,23.3,1.4,27.4,12.2
		c5.5,14.1-5.1,27.1-8.8,40.3c-2.5,11.3-14.8,17.5-25.4,14.5c6.5-15.2,12-30.9,18.7-46.1c-2.1-2.8-4.8-5-7.8-6.7
		c-2.1,6.5-2.5,13.8-6.2,19.6c-8.8,10.4-20.5,17.8-33.6,21.4c-9.2-8.8-16.6-21.7-12.7-34.6c3.2-12.9,15.4-20.3,23.5-30.2
		C-176.7,1213.6-180.8,1208-183.1,1203.6z"/>
	<path id="path416" class="st7" d="M-63.3,1217.5c11.3-8.6,24-17.3,38.7-17.3c15.2,2.1,25.8,14.8,34.3,26.5
		c-4.8,3.5-9.7,7.1-14.3,11.1c-5.1-18.7-24.9-32.7-44.3-30.2c-0.7,6.2,4.4,10.8,8.8,14.3c4.8,4.1,10.6,0,15.4-1.8
		c-6.2,4.4-12.5,10.4-20.5,9.7C-52.4,1228.3-58,1222.8-63.3,1217.5z"/>
	<g id="g420">
		<path id="path418" class="st7" d="M591.7,1213.6c6.9-5.6,16.6-6.1,24-1.2c-5.7,10.6-7.6,28.3-22.4,29.5
			c-5.3,0.7-16.1-4.2-11.8-10.8C584.8,1225.3,587.6,1218.9,591.7,1213.6z M586.4,1226.7c5.5,6.9,21.9,6.5,21-4.6
			C602.1,1214.9,590.6,1220.5,586.4,1226.7L586.4,1226.7z"/>
	</g>
	<path id="path422" class="st7" d="M716.2,1226.5c4.2-6.5,8.1-12.9,12.7-19.1c8.1,23.7,16.1,47.5,24.4,71.2c1.2,6,7.8,5.5,12.5,5.3
		c-2.8,5.5-4.8,11.8-8.6,16.8c-6.9-0.2-16.6-1.8-18.7-9.9C730.9,1269.6,723.5,1248.1,716.2,1226.5z"/>
	<path id="path424" class="st7" d="M683.9,1238c4.2-6.4,8.1-13.1,12.7-19.1c8.1,23.7,16.1,47.7,24.6,71.4c1.2,5.7,7.8,5.1,12.2,5.1
		c-2.5,5.3-5.1,10.6-7.4,16.1c-7.4,0.5-17.3-1.1-20-9.2C698.6,1280.8,691.2,1259.4,683.9,1238z"/>
	<path id="path426" class="st7" d="M-112.6,1235.4c5.7-4.4,11.5-8.3,17.1-12.7c12,3.2,23.7,6.7,35.7,10.1
		c-7.8,26.5-15.2,53-23.1,79.5c-7.1,3-14.3,6-21.4,8.8c7.4-25.6,14.5-51.2,22.1-76.7C-92.3,1241.2-102.7,1238.9-112.6,1235.4z"/>
	<path id="path428" class="st7" d="M636.6,1239.8c11.8-3.7,23.7-6.9,35.5-10.1c7.4,26.7,15.2,53,22.6,79.7
		c-4.4,6.2-8.8,12.7-13.6,18.7c-7.1-25.8-14.3-51.4-22.1-77c-10.1,3.5-20.7,6-30.9,9.5C631.2,1253.4,633.9,1246.7,636.6,1239.8z"/>
	<path id="path430" class="st7" d="M-56.1,1248.6c4.8-4.8,9.9-9,15-13.4c12.2,3.7,24.7,6.2,37.1,9.4c-6.7,26.5-13.4,52.8-19.8,79.3
		c-8.6,3-16.6,8.3-25.6,9.9c-8.3-3.5-13.4-11.3-15.2-19.6c4.8-3,9.7-5.7,14.5-9c-1.2,6.9,0.7,15,8.3,16.6
		c5.3-21.4,10.1-42.8,16.1-64.1c-9.7-3.5-19.8-5.1-29.7-7.8C-55.6,1249.5-55.8,1249-56.1,1248.6z"/>
	<path id="path432" class="st7" d="M234.5,1241.7c2.1,5.3,4.6,11.8,11.1,12.9c13.6,0.9,27.1,0,40.6,0.2c-3,5.1-5.7,9.9-8.8,15
		c-15-0.2-30,0.7-44.7-0.5c-9-0.9-10.8-11.1-9.2-18.2C227.1,1248.1,231,1244.9,234.5,1241.7z"/>
	<path id="path434" class="st7" d="M585.9,1252.8c13.1-2.5,25.8-6,38.9-7.6c5.3,27,11.3,53.7,17.1,80.4c-4.8,6-9.9,12-14.7,18.2
		c-5.5-26.3-11.1-52.8-16.8-79c-13.8,3.2-27.9,5.5-41.4,9.5c2.9,6.8,7.3,12.8,12.9,17.8c3.2-8.1,5.1-17.8,13.4-22.6
		c4.7,1.1,9.3,2.8,13.6,5.1c-3.9,5.7-7.6,11.3-11.3,17.3c-2.3-1.6-4.6-3-6.7-4.6c-2.8,1.8-5.5,3.8-8.1,6
		c5.7,6.9,12.7,14.1,14.3,23.3c2.1,13.1-2.3,26.3-9.9,37.1c-0.9-6.5,3.7-12.7,0.9-18.7c-4.8-15-21.2-22.4-25.8-37.3
		c-3.2-13.6,2.3-27.7,9.9-38.5C575.1,1253.9,581.3,1254.1,585.9,1252.8z"/>
	<path id="path436" class="st7" d="M1.3,1264.9c4.2-5.1,8.3-9.9,12.9-14.5c3.7,4.6,9.2,9,9,15.4c0.5,7.8-7.4,12.4-10.1,19.1
		c-6.7,16.6-2.5,35.3,7.1,49.8c3.9,0.7,3.9-4.4,5.1-6.9c4.4-14.3-4.8-29.3,0.7-43.3c4.1-10.8,10.8-21.9,21.2-27.4
		c9.9,0.2,19.6,3,29.5,4.1c-3.9,27.1-8.1,54.4-12.2,81.8c-6.2,3.7-12.7,7.6-19.1,11.1c4.2-26.3,7.8-52.8,12.2-79.3
		c-6.7-0.9-13.4-2.1-20.3-3c0.7,12,3.5,23.7,3.2,35.7c-0.9,18.2-14.3,33.6-30.2,41.2c-9.4-10.8-17.5-24.2-15.9-39.2
		c-0.2-13.8,16.6-20.7,15.7-34.8C10.5,1269.3,4.7,1267.5,1.3,1264.9z"/>
	<path id="path438" class="st7" d="M532.9,1274.6c5.3-6,10.8-11.7,16.6-17.3c2.5,27.4,6.5,54.9,9.9,82.3
		c-5.5,5.5-10.8,11.3-16.6,16.6c-3.5-6-6.5-12.5-11.1-17.5c-4.8-5.3-11.8-8.3-18.2-10.8c0.7,5.7,1.6,11.5,2.5,17.3
		c-5.5,5.7-10.8,11.3-16.6,16.8c-2.5-7.1-5.1-14.3-9.5-20.5c-3.5-4.8-8.8-8.3-11.3-13.8c2.5,0.9,5.1,2.1,7.6,3
		c1.6,1.4,3.5,3,5.1,4.4c-0.2-2.5-0.7-5.1-0.9-7.4c-2.8-0.9-5.5-2.1-8.3-3.2c3.7-3.2,7.6-6.2,11.3-9.2c-1.4-10.1-2.1-20.5-3.9-30.6
		c-1.2-4.4-6.2-3.5-9.5-4.6c2.3-4.8,4.8-9.7,7.4-14.5c7.1,1.4,16.6,2.8,18.9,11.1c3.2,12.5,3.2,25.6,5.5,38.3
		c9.9,2.5,19.2,7,27.4,13.1C537.3,1309.9,535.5,1292.4,532.9,1274.6z"/>
	<path id="path440" class="st7" d="M78.2,1293.5c4.6-12.7,15.2-22.4,26.5-29c5.3,2.3,9.2,6.5,12.9,10.8c-4.4,3.5-7.8,9-13.1,10.8
		c-1.6-6.2-12-12.4-15.2-4.4c0.9,12.2,14.5,23.7,26.7,17.3c-9.4,6.5-21,12.4-24.2,24.4c4.4,13.1,16.4,21.4,28.3,26.7
		c2.5-22.9,5.3-45.9,7.1-68.9c6.5-4.8,13.1-9,20-13.4c-3,24.7-5.3,49.3-7.8,74.3c-9.2,7.6-20.3,13.1-30.4,19.6
		c-8.6-0.7-15.9-6-22.6-11.1c-7.1-5.5-12.9-14.5-10.4-23.7c2.8-7.8,10.6-12,17.7-15.4C85.6,1309.2,76.9,1303.2,78.2,1293.5z"/>
	<path id="path442" class="st7" d="M431.8,1275.1c11.8-1.4,23.3-2.5,35-3.7c2.5,27.4,5.7,54.9,8.6,82.3
		c-5.5,5.5-10.8,11.1-16.6,16.1c-2.5-26.5-5.7-53-8.1-79.5c-10.6,1.6-21.4,2.3-32,3.5C423.2,1287.8,425.8,1279.5,431.8,1275.1z"/>
	<path id="path444" class="st7" d="M165.6,1275.6c12.4,0.5,24.9,1.1,37.1,2.3c-1.8,26.5-3.9,53.2-5.5,79.7c0.2,3-2.8,4.1-4.6,5.7
		c-4.8,3.5-9.9,6.7-14.8,10.4c2.5-26.5,3.5-53.2,6-79.7c-10.8-1.6-21.7-1.8-32.5-2.5C156.1,1286.4,161,1281.1,165.6,1275.6z"/>
	<path id="path446" class="st7" d="M368.9,1279.2c17.5-0.5,34.8-2.5,52.3-3.2c-3.7,6.2-6.5,13.1-11.8,18.2
		c-4.8,0.7-9.7,0.7-14.5,0.9c10.4,11.5,19.4,26,18,42.4c0.2,15.7-9.7,30-22.6,38.2c-8.3,1.4-15.2-5.1-20.8-10.6
		c2.3-6.5,7.4-11.3,11.3-16.8c2.5,6.9,7.4,15.7,16.4,13.8c8.8-0.5,9.9-11.1,8.1-17.7c-5.3-22.9-24-44-47.9-47.2
		C361.5,1291.2,365,1285.2,368.9,1279.2z"/>
	<g id="g450">
		<path id="path448" class="st7" d="M218.1,1277.8c21.7,0.5,43.1,1.2,64.8,1.8c-1.8,27.7-1.2,55.3-3.5,83c-6,5.1-12.9,9-18.9,13.8
			c-11.5-24.3-15.2-52.5-33.9-73.1c-4.1,12.9-6,27.9,0.5,40.6c2.5,6.2,6.9,11.8,13.4,14.3c-5.3,5.7-10.8,11.3-16.1,16.8
			c-10.6-11.8-19.1-27.9-15-44.3c2.3-14.5,11.3-26.5,22.4-35.7l-25.1-0.7C210.5,1288.9,214.2,1283.4,218.1,1277.8z M242.6,1295.4
			c7.1,12.2,13.6,24.9,19.8,37.6c1.2-12.2,0.5-24.4,1.9-36.4C257,1296.3,249.9,1296.1,242.6,1295.4L242.6,1295.4z"/>
	</g>
	<path id="path452" class="st7" d="M311,1279c6.7-4.2,12.2,3.9,16.6,7.8c-3.9,4.4-8.1,8.6-12.2,12.7c-1.4-6.7-7.6-9.7-13.8-7.8
		c-4.2,5.1,1.4,11.1,4.6,15c5.3,6.5,14.7,7.6,22.1,3.7c-8.8,6.9-21.9,13.8-21.9,26.5c4.1,12.9,17.7,19.6,29.5,24.4
		c0.9-23.3,1.2-46.6,2.5-69.8c6.2-4.8,12.4-9.4,18.7-14.1c-1.4,25.1-1.8,50.5-2.5,75.6c-9.2,6.2-18,13.1-27.1,19.4
		c-3.5,2.8-7.8,0-11.5-0.9c-10.4-4.4-22.1-10.8-25.3-22.6c-3-11.5,7.6-20.3,17.1-24c-8.6-1.8-18.7-7.6-17.1-17.7
		C292.8,1295.6,301.8,1286.4,311,1279z"/>
</g>
</svg>
