<svg id="Layer_1" data-name="Layer 1" xmlns="http://www.w3.org/2000/svg" viewBox="0 0 6926.93 1331.46"><defs><style>.cls-1,.cls-4{fill:none;}.cls-2{fill:#0008bf;}.cls-3,.cls-4,.cls-5{isolation:isolate;font-family:ImprintMT-Shadow, Imprint MT Shadow;}.cls-3,.cls-4{font-size:369.65px;}.cls-4{stroke:#000;stroke-miterlimit:10;stroke-width:5px;}.cls-5{font-size:740.15px;}</style></defs><line class="cls-1" x1="1600.3" y1="121.88" x2="1600.3" y2="1142.88"/><path class="cls-2" d="M1582,119v979.6c0,13.2-.2,26.4,0,39.7v1.7c0,9.4,8.3,18.4,18,18s18-7.9,18-18V160.4c0-13.2.2-26.4,0-39.7V119c0-9.4-8.3-18.4-18-18S1582,108.9,1582,119Z" transform="translate(0.2 2.88)"/><text class="cls-3" transform="translate(1680.98 480.79) scale(1.06 1)">Graduate Employment Survey</text><text class="cls-4" transform="translate(1680.98 480.79) scale(1.06 1)">Graduate Employment Survey</text><text class="cls-5" transform="translate(927.22 1147.15)">U</text><text class="cls-5" transform="translate(927.2 625.05)">R</text><line class="cls-1" x1="6915.3" y1="639.88" x2="1665.3" y2="639.88"/><path class="cls-2" d="M6915.1,625H1878.2c-68,0-136.2-1.1-204.2,0h-8.9c-15.4,0-15.5,24,0,24H6702c68,0,136.2,1.1,204.2,0h8.9c15.5,0,15.5-24,0-24Z" transform="translate(0.2 2.88)"/><text class="cls-3" transform="translate(1696.65 1025.43) scale(1.06 1)">Ramkhamhaeng University</text><text class="cls-4" transform="translate(1696.65 1025.43) scale(1.06 1)">Ramkhamhaeng University</text><g id="g454"><g id="g360"><path id="path358" d="M416.3,45.7c-.2-16.5,5-33.1,15.7-45.7,7.3,7.1,11.3,16.5,15.8,25.2l.2,1c.6,5.8,1.6,11.5,1.9,17.4,15.5,7.3,22.4,25,21.6,41.3,11.5,5.2,22.4,11.9,31,21.1,4,4.4,9.4,9,9.2,15.6.3,15.7-4.7,30.8-10,45.3a11.35,11.35,0,0,1,4.8,9.5c.2,13.2-1.9,27.6-10.3,38.4-5,6.6-5.5,15.3-9.5,22.4-1.9,4.5-6.1,8.2-6,13.4-.2,8.1,0,16.6,3.7,24,1.5,2.9,3.9,6.3,7.6,5.8,19.2-1.6,38.6,0,57.8,2.6,18.7,2.9,37.8,8.4,52.9,20,19.2,15,37.8,33.4,45,57.3,5.8,10.8,13.7,20.3,20.3,30.8,3.7,6.3,2.6,14,1.8,21a109,109,0,0,1,12.9,83.4c-2.1,11.3-9,20.8-15,30.3-.2.2-.3.6-.5.8-5,4.3-9.7,9.2-15,13.1-3.9,2.7-4.2,8.4-8.1,11.3-4.4,3.7-8.9,7.8-9,13.9,14.4.2,29.2,3.1,41.6,10.7,4.8,2.9,9,6.8,13.5,10.2,4.4-5.2,9-12.1,16.6-11.9,2.3-.7,3.6-2.9,5.5-4.2a35.39,35.39,0,0,1,3.4,1.6c4.5-3.7,10.5-4,16.1-3.5,5.5-.8,11-1.8,16.6-2.7-1,3.2-2.1,6.5-2.8,9.7,4.4.6,8.2-1.3,11.5-4l4.2.8c8.1-7.3,20.2-6.6,30.5-6.8-4.8,4.8-10.2,9.8-17.3,11-3.1,0-2.8,3.2-3.4,5.3,5.8-.2,11.6-1.3,16.6-4.7a34,34,0,0,1,11-5.3c4.7-1.1,7.1-6.3,11.8-7.6,8.2-3.2,17.3-2.1,26-1.5-5,11.6-19.8,7.6-28.2,14.8-.3,1.8-.6,3.7-1,5.5,1.5,1,3.1,1.8,4.7,2.7l3.9-2.6c1.8,1.5,3.7,2.6,5,4.5.5,3.7.5,7.4,1,11.3-4.8.8-10.6.6-13.7,5.3-11.9,16.8-26.3,33.9-46.5,41-5.6,1.1-11.9,4-12.3,10.7v1.1l-.5,1c-2.6,3.9-2.4,8.7-3.1,13.1-1,9.7-.8,20.5,5.2,28.7,2.7,3.9,7.6,5.2,11.1,8.1,2.9,4.2,5,8.9,8.9,12.3,5.2,5.3,9.7,13.9,18.4,13.2,22.8-.2,45.5,0,68.3,0v62.5c-3.2.6-6.9.3-9.4,3.1a93,93,0,0,0-.3,11.8c-6.8,2.6-11.7,8.1-17,12.8-.2,4.4-.2,8.7-1.6,13.1-3.5,7.3-10,12.6-15.5,18.2-.5,5.2-.2,10.3-.2,15.5h-11q-.3,40.65,0,81.3c27.4-11.5,55.2-22.6,80.8-37.6,18.2,26.1,35,53.2,52.8,79.7,8.6,13.2,17.8,26.1,25.7,39.7-1,.5-2.7,1.5-3.7,1.9-5.2,4.4-11.5,6.9-17.4,10-92.5,47.4-191.9,80.8-293.9,101.2-72.6,13.4-146.7,16.5-220.3,12.7a1024.12,1024.12,0,0,1-129.5-15.7c-26.3-5.2-52.6-9.8-78.4-16.8-67.5-17.6-133.3-41.8-195.1-74.1-8.1-3.7-15.5-9-23.9-12.4.2-1.5.5-2.9.6-4.5,26.6-38.2,52.5-77,78.8-115.4,18.2,8.9,36.3,18.4,55.5,24.8,9.5,1.9,19.4.5,29,.8l-.2-1.5c-.7-24-.7-48.2,0-72.3l.2-1.5c-3.9,0-7.6,0-11.5-.2.2-5,.2-10,.2-15-8.9-6-16.3-14.2-19.8-24.4-2.7-7.9-6.9-15.5-13.7-20.8V797.8H105.3c.3-20.8-.5-41.6.5-62.3,49.4.2,98.9-.5,148.3.3l1.9.5c-6.8-19.7-19-37.6-22.6-58.4-1.5-7.6-7.9-12.6-11-19.4a76.27,76.27,0,0,1,5.8-64.4c5.2-11,15.3-19.5,27.3-21.9,29.2-7.3,58.8,2.4,86.8,10.3,3.7-7.6,6.8-15.7,12.7-21.6,3.4-3.5,7.6-6.6,9.4-11.3a44.94,44.94,0,0,0,3.2-19.2c.2-5-5.7-7.1-7.4-11.3-.8-5.2.3-11-2.4-15.6-2.9-5.3-4.8-11.1-7.9-16.3l-1.1-.3c-9,4.7-17.3,11.1-26,16.5-6.3,3.2-8.9,10.2-14.2,14.5-3.2,5.2-3.5,11.6-6.8,16.8a4.74,4.74,0,0,1-1,1c-4.8,3.5-9.5,7.4-15.3,9.5-9.2,3.7-19.2,4.4-28.9,6.3-6,.8-13.6,0-17-5.7-2.1-4.8-2.4-10.2-4.5-15-2.2-5-6.9-8.2-9.7-12.9-3.7-8.1-3.1-17.4-1-26,1.9-9.5,7.6-17.9,7.6-27.9-.2-2.1-.3-5.2-2.9-5.8-4-1.8-8.1-3.5-11.9-5.6-.2-.2-.3-.5-.5-.5-1.6-2.6-3.2-5-5-7.4,11.8-15.2,22.9-30.8,34.2-46.3a109.92,109.92,0,0,1,14.2-47.1l1.8,2.7c-.3-1-1-2.6-1.3-3.5,11-15.6,24.2-30,39.7-41.3,12.4-9,27.6-13.1,42.6-15.5,13.4-1.8,28.6-3.5,38.1-13.9l.8-.8c7.3-5.2,7.4-14.7,8.4-22.8.2-8.7,1.3-17.6-1.5-26-1.6-5.6-8.7-3.2-12.4-6.3-6.5-5.3-9.7-13.2-12.3-21-3.1-8.7-4.4-18.4-1.3-27.3,2.9-7.8-.7-15.8-1.1-23.7-.8-11.3-1.5-23.1,1.6-34,1.8-6.6,7.6-11,12.1-15.7,6.8-6.6,14.8-11.3,22.4-16.8,1.8-8.4,1.3-17.3,4.7-25.3C405,54.9,410.7,50,416.3,45.7Zm6.2-8.3q3.15-2.25,6.3-4.2c.8.8,2.6,2.3,3.4,3.1l4.4-3.2c1,1,2.8,2.9,3.7,3.9,1-.6,2.7-1.8,3.7-2.4-2.3-8.7-4.8-17.9-11.5-24.4C426,17.8,423.1,27.6,422.5,37.4Zm-7.1,16c-6.8,4.8-9.2,13.7-9,21.8,1.5-1.4,2.9-3.1,4.4-4.7,1.9,1,3.9,1.8,5.8,2.6.6-1.1,2.1-3.2,2.8-4.4l3.2,3.2c1.9-1.3,3.7-2.7,5.6-4,.6,1,1.8,3.1,2.3,4,1.1-1.3,2.4-2.4,3.5-3.7l5.8,2.9c2.4-2.2,5.8-4,7.3.3l5.8-3.4c1.1,1.8,2.3,3.4,3.5,5.2,1.6-1.3,3.2-2.6,4.7-3.9,1.5,1.4,2.9,2.9,4.4,4.2-1.3-7.9-4.7-16-11.3-20.7-11.6-7.9-27.9-7.3-38.8.6Zm-30,48.1c1.3.8,2.6,1.4,3.9,2.3l3.7-4.2c1.8.2,3.5.3,5.3.6.8-1.8,1.6-3.7,2.6-5.5,1,.7,2.9,2.1,3.7,2.8l2.9-4.4c1.3.7,3.7,2.1,5,2.7,1.5-1.6,3.1-3.1,4.5-4.5,1.8,1.1,3.5,2.4,5.2,3.6.5-1,1.5-3.1,1.8-4,1.9.8,4,1.8,6,2.6a46.81,46.81,0,0,1,3.7-2.9c1,.5,3.2,1.1,4.2,1.6,2.2-2.3,4.5-2.3,6.8.2,1-.6,2.9-1.8,3.9-2.4,3.2,1.5,6.6,3.2,9.5.3,1.1,1.4,2.1,2.9,3.2,4.2a53.51,53.51,0,0,1,5.5-1.1c3.6,3,8.6,3.2,12.8,5.3-1.8-4.7-7.1-6.3-11.3-8.1-13.4-4.2-27.6-5.8-41.5-3.7C412.3,88.4,397.3,92.5,385.4,101.5Zm-18.1,23.4c.3,1.1,1,3.4,1.3,4.5,1.8-.2,2.7-1.9,4.2-2.7,4-3.5,10.3-1,13.9-5.7h4.2c6-3.9,13.4-3.7,20-6.1,2.1-.8,4.2-.6,6.5-1a9.45,9.45,0,0,1,6.8-.8c.8-.5,2.3-1.3,2.9-1.8,4.7.3,9.4-.5,13.9-.2a8.89,8.89,0,0,0,2.3-6.4c-26.5,1.5-52.8,7.6-76,20.2Zm86.2-20.5a26.93,26.93,0,0,0,.3,4c2.6-.8,5-1.6,7.6-2.6a19.4,19.4,0,0,0-7.9-1.4Zm15.2,1.3c.2,3.6,2.9,6,5,8.6,4.7-1.8,9.4,1.4,14,2.1l16.1,8.2c1.5-2.9-2.4-4.2-4-5.8a100,100,0,0,0-31.1-13.1ZM409.2,123c-2.7,1-7.1.5-7.1,4.4,13.4-3.6,27.3-4.8,41.1-6.8l-1.1-1.8C431.2,118.6,420.2,120.9,409.2,123Zm61-2.2c2.9,2.2,6.6,2.6,10,3.6,6.3,1.3,12.3,4,17.9,6.9a21,21,0,0,1-.6-2.4,42.31,42.31,0,0,0-27.3-8.1Zm-81,8.7c2.4,13.6,2.4,28.9-6.6,40-2.1,1.8,1.6,5,3.1,2.9,11.6-11.8,12.4-29.8,9.8-45.2a53.25,53.25,0,0,0-6.3,2.3Zm64.1-1.2c.5,1.4,1,2.7,1.6,4,1.3-1,2.7-1.9,4-3.1a17.74,17.74,0,0,0-5.6-.9Zm14.7.5a33.74,33.74,0,0,0-.6,3.6c9.7.2,18.4,5,27.9,5.5-7.6-6.1-18-7.3-27.3-9.1Zm-60,4.9c-1.9.8-6.1,1.1-4.2,4.7,5.6-1.6,11.5-3.1,17.3-3.1,7.4-2.7,15.5-2.7,23.2-3.2l1.8-2.9a143.47,143.47,0,0,0-38.1,4.5Zm-29.9,0c1.3,11.4.6,23.7-6.8,33.2,1.9-.3,4.7.5,5.7-1.6a35.75,35.75,0,0,0,6.6-22.6c-.4-3.8.1-9.7-5.5-9ZM504,135.6c-1.8,2.4-2.8,5-.5,7.4,1.1-1.1,2.3-2.4,3.4-3.6-.2-.8-.5-2.6-.6-3.5-.7,0-1.9-.3-2.3-.3Zm-137.5,4c.2,5.5.2,11,2.1,16.1,4-5,3.4-11.5,2.6-17.4-1.7.5-3.3.8-4.7,1.3Zm41.5,5.3c-1.8,1-4.7,1.4-5,4-2.1,11.3-5.6,22.9-13.9,31.1,1.9,3.6,3.1,7.6-.8,10.3-2.9-1.8-7.1-3.2-7.3-7.4a8.48,8.48,0,0,0-9.1-7.7c-.2,0-.5.1-.7.1-5.8,6.9-4.5,16.9-1.8,25,2.3,6.1,4.4,13.1,10,17.1,3.1,2.4,7.1,2.6,10.8,3.1,1.5,13.1,9.7,24.9,20.8,31.8-.5,1-1.5,3.1-1.9,4a89.92,89.92,0,0,1-10.2-4c-4.2,9.9-4.2,21-8.9,30.7,14,9.9,32,11.5,48.4,11.5,15.2-1.3,31.1-2.9,44.7-10.8-6.1-7.4-7.1-17.3-8.9-26.3-7.8,5-16.5,9.7-26,8.2-8.7-1.3-18.5-4.7-22.8-13.1.8-.8,2.3-2.6,3.1-3.6,6.6,6.9,16.3,11.9,26,10.2,10.5-2.6,19.2-10.2,24.7-19.4,9.7-16.1,11-35.5,10.6-53.9a18,18,0,0,0-15.8-1.1c-4.7-2.1-10-.2-14.2-3.1.6-5.6,2.8-11.8,8.1-14.5,7.3-4.2,16-1.8,23.7-.5-.2-6.9-.5-13.7-.6-20.7-8.4-4-17.8-5.8-26.8-7.6-3.2.6-6.1,2.9-9.4,2.9-3.7-.8-7.4-2.4-11.3-1.9-12.2.9-24.3,1.6-35.5,5.6Zm90,28.2c-1.9,8.4-5.6,18.6-.2,26.1.8-3.9,2.1-7.7,3.1-11.6,1.5-5,0-10.3-.5-15.3a22.5,22.5,0,0,1-2.4.8Zm-14.7.7a45.92,45.92,0,0,0,5.5,5.3c.8-1.1,1.8-2.1,2.6-3.2-2.8-.8-5.5-1.6-8.1-2.1Zm-.5,118.1c3.7,3.2,8.2,6.8,7.9,12.3-1.3,4.5-7.3,5.5-11.1,3.9-4-2.6-4.2-7.9-4.4-12.3-1.8.8-3.5,1.5-5.3,2.1,7.7,5,5.8,18.9-4,19.7-8.5-1.1-9.7-11.6-6-17.9a86,86,0,0,1-13.4,1.6c8.4,4.4,12.8,15,8.4,23.7-4.2,9.4-19,9.8-24.5,1.3-5-8.5-1.3-19.2,6.5-24.7-19,.7-37.8-4.5-55-11.9.5,3.1,2.6,5.5,4.7,7.8-2.7,2.6-5.5,5.3-8.9,7.1-4,.3-5.8-3.7-7.3-6.8-3.1-.6-6.3-1-9,1,10.7,11.9,25.2,19.4,39.4,26.3,14.9,6.1,29.7,13.7,41.3,25,10.8-17.6,30.5-26.6,48.9-34.4,12.3-6.1,23.6-15.8,29.5-28.4-5-.3-9.9-.6-14.9-.8.6,5.5-.2,13.2-7.4,13.7l-6-6a91,91,0,0,0,4-9c-5.5-.1-9,4.5-13.4,6.7Zm48.7-3.2c-18.7,34.4-40.5,67.5-67.6,95.7-13.6,14-28.6,26.8-45.8,36,7.1,0,11.1,6.1,15.8,10.6,31.3-22,55.7-52.3,76.5-84,10.7-16.8,20.8-34,28.9-52.5-4.8,5.5-7.4,12.3-11.1,18.4-17.9,30.7-37.6,60.7-62.9,85.7a114.65,114.65,0,0,1-21.5,17.1c-2.6,1.3-6.8,1.6-7.8-1.9,1.1-3.2,4.2-5.2,6.8-7.1,17.1-12.9,31.5-28.9,44.7-45.7a515.68,515.68,0,0,0,47.3-73.1,31.84,31.84,0,0,0-3.3.8Zm-1.9,46.6c-14.4,31.8-34.7,60.3-56,87.8-28.2,33.7-65.5,58.6-104.6,77.8-5.8,5.3-3.4,14.4-.8,20.8,17.2-4.2,32.8-12.9,47.3-22.7,19.5-15.3,35.8-34.2,51-53.7,7.3,5.6,16.6,6,25.3,7.8,3.2,0,2.9,3.9,4,5.8-9.4,1.6-18.9-.6-28.1-2.4-23.4,32.1-55.2,59.1-93,72.6A85.62,85.62,0,0,1,370,552c9.8-.3,19.5,2.4,29.4,1.9,8.2-7.9,20.2-10.3,31.1-8.6,6.9.5,12.3,5.5,18.7,7.4,9.2,3.1,20.2,3.2,28.1-2.8,7.3-5.2,17.3-8.2,25.8-4.3,4.4,2.6,7.9,6.3,12.1,9,12.9-1,25.8-1.5,38.4-5.3-2.3-11.8-1.9-23.7-1.1-35.5,2.4-27,8.4-53.6,15.5-79.7,4.7-15.5,8.9-31.3,12.8-47,1.1-6.5,1-13.1,4.2-18.9a130.73,130.73,0,0,1,12.3,6.5,63.17,63.17,0,0,1,3.4-15.5,58.34,58.34,0,0,1,14.5,7.4c.3-6.3,2.8-12.3,5.7-17.9a69.14,69.14,0,0,1,11.9,9.7,38.65,38.65,0,0,1,3.4-11.1c-15.3-22.8-36.1-43.7-62.9-52.1-10.5,11.6-17.1,26-22.9,40.5-10.3,27.6-15.5,57-17.4,86.2.3,22.6,5,45.5,15.5,65.8,2.1,3.7,2.9,9-1.8,11.3-6.6-7.6-17.6-5.3-25-.5-8.7,6-19,10.5-29.9,9.9-11.1,0-20.2-7.8-31-9.4-2.4-.6-6.9-.8-6.9-4.4-.3-2.9,3.7-2.6,5.5-4,14.5,6.5,31,15,47,8.7,11-6.6,21.9-15.6,35.7-14a11.66,11.66,0,0,0-15-2.3c-6.6,4.7-12.9,10.5-21,12.6-11.5,4.2-22.9-1.3-33.9-4.5-4.5-1.5-11.5-2.4-10.8-8.7,3.9-1,8.1-1,11.6,1.3a45.18,45.18,0,0,0,28.6,5.3c12.6-1.6,19.8-16.1,33.2-15-1-5.5-4.8-10.2-4-16-5.2-2.3-10.2.6-15.2,1.6a7.43,7.43,0,0,1-2.4-5c-1.5.3-2.8.6-4.2,1a8.52,8.52,0,0,0-.3,2.3c1.8.8,3.4,1.6,5.2,2.6-1.4,1.8-1.9,4.4-4.2,5.5-8.1,3.9-17.4,3.9-26.3,3.5-1.6-2.1-4-6.1,0-7.3,7.4.3,15.2,1.3,22.1-2.1-1.3-1.9-2.6-3.9-3.7-5.8,4.2-2.6,6.9-6.8,10.5-9.8,4.8-1.6,10-3.1,14.5-5.6a289.54,289.54,0,0,1,6.3-65c1-4.7,3.1-9.4,2.4-14.4-18.1,27.9-37.3,55-56.8,82-1.5,1.9-3.9,2.9-5.8,4.2-.8-1.6-1.6-3.4-2.4-5,17.9-20,32.9-42.6,47.1-65.2a848,848,0,0,0,45.2-82.6c-2.8-.3-5.5-.8-8.1-1.1-9.9,13.3-17.3,28.5-25.1,43.5ZM304.8,314A118.64,118.64,0,0,0,269,348.4c2.6-.5,5-1,7.6-1.5,1.3,7.1-1.3,14-1.8,21.1,5.2-6.3,13.4-7.9,20.8-10.5a91.3,91.3,0,0,1-1.6,17.3c5.5-2.9,11.6-4.5,17.6-6.3a139,139,0,0,1,2.1,15.6c4.4-2.2,9.4-2.6,14.2-2.2a22.12,22.12,0,0,1-8.1,18.7,51.49,51.49,0,0,0,1.6,5.6c27.1,5.3,54.5,8.7,81.8,13.1,20.5-9.5,38.2-24,54.2-39.9a402.39,402.39,0,0,0,55.4-70c-13.1,10-28.1,17.1-42.8,24.5a68.46,68.46,0,0,0-28.6,30.2c-6.1-13.1-19-21-31.8-26.8a204.88,204.88,0,0,1-58.7-36C335.2,303.2,318.9,305.8,304.8,314Zm132.8-2.4c-3.9,2.3-3.7,8.4-.8,11.4,4,3.7,12.4,1.6,12.6-4.5,1-6.4-6.8-9.6-11.8-6.9ZM264,362.8c1,.2,3.1.5,4.2.6.8-3.4,1.6-6.6,2.1-10A25.14,25.14,0,0,0,264,362.8Zm358.4-3.9c-.5,2.6-.8,5.2-1.1,7.7,2.9-1.5,5.8-2.9,8.7-4.5a14.34,14.34,0,0,0-7.6-3.2ZM283,370c1.5.8,2.9,1.8,4.4,2.8,1-2.9,1.8-5.6,2.6-8.6A24.39,24.39,0,0,0,283,370Zm318.6,18.1c-6,3.9-12.6,6.9-17.8,11.8.6.2,1.8.3,2.4.5,18.1-10.5,36.6-20.5,54.9-30.8a2.77,2.77,0,0,0,1.8-3.5c0-.1,0-.1-.1-.2-14.4,6.1-27.8,14.3-41.2,22.2Zm2.4-20.5a81.08,81.08,0,0,0-.5,8.6c2.5-1.2,4.9-2.5,7.3-3.9,1.1-3.4-4.5-3.2-6.8-4.7Zm-345.3,2.7c.3.5.8,1.6,1.1,2.1,17.6,5,34,14.5,46,28.7,2.1,2.9,5.3,4.2,8.6,5.3-9.9-21.2-33.8-31.9-55.7-36.1Zm41.6,9.5c2.4,1.8,4.8,3.4,7.3,5-.2-3.2-.2-6.5-.5-9.7-2.3,1.7-4.5,3.3-6.8,4.7ZM587.2,377a27.54,27.54,0,0,0-.3,8.1,19.52,19.52,0,0,0,8.7-5A31.44,31.44,0,0,0,587.2,377Zm49.7,4.2c4.5,3.1,5.8,8.4,5.8,13.5,2.4-1,4.7-2.1,6.9-3.2-4.4-3.4-7.4-8.1-6.9-13.7Zm-379-1.2c3.1,2.9,7.3,4.7,8.1,9.4,6.8-3.5,15.8,1.3,16,9.2,1.3-.5,3.9-1.3,5.2-1.8a22.58,22.58,0,0,0,7.9,2.4C284.5,390,271.9,382.1,257.9,380Zm165.7,72c-5.5,3.7-9.2,9-12.3,14.7,11.8-5.2,21.6-13.4,31.1-21.8,18.2-16.9,33.9-36.3,48.6-56.3a77,77,0,0,0,5.5-8.5c-21.1,27-46.9,49.9-72.9,71.9Zm192.5-61a17.45,17.45,0,0,1,7.3,14.4q3.9-2.4,7.8-4.5a14.51,14.51,0,0,1-6-14.5c-3.1,1.5-6,3.1-9.1,4.6Zm-301,.3c1.1,1.5,2.1,2.9,3.2,4.5,1.1-2.6,2.3-5,3.4-7.6-2,.9-4.3,2-6.6,3.1Zm287.6,36.8c-2.4,1.9-5.8,3.2-6.1,6.8,6-2.2,10.3-7.3,16-10,5.6-5.2,11.9-9.8,19.4-12.1,2.1-.5,3.4-2.6,5-3.9,4.7-4.8,12.1-4.5,17.1-8.7,2.8-2.3,8.2-1.6,8.7-5.8l-1.5-1c-21.1,8.6-39.9,21.8-58.6,34.7Zm-9-25.2c7.3.2,11.5,6.9,11,13.7,2.8-1.5,5.6-3.1,8.4-4.5-5.3-3.1-11-7.1-11.1-13.9-2.8,1.7-5.6,3.3-8.3,4.7Zm10.6,37.6c5.7,4.7,11.1,9.9,16.5,15a69.46,69.46,0,0,1,14.7-5.2c-14.2,11.9-20,31.1-19,49.2,12.9,1.3,23.4,10.2,36.2,12.3a37.1,37.1,0,0,0-.5,20.1c13.9-11.6,22.1-28.6,27.1-45.7,3.5-28.7-5-57.9-19.7-82.6-20.2,9.7-38.3,22.9-55.3,36.9Zm-21.4-29a41.05,41.05,0,0,0,9.2,14.7c1.3-1.3,2.4-2.6,3.5-3.9a62.54,62.54,0,0,1-6.5-6.1c-2.6-2.6-.3-6.6-.5-9.9-1.7,1.7-3.6,3.4-5.7,5.2Zm-334.2,9.4-19.4,28.6c.7,2.7,3.4,2.7,5.7,3.2,18.9,3.1,37.8,6.3,56.8,9.2,13.1-7.3,12.6-24.9,24.2-33.4,5-3.2,10.7-.2,14.7,3.2a15.53,15.53,0,0,1,10.5,3.7c6-1.1,10.5,2.9,13.1,7.9,3.7,1.6,8.4,4.4,7.3,9.2-2.1,7.1-5.3,13.9-5.5,21.5,11.1,1.6,22.3,5.5,33.4,5.6a219,219,0,0,0,32.8-40.8c-51.5-8.2-103.1-15.7-154.6-23.6-6.8-1.4-15-.3-19,5.7ZM582.9,433c-3.7,24-2.8,48.6-1.1,72.8,4.4-21.8,2.6-44.1,3.2-66.2-.4-2.3.9-5.8-2.1-6.6ZM310,449.3c-4.2,11.3-12.6,22.6-25.2,25a68.36,68.36,0,0,0-8.6-4.2c-1.1,5.3-2.3,11.1-.3,16.5,2.7,9,11.6,14.2,20.2,16.5,6.8,1.3,14.4,1.5,20.2-2.9,9.5-6.6,18.6-13.9,27.6-21,8.2-6.1,7.3-17.6,9.4-26.5-6.6,4.5-5.8,13.5-9.8,19.7a83,83,0,0,1-12.1,13.7c-2.1.6-4.8.3-4.8-2.6,4.2-6.1,10-11.3,13.2-18.1,2.1-7.3,6-14.5,4.5-22.3-2.1.6-5,.6-5.3,3.4-2.1,7.4-3.5,15.3-7.1,22.3-2.9,5.3-7.3,9.7-11.5,14a9.24,9.24,0,0,1-3.5-7.4c10.3-8.4,14.5-21.8,16-34.5-7.6,2.7-8.7,12.1-11.6,18.5-1.3,8.2-8.7,12.6-14,17.8-2.7-1-3.7-3.4-4-6.1,8.7-4.4,10.7-14.5,15.2-22.3,2.3-4.7,5.7-9.2,4.7-14.7-7.9.8-10.3,9.2-13.2,15.2Zm282.9-9.4c-.2,21.5-1.6,42.8-3.4,64.1a43.78,43.78,0,0,1,17.6-1.8,93.75,93.75,0,0,1,7.1-37c.3-1.5,2.1-3.5.3-4.7-6.8-7.2-14.2-13.8-21.6-20.6Zm-33.4,86.4c2.7-1.3,5.5-2.6,8.2-4a61.13,61.13,0,0,1,6.6-9.4c-2.4-21.8-.6-43.7-1.1-65.5a193.3,193.3,0,0,0-13.7,78.9ZM238.2,461.6c.5,16.8-12.1,30.8-10.7,47.6-.3,7.3,6,11.6,10,16.8a28,28,0,0,1,6,11.9c1.3,5.5,7.3,8.1,12.6,7.6,8.9-1,17.4-3.2,26.1-4.8,8.6-1.4,16.5-9.2,15.2-18.2-6.8-.8-13.4.8-20,.8a38.79,38.79,0,0,0-6-11.6,55.68,55.68,0,0,1-10.8-24.9c-1.1.3-3.5.8-4.7,1.1-.7-2.4-3.7-5.3-1.5-7.6,3.9-3.4,9-4.5,13.9-6-.3-2.6-.7-5.3-1-7.9-9.8-1.6-19.4-3.3-29.1-4.8Zm118.4,26.1c1.6,3.4,4.5,5.6,7.3,7.9a21.35,21.35,0,0,1,13.2-6.3,22.5,22.5,0,0,1-.8-2.4c-5.8-1.9-11.8-2.8-17.6-4.5-1.4,1.2-4.5,3-2.1,5.3Zm-87.1,3.1c-.3,8.2,8.2,11.9,10.2,19.2,1.1,3.9,5.8,2.6,8.7,3.1,5-.2,12.1,2.3,14.8-3.4-9.2-.6-19.2-2.1-26.1-8.7-3.3-2.9-4.4-7.4-7.6-10.2Zm351.4,17.7a65.09,65.09,0,0,1,20.3,34.9c2.6-2.1,4.9-5.2,4.5-8.7-.6-6-1.3-11.9-.8-17.9-7.8-3.2-15.2-7.8-24-8.3Zm-31,5c-.6,3.1-2.8,6.1-2.3,9.4.3,2.6,3.2,2.3,4.8,1.3,2.1-2.1,3.2-4.8,5.6-6.6,4.5,2.7,2.6,8.5-.3,11.8-3.4,4.7-9.7,5-15,5.8-6,1-13.4-.8-17.6,4.7,8.7,2.6,17.8,1.5,26.6.6,2.1-.5,5.5,1.5,4,4-3.1,6.5-12.9,1.1-15.6,7.3,6.9,2.6,14.5.6,20.3-3.5,2.1-1.8,6.3-3.1,6.5,1.1-6,7.9-16.3,9.5-25.6,10.5-.2.8-.3,2.6-.5,3.4a36.36,36.36,0,0,0,25.5-5.3c1.3,1.3,2.6,2.4,3.9,3.7-5.3,6.6-14,8.2-22,9.4.2,3.5,4,3.1,6.6,3.2,12.1-.2,22.9-6.6,32.1-13.9,6.9-5.7,7.8-16,5-24-4-11-12-21.6-23.6-25-5.9-2.6-12.8-1.3-18.4,2.1Zm-28.7,36.2c2.4,3.5,4.8,7.6,9,9.2,2.7-2.4,0-6.1-.2-9.2Zm-72.4,1.6c-.6.6-1.2,1.3-1.8,1.9,1.3,5.3,8.1-3.2,1.8-1.9Zm-62.3.5c1,3.9,1,7.9-1.5,11.1,4.4,3.9,6,9.8,3.2,15.2,3.7,4.7,5,11.5,1.1,16.6,1,.5,2.9,1.1,3.7,1.6a92.31,92.31,0,0,1,.8,11.8c3.9,2.1,7.4,5.2,7.9,9.8,1.1-.2,3.2-.7,4.4-.8,2.6,1.1,5.2,2.1,7.7,3.1,5.2,0,10.3-.8,15.3,0a76,76,0,0,0,7.6-3.7c-10.2,1.8-21.3,2.6-30.7-2.4-6.3-3.2-10.3-10.2-10.8-17.1-1.3-13.1-4.7-25.7-7.1-38.6,1,0,2.8-.2,3.5-.2,6,3.1,12.3,6.5,19,6.8,10.3,1,21.8-.2,29.4-7.9-1.4-.1-2.8-.2-4.2-.2-4.8,3.5-10.6,6.8-16.9,6.3-11.1-1.1-20.5-11-32.4-11.4ZM551.4,559c-11.1,2.4-22.6,2.6-33.9,3.2-4.7,1.9-1.9,7.7-2.3,11.6a66,66,0,0,0,5,6.8c3.2,1.9,7.3,1.3,10.8,1.8,5-5-1.8-10.8-1.8-16.3,5.6-1.6,7.1,6,12.6,6,0-5.8,7.6-5.3,11.1-7.8-.3,4.4-3.9,7.1-5.5,11-.7,2.4.8,4.7,1.8,6.9a74.9,74.9,0,0,0,13.4,1c2.4-2.2,4.8-4.8,8.2-5.6,2.9-.2,5.8.6,8.7,1-.2-1.6-.5-5-.7-6.6-6-2.3-12.1-4.2-17.4-7.8C558.5,561.7,555.8,557.4,551.4,559Zm-186.5,2.7c-8.6,3.4-12.4,12.9-15,21.1,7.1,1.1,14.8,2.4,21.8-.5,2.6-1.1,1.8-4.7,2.1-7.1-.6-2.9-4.5-2.9-6.1-5.2.2-2.6,2.4-3.9,4.2-5.3,4.5,1.5,9.2,4,14,1.9,1.3,4-1.5,7.8-2.1,11.6-1.3,4.7,3.2,10,8.2,9.4,4,0,11.1-.3,11-6-.6-6.6.2-15-5-20-11.2-1.6-22.5-2.9-33.1.1Zm42.2-.3c2.6,20.3,5.2,40.5,7.8,60.8.8,6.9,6,12.7,11.9,15.8,8.5,4.4,18.4,5.3,27.8,5.3,12.6-1,25.7-1.5,37.1-7.1,8.1-3.9,15.2-11.3,16-20.5,1.9-15.7,1.1-31.5.2-47.1-.5-2.7.2-6.1-2.3-8.2,0,17.3,1,34.7.2,52-1.9,13.6-15.6,21-27.8,24.2-13.9,3.2-28.9,5-42.6.6-8.4-2.7-16.8-9.4-17.6-18.7-3.1-18.9-5.6-37.8-8.1-56.6a8.51,8.51,0,0,1-2.6-.5Zm78.8,1.5c.5,1.9.8,4,2.1,5.7,3.4-1.7,1.4-6.4-2.1-5.7Zm-71.3,1c.2,1.1.3,3.5.5,4.8.6-.3,1.9-1.1,2.6-1.4.2-.5.6-1.6.8-2.1l-3.9-1.3Zm54,6c10.6,5.8,16,21,8.9,31.3-6.9,10-23.1,10-31,1.3-2.1-1.9-2.1-6.1-5-7.1-2.1,1.9.6,5.2,1.3,7.3,5.3,8.7,17.1,11.1,26.5,9.4,5.6-1,12.4-3.4,13.9-9.5,1.9-10.6.6-21.6,0-32.3.2-2.1-1.3-3.9-2.1-5.6-4.1,1.9-8.8,2.5-12.5,5.2Zm-32.1.5c1.3,7.1,2.8,14.4,3.4,21.6l1.6,1.6c1.1-3.4,0-7.1,1.5-10.5,1.8-5.3,6.3-8.9,9.8-12.9-5-1.6-10.2-3.2-15.2-4.7a48.54,48.54,0,0,1-1.1,4.9ZM616,576.5c-6.1,2.1-12.8,2.4-18.9,4.3-6.3,2.1-10,8.1-14.2,12.9-19,25.2-27.3,56.8-29,87.8-5.3-5.5-5-13.7-4.7-20.8a167.67,167.67,0,0,1,6.8-35.8c3.1-8.9,6.9-18.1,14-24.7,3.5-3.2,5.6-7.4,8.1-11.5-8.4-1.1-16.3,2.9-22.4,8.4-1.6,2.6-2.6,5.8-5,7.9-17.1,17.1-30,39.7-31,64.4-.7-.2-1.8-.5-2.3-.7.2-16.8,3.1-34.4,13.2-48.1,2.8-4.2,7.9-6.8,9.5-11.8-4.7,1.5-7.9,5.2-11,8.6-14.4,15.7-21.1,36.3-26.5,56.3-4.8-1.3-3.9-7.7-4-11.6,2.1-10,8.1-18.4,11.9-27.8,4-9,10.8-16.9,12.8-27-8.9.5-8.7,10.8-10.2,17.3-3.5,7.6-10.5,12.9-17.1,17.9-3.5,16.1-1.6,32.8.2,49.1,2.6,18.5,6.9,38.2,19.5,52.8,9,10.7,24,15.7,37.6,12A509.54,509.54,0,0,1,565.2,688c1.6-6.9,4.7-14,10.7-18.2-2.4-6.5-2.1-14,1.8-19.8,1.1-2.4,4-1.8,6.1-2.3a31,31,0,0,0,.8,14.5c-1,2.7-1.3,5.5-2.4,8.2-6.1,8.2-9.5,17.9-13.2,27.4-1.3,4.2-3.5,9.5,0,13.2,9-1.1,18.1-3.4,27.3-3.1,19.5-.8,39.5,4.8,54.7,17.4,11.5-16.6,17.6-36.6,18.7-56.6-2.4-1.8-6.1-2.9-6.5-6.5,3.4-4.8,9-7.6,12.6-12.4,12.8-14.2,17.4-35.5,10.5-53.2-6.3-11.9-19-18.7-31.8-21.5-12.4-2.6-26-3.2-38.5,1.4Zm-160.6,1.4c-9.7,3.9-9.5,20.8,1,23.4,7.9,3.4,19-2.3,17.3-11.6C474.4,580.3,463.5,572.7,455.4,577.9ZM245,585c-14,10.2-20.7,27.9-20.8,44.9,0,12.1.3,25.3,7.4,35.8,2.3,3.9,6,7.3,7.1,11.8,4.2,17.8,10.5,35.3,20.3,50.8,6.9-8.7,16.9-14.4,27.4-17.3,20.7-5.7,42.3-2.6,62.6,2.6-.8-21.6-9.6-42.6-23.2-59.4l3.9-5.3c19,19,25.5,46.5,29.5,72.1,1.1,4.7,0,10,2.3,14.2,4.5,3.4,10.3,3.7,15.7,4.8,13.6-8.9,20.8-24.2,25-39.4,3.5-13.7,5.6-27.9,3.5-42-1.1-11.1-3.7-22.3-9.5-32-3.7-9.5-10.2-18.1-19.4-22.8,4.5,8.5,13.4,16.6,10.5,27.3-3.5-2.3-4.2-6.8-6.5-10.2-10.8-19.5-32.1-31.3-53.6-34.7a120.14,120.14,0,0,1,14.5,23.4,31.87,31.87,0,0,1,2.7,15.5,140.6,140.6,0,0,0-24-34.2c-13.7-12.6-33.9-14.8-51.6-13.2C260.9,579,251.7,579.5,245,585Zm273.6,3.7c-4.2,2.6-2.1,7.6-1.6,11.5a33.9,33.9,0,0,1,14.8-4.4c5.3,0,10-3.1,15-4.8,2.1-4.2-5.2-5.6-7.1-8.5-4.1,7.6-13.5,8-21.1,6.2Zm175.3,1.1a3.8,3.8,0,0,0,4.4,2.7c38.2,0,76.5.2,114.7,0a24.43,24.43,0,0,0,2.4-1l-.8-1.5c-40.2,0-80.5-.3-120.7-.2Zm-275.5,2.3c.5,2.3.8,4.7,1.3,6.9,1.3-1.3,2.4-2.4,3.7-3.5A49.15,49.15,0,0,0,418.4,592.1Zm-26.9,3.7a129.88,129.88,0,0,1,14.4,13.4,138.71,138.71,0,0,0-3.5-15.5c-3.7.8-7.4,1.6-10.9,2.1Zm304.6,4.7a108.45,108.45,0,0,1,5.7,27.6c24.7-.2,49.2.2,73.9-.2,7.1-2.9,12.3-9,16.8-15,2.3-3.9,6.1-7.6,5-12.4-33.9.1-67.6,0-101.4,0ZM421.3,610.8c1.1,10.8,8.9,21.3,20.5,21.8-.6-1.5-1.3-2.7-1.9-4-2.6-4.2-8.9-1.8-11.6-5.7-2.9-2.9-2.2-7.1-2.1-10.8a27.2,27.2,0,0,0-4.9-1.3Zm48.3,16.9c-2.1,1.5-.6,5.5,2.1,4.5,3.4-.8.6-6.7-2.1-4.5Zm-15.9,2.4a1.88,1.88,0,1,0,1.3,3.5c3-.4,1.4-4.7-1.3-3.5ZM412,642.7c-.2,7.1.6,14,.8,21.1,0,23.9-2.6,49.2-16,69.9-6.6,10.5-18.9,18.2-31.6,15.3-.7,4.4-1.5,8.9-.2,13.4,4.5,18.7,10,37.3,15.7,55.7,11.6,3.1,24.9,3.5,35.2-3.2,14-9.2,20.3-26.1,22.4-42.1,3.5-36.2,5.2-72.3,6.9-108.6-.2-4.3,1-9-.5-13.2-8.7-2.1-18.7-1.5-26-7.6-1.7-1.9-5.9-5.3-6.7-.7Zm277.5,1c-2.6,5.5-5,11.1-9.8,14.8-2.7,14.7-6.3,29.4-9.7,44.1,1-.2,2.9-.7,3.9-.8,11-17.9,15.7-39,18.7-59.7a30.13,30.13,0,0,0-3.1,1.6Zm-220.4,6.2c-5.2.5-10.5.2-15.3,1.9-3.4,17.6-2.6,35.7-4.2,53.4-.6,14.2-1.3,28.4-1.9,42.4,1.9,18.2,5.6,37,16.1,52.3,6.6,9.7,17.9,16.3,29.7,15,3.7-4.2,7.3-8.4,11-12.4a85.32,85.32,0,0,1-40.8-71.7,11.4,11.4,0,0,1,4.4,5.3c6.8,16.5,15.8,32.3,28.4,45.2,12.1,11.9,28.1,21.1,45.5,20.8,1.3-2.8,2.4-5.5,3.7-8.2-1.6-1.6-3.2-3.2-5.7-3.7-18.2-5-36.1-13.2-49-27.4-12.3-13.4-18.2-32.4-14.9-50.3l2.1,1.1c2.6,14.4,7.4,28.9,16.8,40.3,12.8,16.1,34,24.4,54.4,22.6.5-2.1,1-4,1.6-6.1q-2.4-2.25-4.8-4.2c-10.5.8-21.3-1.5-29.7-7.9-12.3-9.2-19-23.6-23.2-37.9-6.1-21.5-7.8-44-7.1-66.3-.2-2.1.3-6.3-2.9-6.1-4.7.2-9.4,1.4-14.2,1.9ZM700,647.1c-3.2,19.2-10.8,37.3-19,54.7,21,.2,41.8.3,62.8.3-5.2-17.1-6.9-36,0-52.8a14.54,14.54,0,0,1-1.9-2.3c-14-.2-28,.1-41.9.1Zm-24.7,64.4c25.5.5,51.2.5,76.7,0a7.43,7.43,0,0,0-5.2-1.5H680.6a7.22,7.22,0,0,0-5.3,1.5ZM567,718.3c-.4,1.3-.7,2.6-1,3.9,27.1-6.9,57.6-4,80.5,12.9.5-1.6,1.1-3.2,1.6-4.8a58.56,58.56,0,0,0-19.5-10.5c-19.9-6.4-41.2-5.3-61.6-1.5Zm-279,.3A43.69,43.69,0,0,0,262.7,735c.6,1.3,1.9,3.5,2.4,4.8,7.7-10.3,20.3-15.7,32.8-18.1,17.9-3.1,36.3-.6,53.9,2.9-1-3.1-4.2-3.1-6.8-3.9-18.5-4-38.2-6.8-57-2.1Zm368.6,13.7H770.5c-3.2-4-6.3-8.4-9.2-12.6H667.7c-3.7,4.4-7.4,8.4-11.1,12.6Zm-74.2,4.8c5.3,1.1,8.9-5.3,14.2-3.4a42.85,42.85,0,0,1,2.3,6.3c-1.6,2.3-4.8,1.3-7.1,1.8-3.9-.2-6.9,2.4-9.8,4.5,3.5,2.1,8.9,3.2,12.1,0,1.8-2.1,4.5-1.5,6.8-1.5l3.9,4.8c2.1-.5,4-1,6.1-1.5.3-3.9-1.8-6.8-5.5-8.1-1.1-3.5.2-7.9-2.3-10.8C595.5,728.1,586.7,730.5,582.4,737.1Zm-274-2.9a26.16,26.16,0,0,1-2.4,3.4c-5.5.6-10.5-2.3-15.3-4.2l-.5,5.3c-.8,1.1-2.3,3.5-3.1,4.7,2.8-.7,5.3-1.3,8.1-1.9,11.2,1.5,18.2,11.9,28.9,14.7,6.1,1.5,9.5-4.5,12.4-8.7-1.9-.8-3.9-1.5-5.8-2.1-2.4,2.4-4.7,5.3-8.2,6.1-5,.8-9.2-2.7-12-6.5-1.8-2.1,1.5-3.5,2.4-5.2,5.7.2,11.1,1.5,16.8,1.8a31.83,31.83,0,0,0-2.3-4c-2.3-.2-4.5-.5-6.8-.7-1.6-2.6-2.6-6.9-6.5-6.6C312.1,731.7,310.3,733,308.4,734.2Zm311,14.6c4.2-3.7,10-7.3,9.4-13.5-5.6,2.2-10.7,6.9-9.4,13.5Zm35.3-8.8q-9.15,24.9-18.7,49.5c71.8.6,143.8.6,215.6.6.2-16.8.2-33.4,0-50.2q-98.25,0-196.9.1Zm-544.3,3.6c.2,15.7,0,31.3.2,46.8H275c-6.6-15.5-12.8-31.3-19.2-47C207.4,743.4,158.8,743.1,110.4,743.6Zm182.5,6.3c-1.9,5.5,3.9,8.7,6.5,12.9,1.5,3.4,5.5,1.8,8.4,2.4,1.1-1.5,2.1-3.1,3.1-4.7-3.5-1-7.1-1.5-10.5-2.6-4-1.2-3.8-6.4-7.5-8Zm285.2,1.9c-1.3,4.3,4,5.3,7.3,5.7-.3-3.4-4-6.8-7.3-5.7Zm31.3,9.4c3.2-.5,7.9,1.8,9.4-2.4-3.3-.4-8.3-2-9.4,2.4Zm-322.6,8.7a29.76,29.76,0,0,0,8.4-1.6c-1.5-4.7-7-1.5-8.4,1.6Zm272.5.2c17.9-1.9,37.1-3.5,53.9,4.7,6.5,2.6,11.1,7.9,16.8,11.8,0-5.2-5-7.6-8.5-10.3-15.8-10.2-35.5-10.7-53.7-9.4-2.8.4-6.9-.1-8.5,3.2Zm-269.4,8.3c-2.1,1.9-7.8,5.2-4.7,8.1,4.2-4,8.7-7.9,14.4-10.2,19-8.1,40.2-6.6,60.3-6.3-3.1-3.1-7.9-1.6-11.8-2.3-19.5-.1-41-.1-58.2,10.7Zm265.9,8.1c-4.2,13.6-7.8,27.4-12.1,41,2.8.8,4.5,3.2,6.3,5.3.8-1.1,2.3-3.4,3.1-4.5a39.09,39.09,0,0,1,3.5,4.8c2.1-1.3,4.4-2.6,6.5-4,.3,1.4.6,2.8,1,4.2,1.8-1.5,3.4-2.9,5.2-4.4a51.65,51.65,0,0,0,1.6,5.2l6.3-3.4c.6,2.3,1.5,4.3,2.3,6.6,2.1-1.6,4.2-3.4,6.1-5,.3,2.1.5,4.4.8,6.5,2.3-1,4.5-2.1,7.1-1.5,3.1-2.7,6.1-5.3,8.1-9,6.8-12.9,13.5-25.8,20.5-38.6-14.9-11.3-34.4-14.5-52.6-12.3-5.8,1.2-12.1,3.5-13.7,9.1Zm-254-.8c8.9,17.3,17.1,34.8,25.8,52.1,1,2.3,3.1,3.9,5,5.5,0-6.6,2.6-12.4,5-18.4.7.8,1.9,2.3,2.6,3.1.6-.3,2.1-.8,2.7-1.1,2.3,1.5,4.2,3.1,6.8,4.2,2.9-1.3,5.5,0,8.1,1.3a36,36,0,0,0,2.2-3.7,40.47,40.47,0,0,1,2.3,3.4c.8-.7,2.6-2.3,3.5-2.9,2.4,2.1,4.7,1.9,6.9-.5a41.73,41.73,0,0,1,2.9,4.4c.5-.7,1.8-2.1,2.3-2.9-4.2-14.7-9.8-28.9-14.4-43.6-1-2.3-1.3-5.7-4.3-6-18.7-5.9-39.8-3.8-57.4,5.1Zm142.8-7.6c-1.1,4.4-2.3,8.7-3.7,12.9,3.4,0,6.9.2,10.3.2-2.1-4.4-4.2-8.7-6.6-13.1ZM288.4,795.4c2.6.2,5.3.3,7.9.3C296.9,790.1,289.3,791,288.4,795.4Zm-163.8,3.9c0,2.4-.2,5-.2,7.4H282.1a39,39,0,0,0-5.2-6.9c-4.2-1.1-8.5-.5-12.9-.6-46.3.1-92.9.1-139.4.1Zm312.3,6.9c7.7.5,15.6.5,23.4.3-1.3-7.9-11-7.7-17.1-6.9-3.6-.2-8.8,2.1-6.3,6.6ZM626,801.4c-1,1.5-1.9,2.7-2.9,4.2q109.2,0,218.5-.2c0-1,.2-2.9.2-3.9-71.9-.3-143.9-.1-215.8-.1ZM425.4,817.7c2.7.5,5.5.8,8.2,1.3,1.9-1.6,4.5-2.8,5-5.5C433.9,814,428.4,813.5,425.4,817.7Zm263.5-4.6c2.4,2.1,4.7,4.2,7.1,6.1h6.6l.8-6c-4.8-.2-9.7-.2-14.5-.1Zm75.9-.3c.3,2.7.7,5.5.8,8.2,7.6-.5,15.8,1.6,22.8-2.8a38.7,38.7,0,0,0,3.7-5.3c-9.3-.2-18.3.1-27.3-.1Zm34.2,5c-4.8,4-10.7,8.7-10.8,15.7-.8,6.5,2.7,13.6,9.2,15.5-2.9-8.9-5.6-20.5,1.8-27.9,8.1-7.3,19.5-5.3,29.4-6.3-.3-.5-.8-1.5-1.1-1.9-9.7.3-20.6-1.7-28.5,4.9ZM131.9,817c3.7,5.7,10.7,2.1,15.2-.6-5.3-.8-10.7-2.4-15.2.6Zm47.7-2.4a40.46,40.46,0,0,0,7.4,6.3c5-1.8,11.8.2,14.4-5.8a144,144,0,0,0-21.8-.5ZM508.8,818a6.07,6.07,0,0,0,8.3-2.3.1.1,0,0,1,.1-.1C514.6,814.8,508.2,814.4,508.8,818Zm109.6-3.4c.8,3.9,2.3,7.6,5.8,9.7a25.75,25.75,0,0,0,2.1-9.5C623.7,814.6,621.1,814.6,618.4,814.6ZM273.1,816c1,1.8,1.9,3.5,2.9,5.5,1.9,0,3.7-.2,5.7-.2l.5-5.3Zm255.3,2.5c-3.7,2.4-9,4.8-8.7,10-.6,6.6,3.5,12.4,8.7,16.1,4.2-9.2,8.7-18.9,10-29-3.6,0-7.2.6-10,2.9Zm205.2.5c-6.6-.3-14-4.4-20.2.2-7.6,7.1-5.3,20.7,3.1,26.1-1-6.9-4-15.5,1.9-21.1,3.7-4,9.4-2.4,13.7-.8,6.9-6,20-5.5,23.9,3.7,3.7,6.9-.5,14.5-4.5,20.3l3.4-.5c7.8-7.1,10.5-22.6.6-29.2-6.9-3.9-15.1-1.2-21.9,1.3Zm-572.2-.8c6.1,4.4,11.6,10.2,13.5,17.6,1.8,4.5.2,10,3.7,13.7a27.39,27.39,0,0,0,3.4-19.4C178.5,822.3,169.1,820.2,161.4,818.2Zm70.2,1.2c-8.2-1.9-18.4-3.7-25,3.1-7.8,7.1-8.1,24,3.9,27-.6-6-3.1-11.9-1-17.8a12.24,12.24,0,0,1,11-9.2c7.1-1.1,14,2.4,21.1.8,6.1-1,13.4.3,16.8,6.1,3.4,6.3,0,13.2-1.9,19.5,5.8-2.6,9.4-8.4,11.6-14,2.4-6.3-1-13.9-7.4-16-9.6-3.7-19.3,3-29.1.5Zm210.3,2.9c-8.9,7.4-4.7,24.4,6.8,26.8-1.6-5.6-3.9-11.5-3.1-17.4a64,64,0,0,1,3.9-8.4c2.3-1.5,4.7-2.4,6.9-4,2.4.3,5.5,2.9,7.1-.5-1.8-.8-3.7-1.5-5.5-2.3-5.2,2.8-11.8,1.7-16.1,5.8Zm189.4,7.8c-.7,8.1,5.2,14.8,12.4,17.6-4.8-6.5-9-15.8-4.4-23.4,2.9-5.2,9.8-3.4,13.9-7.1-4.4-.2-8.7-.8-12.9.8-4.3,2.6-9.8,6.1-9,12.1ZM655.2,818c-1.3.8-2.6,1.6-3.7,2.4,2.9,0,6,1.9,8.9.8a25.19,25.19,0,0,1,15.8-1.3c5.7,3.2,7.8,10.5,6.1,16.6-.5,5.7-6.4,8.2-8.5,13.1,11.5-2.8,19-19.4,11.3-28.9-8.3-8-20.1-2.5-29.9-2.7Zm-367,5.8a11.32,11.32,0,0,0-3.4,11.1c.6,5.2,2.6,12.1,8.6,13.1.6-6.3-3.7-13.2.2-19.2,3.4-6.5,11.5-6.3,17.8-7.7a5.52,5.52,0,0,0-4.8-1.9c-6.4-.6-13.5.1-18.4,4.6Zm205.1-1.5a64.92,64.92,0,0,0,2.6,7.4c5,4.5,1,11.5.5,16.9,4.5-5.8,11.6-12.7,7.9-20.8-1.6-4.6-7.1-3.6-11-3.5Zm-83.4,5c-2.6,3.4-.6,7.6.6,11a36.5,36.5,0,0,0-3.1,10.7c8.4-3.7,16.1-12.6,12.8-22.3-1.1-4.7-8.2-2.6-10.3.6ZM811,824.9c-3.1.8-7.1.8-8.4,4.2-3.7,6.5.8,13.4,4,19,6.6-1.3,13.1-5.2,15.5-11.6,1.6-3.7,1.1-7.9,1-11.8a29,29,0,0,0-12.1.2Zm-665,1.6c-6.5,2.3-5.2,11.9-.3,15.3a79,79,0,0,0,18.7,8.5c1.8-1.8,5.3-2.7,5.3-5.6C169.6,833.3,157.5,822.5,146,826.5Zm463,1.7c-3.5,6.5-7.3,13.2-6.8,20.8,4.2,0,9.5-.6,11.8-4.7a25.19,25.19,0,0,0,.8-20.3,6.22,6.22,0,0,0-5.8,4.2Zm160.9,0a41.24,41.24,0,0,1-8.6,20c7.9,0,15.8-.2,23.7,0-6-5.3-3.2-13.6-5.6-20.2-3,.2-6.3.2-9.5.2Zm-317.5,5c1.1,4.7,1.5,10,4.8,13.7,2.1,1.3,4.7,1.5,6.9,2.3,6.6-.5,13.4.7,20-1,2.4-4.8,8.5-10.2,5-15.8-4.2-5.8-12.8-4.5-18.4-1.5-5.6-3.1-15.3-5.7-18.3,2.3Zm194.6,3c4.2,4.7,10,7.4,13.9,12.6,4.5-6.6,16.9-9.8,13.2-19.8-4.5-.3-9.2-.6-13.1,1.8-4.2-1.1-8.2-3.2-12.8-2.8-4.2.5-3.4,6-1.2,8.2Zm50.8-8c-1.9,7.3-4.4,14.4-8.9,20.5h19.4c-5.1-6-8.1-13.3-10.5-20.5Zm36,4.1a81.49,81.49,0,0,0-10.8-1.9c-1,4-.8,8.5,1.9,11.8,2.9,3.9,7.9,5.2,12.4,6.6,4-3.1,8.4-6.1,10.5-11,1.3-2.6,2.1-6.5-.6-8.4-4.7-2.1-8.9,2.5-13.4,2.9Zm-542.5-1c-.7,5.7-1.3,11.3-2.1,17H196c-1.5-5.8-2.2-11.8-4.7-17Zm24.7,3.3c0,5.3,1.6,11.1,6.5,13.9,6.5.2,12.9-.3,19.4,0,4.8-3.1,10.5-7.4,10-13.7-1.1-3.5-5.3-4-8.4-3.4-9.3,1.9-19.5-2.8-27.5,3.2Zm87.7,10.6c5.6,4.7,13.7,3.5,20.5,2.3-1.8-5-3.5-10-6.6-14.4-3.7-2.9-8.7-2.7-13.1-1.9-6.4,2-4.3,10.3-.8,14Zm84.4-13.7c1,6.1,1.3,13.1,6.1,17.6,2.6-1.9,5.2-3.9,7.9-5.8.8-3.7,2.1-9.3-2.3-11.3-4-.9-8-.5-11.7-.5Zm34.7,17.3c4,.2,7.9,0,11.9,0-2.9-4.8-4.5-10.3-5.8-15.8-1.8,5.5-4.2,10.5-6.1,15.8Zm-152.1-.5a63.71,63.71,0,0,1,10.7,0,67.22,67.22,0,0,1-4.5-10.7c-2.1,3.8-4.2,7.3-6.2,10.7Zm70.8-10.5c-.5,6.8-1.9,15.8,5,19.8,2.6-1.8,5.2-3.7,7.6-5.7-1.5-6.3-6-12.1-12.6-14.1ZM508,848.1a74.8,74.8,0,0,1,9.5.3c-1.6-3.5-3.2-7.1-4.8-10.7-1.6,3.4-3.3,6.9-4.7,10.4Zm-146-4c2.3,0,3.4-4.2.8-4.5-2.5,0-3.7,4.2-.8,4.5Zm5.5-4.1c-.8,2.4.2,3.2,2.9,2.6.7-2.4-.2-3.2-3-2.6Zm189,.8a36.52,36.52,0,0,0,2.6,3.2c2.4-2.7,5.5-2.3,8.4-.3-.2-.8-.7-2.4-.8-3.2-3.5-.3-6.9-.7-10.3.3ZM541,842.9c-.6,2.4,3.7,4.5,4.7,1.8.4-2.4-4-4.7-4.8-1.8Zm82.7-1.3c-1,2.4-3.9,7.6.2,8.5,2.9-1.5,5.8-1.1,8.9-.6-2.5-3.2-4.8-7.1-9.2-7.9ZM590.9,849c-6.9,1.5-10,12.9-2.4,15.7,5.8-1,7.3-8.7,7.1-13.7C596.3,847.7,592.7,848.2,590.9,849Zm-227,1.9c-4,8.1-10.8,16.1-21,15.3-1.6,2.3-3.9,4.4-3.9,7.3-1,10.2-3.4,20.3-8.2,29.5,10.7-.3,21.5,0,31.8,3.4,18.1,5.3,32.9,18.7,41.3,35.3,1.5.2,4.4.5,5.8.5,7.4-3.7,13.4-11.6,11.5-20.2-2.1-7.7-4.4-15.7-9.5-21.9-2.3-3.1-6.3-3.1-9.7-3.9.2-4.5,3.1-8.5,2.7-13.1-3.9-9-9.4-17.6-15-25.7-6.5-6.5-16.9-7-25.8-6.5Zm169.5,4.7c-9.9,11.3-14.7,26.8-13.7,41.8a37.16,37.16,0,0,0-15.5,26.3c-.8,6,4,12.3,10.2,11.9,10.2-1.9,17.3-10.7,21.8-19.4,3.1-6.6,9-11.6,15.8-14.4,10-4,21.5-5.8,31.8-1.9,12.8,3.7,22.4,14.4,26,26.9a10.65,10.65,0,0,0-.5-14.5c-9.7-10-16.9-22.6-19-36.3-3.2-2.4-7.4-3.7-10-7.1-3.4-3.4-3.9-8.4-5.3-12.6a47.82,47.82,0,0,0-41.6-.7ZM159,857.9v4.8H330v-4.8Zm241.6,0c1.9,1.8,2.7,5.5,5.8,5.5,36.5.2,72.8,0,109.2,0l4.7-5.6c-40.1.2-79.9-.1-119.7.1Zm203.3,0c-.5,1.3-1.6,4-2.3,5.5,67.8,0,135.7.3,203.5-.2,0-1.3-.2-4-.2-5.3Zm2.6,39.8a46,46,0,0,0,16.1,15.8c7.1.2,9.5-8.4,11.9-13.7,2.7-6.5,9.7-9,16.1-10.7-1.5,3.2-2.4,6.8-1.6,10.2,1.8,9.7,7.4,17.8,11.3,26.6,2.1,6.1.3,12.8-2.3,18.5h62c.2-24.8,0-49.5,0-74.4H599.4c-1.8,9.8,2.4,19.3,7.1,27.7ZM727,870.1c0,24.7.2,49.2,0,73.9,22.9.3,45.7.2,68.6,0-.2-24.7,0-49.2,0-73.9Zm-555.4,1.7v73.4h71.5c-.2-24.5,0-49.1-.2-73.4Zm79.1.6v72.9h20c-3.1-6.8-4.5-14.5-2.9-22,1.5-11.9,11.1-21.1,11-33.6,11.8,3.5,18.9,14.5,25.8,23.7,17.4-5.3,27-23.7,27.1-41.2-27,0-54.1.3-81,.2Zm157.5.2a32.73,32.73,0,0,0,3.4,9c-2.3,10.5,7.9,16.6,11.8,25,6.8,11.1,7.6,27-1.9,36.8,28.2-.2,56.6,0,84.9,0-5.3-5.3-10.8-11.8-9.5-19.8.2-12,11.6-18.6,15.3-29,1.5-7.3,1-14.8,2.1-22.1-35.4,0-70.9-.3-106.1.1Zm-124,32.2c-3.5,7.1-8.2,14.2-9.2,22.3a22.39,22.39,0,0,0,6.8,18.1c11.3-.2,22.4-.2,33.7,0-10.2-9.7-17.6-21.8-23.2-34.5-1.7-2.7-4.6-7.4-8.1-5.9Zm350.4,8.4c-6.3,11.5-16.6,21.1-29.4,24.7-2.3,2.3-4.5,4.4-6.8,6.5,16-.3,32.1.3,48.1-.3,6.3-3.5,9.2-12.3,6-18.9-3.2-7.1-7.1-13.9-10.5-21-3,2.9-5.7,5.6-7.4,9Zm-88,2.4c-6,5.8-6.5,16.9.2,22.6,7.6,6.1,17.9,6.3,27.1,6.1-2.1-1.9-4.2-4-6.1-6.1,1.5-1.6,3.1-3.2,4.5-4.7,6.1,4.2,13.9,4.8,21,3.5,4.3-1.3,6-5.8,8.1-9.4-7.3-.3-14.8-.2-21.8-2.7-2.9-2.3.5-5.2,2.3-6.6,1.8.3,5.2,1,6.9,1.3-.8-7.1-8.1-10.5-14.4-11.1-9.8-1.3-20.9-.5-27.8,7.1Zm-221.9-4c-3.2,3.9-7.9,6.1-11.6,9.5-2.6,2.2-1.5,6,1.1,7.6,1.8-8.5,10.3-12.3,18.1-13.7,3.5,3.2,3.9,8.1,4.4,12.6-5.8.7-12.1,1.1-16.3,5.7,2.6,2.9,4.8,6.3,8.2,8.4,5,1,11.3,1.3,15.2-2.6,2.1-2.3,2.1-6.9,5.6-6.9,2.8,1,3.9,3.9,5.3,6.1,4.7,2.9,10.2,4,15.7,4.4a33.79,33.79,0,0,0,11.7-7.6c-11.1-19.8-35.8-28.4-57.4-23.5ZM640.2,1008c-57.9,10.2-117,15.8-175.7,14-70-.6-140.1-10-208.2-26.5-60.5-15-120.1-34.7-175.7-62.6-22.9,33.9-46.2,67.5-69.1,101.3-1.6,1.9,2.1,2.7,3.1,3.7,31,17.1,63.6,31.1,96.7,43.7,67.8,25.5,138.1,43.9,209.5,56.3,29.8,5.7,60.2,8.9,90.5,10.8,75.8,4.7,152.3,2.4,227.4-9.8,42.1-7.4,83.3-19,123.9-32.3a1706.13,1706.13,0,0,0,188.5-76c-23.6-35.5-46.8-71.2-70.2-106.9-74.4,42.6-156.8,69.1-240.7,84.3ZM150.8,953.5c28.6,9.7,57.1,18.9,86.2,26.5,10.2,2.3,20,6.5,30.5,5.8H679c6.6,0,13.2.7,19.5-1.3,32.6-8.2,65.4-17.1,96-31.1-6.8-.5-13.7-.2-20.5-.3H220.6c-23.2.1-46.6-.9-69.8.4Zm155,41c17,3.9,34.4,7.3,51.8,6.9H609.5a271,271,0,0,0,43.9-6.9c-5.5-.5-11-.3-16.5-.3H382c-25.4.2-50.7-.5-76.2.3Zm97,14.6c22.4,4,45.3,2.4,67.9,2.8,20-.2,39.9.8,59.9-1.5,4.7-.8,9.8.5,14-1.9-47.3,1.2-94.5-.3-141.8.6Z" transform="translate(0.2 2.88)"/></g><path id="path362" d="M411.3,172c3.1-4.8,8.1-9.4,14.2-8.4,7.4,1,16.5-.7,22,5.7,4.5,3.7,4,10.2,4.7,15.5.5,8.6,2.3,17.1,2.1,25.8-1.1,6.3-10,4-12.4-.2-2.9-3.9,1-7.6,2.3-11.1a61,61,0,0,0-.2-13.5c-5-1.3-10.2-.3-15.2.3-3.2.3-5-3.6-8.2-3.2-1.8.8-3.5,1.8-5.3,2.8-2.6-2.9-.2-6.9,2.6-8.6,5.5-3.2,12.1-1.9,18.2-3.1l1.9-1.9c-4.5-1.8-9.5-2.1-14.4-1.9C419.6,170.6,415.7,172.8,411.3,172Z" transform="translate(0.2 2.88)"/><path id="path364" d="M371.5,186.4c1-.5,3.1-1.6,4.2-2.1,1.9,4.3,5,8.1,8.1,11.6-1,2.6-1.8,5.2-2.6,7.8-1.3.6-2.6,1.1-3.9,1.6C370,202,371.3,192.8,371.5,186.4Z" transform="translate(0.2 2.88)"/><path id="path366" d="M462.3,206.6c1.8.2,3.7.2,5.5.3,1.1,4-1.9,6.6-5.8,5.8A60.78,60.78,0,0,0,462.3,206.6Z" transform="translate(0.2 2.88)"/><path id="path368" d="M433.9,229.6c12.3-6.3,26.6-3.6,39.9-3.4-.2,1.1-.3,3.1-.5,4.2-7.3,1.6-14.7,1.1-22,2.6a24.81,24.81,0,0,0-13.4,2.3A12.89,12.89,0,0,1,433.9,229.6Z" transform="translate(0.2 2.88)"/><path id="path370" d="M446.7,237.2c5.8-.2,11.8-.5,17.6-.5a38.4,38.4,0,0,1,2.7,2.9C460.7,243.2,450.9,244.3,446.7,237.2Z" transform="translate(0.2 2.88)"/><path id="path372" d="M389.1,301.6c3.4-3.4,8.9-1.4,12.3,1,3.1,4.5,1,12.3-4.7,13.4-3.9.3-8.7-1.3-10.2-5.3A12,12,0,0,1,389.1,301.6Z" transform="translate(0.2 2.88)"/><path id="path374" d="M409.1,308.5c4.2-1.9,10.8-1.4,12.6,3.7,2.3,3.5.3,7.6-.6,11.1-3.7,2.4-8.9,4.5-12.6,1.1C403.3,320.8,403.4,311.8,409.1,308.5Z" transform="translate(0.2 2.88)"/><path id="path376" d="M344.2,598.7c4-1.6,7.8,1.5,11,3.4,15.7,10.7,24.8,28.7,27.9,47.1,2.1,12.3,4,24.7,2.9,37.3-.5,1.1-1.6,3.4-2.1,4.4-5.8-1.8-3.9-7.9-4.2-12.6C379.1,648.7,367.1,618.4,344.2,598.7Z" transform="translate(0.2 2.88)"/><path id="path378" d="M313.5,598.2c2.3.3,4.7.5,6.9.8a50.69,50.69,0,0,1,9.2,13.7c-2.3,1.3-5,3.4-7.4,1.5C318.7,609.2,314.7,604.3,313.5,598.2Z" transform="translate(0.2 2.88)"/><path id="path380" d="M543.8,616.1c2.3-3.4,4.3-7.9,9.4-6.9-14.9,28.1-16.3,60.8-15.3,92-6.9-12.9-5.2-28.2-5.2-42.3A81.5,81.5,0,0,1,543.8,616.1Z" transform="translate(0.2 2.88)"/><path id="path382" d="M351.1,634.8c3.4-2.3,6,3.1,6.9,5.8.5,4.5,3.2,11.3-2.1,13.9-3.4-.2-3.7-4.2-4-6.6C351.6,643.5,349.9,639,351.1,634.8Z" transform="translate(0.2 2.88)"/><path id="path384" d="M392.8,639.3a22.55,22.55,0,0,1,6.9,18.2c0,2.7-2.3,5.3-5,3.7-2.3-5.3-2.1-11.3-3.5-16.8C391.5,643.2,392.5,640.5,392.8,639.3Z" transform="translate(0.2 2.88)"/><path id="path386" d="M434.6,661.1c.6-.5,1.9-1.6,2.6-2.1a196.11,196.11,0,0,1,1,45.3c-1.1,17.1-3.2,34.4-10.3,50.2a44.56,44.56,0,0,1-11.5,16c1.3-6.6,4.5-12.8,6.5-19.2,5.5-17.3,8.2-35.3,9.5-53.4C433,685.7,433.3,673.2,434.6,661.1Z" transform="translate(0.2 2.88)"/><path id="path388" d="M421.5,668.7c-.6-2.6,1.6-3.7,3.2-5.2,2.3,25.8,1,52.9-10,76.7-4.4,8.4-9.4,17.3-17.6,22.3.7-1.8,1.5-3.7,2.3-5.5C415.7,730.8,422.5,699.4,421.5,668.7Z" transform="translate(0.2 2.88)"/><path id="path390" d="M388.7,668.7c-.7-2.3,1.8-2.6,3.2-3.2a48.25,48.25,0,0,1,1.9,18.9c1.8.5,3.5.8,5.3,1.3a41.79,41.79,0,0,1-8.2,29.2c-1.3,2.4-4,3.2-6.6,3.9-3.4-6,2.1-10.7,5-15.2,2.6-5.5,2.9-12.1-1.3-17C388.1,680.7,388.9,674.7,388.7,668.7Z" transform="translate(0.2 2.88)"/><path id="path392" d="M455.2,717.8c.5-17.8.3-35.7,2.4-53.2l1.9-.2a28.48,28.48,0,0,0,2.3,2.6c0,16.9-.2,33.9-1.5,50.8A43.38,43.38,0,0,1,455.2,717.8Z" transform="translate(0.2 2.88)"/><path id="path394" d="M509.8,710.7c4.5.6,6.9,4.7,10.7,6.9a58.34,58.34,0,0,0,27.4,9.4c-.6,2.9-1.3,5.6-2.1,8.5-7.1.5-14.7.6-21.3-2.6C515.7,729.2,508.8,720.4,509.8,710.7Z" transform="translate(0.2 2.88)"/><path id="path396" d="M453.3,747.2c6.1-.7,7.9,5.8,9.4,10.3,3.5,11.8,7.6,23.6,10.6,35.3a4.72,4.72,0,0,1-3.7,6.6C461.8,782.8,455.6,765.4,453.3,747.2Z" transform="translate(0.2 2.88)"/><path id="path398" d="M380.7,788.3c5.2-2.6,10.8-3.5,16-5.7,1.5,1.9,3.1,4,2.4,6.5-4.2,5.3-11.8,7.4-18.2,6.1C377.8,794.1,377.9,789.9,380.7,788.3Z" transform="translate(0.2 2.88)"/><path id="path400" d="M403.9,801.5c6.8-2.6,10.5-9,16.1-13.1,1.8,6.5-3.2,11.8-7.7,15.5-5.8,4.5-13.1,8.1-20.5,7.1a6.63,6.63,0,0,1-2.6-5.5C393.7,803.1,399.4,804.3,403.9,801.5Z" transform="translate(0.2 2.88)"/><path id="path402" d="M349,854.1c-6-.7-7.3-8.6-3.4-12.1A11.77,11.77,0,0,1,349,854.1Z" transform="translate(0.2 2.88)"/><path id="path404" d="M588.2,852l4.7-.5c1.3,4.2-1.1,7.8-4,10.7C585.3,859.3,586.7,855.4,588.2,852Z" transform="translate(0.2 2.88)"/><path id="path406" d="M854.8,985.3c1.5-5.3,2.9-10.5,4.3-15.8,7.8.8,13.9,6.3,17.4,12.9,5,9.5,10.3,18.7,15.7,28.1,3.7,6,1.9,14-2.8,19-4.5,5.5-12.6,4.3-18.7,3.4-12.1-2.1-21.8-11.1-26.5-22.1-3.6-5.5,1.8-11,4-15.8,4.2,14.7,17.1,26.5,32.6,28.1.5-1,1.5-3.1,1.9-4.2-5.6-9.7-10.8-19.7-16.6-29.2C864.1,985.5,859,985.2,854.8,985.3Z" transform="translate(0.2 2.88)"/><g id="g410"><path id="path408" d="M85.5,981.9c3.5-1.5,6.8-4.3,10.5-4.7,4.4,3.2,7.9,8.6,6,14.2-3.1,8.2-7.7,15.7-11,23.7,4.8,4.8,8.1,10.8,10.7,17.3,6.6-10.5,11-22.3,16.8-33.1,5.3-1.1,10.7-2.4,16-3.7-8.7,17.3-16.8,34.9-25.7,52-5.2,1.9-10.7,2.4-16,4,2.1-9.8.3-20.3-6.1-28.2-1.8,3.5-3.2,7.4-5.5,10.8-5,1.9-10.5,2.6-15.7,3.7,2.1-8.7,3.2-17.6,0-26.1a26.91,26.91,0,0,1,14.2-3.4c3.1-6.3,6.5-12.4,9.2-18.9C91,986.3,87.3,984.2,85.5,981.9Zm-12.7,28.9c.8,2.7,1.6,5.3,2.4,8.1.8-1.9,1.8-3.9,2.8-5.8C76.3,1012.2,74.5,1011.5,72.8,1010.8Z" transform="translate(0.2 2.88)"/></g><path id="path412" d="M804.3,1002.8c7.7-4.2,15-9.2,22.9-13.1a42.23,42.23,0,0,1-.6,12.3c-5.3,3.1-10.7,6-16,8.7.5,1.8-1.6,6.6,1.1,6.1,2.6-2.4,4.8-5.3,8.2-6.6,6.8-3.7,15.5.8,18.7,7.4s6.5,12.9,9.4,19.5c2.4,5.5-.5,11.9-4.8,15.7-.5-.2-1.3-.3-1.8-.5-4.8-9.5-8.9-19.2-13.9-28.6-1.3-3.2-5.2-1.5-7.6-1.6,1.8,4.2,4.8,7.9,6.6,12.1,1.1,9.8.3,20.3-5.3,28.9-8.5,0-18.4-2.1-23.1-9.8-5.5-8.2-3.1-18.4-4.5-27.6-1.9-3.2-5.8-4-9.2-4.5,1.6-4.2,3.1-8.4,4.4-12.6,4-.2,8.4,1.6,9.7,5.7,2.7,7.7-1,16.6,3.4,24,3.4,7.8,12.3,10.5,20.2,10.5a123.1,123.1,0,0,0-13.4-17.1C801.4,1023.7,800.7,1012.1,804.3,1002.8Z" transform="translate(0.2 2.88)"/><path id="path414" d="M135.2,1007.6c4.2-1.8,8.4-3.7,12.8-5.3,1.8,3.1,3.9,6.6,2.1,10.2-3.2,7.4-11.9,10.5-15,18.1-4.3,7.7-.8,17.4,5.5,22.9,4.2-11.6.5-25.8,9.7-35.3,4.2-4,10.2-9.8,16.5-6.8,6.8,2.1,13.6,4.2,20.5,6.1-2.9,2.9-5.7,7.4-10.2,7.8-5.7-1.3-11-3.4-16.5-5.3-1.8,1.6-3.5,3.4-5.3,5,7.1-.5,16.3,1,19.2,8.6,3.9,9.8-3.5,19-6.1,28.2-1.8,7.9-10.3,12.3-17.8,10.2,4.5-10.7,8.4-21.6,13.1-32.3a17.86,17.86,0,0,0-5.5-4.7c-1.5,4.5-1.8,9.7-4.4,13.7a47.79,47.79,0,0,1-23.6,15c-6.5-6.1-11.6-15.2-8.9-24.2,2.3-9,10.8-14.2,16.5-21.1C139.7,1014.5,136.8,1010.7,135.2,1007.6Z" transform="translate(0.2 2.88)"/><path id="path416" d="M219.1,1017.3c7.9-6,16.8-12.1,27.1-12.1,10.7,1.5,18.1,10.3,24,18.6-3.4,2.4-6.8,5-10,7.7-3.5-13.1-17.4-22.9-31-21.1-.5,4.4,3.1,7.6,6.1,10,3.4,2.9,7.4,0,10.8-1.3-4.4,3.1-8.7,7.3-14.4,6.8C226.7,1024.9,222.9,1021,219.1,1017.3Z" transform="translate(0.2 2.88)"/><g id="g420"><path id="path418" d="M677.8,1014.5a14,14,0,0,1,16.8-.8c-4,7.4-5.3,19.8-15.7,20.7-3.7.5-11.3-2.9-8.2-7.6C672.9,1022.8,674.9,1018.2,677.8,1014.5Zm-3.8,9.2c3.9,4.8,15.3,4.5,14.7-3.2C685,1015.5,677,1019.4,674,1023.7Z" transform="translate(0.2 2.88)"/></g><path id="path422" d="M764.9,1023.6c2.9-4.5,5.7-9,8.9-13.4,5.7,16.6,11.3,33.2,17.1,49.9.8,4.2,5.5,3.9,8.7,3.7-1.9,3.9-3.4,8.2-6,11.8-4.8-.2-11.6-1.3-13.1-6.9C775.2,1053.8,770.1,1038.7,764.9,1023.6Z" transform="translate(0.2 2.88)"/><path id="path424" d="M742.3,1031.6c2.9-4.5,5.6-9.2,8.9-13.4,5.6,16.6,11.3,33.4,17.3,50,.8,4,5.5,3.6,8.6,3.6-1.8,3.7-3.5,7.4-5.2,11.3-5.2.3-12.1-.8-14-6.5C752.6,1061.7,747.5,1046.7,742.3,1031.6Z" transform="translate(0.2 2.88)"/><path id="path426" d="M184.6,1029.9c4-3.1,8.1-5.8,12-8.9,8.4,2.3,16.6,4.7,25,7.1-5.5,18.6-10.7,37.1-16.1,55.7-5,2.1-10,4.2-15,6.1,5.2-17.9,10.2-35.8,15.5-53.7C198.8,1033.9,191.5,1032.3,184.6,1029.9Z" transform="translate(0.2 2.88)"/><path id="path428" d="M709.2,1032.9c8.2-2.6,16.6-4.8,24.9-7.1,5.2,18.7,10.6,37.1,15.8,55.8-3.1,4.4-6.1,8.9-9.5,13.1-5-18.1-10-36-15.5-53.9-7.1,2.4-14.5,4.2-21.6,6.6C705.4,1042.5,707.3,1037.8,709.2,1032.9Z" transform="translate(0.2 2.88)"/><path id="path430" d="M224.1,1039.1c3.4-3.4,6.9-6.3,10.5-9.4,8.5,2.6,17.3,4.4,26,6.6-4.7,18.6-9.4,37-13.9,55.5-6,2.1-11.6,5.8-17.9,6.9-5.8-2.4-9.4-7.9-10.7-13.7,3.4-2.1,6.8-4,10.2-6.3-.8,4.8.5,10.5,5.8,11.6,3.7-15,7.1-30,11.3-44.9-6.8-2.4-13.9-3.6-20.8-5.5A9.22,9.22,0,0,0,224.1,1039.1Z" transform="translate(0.2 2.88)"/><path id="path432" d="M427.6,1034.2c1.5,3.7,3.2,8.2,7.7,9,9.5.7,19,0,28.4.2-2.1,3.6-4,6.9-6.1,10.5-10.5-.2-21,.5-31.3-.3-6.3-.6-7.6-7.7-6.5-12.8A100.5,100.5,0,0,0,427.6,1034.2Z" transform="translate(0.2 2.88)"/><path id="path434" d="M673.7,1042c9.2-1.8,18.1-4.2,27.3-5.3,3.7,18.9,7.9,37.6,11.9,56.3-3.4,4.2-6.9,8.4-10.3,12.7-3.9-18.4-7.8-37-11.8-55.3-9.7,2.3-19.5,3.9-29,6.6a35.66,35.66,0,0,0,9,12.4c2.2-5.6,3.5-12.4,9.3-15.8a45.07,45.07,0,0,1,9.5,3.5c-2.8,4-5.3,7.9-7.9,12.1-1.6-1.1-3.2-2.1-4.7-3.2a48.1,48.1,0,0,0-5.6,4.2c4,4.8,8.9,9.8,10,16.3,1.4,9.2-1.6,18.4-6.9,26-.7-4.5,2.6-8.9.6-13.1-3.4-10.5-14.8-15.7-18.1-26.1-2.3-9.5,1.6-19.4,6.9-27C666.1,1042.8,670.5,1042.9,673.7,1042Z" transform="translate(0.2 2.88)"/><path id="path436" d="M264.3,1050.5c2.9-3.6,5.8-6.9,9-10.2,2.6,3.2,6.5,6.3,6.3,10.8.3,5.5-5.2,8.7-7.1,13.4-4.7,11.6-1.8,24.7,5,34.9,2.8.5,2.8-3.1,3.5-4.8,3.1-10-3.4-20.5.5-30.3,2.9-7.6,7.6-15.3,14.8-19.2,6.9.2,13.7,2.1,20.7,2.9-2.7,19-5.7,38.1-8.5,57.3-4.4,2.6-8.9,5.3-13.4,7.8,2.9-18.4,5.5-37,8.6-55.5-4.7-.6-9.4-1.4-14.2-2.1.5,8.4,2.4,16.6,2.2,25-.6,12.8-10,23.6-21.1,28.9-6.6-7.6-12.3-16.9-11.1-27.4-.2-9.7,11.6-14.5,11-24.4C270.8,1053.6,266.7,1052.3,264.3,1050.5Z" transform="translate(0.2 2.88)"/><path id="path438" d="M636.6,1057.3c3.7-4.2,7.6-8.2,11.6-12.1,1.8,19.2,4.5,38.4,6.9,57.6-3.9,3.9-7.6,7.9-11.6,11.6-2.4-4.2-4.5-8.7-7.7-12.3-3.4-3.7-8.2-5.8-12.8-7.6.5,4,1.1,8.1,1.8,12.1-3.9,4-7.6,7.9-11.6,11.8-1.8-5-3.6-10-6.6-14.4-2.4-3.4-6.1-5.8-7.9-9.7,1.8.6,3.5,1.5,5.3,2.1,1.1,1,2.4,2.1,3.6,3.1-.2-1.8-.5-3.5-.7-5.2a46.58,46.58,0,0,1-5.8-2.3c2.6-2.3,5.3-4.4,7.9-6.5-1-7.1-1.4-14.4-2.7-21.5-.8-3.1-4.4-2.4-6.6-3.2,1.6-3.4,3.4-6.8,5.2-10.2,5,1,11.6,1.9,13.2,7.7,2.3,8.7,2.3,17.9,3.9,26.8a55,55,0,0,1,19.2,9.2C639.7,1082,638.4,1069.7,636.6,1057.3Z" transform="translate(0.2 2.88)"/><path id="path440" d="M318.2,1070.5c3.2-8.9,10.7-15.7,18.6-20.3,3.7,1.6,6.5,4.5,9,7.6-3.1,2.4-5.5,6.3-9.2,7.6-1.1-4.4-8.4-8.7-10.7-3.1.6,8.5,10.2,16.6,18.7,12.1-6.6,4.5-14.7,8.7-16.9,17.1,3.1,9.2,11.5,15,19.8,18.7,1.8-16,3.7-32.1,5-48.2,4.5-3.4,9.2-6.3,14-9.4-2.1,17.3-3.7,34.5-5.5,52-6.5,5.3-14.2,9.2-21.3,13.7-6-.5-11.1-4.2-15.8-7.8-5-3.9-9-10.2-7.3-16.6,1.9-5.5,7.4-8.4,12.4-10.8C323.4,1081.5,317.2,1077.3,318.2,1070.5Z" transform="translate(0.2 2.88)"/><path id="path442" d="M565.8,1057.6c8.2-1,16.3-1.8,24.5-2.6,1.8,19.2,4,38.4,6,57.6-3.9,3.9-7.6,7.8-11.6,11.3-1.8-18.6-4-37.1-5.7-55.7-7.4,1.1-15,1.6-22.4,2.4C559.8,1066.5,561.6,1060.7,565.8,1057.6Z" transform="translate(0.2 2.88)"/><path id="path444" d="M379.4,1058c8.7.3,17.4.8,26,1.6-1.3,18.6-2.7,37.3-3.9,55.8.2,2.1-1.9,2.9-3.2,4-3.4,2.4-6.9,4.7-10.3,7.3,1.8-18.6,2.4-37.3,4.2-55.8-7.6-1.1-15.2-1.3-22.8-1.8C372.8,1065.5,376.2,1061.8,379.4,1058Z" transform="translate(0.2 2.88)"/><path id="path446" d="M521.7,1060.5c12.3-.3,24.4-1.8,36.6-2.3-2.6,4.4-4.5,9.2-8.2,12.8a87.23,87.23,0,0,1-10.2.6c7.3,8.1,13.6,18.2,12.6,29.7.2,11-6.8,21-15.8,26.8-5.8,1-10.6-3.6-14.5-7.4,1.6-4.5,5.2-7.9,7.9-11.8,1.8,4.8,5.2,11,11.5,9.7,6.1-.3,6.9-7.7,5.6-12.4-3.7-16-16.8-30.8-33.6-33.1C516.5,1068.9,519,1064.7,521.7,1060.5Z" transform="translate(0.2 2.88)"/><g id="g450"><path id="path448" d="M416.2,1059.6c15.2.3,30.2.8,45.4,1.3-1.3,19.4-.8,38.7-2.4,58.1-4.2,3.6-9,6.3-13.2,9.7-8.1-17-10.6-36.8-23.7-51.2-2.9,9-4.2,19.5.3,28.4,1.8,4.3,4.8,8.2,9.4,10-3.7,4-7.6,7.9-11.3,11.8-7.4-8.2-13.4-19.5-10.5-31,1.6-10.2,7.9-18.6,15.6-25l-17.6-.5C410.9,1067.3,413.4,1063.4,416.2,1059.6Zm17.1,12.2c5,8.5,9.5,17.4,13.9,26.3.8-8.5.3-17.1,1.3-25.5C443.4,1072.5,438.4,1072.3,433.3,1071.8Z" transform="translate(0.2 2.88)"/></g><path id="path452" d="M481.2,1060.4c4.7-2.9,8.6,2.7,11.6,5.5-2.7,3.1-5.6,6-8.5,8.9-1-4.7-5.3-6.8-9.7-5.5-2.9,3.6,1,7.8,3.2,10.5,3.7,4.5,10.3,5.3,15.5,2.6-6.1,4.8-15.3,9.7-15.3,18.5,2.9,9,12.4,13.7,20.6,17.1.6-16.3.8-32.6,1.8-48.9,4.4-3.4,8.7-6.6,13.1-9.8-1,17.6-1.3,35.3-1.8,52.9-6.5,4.4-12.6,9.2-19,13.6-2.4,1.9-5.5,0-8.1-.6-7.3-3.1-15.5-7.6-17.8-15.8-2.1-8.1,5.3-14.2,11.9-16.8-6-1.3-13.1-5.3-11.9-12.4C468.5,1072,474.8,1065.5,481.2,1060.4Z" transform="translate(0.2 2.88)"/></g></svg>