<svg id="Layer_1" data-name="Layer 1" xmlns="http://www.w3.org/2000/svg" viewBox="0 0 7303.7 1657.69"><defs><style>.cls-1,.cls-10,.cls-11,.cls-4,.cls-6,.cls-7{fill:none;}.cls-2{fill:#fff800;}.cls-10,.cls-11,.cls-3,.cls-4,.cls-5,.cls-6,.cls-7,.cls-9{isolation:isolate;}.cls-3,.cls-4{font-size:369.65px;}.cls-3,.cls-5,.cls-8,.cls-9{fill:#fff;}.cls-3,.cls-4,.cls-5,.cls-6,.cls-7{font-family:ImprintMT-Shadow, Imprint MT Shadow;}.cls-4,.cls-6{stroke:#fff;}.cls-10,.cls-4,.cls-6,.cls-7,.cls-8{stroke-miterlimit:10;}.cls-10,.cls-11,.cls-4,.cls-6,.cls-7,.cls-8{stroke-width:0.5px;}.cls-5,.cls-6,.cls-7{font-size:740.15px;}.cls-7{stroke:#fcfafb;}.cls-10,.cls-11,.cls-8{stroke:#000;}.cls-10,.cls-11,.cls-9{font-size:17.14px;font-family:ArialMT, Arial;letter-spacing:-0.04em;}</style></defs><line class="cls-1" x1="1977.07" y1="355.37" x2="1977.07" y2="1376.37"/><path class="cls-2" d="M1582.5,119.7v979.6c0,13.2-.2,26.4,0,39.7v1.7c0,9.4,8.3,18.4,18,18s18-7.9,18-18V161.1c0-13.2.2-26.4,0-39.7v-1.7c0-9.4-8.3-18.4-18-18S1582.5,109.6,1582.5,119.7Z" transform="translate(376.47 235.67)"/><text class="cls-3" transform="translate(2042.12 707.71) scale(1.06 1)">Graduate Employment Survey</text><text class="cls-4" transform="translate(2042.12 707.71) scale(1.06 1)">Graduate Employment Survey</text><text class="cls-5" transform="translate(1322.06 1382.4)">U</text><text class="cls-6" transform="translate(1322.06 1382.4)">U</text><text class="cls-5" transform="translate(1320.2 858.9)">R</text><text class="cls-7" transform="translate(1320.2 858.9)">R</text><line class="cls-1" x1="7292.07" y1="873.37" x2="2042.17" y2="873.37"/><path class="cls-2" d="M6915.6,625.7H1878.8c-68,0-136.2-1.1-204.2,0h-8.9c-15.4,0-15.5,24,0,24H6702.6c68,0,136.2,1.1,204.2,0h8.9c15.4,0,15.4-24-.1-24Z" transform="translate(376.47 235.67)"/><text class="cls-3" transform="translate(2057.79 1230.17) scale(1.06 1)">Ramkhamhaeng University</text><text class="cls-4" transform="translate(2057.79 1230.17) scale(1.06 1)">Ramkhamhaeng University</text><g id="g454"><g id="g360"><path id="path358" class="cls-8" d="M218.4-170.1c-.2-23.5,7.1-47.2,22.4-65.2,10.4,10.1,16.1,23.5,22.6,35.9l.2,1.4c.9,8.3,2.3,16.4,2.8,24.9,22.1,10.4,32,35.7,30.9,59,16.4,7.4,32,17.1,44.3,30.2,5.7,6.2,13.4,12.9,13.1,22.4.5,22.4-6.7,44-14.3,64.8a16.55,16.55,0,0,1,6.9,13.6c.2,18.9-2.8,39.4-14.8,54.9-7.1,9.4-7.8,21.9-13.6,32-2.8,6.5-8.8,11.8-8.6,19.1-.2,11.5,0,23.7,5.3,34.3,2.1,4.2,5.5,9,10.8,8.3,27.4-2.3,55.1,0,82.5,3.7,26.7,4.1,53.9,12,75.6,28.6,27.4,21.4,53.9,47.7,64.3,81.8,8.3,15.4,19.6,29,29,44,5.3,9,3.7,20,2.5,30a155.35,155.35,0,0,1,18.4,119.2c-3,16.1-12.9,29.7-21.4,43.3a12.75,12.75,0,0,0-.7,1.2c-7.1,6.2-13.8,13.1-21.4,18.7-5.5,3.9-6,12-11.5,16.1-6.2,5.3-12.7,11.1-12.9,19.8,20.5.2,41.7,4.4,59.5,15.2,6.9,4.2,12.9,9.7,19.4,14.5,6.2-7.4,12.9-17.3,23.7-17.1,3.2-.9,5.1-4.2,7.8-6a35.44,35.44,0,0,1,4.8,2.3c6.5-5.3,15-5.7,23-5.1,7.8-1.1,15.7-2.5,23.8-3.9a142.55,142.55,0,0,0-3.9,13.8c6.2.9,11.8-1.8,16.4-5.7,1.4.2,4.4.9,6,1.2,11.5-10.4,28.8-9.5,43.5-9.7-6.9,6.9-14.5,14.1-24.6,15.7-4.4,0-3.9,4.6-4.8,7.6,8.3-.2,16.6-1.8,23.7-6.7a50.78,50.78,0,0,1,15.7-7.6c6.7-1.6,10.1-9,16.8-10.8,11.8-4.6,24.7-3,37.1-2.1-7.1,16.6-28.3,10.8-40.3,21.2-.5,2.5-.9,5.3-1.4,7.8,2.1,1.4,4.4,2.5,6.7,3.9l5.5-3.7c2.5,2.1,5.3,3.7,7.1,6.5.7,5.3.7,10.6,1.4,16.1-6.9,1.2-15.2.9-19.6,7.6-17.1,24-37.6,48.4-66.4,58.6-8.1,1.6-17.1,5.7-17.5,15.2v1.6l-.7,1.4c-3.7,5.5-3.5,12.4-4.4,18.7-1.4,13.8-1.1,29.3,7.4,41,3.9,5.5,10.8,7.4,15.9,11.5,4.2,6,7.1,12.7,12.7,17.5,7.4,7.6,13.8,19.8,26.3,18.9,32.5-.2,65,0,97.5,0v89.2c-4.6.9-9.9.5-13.4,4.4a157.12,157.12,0,0,0-.5,16.8c-9.7,3.8-16.7,11.6-24.3,18.3-.2,6.2-.2,12.5-2.3,18.7-5.1,10.4-14.3,18-22.1,26-.7,7.4-.2,14.8-.2,22.1H770.5q-.3,58,0,116.2c39.2-16.4,78.8-32.3,115.5-53.7,26,37.3,50,76,75.4,113.9,12.2,18.9,25.3,37.3,36.6,56.7-1.4.7-3.9,2.1-5.3,2.8-7.4,6.2-16.4,9.9-24.9,14.3-132,67.8-274,115.5-419.7,144.5-103.7,19.1-209.5,23.5-314.6,18.2a1455.18,1455.18,0,0,1-185-22.4c-37.6-7.4-75.1-14.1-112-24-96.3-25.1-190.4-59.7-278.6-105.8-11.5-5.3-22.1-12.9-34.1-17.8.2-2.1.7-4.1.9-6.4,38-54.6,74.9-110,112.5-164.8,26,12.7,51.9,26.3,79.3,35.5,13.6,2.8,27.7.7,41.4,1.1l-.2-2.1c-.9-34.3-.9-68.9,0-103.2l.2-2.1c-5.5,0-10.8,0-16.4-.2.2-7.1.2-14.3.2-21.4-12.7-8.6-23.3-20.3-28.3-34.8-4-11.3-10-22.1-19.7-29.7V904.8h-19.4c.5-29.7-.7-59.5.7-89,70.5.2,141.3-.7,211.8.5l2.8.7c-9.7-28.1-27.1-53.7-32.3-83.4-2.1-10.8-11.3-18-15.7-27.6a109.29,109.29,0,0,1,8.3-92c7.4-15.7,21.9-27.9,38.9-31.3,41.7-10.4,84,3.5,123.9,14.7,5.3-10.8,9.7-22.4,18.2-30.9,4.8-5.1,10.8-9.5,13.4-16.1a64.38,64.38,0,0,0,4.6-27.4c.2-7.1-8.1-10.1-10.6-16.1-1.2-7.4.5-15.7-3.5-22.4-4.2-7.6-6.9-15.9-11.3-23.3l-1.6-.5c-12.9,6.7-24.7,15.9-37.1,23.5-9,4.6-12.7,14.5-20.3,20.7-4.6,7.4-5.1,16.6-9.7,24a9.27,9.27,0,0,1-1.4,1.4c-6.9,5.1-13.6,10.6-21.9,13.6-13.1,5.3-27.4,6.2-41.2,9-8.6,1.2-19.4,0-24.3-8.1-3-6.9-3.5-14.5-6.5-21.4-3.2-7.1-9.9-11.8-13.8-18.4-5.3-11.5-4.4-24.9-1.4-37.1,2.8-13.6,10.8-25.6,10.8-39.9-.2-3-.5-7.4-4.2-8.3-5.7-2.5-11.5-5.1-17.1-8.1-.2-.2-.5-.7-.7-.7-2.3-3.7-4.6-7.1-7.1-10.6,16.8-21.7,32.7-44,48.9-66.1A156.5,156.5,0,0,1-4.8,266.9l2.5,3.9c-.5-1.4-1.4-3.7-1.8-5.1,15.7-22.4,34.6-42.8,56.7-59C70.3,193.8,92,188,113.4,184.6c19.1-2.5,40.8-5.1,54.4-19.8l1.2-1.2c10.4-7.4,10.6-21,12-32.5.2-12.4,1.8-25.1-2.1-37.1-2.3-8.1-12.4-4.6-17.8-9-9.2-7.6-13.8-18.9-17.5-30-4.4-12.5-6.2-26.3-1.8-38.9,4.1-11.1-.9-22.6-1.6-33.9-1.2-16.1-2.1-32.9,2.3-48.6,2.5-9.4,10.8-15.7,17.3-22.4,9.7-9.5,21.2-16.1,32-24,2.5-12,1.8-24.7,6.7-36.2C202.2-157,210.3-164,218.4-170.1Zm8.7-11.8c3-2.1,6-4.2,9-6,1.2,1.2,3.7,3.2,4.8,4.4,2.1-1.6,4.1-3,6.2-4.6,1.4,1.4,3.9,4.2,5.3,5.5,1.4-.9,3.9-2.5,5.3-3.5-3.2-12.4-6.9-25.6-16.4-34.8C232.2-210,228-196,227.1-181.9ZM217-159c-9.7,6.9-13.1,19.6-12.9,31.1,2.1-2.1,4.1-4.4,6.2-6.7,2.8,1.4,5.5,2.5,8.3,3.7.9-1.6,3-4.6,3.9-6.2l4.6,4.6c2.8-1.8,5.3-3.9,8.1-5.7.9,1.4,2.5,4.4,3.2,5.7,1.6-1.8,3.5-3.5,5.1-5.3l8.3,4.1c3.5-3.2,8.3-5.7,10.4.5l8.3-4.8c1.6,2.5,3.2,4.8,5.1,7.4,2.3-1.8,4.6-3.7,6.7-5.5,2.1,2.1,4.2,4.1,6.2,6-1.8-11.3-6.7-22.9-16.1-29.5-16.5-11.7-39.8-10.8-55.4.6ZM174.1-90.4c1.8,1.2,3.7,2.1,5.5,3.2l5.4-6c2.5.2,5.1.5,7.6.9,1.2-2.5,2.3-5.3,3.7-7.8,1.4.9,4.2,3,5.3,3.9l4.2-6.2c1.8.9,5.3,3,7.1,3.9,2.1-2.3,4.4-4.4,6.5-6.4,2.5,1.6,5.1,3.5,7.4,5.1a55.06,55.06,0,0,0,2.5-5.7c2.8,1.2,5.7,2.5,8.6,3.7,1.4-1.1,3.9-3.2,5.3-4.1,1.4.7,4.6,1.6,6,2.3,3.2-3.2,6.4-3.2,9.7.2,1.4-.9,4.2-2.5,5.5-3.5,4.6,2.1,9.4,4.6,13.6.5,1.6,2.1,3,4.1,4.6,6,2.5-.7,5.3-1.1,7.8-1.6,5.2,4.3,12.3,4.6,18.3,7.6-2.5-6.7-10.1-9-16.1-11.5-19.1-6-39.4-8.3-59.2-5.3-20.8,2.1-42.2,7.9-59.3,20.8ZM148.3-57c.5,1.6,1.4,4.8,1.8,6.5,2.5-.2,3.9-2.8,6-3.9,5.7-5.1,14.8-1.4,19.8-8.1h6c8.6-5.5,19.1-5.3,28.6-8.8,3-1.2,6-.9,9.2-1.4a14.76,14.76,0,0,1,9.7-1.2c1.2-.7,3.2-1.8,4.1-2.5,6.7.5,13.4-.7,19.8-.2a12,12,0,0,0,3.2-9.2C219-83.7,181.4-75,148.3-57ZM271.4-86.3a36.57,36.57,0,0,0,.5,5.7c3.7-1.2,7.1-2.3,10.8-3.7a26.19,26.19,0,0,0-11.4-2ZM293-84.4c.2,5.1,4.1,8.6,7.1,12.2,6.7-2.5,13.4,2.1,20,3,7.6,3.9,15.4,7.8,23.1,11.8,2.1-4.2-3.5-6-5.7-8.3-13.6-9-28.9-14.8-44.5-18.7ZM208.2-59.7c-3.9,1.4-10.1.7-10.1,6.2,19.1-5.1,38.9-6.9,58.8-9.7-.5-.7-1.1-1.8-1.6-2.5C239.6-66,223.9-62.7,208.2-59.7Zm87.1-3.2c4.2,3.2,9.5,3.7,14.3,5.1,9,1.8,17.5,5.7,25.6,9.9-.2-.9-.7-2.5-.9-3.5-11.1-7.9-25.4-12.5-39-11.5ZM179.7-50.5c3.5,19.4,3.5,41.2-9.4,57.1-3,2.5,2.3,7.1,4.4,4.1,16.6-16.8,17.8-42.6,14.1-64.5-3.2,1-6.2,2.1-9.1,3.3Zm91.5-1.6a56.54,56.54,0,0,0,2.3,5.7c1.8-1.4,3.9-2.8,5.7-4.4a22,22,0,0,0-8-1.3Zm20.9.7c-.2,1.2-.7,3.7-.9,5.1,13.8.2,26.3,7.1,39.9,7.8-10.9-8.6-25.6-10.4-39-12.9Zm-85.7,6.9c-2.8,1.1-8.8,1.6-6,6.7,8.1-2.3,16.4-4.4,24.6-4.4,10.6-3.9,22.1-3.9,33.2-4.6.7-1.2,1.8-3,2.5-4.1a212.25,212.25,0,0,0-54.3,6.4Zm-42.6,0c1.8,16.4.9,33.9-9.7,47.5,2.8-.5,6.7.7,8.1-2.3a51.08,51.08,0,0,0,9.4-32.3c-.5-5.3.2-13.8-7.8-12.9Zm179.8,2.8c-2.5,3.5-3.9,7.1-.7,10.6,1.6-1.6,3.2-3.5,4.8-5.1-.2-1.1-.7-3.7-.9-5.1-1,0-2.7-.5-3.2-.4ZM147.2-36c.2,7.8.2,15.7,3,23,5.7-7.1,4.8-16.4,3.7-24.9-2.4.7-4.7,1.2-6.7,1.9Zm59.3,7.6c-2.5,1.4-6.7,2.1-7.1,5.7-3,16.1-8.1,32.7-19.8,44.5,2.8,5.1,4.4,10.8-1.2,14.8C174.3,34.1,168.3,32,168,26a12.18,12.18,0,0,0-13.1-11h0l-1,.1c-8.3,9.9-6.5,24.2-2.5,35.7,3.2,8.8,6.2,18.7,14.3,24.4,4.4,3.5,10.1,3.7,15.4,4.4,2.1,18.7,13.8,35.5,29.7,45.4-.7,1.4-2.1,4.4-2.8,5.7a128.23,128.23,0,0,1-14.5-5.7c-6,14.1-6,30-12.7,43.8,20,14.1,45.6,16.4,69.1,16.4,21.7-1.8,44.5-4.1,63.8-15.4-8.8-10.6-10.1-24.7-12.7-37.6-11.1,7.1-23.5,13.8-37.1,11.8-12.4-1.8-26.5-6.7-32.5-18.7,1.2-1.2,3.2-3.7,4.4-5.1,9.4,9.9,23.3,17.1,37.1,14.5,15-3.7,27.4-14.5,35.3-27.6,13.8-23.1,15.7-50.7,15.2-77a25.7,25.7,0,0,0-22.6-1.6c-6.7-3-14.3-.2-20.3-4.4.9-8.1,3.9-16.8,11.5-20.7,10.4-6,22.9-2.5,33.9-.7-.2-9.9-.7-19.6-.9-29.5-12-5.7-25.3-8.3-38.3-10.8-4.6.9-8.8,4.1-13.4,4.1-5.3-1.2-10.6-3.5-16.1-2.8-17.4,1.2-34.7,2.1-50.7,7.9ZM335,11.9c-2.8,12-8.1,26.5-.2,37.3,1.1-5.5,3-11.1,4.4-16.6,2.1-7.1,0-14.7-.7-21.9-1,.3-2.6,1-3.5,1.2Zm-21,.9a62.15,62.15,0,0,0,7.8,7.6c1.2-1.6,2.5-3,3.7-4.6-3.9-1.1-7.8-2.3-11.5-3Zm-.7,168.7c5.3,4.6,11.8,9.7,11.3,17.5-1.8,6.5-10.4,7.8-15.9,5.5-5.7-3.7-6-11.3-6.2-17.5a79.79,79.79,0,0,1-7.6,3c11.1,7.1,8.3,27-5.7,28.1-12.2-1.6-13.8-16.6-8.6-25.6a136.41,136.41,0,0,1-19.1,2.3c12,6.2,18.2,21.4,12,33.9-6,13.4-27.1,14.1-35,1.8-7.1-12.2-1.8-27.4,9.2-35.3-27.1.9-53.9-6.5-78.5-17.1.7,4.4,3.7,7.8,6.7,11.1-3.9,3.7-7.8,7.6-12.7,10.1-5.7.5-8.3-5.3-10.4-9.7-4.4-.9-9-1.4-12.9,1.4,15.2,17.1,35.9,27.6,56.2,37.6,21.2,8.8,42.4,19.6,59,35.7,15.4-25.1,43.6-38,69.8-49.1,17.5-8.8,33.6-22.6,42.2-40.6-7.1-.5-14.1-.9-21.2-1.2.9,7.8-.2,18.9-10.6,19.6l-8.6-8.6q3.15-6.3,5.7-12.9c-7.8.4-12.8,6.8-19.1,10Zm69.6-4.6c-26.7,49.1-57.8,96.3-96.6,136.7-19.4,20-40.8,38.2-65.5,51.4,10.1,0,15.9,8.8,22.6,15.2,44.7-31.4,79.5-74.7,109.2-120,15.2-24,29.7-48.6,41.3-74.9-6.9,7.8-10.6,17.5-15.9,26.3-25.6,43.8-53.7,86.6-89.9,122.4a167.37,167.37,0,0,1-30.6,24.4c-3.7,1.8-9.7,2.3-11.1-2.8,1.6-4.6,6-7.4,9.7-10.2,24.4-18.4,44.9-41.2,63.8-65.2a735.43,735.43,0,0,0,67.5-104.4,42,42,0,0,1-4.5,1.1Zm-2.7,66.6c-20.5,45.4-49.6,86.2-80,125.4-40.3,48.2-93.6,83.7-149.3,111.1-8.3,7.6-4.8,20.5-1.2,29.7,24.5-6,46.8-18.4,67.5-32.4,27.9-21.9,51.2-48.9,72.8-76.7,10.4,8.1,23.7,8.6,36.2,11.1,4.6,0,4.2,5.5,5.7,8.3-13.4,2.3-27-.9-40.1-3.5-33.4,45.9-78.8,84.3-132.7,103.7a121.18,121.18,0,0,1-6.7,32.7c14.1-.5,27.9,3.5,41.9,2.8,11.8-11.3,28.8-14.8,44.5-12.2,9.9.7,17.5,7.8,26.7,10.6,13.1,4.4,28.8,4.6,40.1-3.9,10.4-7.4,24.7-11.8,36.9-6.2,6.2,3.7,11.3,9,17.3,12.9,18.4-1.4,36.9-2.1,54.9-7.6-3.2-16.8-2.8-33.9-1.6-50.7,3.5-38.6,12-76.5,22.1-113.9,6.7-22.1,12.7-44.7,18.2-67.1,1.6-9.2,1.4-18.7,6-27,6,2.8,12,6,17.5,9.2a92.8,92.8,0,0,1,4.8-22.1,79.45,79.45,0,0,1,20.7,10.6c.5-9,3.9-17.5,8.1-25.6a103.34,103.34,0,0,1,17.1,13.8,55.17,55.17,0,0,1,4.8-15.9c-21.9-32.5-51.6-62.5-89.9-74.4-15,16.6-24.4,37.1-32.7,57.8-14.8,39.4-22.1,81.4-24.9,123.1.5,32.3,7.1,65,22.1,94,3,5.3,4.1,12.9-2.5,16.1-9.5-10.8-25.1-7.6-35.7-.7-12.5,8.6-27.1,15-42.6,14.1-15.9,0-28.8-11.1-44.3-13.4-3.5-.9-9.9-1.2-9.9-6.2-.5-4.1,5.3-3.7,7.8-5.7,20.7,9.2,44.3,21.4,67.1,12.4,15.7-9.4,31.3-22.4,50.9-20a16.72,16.72,0,0,0-21.5-3.3c-9.4,6.7-18.4,15-30,18-16.4,6-32.7-1.8-48.4-6.5-6.5-2.1-16.4-3.5-15.4-12.4,5.5-1.4,11.5-1.4,16.6,1.8,12.5,6.7,26.7,9.9,40.8,7.6,18-2.3,28.3-23,47.5-21.4-1.4-7.8-6.9-14.5-5.7-22.9-7.4-3.2-14.5.9-21.7,2.3a10.76,10.76,0,0,1-3.5-7.1l-6,1.4c-.2,1.1-.4,2.1-.5,3.2,2.5,1.2,4.8,2.3,7.4,3.7-2.1,2.5-2.8,6.2-6,7.8-11.5,5.5-24.9,5.5-37.6,5.1-2.3-3-5.7-8.8,0-10.4,10.6.5,21.7,1.8,31.6-3-1.8-2.8-3.7-5.5-5.3-8.3,6-3.7,9.9-9.7,15-14.1,6.9-2.3,14.3-4.4,20.7-8.1-.2-31.1,2.3-62.5,9-92.8,1.4-6.7,4.4-13.4,3.5-20.5-25.8,39.9-53.2,78.5-81.1,117.1-2.1,2.8-5.5,4.1-8.3,6-1.1-2.3-2.3-4.8-3.5-7.1,25.6-28.6,47-60.8,67.3-93.1a1203.67,1203.67,0,0,0,64.5-118c-3.9-.5-7.8-1.2-11.5-1.6-14,19.3-24.5,41-35.5,62.4ZM59.1,213.1A170.07,170.07,0,0,0,7.9,262.2c3.7-.7,7.1-1.4,10.8-2.1,1.8,10.1-1.9,20-2.5,30.2,7.4-9,19.1-11.3,29.7-15a126.56,126.56,0,0,1-2.3,24.6c7.8-4.1,16.6-6.4,25.1-9a167.48,167.48,0,0,1,3,22.4c6.2-3.2,13.4-3.7,20.3-3.2a32.13,32.13,0,0,1-11.5,26.7,81.94,81.94,0,0,0,2.3,8.1c38.7,7.6,77.9,12.5,116.8,18.7,29.3-13.6,54.6-34.3,77.4-56.9a569.11,569.11,0,0,0,79-100c-18.7,14.3-40.1,24.4-61.1,35a97.16,97.16,0,0,0-40.8,43.1c-8.8-18.7-27.1-30-45.4-38.2a294.24,294.24,0,0,1-83.9-51.4C102.4,197.7,79.2,201.4,59.1,213.1Zm189.7-3.5c-5.5,3.2-5.3,12-1.1,16.4,5.7,5.3,17.7,2.3,18-6.4,1.3-9.3-9.8-13.9-16.9-10ZM.8,282.7c1.4.2,4.4.7,6,.9a145.51,145.51,0,0,0,3-14.3A39.09,39.09,0,0,0,.8,282.7Zm511.9-5.5c-.7,3.7-1.1,7.4-1.6,11.1,4.2-2.1,8.3-4.1,12.5-6.4a20.1,20.1,0,0,0-10.9-4.7ZM27.9,293c2.1,1.2,4.2,2.5,6.2,3.9,1.4-4.2,2.5-8.1,3.7-12.2A37.73,37.73,0,0,0,27.9,293Zm455,25.9c-8.6,5.5-18,9.9-25.3,16.8.9.2,2.5.5,3.5.7,25.8-15,52.3-29.3,78.3-44a4.08,4.08,0,0,0,2.8-5h0l-.1-.2c-20.9,8.7-40,20.4-59.2,31.7Zm3.4-29.3a99.81,99.81,0,0,0-.7,12.2c3.6-1.7,7-3.5,10.4-5.5,1.6-4.8-6.4-4.6-9.7-6.7ZM-6.9,293.5c.5.7,1.2,2.3,1.6,3,25.1,7.1,48.6,20.8,65.7,41,3,4.1,7.6,6,12.2,7.6-14-30.4-48.1-45.6-79.5-51.6Zm59.5,13.6c3.5,2.5,6.9,4.8,10.4,7.1-.2-4.6-.2-9.2-.7-13.8-3.2,2.4-6.5,4.7-9.7,6.7ZM462.4,303a40.4,40.4,0,0,0-.5,11.5,30,30,0,0,0,12.5-7.1A50.78,50.78,0,0,0,462.4,303Zm71,6c6.5,4.4,8.3,12,8.3,19.4,3.5-1.4,6.7-3,9.9-4.6-6.2-4.8-10.6-11.5-9.9-19.6ZM-8,307.3c4.4,4.1,10.4,6.7,11.5,13.4,9.7-5.1,22.6,1.8,22.9,13.1,1.8-.7,5.5-1.8,7.4-2.5a33.82,33.82,0,0,0,11.3,3.5C30.1,321.6,12.1,310.4-8,307.3ZM228.7,410.2c-7.8,5.3-13.1,12.9-17.5,21,16.8-7.4,30.9-19.1,44.5-31.1,26-24.2,48.4-51.9,69.4-80.4a104.89,104.89,0,0,0,7.8-12.2c-30.2,38.6-67.1,71.3-104.2,102.7Zm275-87.2a24.85,24.85,0,0,1,10.4,20.5c3.7-2.3,7.4-4.4,11.1-6.4a20.87,20.87,0,0,1-8.6-20.8c-4.4,2.4-8.6,4.7-12.9,6.7Zm-429.9.5c1.6,2.1,3,4.2,4.6,6.5,1.6-3.7,3.2-7.1,4.8-10.8-2.9,1.1-6.1,2.7-9.4,4.3Zm410.7,52.6c-3.5,2.8-8.3,4.6-8.8,9.7,8.6-3.2,14.8-10.4,22.9-14.3,8.1-7.4,17.1-14.1,27.6-17.3,3-.7,4.8-3.7,7.1-5.5,6.7-6.9,17.3-6.4,24.4-12.4,3.9-3.2,11.8-2.3,12.5-8.3l-2.1-1.4c-30.1,12.2-56.9,31-83.6,49.5Zm-12.9-36c10.4.2,16.4,9.9,15.7,19.6,3.9-2.1,8.1-4.4,12-6.5-7.6-4.4-15.7-10.1-15.9-19.8C479.5,335.7,475.5,338,471.6,340.1Zm15.2,53.7c8.1,6.7,15.9,14.1,23.5,21.4a97,97,0,0,1,21-7.4c-20.3,17.1-28.6,44.5-27.1,70.3,18.4,1.9,33.4,14.5,51.6,17.5a53.16,53.16,0,0,0-.7,28.8c19.8-16.6,31.6-40.8,38.7-65.2,5.1-41-7.1-82.7-28.1-118-28.8,13.6-54.7,32.5-78.9,52.6Zm-30.6-41.4a59,59,0,0,0,13.1,21c1.8-1.8,3.5-3.7,5.1-5.5a76.56,76.56,0,0,1-9.2-8.8c-3.7-3.7-.5-9.5-.7-14.1-2.5,2.3-5.3,4.8-8.3,7.4ZM-21.1,365.7l-27.7,40.8c.9,3.9,4.8,3.9,8.1,4.6,27,4.4,53.9,9,81.1,13.1,18.7-10.4,18-35.5,34.6-47.7,7.1-4.6,15.2-.2,21,4.6a22.76,22.76,0,0,1,15,5.3c8.6-1.6,15,4.1,18.7,11.3,5.3,2.3,12,6.2,10.4,13.1-3,10.1-7.6,19.8-7.8,30.7,15.9,2.3,31.8,7.8,47.7,8.1a309.38,309.38,0,0,0,46.8-58.3C153.1,379.6,79.4,369,5.9,357.7c-9.5-2.2-21.2-.6-27,8ZM456.2,383c-5.3,34.3-3.9,69.4-1.6,103.9,6.2-31.1,3.7-62.9,4.6-94.5C458.7,389.2,460.6,384.1,456.2,383ZM66.5,406.3c-6,16.1-18,32.3-35.9,35.7-4-2.2-8-4.2-12.2-6-1.6,7.6-3.2,15.9-.5,23.5,3.9,12.9,16.6,20.3,28.8,23.5,9.7,1.8,20.5,2.1,28.8-4.1,13.6-9.5,26.5-19.8,39.4-30,11.8-8.8,10.4-25.1,13.4-37.8-9.5,6.4-8.3,19.4-14.1,28.1a129.13,129.13,0,0,1-17.3,19.6c-3,.9-6.9.5-6.9-3.7,6-8.8,14.3-16.1,18.9-25.8,3-10.4,8.6-20.7,6.5-31.8-3,.9-7.1.9-7.6,4.8-3,10.6-5.1,21.9-10.1,31.8-4.1,7.6-10.4,13.8-16.4,20-3.5-2.5-4.8-6.5-5.1-10.6,14.7-12,20.7-31.1,22.9-49.3-10.8,3.9-12.4,17.3-16.6,26.5-1.8,11.8-12.4,18-20,25.3-3.9-1.4-5.3-4.8-5.7-8.8C69.2,431,72,416.5,78.5,405.4c3.2-6.7,8.1-13.1,6.7-21-11.1,1.3-14.6,13.3-18.7,21.9Zm404-13.4c-.2,30.6-2.3,61.1-4.8,91.5a62.78,62.78,0,0,1,25.1-2.5,134.47,134.47,0,0,1,10.1-52.8c.5-2.1,3-5.1.5-6.7-9.7-10.4-20.3-19.9-30.9-29.5ZM422.8,516.2c3.9-1.8,7.8-3.7,11.8-5.7a73.91,73.91,0,0,1,9.5-13.4c-3.5-31.1-.9-62.5-1.6-93.6a275.21,275.21,0,0,0-19.7,112.7ZM-36.1,423.8c.7,24-17.3,44-15.2,68-.5,10.4,8.6,16.6,14.3,24a39.6,39.6,0,0,1,8.6,17.1c1.9,7.8,10.4,11.5,18,10.8,12.7-1.4,24.9-4.6,37.3-6.9,12.2-2.1,23.5-13.1,21.7-26-9.7-1.2-19.1,1.1-28.6,1.1a54.67,54.67,0,0,0-8.6-16.6A79.1,79.1,0,0,1-4,459.8c-1.6.5-5.1,1.2-6.7,1.6-.9-3.5-5.3-7.6-2.1-10.8C-7.3,445.8.1,444.1,7,442c-.5-3.7-.9-7.6-1.4-11.3-14-2.3-27.8-4.6-41.7-6.9Zm169.2,37.3c2.3,4.8,6.4,8.1,10.4,11.3a30.87,30.87,0,0,1,18.9-9c-.2-.9-.9-2.5-1.2-3.5-8.3-2.8-16.8-3.9-25.1-6.5-2.1,1.9-6.5,4.4-3,7.7ZM8.6,465.5c-.5,11.8,11.8,17.1,14.5,27.4,1.6,5.5,8.3,3.7,12.5,4.4,7.1-.2,17.3,3.2,21.2-4.8-13.1-.9-27.4-3-37.3-12.4-4.6-4-6.3-10.5-10.9-14.6Zm502.1,25.4a92.45,92.45,0,0,1,29,49.8c3.7-3,6.9-7.4,6.5-12.5-.9-8.6-1.8-17.1-1.1-25.6-11.4-4.4-22-11-34.4-11.7ZM466.4,498c-.9,4.4-3.9,8.8-3.2,13.4.5,3.7,4.6,3.2,6.9,1.8,3-3,4.6-6.9,8.1-9.4,6.5,3.9,3.7,12.2-.5,16.8-4.8,6.7-13.8,7.1-21.4,8.3-8.6,1.4-19.1-1.2-25.1,6.7,12.4,3.7,25.3,2.1,38,.9,3-.7,7.8,2.1,5.7,5.7-4.4,9.2-18.4,1.6-22.4,10.4,9.9,3.7,20.7.9,29-5.1,3-2.5,9-4.4,9.2,1.6-8.6,11.3-23.3,13.6-36.6,15-.2,1.1-.5,3.7-.7,4.8,12.7,2.3,25.6-.9,36.4-7.6,1.8,1.8,3.7,3.5,5.5,5.3-7.6,9.5-20,11.8-31.4,13.4.2,5.1,5.7,4.4,9.5,4.6,17.3-.2,32.7-9.5,45.9-19.8,9.9-8.1,11.1-22.9,7.1-34.3-5.7-15.7-17.1-30.9-33.6-35.7-8.7-3.5-18.6-1.7-26.4,3.2Zm-41,51.6c3.5,5.1,6.9,10.8,12.9,13.1,3.9-3.5,0-8.8-.2-13.1Zm-103.5,2.3a21.8,21.8,0,0,0-2.5,2.8c1.8,7.6,11.5-4.6,2.5-2.8Zm-89,.7c1.4,5.5,1.4,11.3-2.1,15.9,6.2,5.5,8.6,14.1,4.6,21.7,5.3,6.7,7.1,16.4,1.6,23.7,1.4.7,4.2,1.6,5.3,2.3a135.4,135.4,0,0,1,1.1,16.8c5.5,3,10.6,7.4,11.3,14.1,1.6-.2,4.6-.9,6.2-1.2,3.7,1.6,7.4,3,11.1,4.4,7.4,0,14.8-1.2,21.9,0a89.94,89.94,0,0,0,10.8-5.3c-14.5,2.5-30.4,3.7-43.8-3.5-9-4.6-14.8-14.5-15.5-24.4-1.8-18.7-6.7-36.6-10.1-55.1,1.4,0,3.9-.2,5.1-.2,8.6,4.4,17.5,9.2,27.2,9.7,14.7,1.4,31.1-.2,41.9-11.3a40.12,40.12,0,0,0-6-.2c-6.9,5.1-15.2,9.7-24.2,9-15.9-1.7-29.4-15.7-46.4-16.4ZM411.3,563c-15.9,3.5-32.3,3.7-48.4,4.6-6.7,2.8-2.8,11.1-3.2,16.6a115,115,0,0,0,7.1,9.7c4.6,2.8,10.4,1.8,15.4,2.5,7.1-7.1-2.5-15.4-2.5-23.3,8.1-2.3,10.1,8.6,18,8.6,0-8.3,10.8-7.6,15.9-11.1-.5,6.2-5.5,10.1-7.8,15.7-.9,3.5,1.1,6.7,2.5,9.9a101.76,101.76,0,0,0,19.1,1.4c3.5-3.2,6.9-6.9,11.8-8.1,4.1-.2,8.3.9,12.4,1.4-.2-2.3-.7-7.1-.9-9.4-8.6-3.2-17.3-6-24.9-11.1C421.4,566.9,417.5,560.7,411.3,563Zm-266.5,3.9c-12.2,4.8-17.8,18.4-21.4,30.2,10.1,1.6,21.2,3.5,31.1-.7,3.7-1.6,2.5-6.7,3-10.1-.9-4.2-6.5-4.2-8.8-7.4.2-3.7,3.5-5.5,6-7.6,6.5,2.1,13.1,5.7,20,2.8,1.8,5.7-2.1,11.1-3,16.6-1.8,6.7,4.6,14.3,11.8,13.4,5.7,0,15.9-.5,15.7-8.6-.9-9.4.2-21.4-7.1-28.6-15.9-2.5-32-4.4-47.3,0Zm60.4-.5c3.7,29,7.4,57.8,11.1,86.9,1.2,9.9,8.6,18.2,17.1,22.6,12.2,6.2,26.3,7.6,39.6,7.6,18-1.4,36.6-2.1,53-10.1,11.5-5.5,21.7-16.1,22.9-29.3,2.8-22.4,1.6-44.9.2-67.3-.7-3.9.2-8.8-3.2-11.8,0,24.7,1.4,49.6.2,74.3-2.8,19.4-22.4,30-39.6,34.6-19.8,4.6-41.3,7.1-60.9.9-12-3.9-24-13.4-25.1-26.7-4.4-27-8.1-53.9-11.5-80.9a16.06,16.06,0,0,1-3.8-.8Zm112.5,2.1c.7,2.8,1.2,5.7,3,8.1,4.9-2.3,2-9-3-8.1Zm-101.9,1.4c.2,1.6.5,5.1.7,6.9.9-.5,2.8-1.6,3.7-2.1.2-.7.9-2.3,1.2-3-1.7-.4-4.2-1.4-5.6-1.8Zm77.2,8.6c15.2,8.3,22.9,30,12.7,44.7-9.9,14.3-32.9,14.3-44.3,1.8-3-2.8-3-8.8-7.1-10.1-3,2.8.9,7.4,1.8,10.4,7.6,12.4,24.4,15.9,37.8,13.4,8.1-1.4,17.8-4.8,19.8-13.6,2.8-15.2.9-30.9,0-46.1.2-3-1.8-5.5-3-8.1-5.7,2.9-12.4,3.8-17.7,7.5v.1Zm-45.8.7c1.9,10.1,3.9,20.5,4.8,30.9l2.3,2.3c1.6-4.8,0-10.1,2.1-15,2.5-7.6,9-12.7,14.1-18.4-7.1-2.3-14.5-4.6-21.7-6.7-.4,2.3-1,4.6-1.6,6.9Zm256.3,8.7c-8.8,3-18.2,3.5-27,6.2-9,3-14.3,11.5-20.3,18.4-27.1,36-38.9,81.1-41.4,125.4-7.6-7.8-7.1-19.6-6.7-29.7a241.08,241.08,0,0,1,9.7-51.2c4.4-12.7,9.9-25.8,20-35.3,5.1-4.6,8.1-10.6,11.5-16.4-12-1.6-23.3,4.2-32,12-2.3,3.7-3.7,8.3-7.1,11.3-24.4,24.4-42.8,56.7-44.3,92-.9-.2-2.5-.7-3.2-.9.2-24,4.4-49.1,18.9-68.7,3.9-6,11.3-9.7,13.6-16.8-6.7,2.1-11.3,7.4-15.7,12.2-20.5,22.4-30.2,51.8-37.8,80.4-6.9-1.8-5.5-11.1-5.7-16.6,3-14.3,11.5-26.3,17.1-39.6,5.7-12.9,15.5-24.2,18.2-38.6-12.7.7-12.4,15.4-14.5,24.7-5.1,10.8-15,18.4-24.4,25.6-5.1,23.1-2.3,46.8.2,70.1,3.7,26.5,9.9,54.6,27.9,75.3,12.9,15.2,34.3,22.4,53.7,17.1a702.72,702.72,0,0,1,16.9-97.7c2.3-9.9,6.7-20,15.2-26-3.5-9.2-3-20,2.5-28.3,1.6-3.5,5.7-2.5,8.8-3.2a47.22,47.22,0,0,0,1.1,20.8c-1.4,3.9-1.8,7.8-3.5,11.8-8.8,11.7-13.6,25.6-18.9,39.2-1.8,6-5.1,13.6,0,18.9,12.9-1.6,25.8-4.8,38.9-4.4,27.9-1.1,56.5,6.9,78.1,24.9,16.4-23.7,25.1-52.3,26.7-80.9-3.5-2.5-8.8-4.1-9.2-9.2,4.8-6.9,12.9-10.8,18-17.8,18.2-20.3,24.9-50.7,15-76-9-17.1-27.1-26.7-45.4-30.6-17.6-4-37-4.9-54.9,1.6Zm-229.3,2c-13.8,5.5-13.6,29.7,1.4,33.4,11.3,4.8,27.1-3.2,24.7-16.6C301.3,593.4,285.6,582.6,274.2,589.9ZM-26.3,600.1c-20,14.5-29.5,39.9-29.7,64.1,0,17.3.5,36.2,10.6,51.2,3.2,5.5,8.6,10.4,10.1,16.8,6,25.3,15,50.5,29,72.6,9.9-12.5,24.2-20.5,39.2-24.7,29.5-8.1,60.4-3.7,89.4,3.7-1.2-30.9-13.8-60.9-33.2-84.8l5.5-7.6c27.1,27.1,36.4,66.4,42.2,103,1.6,6.7,0,14.3,3.2,20.3,6.5,4.8,14.7,5.3,22.4,6.9,19.4-12.7,29.7-34.6,35.7-56.2,5.1-19.6,8.1-39.9,5.1-59.9-1.6-15.9-5.3-31.8-13.6-45.7-5.3-13.6-14.5-25.8-27.6-32.4,6.5,12.2,19.1,23.7,15,38.9-5.1-3.2-6-9.7-9.2-14.5-15.4-27.9-45.9-44.7-76.5-49.6A177.1,177.1,0,0,1,112,635.6a45.29,45.29,0,0,1,3.9,22.1,200.52,200.52,0,0,0-34.3-48.9c-19.6-18-48.4-21.2-73.7-18.9C-3.6,591.5-16.7,592.2-26.3,600.1Zm390.8,5.3c-6,3.7-3,10.8-2.3,16.4a47.81,47.81,0,0,1,21.2-6.2c7.6,0,14.3-4.4,21.4-6.9,3-6-7.4-8.1-10.1-12.2-6,10.9-19.3,11.3-30.2,8.9ZM614.8,607a5.5,5.5,0,0,0,6.2,3.9c54.6,0,109.2.2,163.9,0,1.2-.4,2.3-.9,3.5-1.4l-1.1-2.1c-57.5-.2-115.1-.7-172.5-.4Zm-393.5,3.2c.7,3.2,1.2,6.7,1.8,9.9,1.8-1.8,3.5-3.5,5.3-5.1A80.45,80.45,0,0,0,221.3,610.2Zm-38.5,5.3a176.32,176.32,0,0,1,20.5,19.1,164.78,164.78,0,0,0-5.1-22.1c-5,1.2-10.3,2.3-15.4,3Zm435.1,6.7a156,156,0,0,1,8.1,39.4c35.3-.2,70.3.2,105.6-.2,10.1-4.1,17.5-12.9,24-21.4,3.2-5.5,8.8-10.8,7.1-17.8-48.4.2-96.5,0-144.8,0ZM225.5,636.9c1.6,15.4,12.7,30.4,29.3,31.1a60.55,60.55,0,0,0-2.8-5.7c-3.7-6-12.7-2.5-16.6-8.1-4.1-4.1-3.2-10.1-3-15.4a39,39,0,0,0-6.9-1.9Zm68.9,24.2c-3,2.1-.9,7.8,3,6.5,4.8-1.2.9-9.7-3-6.5Zm-22.6,3.5c-3.9.9-1.8,6.7,1.8,5.1,4.2-.7,2-7-1.8-5.1Zm-59.6,18c-.2,10.1.9,20,1.1,30.2,0,34.1-3.7,70.3-22.9,99.8-9.5,15-27,26-45.2,21.9-.9,6.2-2.1,12.7-.2,19.1,6.5,26.7,14.3,53.2,22.4,79.5,16.6,4.4,35.5,5.1,50.2-4.6,20-13.1,29-37.3,32-60.1,5.1-51.6,7.4-103.3,9.9-155.1-.2-6.2,1.4-12.9-.7-18.9-12.4-3-26.7-2.1-37.1-10.8-2.3-2.9-8.3-7.7-9.5-1ZM608.6,684c-3.7,7.8-7.1,15.9-14.1,21.2-3.9,21-9,41.9-13.8,62.9,1.4-.2,4.1-.9,5.5-1.2,15.7-25.6,22.4-55.7,26.7-85.3-1.4.8-2.9,1.5-4.3,2.4Zm-314.9,8.7c-7.4.7-15,.2-21.9,2.8-4.8,25.1-3.7,50.9-6,76.3-.9,20.3-1.9,40.6-2.8,60.6,2.8,26,8.1,52.8,23.1,74.7,9.4,13.8,25.6,23.3,42.4,21.4,5.3-6,10.4-12,15.7-17.7a122.1,122.1,0,0,1-58.3-102.3,15.94,15.94,0,0,1,6.2,7.6c9.7,23.5,22.6,46.1,40.6,64.5,17.3,17.1,40.1,30.2,65,29.7,1.8-3.9,3.5-7.8,5.3-11.8-2.3-2.3-4.6-4.6-8.1-5.3-26-7.1-51.6-18.9-70.1-39.2-17.5-19.1-26-46.3-21.2-71.9l3,1.6c3.7,20.5,10.6,41.3,24,57.6,18.2,23,48.6,34.8,77.7,32.3.7-3,1.4-5.7,2.3-8.8q-3.45-3.15-6.9-6c-15,1.2-30.4-2.1-42.4-11.3-17.5-13.1-27.1-33.6-33.2-54.2-8.8-30.6-11.1-62.8-10.1-94.7-.2-3,.5-9-4.2-8.8-6.4.6-13.1,2.2-20.1,2.9Zm329.8-3.9c-4.6,27.4-15.4,53.2-27.1,78.1,30,.2,59.7.5,89.6.5-7.4-24.4-9.9-51.4,0-75.4-.7-.7-2.1-2.3-2.8-3.2-19.8-.5-39.9,0-59.7,0Zm-35.3,92c36.4.7,73.1.7,109.5,0-2.3-1.4-4.6-2.5-7.4-2.1H595.8a9.62,9.62,0,0,0-7.6,2.1Zm-154.7,9.7a37,37,0,0,0-1.4,5.5c38.7-9.9,82.3-5.7,115,18.4.7-2.3,1.6-4.6,2.3-6.9a84.73,84.73,0,0,0-27.9-15c-28.5-9-58.9-7.4-88-2Zm-398.4.4A62.83,62.83,0,0,0-1,814.3c.9,1.9,2.8,5.1,3.5,6.9,11.1-14.8,29-22.4,46.8-25.8,25.6-4.4,51.9-.9,77,4.2-1.4-4.4-6-4.4-9.7-5.5-26.6-6-54.7-9.9-81.5-3.2Zm526.4,19.6H724.2c-4.6-5.7-9-12-13.1-18H577.4c-5.3,6.2-10.6,12-15.9,18Zm-106,6.9c7.6,1.6,12.7-7.6,20.3-4.8a56.62,56.62,0,0,1,3.2,9c-2.3,3.2-6.9,1.8-10.1,2.5-5.5-.2-9.9,3.5-14.1,6.5,5.1,3,12.7,4.6,17.3,0,2.5-3,6.5-2.1,9.7-2.1l5.5,6.9c3-.7,5.7-1.4,8.8-2.1.5-5.5-2.5-9.7-7.8-11.5-1.6-5.1.2-11.3-3.2-15.4-10.9-1.9-23.4,1.5-29.6,11ZM64.2,813.2a32.72,32.72,0,0,1-3.5,4.8c-7.8.9-15-3.2-21.9-6l-.7,7.6c-1.2,1.6-3.2,5.1-4.4,6.7,3.9-.9,7.6-1.8,11.5-2.8,16.1,2.1,26.1,17.1,41.2,21,8.8,2.1,13.6-6.4,17.7-12.4-2.8-1.2-5.5-2.1-8.3-3-3.5,3.5-6.7,7.6-11.7,8.8C77,839.1,71,834,67,828.7c-2.5-3,2.1-5.1,3.5-7.4,8.1.2,15.9,2.1,24,2.5a52.35,52.35,0,0,0-3.2-5.7c-3.2-.2-6.5-.7-9.7-.9-2.3-3.7-3.7-9.9-9.2-9.5-2.9,1.9-5.5,3.8-8.2,5.5ZM508.3,834c6-5.3,14.3-10.4,13.4-19.4-7.9,3.3-15.3,9.9-13.4,19.4Zm50.5-12.5c-8.8,23.7-17.5,47.2-26.7,70.8,102.6.9,205.3.9,307.9.9.2-24,.2-47.7,0-71.7q-140.55-.3-281.2,0Zm-777.4,5.1c.2,22.4,0,44.7.2,66.8H16.5c-9.4-22.1-18.2-44.7-27.4-67.1C-80,826.4-149.5,825.9-218.6,826.6Zm260.7,9c-2.8,7.8,5.5,12.4,9.2,18.4,2.1,4.8,7.8,2.5,12,3.5a59.47,59.47,0,0,0,4.4-6.7c-5.1-1.4-10.1-2.1-15-3.7-5.6-1.8-5.3-9.2-10.6-11.5Zm407.2,2.8c-1.8,6.2,5.7,7.6,10.4,8.1-.3-4.9-5.6-9.8-10.4-8.1ZM494,851.7c4.6-.7,11.3,2.5,13.4-3.5-4.7-.4-11.8-2.7-13.4,3.5ZM33.3,864.2a44.72,44.72,0,0,0,12-2.3c-2.1-6.7-10-2.1-12,2.3Zm389.3.2c25.6-2.8,53-5.1,77,6.7,9.2,3.7,15.9,11.3,24,16.8,0-7.4-7.1-10.8-12.2-14.8-22.6-14.6-50.7-15.2-76.7-13.4-4.1.8-9.8.1-12.1,4.7Zm-384.9,12c-3,2.8-11.1,7.4-6.7,11.5,6-5.7,12.4-11.3,20.5-14.5,27.1-11.5,57.4-9.5,86.2-9-4.4-4.4-11.3-2.3-16.8-3.2-27.9-.3-58.5-.3-83.2,15.2Zm379.8,11.5c-6,19.4-11.1,39.2-17.3,58.6,3.9,1.2,6.5,4.6,9,7.6,1.2-1.6,3.2-4.8,4.4-6.5q2.7,3.3,5.1,6.9c3-1.8,6.2-3.7,9.2-5.7.4,2,.8,4,1.4,6,2.5-2.1,4.8-4.1,7.4-6.2.5,1.8,1.6,5.5,2.3,7.4l9-4.8c.9,3.2,2.1,6.2,3.2,9.4,3-2.3,6-4.8,8.8-7.1.5,3,.7,6.2,1.2,9.2,3.2-1.4,6.4-3,10.1-2.1,4.4-3.9,8.8-7.6,11.5-12.9,9.7-18.4,19.4-36.9,29.3-55.1-21.2-16.1-49.1-20.7-75.1-17.5-8.2,1.5-17.2,4.7-19.5,12.8ZM54.8,886.8c12.7,24.6,24.4,49.8,36.9,74.4,1.4,3.2,4.4,5.5,7.1,7.8,0-9.4,3.7-17.7,7.1-26.3.9,1.2,2.8,3.2,3.7,4.4.9-.5,3-1.1,3.9-1.6,3.2,2.1,6,4.4,9.7,6,4.1-1.8,7.8,0,11.5,1.8,1.1-1.8,2.3-3.5,3.2-5.3a40,40,0,0,1,3.2,4.8c1.2-.9,3.7-3.2,5.1-4.2,3.5,3,6.7,2.8,9.9-.7,1.2,1.6,3.2,4.6,4.2,6.2a51.09,51.09,0,0,0,3.2-4.2c-6-21-14.1-41.2-20.5-62.2-1.4-3.2-1.8-8.1-6.2-8.6-26.8-8.1-56.9-5.1-82,7.7Zm203.9-10.9c-1.6,6.2-3.2,12.4-5.3,18.4,4.8,0,9.9.2,14.8.2-3.1-6.1-6.1-12.4-9.5-18.6ZM35.6,900.6c3.7.2,7.6.5,11.3.5C47.8,893,37,894.3,35.6,900.6Zm-233.9,5.5c0,3.5-.2,7.1-.2,10.6H26.7a59.37,59.37,0,0,0-7.4-9.9c-6-1.6-12.2-.7-18.4-.9-66.2.2-132.9.2-199.2.2Zm446,9.9c11.1.7,22.4.7,33.4.5-1.9-11.3-15.7-11.1-24.4-9.9-5.2-.3-12.5,3-9,9.4Zm270.1-6.9c-1.4,2.1-2.8,3.9-4.1,6q155.85,0,312.1-.2c0-1.4.2-4.1.2-5.5-102.7-.5-205.4-.3-308.2-.3ZM231.3,932.4c3.9.7,7.8,1.1,11.8,1.8,2.8-2.3,6.5-3.9,7.1-7.8C243.5,927.2,235.6,926.4,231.3,932.4Zm376.4-6.5c3.5,3,6.7,6,10.1,8.8h9.5c.2-2.1.9-6.5,1.1-8.6-7-.4-13.9-.4-20.7-.2Zm108.3-.4c.5,3.9.9,7.8,1.2,11.8,10.8-.7,22.6,2.3,32.5-3.9a57.36,57.36,0,0,0,5.3-7.6c-13.3-.6-26.2-.1-39-.3Zm48.8,7.1c-6.9,5.7-15.2,12.4-15.4,22.4-1.2,9.2,3.9,19.4,13.1,22.1-4.1-12.7-8.1-29.3,2.5-39.9,11.5-10.4,27.9-7.6,41.9-9-.5-.7-1.1-2.1-1.6-2.8-13.6.5-29.2-2.2-40.5,7.2Zm-952.7-1.2c5.3,8.1,15.2,3,21.7-.9-7.5-1.1-15.2-3.4-21.7.9Zm68.2-3.4a64.76,64.76,0,0,0,10.6,9c7.1-2.5,16.8.2,20.5-8.3a189.86,189.86,0,0,0-31.1-.7Zm470.1,4.9a8.71,8.71,0,0,0,11.9-3.3.1.1,0,0,1,.1-.1C358.7,928.2,349.5,927.8,350.4,932.9ZM506.9,928c1.2,5.5,3.2,10.8,8.3,13.8a39.53,39.53,0,0,0,3-13.6c-3.7-.2-7.4-.2-11.3-.2ZM13.8,930.1c1.4,2.5,2.8,5.1,4.1,7.8,2.8,0,5.3-.2,8.1-.2l.7-7.6Zm364.5,3.4c-5.3,3.5-12.9,6.9-12.4,14.3-.9,9.4,5.1,17.7,12.4,23.1,6-13.1,12.5-27,14.3-41.4C387.5,929.4,382.4,930.3,378.3,933.5Zm293.2.7c-9.5-.5-20-6.2-28.8.2-10.8,10.1-7.6,29.5,4.4,37.3-1.4-9.9-5.7-22.1,2.8-30.2,5.3-5.7,13.4-3.5,19.6-1.2,9.9-8.6,28.6-7.8,34.1,5.3,5.3,9.9-.7,20.7-6.5,29l4.8-.7c11.1-10.1,15-32.3.9-41.7-10-5.3-21.6-1.4-31.3,2Zm-817.2-1.1c8.8,6.2,16.6,14.5,19.4,25.1,2.5,6.5.2,14.3,5.3,19.6a38.93,38.93,0,0,0,4.8-27.7c-5.1-11-18.5-14-29.5-17Zm100.2,1.8c-11.8-2.8-26.3-5.3-35.7,4.4-11.1,10.1-11.5,34.3,5.5,38.6-.9-8.6-4.4-17.1-1.4-25.3a17.47,17.47,0,0,1,15.7-13.1c10.1-1.6,20,3.5,30.2,1.1,8.8-1.4,19.1.5,24,8.8,4.8,9,0,18.9-2.8,27.9,8.3-3.7,13.4-12,16.6-20A17.74,17.74,0,0,0-3.9,934.5H-4c-13.6-5.6-27.5,3.9-41.5.4Zm300.3,4.2c-12.7,10.6-6.7,34.8,9.7,38.2-2.3-8.1-5.5-16.4-4.4-24.9a130,130,0,0,1,5.5-12c3.2-2.1,6.7-3.5,9.9-5.7,3.5.5,7.8,4.2,10.1-.7-2.5-1.2-5.3-2.1-7.8-3.2-7.4,3.9-16.8,2.3-23,8.3Zm270.6,11c-.9,11.5,7.4,21.2,17.7,25.1-6.9-9.2-12.9-22.6-6.2-33.4,4.1-7.4,14.1-4.8,19.8-10.1-6.2-.2-12.5-1.1-18.4,1.2-6.3,3.6-14.1,8.7-12.9,17.2Zm34.1-17.2c-1.8,1.2-3.7,2.3-5.3,3.5,4.2,0,8.6,2.8,12.7,1.2a35.72,35.72,0,0,1,22.6-1.8c8.1,4.6,11.1,15,8.8,23.7-.7,8.1-9.2,11.8-12.2,18.7,16.4-3.9,27.1-27.7,16.1-41.3-11.9-11.6-28.6-3.8-42.7-4ZM35.3,941.2a16.28,16.28,0,0,0-4.8,15.9c.9,7.4,3.7,17.2,12.3,18.7.9-9-5.3-18.9.2-27.4,4.8-9.2,16.4-9,25.3-11.1a9,9,0,0,0-6.9-2.8c-9-.7-19.1.2-26.1,6.7Zm293-2.1a83.29,83.29,0,0,0,3.7,10.6c7.1,6.5,1.4,16.4.7,24.2,6.5-8.3,16.6-18.2,11.3-29.7-2.3-6.7-10.2-5.3-15.7-5.1Zm-119.2,7.1c-3.7,4.8-.9,10.8.9,15.7a53.13,53.13,0,0,0-4.4,15.2c12-5.3,23-18,18.2-31.8-1.5-6.7-11.7-3.7-14.7.9ZM782,942.8c-4.4,1.2-10.1,1.2-12,6-5.3,9.2,1.1,19.1,5.7,27.1,9.5-1.9,18.7-7.4,22.1-16.6,2.3-5.3,1.6-11.3,1.4-16.8a38.46,38.46,0,0,0-17.2.3Zm-949.7,2.3c-9.2,3.2-7.4,17.1-.5,21.9a113.16,113.16,0,0,0,26.7,12.2c2.5-2.5,7.6-3.9,7.6-8.1C-134,954.7-151.3,939.3-167.7,945.1Zm661.2,2.3c-5.1,9.2-10.4,18.9-9.7,29.7,6,0,13.6-.9,16.8-6.7a36.58,36.58,0,0,0,1.2-29,9.18,9.18,0,0,0-8.3,6Zm229.8,0A60.44,60.44,0,0,1,711.1,976c11.3,0,22.6-.2,33.9,0-8.6-7.6-4.6-19.4-8.1-28.8-4.4.2-9.1.2-13.6.2Zm-453.6,7.1c1.6,6.7,2.1,14.3,6.9,19.6,3,1.9,6.7,2.1,9.9,3.2,9.4-.7,19.1.9,28.6-1.4,3.5-6.9,12.2-14.5,7.1-22.6-6-8.3-18.2-6.5-26.3-2.1-8-4.3-21.8-8-26.2,3.3Zm278.1,4.4c6,6.7,14.3,10.6,19.8,18,6.5-9.4,24.2-14.1,18.9-28.3-6.5-.5-13.1-.9-18.7,2.5-6-1.6-11.8-4.6-18.2-3.9-6,.6-4.9,8.5-1.8,11.7Zm72.6-11.5c-2.8,10.4-6.2,20.5-12.7,29.3h27.6c-7.1-8.6-11.5-19-14.9-29.3Zm51.4,6a117.16,117.16,0,0,0-15.5-2.8c-1.4,5.7-1.2,12.2,2.8,16.8,4.2,5.5,11.3,7.4,17.8,9.4,5.7-4.4,12-8.8,15-15.7,1.8-3.7,3-9.2-.9-12-6.9-2.9-12.8,3.6-19.2,4.3ZM-103,951.9c-.9,8.1-1.8,16.1-3,24.3h9.7c-2.2-8.3-3.1-16.8-6.7-24.3Zm35.3,4.6c0,7.6,2.3,15.9,9.2,19.8,9.2.2,18.4-.5,27.6,0,6.9-4.4,15-10.6,14.3-19.6-1.6-5.1-7.6-5.7-12-4.8-13.2,2.9-27.7-3.8-39.1,4.6ZM57.6,971.8c8.1,6.7,19.6,5.1,29.3,3.2-2.5-7.1-5.1-14.3-9.5-20.5-5.3-4.2-12.4-3.9-18.7-2.8-9.2,2.9-6.2,14.8-1.1,20.1Zm120.6-19.6c1.4,8.8,1.8,18.7,8.8,25.1,3.7-2.8,7.4-5.5,11.3-8.3,1.2-5.3,3-13.4-3.2-16.1-5.9-1.4-11.7-.7-16.9-.7Zm49.5,24.6c5.7.2,11.3,0,17.1,0-4.2-6.9-6.5-14.8-8.3-22.6-2.6,7.9-6.1,15.1-8.8,22.6Zm-217.3-.7a77.2,77.2,0,0,1,15.2,0,119.76,119.76,0,0,1-6.5-15.2c-2.8,5.4-5.8,10.4-8.7,15.2Zm101.2-14.9c-.7,9.7-2.8,22.6,7.1,28.3,3.7-2.5,7.4-5.3,10.8-8.1-2.1-9.1-8.5-17.4-17.9-20.2Zm237.7,14.7a88.39,88.39,0,0,1,13.6.5L356,961.2a140.23,140.23,0,0,0-6.7,14.7Zm-208.5-5.7c3.2,0,4.8-6,1.2-6.5-3.6,0-5.4,6-1.3,6.4Zm7.8-6c-1.2,3.5.2,4.6,4.1,3.7,1-3.5-.3-4.6-4.3-3.7Zm269.9,1.2c1.2,1.6,2.3,3,3.7,4.6,3.5-3.9,7.8-3.2,12-.5-.2-1.2-.9-3.5-1.2-4.6-5-.5-9.9-.9-14.7.4Zm-22.1,3c-.9,3.5,5.3,6.5,6.7,2.5.5-3.5-5.7-6.7-6.9-2.6Zm118-1.9c-1.4,3.5-5.5,10.8.2,12.2,4.2-2.1,8.3-1.6,12.7-.9-3.6-4.6-6.9-10.2-13.1-11.3Zm-46.7,10.6c-9.9,2.1-14.3,18.4-3.5,22.4,8.3-1.4,10.4-12.5,10.1-19.6C475.3,975.3,470.3,976,467.7,977.1Zm-324.2,2.8c-5.7,11.5-15.4,23.1-30,21.9-2.3,3.2-5.5,6.2-5.5,10.4-1.4,14.5-4.8,29-11.8,42.2,15.2-.5,30.6,0,45.4,4.8,25.8,7.6,47,26.7,59,50.5,2.1.2,6.2.7,8.3.7,10.6-5.3,19.1-16.6,16.4-28.8-3-11.1-6.2-22.4-13.6-31.3-3.2-4.4-9-4.4-13.8-5.5.2-6.4,4.4-12.2,3.9-18.7-5.5-12.9-13.4-25.1-21.4-36.6-9.3-9.6-24.3-10.3-36.9-9.6Zm242,6.7c-14.1,16.1-21,38.3-19.6,59.7a53.06,53.06,0,0,0-22.1,37.6c-1.2,8.6,5.7,17.5,14.5,17.1,14.5-2.8,24.6-15.2,31.1-27.7,4.4-9.4,12.9-16.6,22.6-20.5,14.3-5.7,30.7-8.3,45.4-2.8,18.2,5.3,32,20.5,37.1,38.5a15.26,15.26,0,0,0-.7-20.7c-13.8-14.3-24.2-32.3-27.1-51.9-4.6-3.5-10.6-5.3-14.3-10.1-4.8-4.8-5.5-12-7.6-18a67.17,67.17,0,0,0-59.3-1.2Zm-534.7,3.2v6.9H95.1v-6.9Zm345,0c2.8,2.5,3.9,7.8,8.3,7.8,52.1.2,103.9,0,156,0,2.3-2.8,4.4-5.3,6.7-8.1-57.2.5-114.1.1-171,.3Zm290.4,0c-.7,1.8-2.3,5.7-3.2,7.8,96.8,0,193.8.5,290.6-.2,0-1.8-.2-5.7-.2-7.6Zm3.7,56.9a65.79,65.79,0,0,0,23.1,22.6c10.1.2,13.6-12,17.1-19.6,3.9-9.2,13.8-12.9,23-15.2-2.1,4.6-3.5,9.7-2.3,14.5,2.5,13.8,10.6,25.3,16.1,38,3,8.8.5,18.2-3.2,26.5h88.5c.2-35.5,0-70.8,0-106.2H479.8c-2.6,13.8,3.4,27.4,10.1,39.4ZM662,1007.3c0,35.3.2,70.3,0,105.6,32.7.5,65.2.2,97.9,0-.2-35.3,0-70.3,0-105.6Zm-793.2,2.3v104.9H-29.1c-.2-35,0-70.1-.2-104.9Zm112.9,1v104.2H10.3c-4.4-9.7-6.4-20.7-4.1-31.4,2.1-17.1,15.9-30.2,15.7-47.9,16.8,5.1,27,20.7,36.9,33.9,24.9-7.6,38.5-33.9,38.7-58.8-38.6-.4-77.4.1-115.8,0Zm224.9.2a50.19,50.19,0,0,0,4.8,12.9c-3.2,15,11.3,23.7,16.8,35.7,9.7,15.9,10.8,38.6-2.8,52.5,40.3-.2,80.9,0,121.2,0-7.6-7.6-15.5-16.8-13.6-28.3.2-17.1,16.6-26.5,21.9-41.4,2.1-10.4,1.4-21.2,3-31.6-50.2.1-100.9-.3-151.3.2ZM29.7,1056.9c-5.1,10.1-11.8,20.3-13.1,31.8a31.55,31.55,0,0,0,9.7,25.8c16.1-.2,32-.2,48.2,0-14.5-13.8-25.1-31.1-33.2-49.3-2.5-3.8-6.6-10.4-11.6-8.3Zm500.3,12c-9,16.4-23.7,30.2-41.9,35.3-3.2,3.2-6.5,6.2-9.7,9.2,22.9-.5,45.9.5,68.7-.5,9-5.1,13.1-17.5,8.6-27-4.6-10.1-10.1-19.8-15-30-4.3,4.2-8.2,8.1-10.7,13Zm-125.6,3.4c-8.6,8.3-9.2,24.2.2,32.3,10.8,8.8,25.6,9,38.7,8.8-3-2.8-6-5.7-8.8-8.8,2.1-2.3,4.4-4.6,6.5-6.7,8.8,6,19.8,6.9,30,5.1,6.2-1.8,8.6-8.3,11.5-13.4-10.4-.5-21.2-.2-31.1-3.9-4.2-3.2.7-7.4,3.2-9.5,2.5.5,7.4,1.4,9.9,1.8-1.2-10.1-11.5-15-20.5-15.9-13.9-1.8-29.7-.7-39.6,10.2Zm-316.9-5.7c-4.6,5.5-11.3,8.8-16.6,13.6-3.7,3.2-2.1,8.6,1.6,10.8,2.5-12.2,14.7-17.5,25.8-19.6,5.1,4.6,5.5,11.5,6.2,18-8.3.9-17.3,1.6-23.3,8.1,3.7,4.1,6.9,9,11.8,12,7.1,1.4,16.1,1.8,21.7-3.7,3-3.2,3-9.9,8.1-9.9,3.9,1.4,5.5,5.5,7.6,8.8,6.7,4.2,14.5,5.7,22.4,6.2a47.77,47.77,0,0,0,16.8-10.9c-16-28.2-51.3-40.4-82.1-33.4Zm450.6,137.6c-82.7,14.5-167.1,22.6-251,20-100-.9-200-14.3-297.3-37.8-86.4-21.4-171.5-49.6-251-89.4-32.7,48.4-65.9,96.3-98.6,144.7-2.3,2.8,3,3.9,4.4,5.3,44.3,24.4,90.8,44.5,138,62.5,96.8,36.4,197.3,62.7,299.1,80.4,42.6,8.1,86,12.7,129.3,15.4,108.3,6.7,217.6,3.5,324.7-14.1,60.2-10.6,118.9-27.1,177-46.1a2437.22,2437.22,0,0,0,269.2-108.5c-33.7-50.8-66.9-101.7-100.3-152.6-106,60.6-223.8,98.4-343.6,120.1Zm-699-77.9c40.8,13.8,81.6,27,123.1,37.8,14.5,3.2,28.6,9.2,43.6,8.3H593.5c9.5,0,18.9.9,27.9-1.8,46.6-11.8,93.3-24.4,137.1-44.5-9.7-.7-19.6-.2-29.3-.5H-61.2c-33.1.4-66.6-1-99.7.7Zm221.5,58.6c24.3,5.5,49.1,10.4,74,9.9H494.4a391.49,391.49,0,0,0,62.7-9.9c-7.8-.7-15.7-.5-23.5-.5H169.3c-36.2.3-72.4-.6-108.8.3Zm138.5,20.9c32,5.7,64.8,3.5,97,3.9,28.6-.2,56.9,1.1,85.5-2.1,6.7-1.1,14.1.7,20-2.8-67.6,1.7-135.1-.3-202.6.8Z" transform="translate(376.47 235.67)"/></g><path id="path362" class="cls-8" d="M211.2,10.3c4.4-6.9,11.5-13.4,20.3-12,10.6,1.4,23.5-.9,31.4,8.1,6.5,5.3,5.7,14.5,6.7,22.1.7,12.2,3.2,24.4,3,36.9-1.6,9-14.3,5.7-17.8-.2-4.2-5.5,1.4-10.8,3.2-15.9.9-6.5.2-12.9-.2-19.4-7.1-1.8-14.5-.5-21.7.5-4.6.5-7.1-5.1-11.8-4.6-2.5,1.2-5.1,2.5-7.6,3.9-3.7-4.2-.2-9.9,3.7-12.2,7.8-4.6,17.3-2.8,26-4.4l2.8-2.8c-6.5-2.5-13.6-3-20.5-2.8C223,8.2,217.4,11.5,211.2,10.3Z" transform="translate(376.47 235.67)"/><path id="path364" class="cls-8" d="M154.3,30.8c1.4-.7,4.4-2.3,6-3,2.8,6.2,7.1,11.5,11.5,16.6-1.4,3.7-2.5,7.4-3.7,11.1a53.14,53.14,0,0,1-5.5,2.3C152.2,53.1,154.1,40,154.3,30.8Z" transform="translate(376.47 235.67)"/><path id="path366" class="cls-8" d="M284,59.6c2.5.2,5.3.2,7.8.5,1.6,5.7-2.8,9.4-8.3,8.3A83.34,83.34,0,0,0,284,59.6Z" transform="translate(376.47 235.67)"/><path id="path368" class="cls-8" d="M243.5,92.6c17.5-9,38-5.1,56.9-4.8-.2,1.6-.5,4.4-.7,6-10.4,2.3-21,1.6-31.3,3.7a36,36,0,0,0-19.1,3.2A17.41,17.41,0,0,1,243.5,92.6Z" transform="translate(376.47 235.67)"/><path id="path370" class="cls-8" d="M261.7,103.4c8.3-.2,16.8-.7,25.1-.7a53.63,53.63,0,0,1,3.9,4.2C281.7,111.9,267.7,113.6,261.7,103.4Z" transform="translate(376.47 235.67)"/><path id="path372" class="cls-8" d="M179.4,195.4c4.8-4.8,12.7-2.1,17.5,1.4,4.4,6.5,1.4,17.5-6.7,19.1-5.5.5-12.5-1.8-14.5-7.6A17.6,17.6,0,0,1,179.4,195.4Z" transform="translate(376.47 235.67)"/><path id="path374" class="cls-8" d="M208,205.3c6-2.8,15.4-2.1,18,5.3,3.2,5.1.5,10.8-.9,15.9-5.3,3.5-12.7,6.5-18,1.6C199.7,222.8,199.9,209.9,208,205.3Z" transform="translate(376.47 235.67)"/><path id="path376" class="cls-8" d="M115.3,619.7c5.7-2.3,11.1,2.1,15.7,4.8,22.4,15.2,35.5,41,39.9,67.3,3,17.5,5.7,35.3,4.2,53.2-.7,1.6-2.3,4.8-3,6.2-8.3-2.5-5.5-11.3-6-18C165.1,691.1,148.1,647.8,115.3,619.7Z" transform="translate(376.47 235.67)"/><path id="path378" class="cls-8" d="M71.6,619c3.2.5,6.7.7,9.9,1.2a68,68,0,0,1,13.1,19.6c-3.2,1.8-7.1,4.8-10.6,2.1C78.9,634.6,73.2,627.7,71.6,619Z" transform="translate(376.47 235.67)"/><path id="path380" class="cls-8" d="M400.4,644.5c3.2-4.8,6.2-11.3,13.4-9.9-21.2,40.1-23.3,86.9-21.9,131.4-9.9-18.4-7.4-40.3-7.4-60.4A117,117,0,0,1,400.4,644.5Z" transform="translate(376.47 235.67)"/><path id="path382" class="cls-8" d="M125.3,671.3c4.8-3.2,8.6,4.4,9.9,8.3.7,6.5,4.6,16.1-3,19.8-4.8-.2-5.3-6-5.7-9.5C125.9,683.7,123.4,677.2,125.3,671.3Z" transform="translate(376.47 235.67)"/><path id="path384" class="cls-8" d="M184.7,677.7a32.12,32.12,0,0,1,9.9,26c0,3.9-3.2,7.6-7.1,5.3-3.2-7.6-3-16.1-5.1-24C182.9,683.3,184.2,679.3,184.7,677.7Z" transform="translate(376.47 235.67)"/><path id="path386" class="cls-8" d="M244.4,708.8c.9-.7,2.8-2.3,3.7-3a275.48,275.48,0,0,1,1.4,64.8c-1.6,24.4-4.6,49.1-14.8,71.7a66.5,66.5,0,0,1-16.4,22.9c1.8-9.5,6.5-18.2,9.2-27.4,7.8-24.6,11.8-50.5,13.6-76.3C242.2,743.9,242.6,726.1,244.4,708.8Z" transform="translate(376.47 235.67)"/><path id="path388" class="cls-8" d="M225.7,719.7c-.9-3.7,2.3-5.3,4.6-7.4,3.2,36.9,1.4,75.6-14.3,109.5-6.2,12-13.4,24.7-25.1,31.8.9-2.5,2.1-5.3,3.2-7.8C217.4,808.4,227.1,763.5,225.7,719.7Z" transform="translate(376.47 235.67)"/><path id="path390" class="cls-8" d="M179,719.7c-.9-3.2,2.5-3.7,4.6-4.6a72.39,72.39,0,0,1,2.8,27c2.5.7,5.1,1.2,7.6,1.9a58.89,58.89,0,0,1-11.8,41.7c-1.8,3.5-5.7,4.6-9.5,5.5-4.8-8.6,3-15.2,7.1-21.7,3.7-7.8,4.2-17.3-1.8-24.3C178,736.7,179.2,728.2,179,719.7Z" transform="translate(376.47 235.67)"/><path id="path392" class="cls-8" d="M273.9,789.7c.7-25.3.5-50.9,3.5-76l2.8-.2c1,1.3,2.1,2.5,3.2,3.7,0,24.2-.2,48.4-2.1,72.6A36.61,36.61,0,0,1,273.9,789.7Z" transform="translate(376.47 235.67)"/><path id="path394" class="cls-8" d="M351.8,779.6c6.5.9,9.9,6.7,15.2,9.9a83.16,83.16,0,0,0,39.2,13.4c-.9,4.1-1.8,8.1-3,12.2-10.1.7-21,.9-30.4-3.7C360.3,806.1,350.4,793.4,351.8,779.6Z" transform="translate(376.47 235.67)"/><text class="cls-9" transform="translate(654.57 1100.02)">L</text><text class="cls-10" transform="translate(654.57 1100.02)">L</text><text class="cls-9" transform="translate(654.57 1100.02)">L</text><text class="cls-11" transform="translate(654.57 1100.02)">L</text><path id="path398" class="cls-8" d="M167.4,890.4c7.4-3.7,15.4-5.1,22.9-8.1,2.1,2.8,4.4,5.7,3.5,9.2-6,7.6-16.8,10.6-26,8.8C163.3,898.7,163.5,892.7,167.4,890.4Z" transform="translate(376.47 235.67)"/><path id="path400" class="cls-8" d="M200.6,909.3c9.7-3.7,15-12.9,23-18.7,2.5,9.2-4.6,16.8-11.1,22.1-8.3,6.5-18.7,11.5-29.3,10.1a9.61,9.61,0,0,1-3.7-7.8C186.1,911.6,194.2,913.3,200.6,909.3Z" transform="translate(376.47 235.67)"/><path id="path402" class="cls-8" d="M122.2,984.5c-8.6-.9-10.4-12.2-4.8-17.3A17.19,17.19,0,0,1,122.2,984.5Z" transform="translate(376.47 235.67)"/><path id="path404" class="cls-8" d="M463.8,981.4l6.7-.7c1.8,6-1.6,11.1-5.7,15.2C459.7,991.8,461.7,986.3,463.8,981.4Z" transform="translate(376.47 235.67)"/><path id="path406" class="cls-8" d="M844.5,1171.8c2.1-7.6,4.1-15,6.2-22.6,11.1,1.1,19.8,9,24.9,18.4,7.1,13.6,14.8,26.7,22.4,40.1,5.3,8.6,2.8,20-3.9,27.1-6.5,7.8-18,6.2-26.7,4.8-17.3-3-31.1-15.9-37.8-31.6-5.1-7.8,2.5-15.7,5.7-22.6,6,21,24.4,37.8,46.6,40.1.7-1.4,2.1-4.4,2.8-6-8.1-13.8-15.5-28.1-23.7-41.7C857.9,1172.1,850.6,1171.6,844.5,1171.8Z" transform="translate(376.47 235.67)"/><g id="g410"><path id="path408" class="cls-8" d="M-254.1,1167c5.1-2.1,9.7-6.2,15-6.7,6.2,4.6,11.3,12.2,8.6,20.3-4.4,11.8-11.1,22.4-15.7,33.9,6.9,6.9,11.5,15.5,15.2,24.7,9.5-15,15.7-31.8,24-47.2,7.6-1.6,15.2-3.5,22.9-5.3-12.5,24.7-24,49.8-36.6,74.3-7.4,2.8-15.2,3.5-22.9,5.7,3-14.1.5-29-8.8-40.3-2.5,5.1-4.6,10.6-7.8,15.5-7.1,2.8-15,3.7-22.4,5.3,3-12.5,4.6-25.1,0-37.3a38.8,38.8,0,0,1,20.3-4.8c4.4-9,9.2-17.8,13.1-27C-246.3,1173.2-251.6,1170.2-254.1,1167Zm-18.2,41.3c1.2,3.9,2.3,7.6,3.5,11.5,1.2-2.8,2.5-5.5,3.9-8.3A68.83,68.83,0,0,0-272.3,1208.3Z" transform="translate(376.47 235.67)"/></g><path id="path412" class="cls-8" d="M772.4,1196.7c11.1-6,21.4-13.1,32.7-18.7a57.76,57.76,0,0,1-.9,17.6c-7.6,4.4-15.2,8.5-22.9,12.5.7,2.5-2.3,9.4,1.6,8.8,3.7-3.5,6.9-7.6,11.8-9.5,9.7-5.3,22.1,1.2,26.7,10.6,4.6,9.2,9.2,18.4,13.4,27.9,3.5,7.8-.7,17.1-6.9,22.4l-2.5-.7c-6.9-13.6-12.7-27.4-19.8-40.8-1.8-4.6-7.4-2.1-10.8-2.3,2.5,6,6.9,11.3,9.5,17.3,1.6,14.1.5,29-7.6,41.2-12.2,0-26.3-3-32.9-14.1-7.8-11.8-4.4-26.3-6.5-39.4-2.8-4.6-8.3-5.7-13.1-6.4,2.3-6,4.4-12,6.2-18,5.7-.2,12,2.3,13.8,8.1,3.9,11.1-1.4,23.7,4.8,34.3,4.8,11.1,17.5,15,28.8,15a181.83,181.83,0,0,0-19.1-24.4C768.3,1226.7,767.3,1210.1,772.4,1196.7Z" transform="translate(376.47 235.67)"/><path id="path414" class="cls-8" d="M-183.1,1203.6c6-2.5,12-5.3,18.2-7.6,2.5,4.4,5.5,9.4,3,14.5-4.6,10.6-17.1,15-21.4,25.8-6.2,11.1-1.1,24.9,7.8,32.7,6-16.6.7-36.9,13.8-50.5,6-5.7,14.5-14.1,23.5-9.7,9.7,3,19.4,6,29.3,8.8-4.2,4.2-8.1,10.6-14.5,11.1-8.1-1.8-15.7-4.8-23.5-7.6-2.5,2.3-5.1,4.8-7.6,7.1,10.2-.7,23.3,1.4,27.4,12.2,5.5,14.1-5.1,27.1-8.8,40.3-2.5,11.3-14.8,17.5-25.4,14.5,6.5-15.2,12-30.9,18.7-46.1a25.07,25.07,0,0,0-7.8-6.7c-2.1,6.5-2.5,13.8-6.2,19.6a67.26,67.26,0,0,1-33.6,21.4c-9.2-8.8-16.6-21.7-12.7-34.6,3.2-12.9,15.4-20.3,23.5-30.2C-176.7,1213.6-180.8,1208-183.1,1203.6Z" transform="translate(376.47 235.67)"/><path id="path416" class="cls-8" d="M-63.3,1217.5c11.3-8.6,24-17.3,38.7-17.3,15.2,2.1,25.8,14.8,34.3,26.5-4.8,3.5-9.7,7.1-14.3,11.1-5.1-18.7-24.9-32.7-44.3-30.2-.7,6.2,4.4,10.8,8.8,14.3,4.8,4.1,10.6,0,15.4-1.8-6.2,4.4-12.5,10.4-20.5,9.7C-52.4,1228.3-58,1222.8-63.3,1217.5Z" transform="translate(376.47 235.67)"/><g id="g420"><path id="path418" class="cls-8" d="M591.7,1213.6a20.28,20.28,0,0,1,24-1.2c-5.7,10.6-7.6,28.3-22.4,29.5-5.3.7-16.1-4.2-11.8-10.8C584.8,1225.3,587.6,1218.9,591.7,1213.6Zm-5.3,13.1c5.5,6.9,21.9,6.5,21-4.6-5.3-7.2-16.8-1.6-21,4.6Z" transform="translate(376.47 235.67)"/></g><path id="path422" class="cls-8" d="M716.2,1226.5c4.2-6.5,8.1-12.9,12.7-19.1,8.1,23.7,16.1,47.5,24.4,71.2,1.2,6,7.8,5.5,12.5,5.3-2.8,5.5-4.8,11.8-8.6,16.8-6.9-.2-16.6-1.8-18.7-9.9C730.9,1269.6,723.5,1248.1,716.2,1226.5Z" transform="translate(376.47 235.67)"/><path id="path424" class="cls-8" d="M683.9,1238c4.2-6.4,8.1-13.1,12.7-19.1,8.1,23.7,16.1,47.7,24.6,71.4,1.2,5.7,7.8,5.1,12.2,5.1-2.5,5.3-5.1,10.6-7.4,16.1-7.4.5-17.3-1.1-20-9.2Q694.9,1270.05,683.9,1238Z" transform="translate(376.47 235.67)"/><path id="path426" class="cls-8" d="M-112.6,1235.4c5.7-4.4,11.5-8.3,17.1-12.7,12,3.2,23.7,6.7,35.7,10.1-7.8,26.5-15.2,53-23.1,79.5-7.1,3-14.3,6-21.4,8.8,7.4-25.6,14.5-51.2,22.1-76.7C-92.3,1241.2-102.7,1238.9-112.6,1235.4Z" transform="translate(376.47 235.67)"/><path id="path428" class="cls-8" d="M636.6,1239.8c11.8-3.7,23.7-6.9,35.5-10.1,7.4,26.7,15.2,53,22.6,79.7-4.4,6.2-8.8,12.7-13.6,18.7-7.1-25.8-14.3-51.4-22.1-77-10.1,3.5-20.7,6-30.9,9.5C631.2,1253.4,633.9,1246.7,636.6,1239.8Z" transform="translate(376.47 235.67)"/><path id="path430" class="cls-8" d="M-56.1,1248.6c4.8-4.8,9.9-9,15-13.4,12.2,3.7,24.7,6.2,37.1,9.4-6.7,26.5-13.4,52.8-19.8,79.3-8.6,3-16.6,8.3-25.6,9.9-8.3-3.5-13.4-11.3-15.2-19.6,4.8-3,9.7-5.7,14.5-9-1.2,6.9.7,15,8.3,16.6,5.3-21.4,10.1-42.8,16.1-64.1-9.7-3.5-19.8-5.1-29.7-7.8A8.26,8.26,0,0,0-56.1,1248.6Z" transform="translate(376.47 235.67)"/><path id="path432" class="cls-8" d="M234.5,1241.7c2.1,5.3,4.6,11.8,11.1,12.9,13.6.9,27.1,0,40.6.2-3,5.1-5.7,9.9-8.8,15-15-.2-30,.7-44.7-.5-9-.9-10.8-11.1-9.2-18.2C227.1,1248.1,231,1244.9,234.5,1241.7Z" transform="translate(376.47 235.67)"/><path id="path434" class="cls-8" d="M585.9,1252.8c13.1-2.5,25.8-6,38.9-7.6,5.3,27,11.3,53.7,17.1,80.4-4.8,6-9.9,12-14.7,18.2-5.5-26.3-11.1-52.8-16.8-79-13.8,3.2-27.9,5.5-41.4,9.5a50.29,50.29,0,0,0,12.9,17.8c3.2-8.1,5.1-17.8,13.4-22.6a55.87,55.87,0,0,1,13.6,5.1c-3.9,5.7-7.6,11.3-11.3,17.3-2.3-1.6-4.6-3-6.7-4.6a77,77,0,0,0-8.1,6c5.7,6.9,12.7,14.1,14.3,23.3,2.1,13.1-2.3,26.3-9.9,37.1-.9-6.5,3.7-12.7.9-18.7-4.8-15-21.2-22.4-25.8-37.3-3.2-13.6,2.3-27.7,9.9-38.5C575.1,1253.9,581.3,1254.1,585.9,1252.8Z" transform="translate(376.47 235.67)"/><path id="path436" class="cls-8" d="M1.3,1264.9c4.2-5.1,8.3-9.9,12.9-14.5,3.7,4.6,9.2,9,9,15.4.5,7.8-7.4,12.4-10.1,19.1-6.7,16.6-2.5,35.3,7.1,49.8,3.9.7,3.9-4.4,5.1-6.9,4.4-14.3-4.8-29.3.7-43.3,4.1-10.8,10.8-21.9,21.2-27.4,9.9.2,19.6,3,29.5,4.1-3.9,27.1-8.1,54.4-12.2,81.8-6.2,3.7-12.7,7.6-19.1,11.1,4.2-26.3,7.8-52.8,12.2-79.3-6.7-.9-13.4-2.1-20.3-3,.7,12,3.5,23.7,3.2,35.7-.9,18.2-14.3,33.6-30.2,41.2-9.4-10.8-17.5-24.2-15.9-39.2-.2-13.8,16.6-20.7,15.7-34.8C10.5,1269.3,4.7,1267.5,1.3,1264.9Z" transform="translate(376.47 235.67)"/><path id="path438" class="cls-8" d="M532.9,1274.6c5.3-6,10.8-11.7,16.6-17.3,2.5,27.4,6.5,54.9,9.9,82.3-5.5,5.5-10.8,11.3-16.6,16.6-3.5-6-6.5-12.5-11.1-17.5-4.8-5.3-11.8-8.3-18.2-10.8.7,5.7,1.6,11.5,2.5,17.3-5.5,5.7-10.8,11.3-16.6,16.8-2.5-7.1-5.1-14.3-9.5-20.5-3.5-4.8-8.8-8.3-11.3-13.8,2.5.9,5.1,2.1,7.6,3,1.6,1.4,3.5,3,5.1,4.4-.2-2.5-.7-5.1-.9-7.4-2.8-.9-5.5-2.1-8.3-3.2,3.7-3.2,7.6-6.2,11.3-9.2-1.4-10.1-2.1-20.5-3.9-30.6-1.2-4.4-6.2-3.5-9.5-4.6,2.3-4.8,4.8-9.7,7.4-14.5,7.1,1.4,16.6,2.8,18.9,11.1,3.2,12.5,3.2,25.6,5.5,38.3a78,78,0,0,1,27.4,13.1C537.3,1309.9,535.5,1292.4,532.9,1274.6Z" transform="translate(376.47 235.67)"/><path id="path440" class="cls-8" d="M78.2,1293.5c4.6-12.7,15.2-22.4,26.5-29,5.3,2.3,9.2,6.5,12.9,10.8-4.4,3.5-7.8,9-13.1,10.8-1.6-6.2-12-12.4-15.2-4.4.9,12.2,14.5,23.7,26.7,17.3-9.4,6.5-21,12.4-24.2,24.4,4.4,13.1,16.4,21.4,28.3,26.7,2.5-22.9,5.3-45.9,7.1-68.9,6.5-4.8,13.1-9,20-13.4-3,24.7-5.3,49.3-7.8,74.3-9.2,7.6-20.3,13.1-30.4,19.6-8.6-.7-15.9-6-22.6-11.1-7.1-5.5-12.9-14.5-10.4-23.7,2.8-7.8,10.6-12,17.7-15.4C85.6,1309.2,76.9,1303.2,78.2,1293.5Z" transform="translate(376.47 235.67)"/><path id="path442" class="cls-8" d="M431.8,1275.1c11.8-1.4,23.3-2.5,35-3.7,2.5,27.4,5.7,54.9,8.6,82.3-5.5,5.5-10.8,11.1-16.6,16.1-2.5-26.5-5.7-53-8.1-79.5-10.6,1.6-21.4,2.3-32,3.5C423.2,1287.8,425.8,1279.5,431.8,1275.1Z" transform="translate(376.47 235.67)"/><path id="path444" class="cls-8" d="M165.6,1275.6c12.4.5,24.9,1.1,37.1,2.3-1.8,26.5-3.9,53.2-5.5,79.7.2,3-2.8,4.1-4.6,5.7-4.8,3.5-9.9,6.7-14.8,10.4,2.5-26.5,3.5-53.2,6-79.7-10.8-1.6-21.7-1.8-32.5-2.5C156.1,1286.4,161,1281.1,165.6,1275.6Z" transform="translate(376.47 235.67)"/><path id="path446" class="cls-8" d="M368.9,1279.2c17.5-.5,34.8-2.5,52.3-3.2-3.7,6.2-6.5,13.1-11.8,18.2a141.07,141.07,0,0,1-14.5.9c10.4,11.5,19.4,26,18,42.4.2,15.7-9.7,30-22.6,38.2-8.3,1.4-15.2-5.1-20.8-10.6,2.3-6.5,7.4-11.3,11.3-16.8,2.5,6.9,7.4,15.7,16.4,13.8,8.8-.5,9.9-11.1,8.1-17.7-5.3-22.9-24-44-47.9-47.2C361.5,1291.2,365,1285.2,368.9,1279.2Z" transform="translate(376.47 235.67)"/><g id="g450"><path id="path448" class="cls-8" d="M218.1,1277.8c21.7.5,43.1,1.2,64.8,1.8-1.8,27.7-1.2,55.3-3.5,83-6,5.1-12.9,9-18.9,13.8-11.5-24.3-15.2-52.5-33.9-73.1-4.1,12.9-6,27.9.5,40.6,2.5,6.2,6.9,11.8,13.4,14.3-5.3,5.7-10.8,11.3-16.1,16.8-10.6-11.8-19.1-27.9-15-44.3,2.3-14.5,11.3-26.5,22.4-35.7l-25.1-.7C210.5,1288.9,214.2,1283.4,218.1,1277.8Zm24.5,17.6c7.1,12.2,13.6,24.9,19.8,37.6,1.2-12.2.5-24.4,1.9-36.4-7.3-.3-14.4-.5-21.7-1.2Z" transform="translate(376.47 235.67)"/></g><path id="path452" class="cls-8" d="M311,1279c6.7-4.2,12.2,3.9,16.6,7.8-3.9,4.4-8.1,8.6-12.2,12.7-1.4-6.7-7.6-9.7-13.8-7.8-4.2,5.1,1.4,11.1,4.6,15,5.3,6.5,14.7,7.6,22.1,3.7-8.8,6.9-21.9,13.8-21.9,26.5,4.1,12.9,17.7,19.6,29.5,24.4.9-23.3,1.2-46.6,2.5-69.8,6.2-4.8,12.4-9.4,18.7-14.1-1.4,25.1-1.8,50.5-2.5,75.6-9.2,6.2-18,13.1-27.1,19.4-3.5,2.8-7.8,0-11.5-.9-10.4-4.4-22.1-10.8-25.3-22.6-3-11.5,7.6-20.3,17.1-24-8.6-1.8-18.7-7.6-17.1-17.7C292.8,1295.6,301.8,1286.4,311,1279Z" transform="translate(376.47 235.67)"/></g></svg>